<svg width="96" height="96" viewBox="0 0 96 96" fill="none" xmlns="http://www.w3.org/2000/svg">
<rect width="96" height="96" rx="48" fill="#F1F6FF"/>
<g clip-path="url(#clip0_731_2289)">
<path d="M41.1935 64.5809H37.5226C37.1145 64.5813 36.7232 64.7437 36.4346 65.0323C36.146 65.3209 35.9836 65.7122 35.9831 66.1204V68.2676C35.9836 68.6758 36.1459 69.0671 36.4345 69.3558C36.7231 69.6444 37.1145 69.8068 37.5226 69.8072H41.1935C41.6017 69.8068 41.9931 69.6444 42.2817 69.3558C42.5703 69.0671 42.7327 68.6758 42.7331 68.2676V66.1204C42.7326 65.7122 42.5703 65.3209 42.2816 65.0323C41.993 64.7437 41.6017 64.5813 41.1935 64.5809ZM40.731 67.8059H37.985V66.5834H40.7311L40.731 67.8059ZM58.4778 50.9887H54.8069C54.3991 50.9887 54.008 51.1505 53.7194 51.4385C53.4308 51.7265 53.2682 52.1172 53.2673 52.525V54.675C53.2678 55.0832 53.4301 55.4745 53.7188 55.7631C54.0074 56.0517 54.3987 56.214 54.8069 56.2145H58.4778C58.8855 56.2136 59.2761 56.051 59.5641 55.7623C59.8521 55.4737 60.0138 55.0827 60.0138 54.675V52.525C60.0134 52.1177 59.8515 51.7272 59.5635 51.4392C59.2756 51.1511 58.8851 50.9891 58.4778 50.9887ZM58.0118 54.2137H55.2693V52.9911H58.0118V54.2137ZM39.4324 48.9837H56.5644C57.2661 48.9834 57.939 48.7047 58.4356 48.2089C58.9321 47.713 59.2117 47.0405 59.213 46.3387V36.35C59.2122 35.6478 58.9329 34.9745 58.4364 34.478C57.9398 33.9815 57.2666 33.7022 56.5644 33.7014H39.4324C38.7302 33.7022 38.057 33.9815 37.5605 34.478C37.0639 34.9746 36.7847 35.6478 36.7839 36.35V46.3386C36.7853 47.0402 37.0649 47.7127 37.5614 48.2084C38.0579 48.7042 38.7308 48.9833 39.4324 48.9837ZM38.7859 36.35C38.7881 36.1792 38.857 36.0161 38.9777 35.8953C39.0985 35.7745 39.2616 35.7056 39.4324 35.7034H56.5644C56.7358 35.7035 56.9002 35.7717 57.0214 35.8929C57.1427 36.0142 57.2109 36.1785 57.211 36.35V46.3386C57.2083 46.5089 57.1392 46.6715 57.0184 46.7916C56.8977 46.9118 56.7347 46.98 56.5644 46.9817H39.4324C39.2621 46.9799 39.0992 46.9117 38.9784 46.7916C38.8577 46.6715 38.7886 46.5089 38.7859 46.3386V36.35ZM49.8359 50.9891H46.1648C45.7571 50.9891 45.366 51.1508 45.0773 51.4387C44.7887 51.7266 44.626 52.1173 44.625 52.525V54.675C44.6255 55.0832 44.7879 55.4745 45.0765 55.7631C45.3652 56.0517 45.7565 56.214 46.1646 56.2145H49.8355C50.2432 56.2136 50.6339 56.051 50.9219 55.7624C51.2099 55.4738 51.3716 55.0827 51.3716 54.675V52.525C51.3713 52.1177 51.2094 51.7272 50.9214 51.4392C50.6334 51.1511 50.2432 50.9895 49.8359 50.9891ZM49.37 54.2141H46.6271V52.9915H49.3698L49.37 54.2141ZM63.904 29.1067C63.2436 28.411 62.4489 27.8565 61.568 27.4768C60.6871 27.0972 59.7383 26.9002 58.779 26.8979H57.5655V17C57.5655 16.7345 57.4601 16.4799 57.2723 16.2922C57.0846 16.1045 56.83 15.999 56.5645 15.999H42.0085C41.0608 16.0005 40.1524 16.3778 39.4825 17.0482C38.8126 17.7186 38.4359 18.6273 38.435 19.575V26.8979H37.2215C36.2612 26.9002 35.3114 27.0974 34.4296 27.4777C33.5478 27.8581 32.7525 28.4135 32.0918 29.1104C31.4838 29.7384 31.0117 30.4848 30.7048 31.3032C30.398 32.1216 30.2629 32.9945 30.3081 33.8674L32.459 73.1424C32.5484 74.9492 33.2909 76.662 34.5485 77.9624C35.1752 78.6087 35.9255 79.1224 36.7548 79.4727C37.5841 79.823 38.4755 80.0029 39.3758 80.0015H56.625C57.5249 80.0027 58.4159 79.8228 59.2448 79.4725C60.0737 79.1222 60.8237 78.6087 61.45 77.9625C62.7079 76.6622 63.4499 74.9487 63.5375 73.1416L65.6919 33.8674C65.7364 32.9936 65.6007 32.1201 65.2931 31.3011C64.9855 30.4821 64.5127 29.7352 63.904 29.1067ZM40.4375 19.575C40.4375 19.158 40.6029 18.758 40.8974 18.4627C41.1919 18.1675 41.5915 18.0011 42.0085 18H55.5634V29.9836H40.4375V19.575ZM63.6931 33.7577L61.5389 73.0327C61.3845 75.864 59.2718 78 56.625 78H39.3758C36.7296 78 34.6154 75.864 34.458 73.0324L32.3071 33.7574C32.2781 33.1563 32.3731 32.5557 32.5862 31.993C32.7994 31.4302 33.1261 30.9174 33.5461 30.4865C34.0194 29.987 34.5892 29.5889 35.2209 29.3162C35.8526 29.0435 36.5331 28.902 37.2211 28.9001H38.4346V29.9845H37.586C37.4536 29.983 37.3223 30.0078 37.1995 30.0574C37.0768 30.1071 36.9651 30.1806 36.871 30.2737C36.7768 30.3668 36.7021 30.4776 36.6511 30.5998C36.6001 30.722 36.5738 30.853 36.5738 30.9854C36.5738 31.1178 36.6001 31.2489 36.6511 31.3711C36.7021 31.4933 36.7768 31.6041 36.871 31.6972C36.9651 31.7903 37.0768 31.8638 37.1995 31.9134C37.3223 31.963 37.4536 31.9878 37.586 31.9864H58.4105C58.5429 31.9878 58.6743 31.963 58.797 31.9134C58.9197 31.8638 59.0314 31.7903 59.1256 31.6972C59.2197 31.6041 59.2944 31.4933 59.3454 31.3711C59.3964 31.2489 59.4227 31.1178 59.4227 30.9854C59.4227 30.853 59.3964 30.722 59.3454 30.5998C59.2944 30.4776 59.2197 30.3668 59.1256 30.2737C59.0314 30.1806 58.9197 30.1071 58.797 30.0574C58.6743 30.0078 58.5429 29.983 58.4105 29.9845H57.5654V28.9H58.7789C59.4661 28.9018 60.1458 29.0431 60.7768 29.3152C61.4078 29.5873 61.977 29.9847 62.45 30.4832C62.8708 30.9146 63.1983 31.4279 63.4122 31.9912C63.626 32.5545 63.7217 33.1559 63.6931 33.7577ZM58.4778 64.5809H54.8069C54.3987 64.5813 54.0074 64.7437 53.7188 65.0323C53.4301 65.3209 53.2678 65.7122 53.2673 66.1204V68.2676C53.2677 68.6758 53.4301 69.0671 53.7187 69.3558C54.0074 69.6444 54.3987 69.8068 54.8069 69.8072H58.4778C58.8855 69.8063 59.2762 69.6436 59.5641 69.355C59.8521 69.0664 60.0138 68.6753 60.0138 68.2676V66.1204C60.0138 65.7127 59.8521 65.3216 59.5641 65.033C59.2761 64.7444 58.8855 64.5818 58.4778 64.5809ZM58.0118 67.8059H55.2693V66.5834H58.0118V67.8059ZM49.8356 64.5809H46.1648C45.7566 64.5813 45.3652 64.7436 45.0766 65.0322C44.7879 65.3208 44.6255 65.7122 44.625 66.1204V68.2676C44.6255 68.6758 44.7878 69.0671 45.0765 69.3558C45.3651 69.6444 45.7565 69.8068 46.1646 69.8072H49.8355C50.2432 69.8063 50.6339 69.6436 50.9219 69.355C51.2098 69.0664 51.3715 68.6753 51.3715 68.2676V66.1204C51.3715 65.7127 51.2098 65.3217 50.9219 65.0331C50.634 64.7444 50.2433 64.5818 49.8356 64.5809ZM49.3698 67.8059H46.6271V66.5834H49.3698V67.8059ZM49.8356 57.7854H46.1648C45.7566 57.7858 45.3652 57.9481 45.0765 58.2368C44.7879 58.5254 44.6255 58.9168 44.625 59.325V61.4722C44.6255 61.8804 44.7879 62.2717 45.0765 62.5603C45.3652 62.8489 45.7565 63.0113 46.1646 63.0117H49.8355C50.2432 63.0108 50.6339 62.8482 50.9218 62.5596C51.2098 62.271 51.3715 61.8799 51.3715 61.4722V59.325C51.3717 58.9172 51.2101 58.526 50.9221 58.2373C50.6342 57.9485 50.2434 57.7863 49.8356 57.7854ZM49.3698 61.0104H46.6271V59.7879H49.3698V61.0104ZM41.1935 57.7854H37.5226C37.1145 57.7858 36.7231 57.9482 36.4345 58.2368C36.1459 58.5255 35.9836 58.9168 35.9831 59.325V61.4722C35.9836 61.8804 36.146 62.2717 36.4346 62.5603C36.7232 62.8489 37.1145 63.0113 37.5226 63.0117H41.1935C41.6017 63.0113 41.993 62.8489 42.2816 62.5603C42.5703 62.2717 42.7326 61.8804 42.7331 61.4722V59.325C42.7328 58.9167 42.5705 58.5252 42.2819 58.2365C41.9932 57.9478 41.6018 57.7858 41.1935 57.7854ZM40.731 61.0104H37.985V59.7879H40.7311L40.731 61.0104ZM58.4776 57.7854H54.8069C54.3987 57.7858 54.0074 57.9482 53.7187 58.2368C53.4301 58.5255 53.2677 58.9168 53.2673 59.325V61.4722C53.2678 61.8804 53.4301 62.2717 53.7188 62.5603C54.0074 62.8489 54.3987 63.0113 54.8069 63.0117H58.4778C58.8855 63.0108 59.2761 62.8482 59.5641 62.5596C59.8521 62.271 60.0138 61.8799 60.0138 61.4722V59.325C60.0139 58.9172 59.8523 58.526 59.5643 58.2372C59.2763 57.9485 58.8854 57.7863 58.4776 57.7854ZM58.0116 61.0104H55.2691V59.7879H58.0116V61.0104ZM41.1935 50.9887H37.5226C37.1149 50.9887 36.7238 51.1505 36.4352 51.4385C36.1466 51.7265 35.984 52.1173 35.9831 52.525V54.675C35.9836 55.0831 36.146 55.4745 36.4346 55.7631C36.7232 56.0517 37.1145 56.214 37.5226 56.2145H41.1935C41.6017 56.214 41.993 56.0517 42.2816 55.7631C42.5703 55.4745 42.7326 55.0832 42.7331 54.675V52.525C42.7322 52.1172 42.5696 51.7265 42.281 51.4385C41.9924 51.1505 41.6013 50.9887 41.1935 50.9887ZM40.731 54.2137H37.985V52.9911H40.7311L40.731 54.2137ZM42.5346 25.55C42.5346 25.4185 42.5605 25.2884 42.6108 25.1669C42.6611 25.0455 42.7349 24.9351 42.8278 24.8422C42.9208 24.7492 43.0311 24.6755 43.1526 24.6252C43.274 24.5749 43.4042 24.549 43.5356 24.549H52.4648C52.7302 24.549 52.9849 24.6545 53.1726 24.8422C53.3603 25.0299 53.4658 25.2845 53.4658 25.55C53.4658 25.8155 53.3603 26.0701 53.1726 26.2578C52.9849 26.4455 52.7302 26.551 52.4648 26.551H43.5356C43.2702 26.551 43.0156 26.4455 42.8278 26.2578C42.6401 26.0701 42.5346 25.8155 42.5346 25.55ZM42.5346 21.1315C42.5346 21 42.5605 20.8699 42.6108 20.7484C42.6611 20.627 42.7349 20.5166 42.8278 20.4237C42.9208 20.3307 43.0311 20.257 43.1526 20.2067C43.274 20.1564 43.4042 20.1305 43.5356 20.1305H52.4648C52.7302 20.1305 52.9849 20.236 53.1726 20.4237C53.3603 20.6114 53.4658 20.866 53.4658 21.1315C53.4658 21.397 53.3603 21.6516 53.1726 21.8393C52.9849 22.027 52.7302 22.1325 52.4648 22.1325H43.5356C43.4042 22.1325 43.274 22.1066 43.1525 22.0563C43.031 22.0059 42.9207 21.9322 42.8277 21.8392C42.7347 21.7462 42.661 21.6358 42.6107 21.5143C42.5604 21.3928 42.5346 21.263 42.5346 21.1315Z" fill="#001F5F"/>
</g>
<defs>
<clipPath id="clip0_731_2289">
<rect width="64" height="64" fill="white" transform="translate(16 16)"/>
</clipPath>
</defs>
</svg>