<svg width="15" height="16" viewBox="0 0 15 16" fill="none" xmlns="http://www.w3.org/2000/svg">
<path d="M4.25024 8.49121C4.23636 9.44381 4.23532 9.45549 4.08325 9.87988C3.84663 10.5401 3.24057 10.9329 2.56665 11.0518H1.68384C1.05126 10.9408 0.47084 10.5884 0.188721 9.98535C-0.123663 9.31732 -0.0383368 8.27572 0.372314 7.7373L0.442627 7.64453L0.835205 7.92773C1.24457 8.22314 1.2502 8.22985 1.1897 8.3457C1.05429 8.60521 1.01037 9.11533 1.10181 9.37793C1.40318 10.2427 2.74188 10.3099 3.12622 9.47949L3.20435 9.31152L3.21313 8.48438C3.21792 8.03201 3.2271 7.64557 3.23364 7.62207C3.24273 7.59577 3.37346 7.58691 3.75513 7.58691H4.26294L4.25024 8.49121ZM5.89185 5.29297L6.40552 5.30078L6.41919 7.50293C6.43468 9.93365 6.42425 9.80718 6.61157 9.94043C6.75304 10.0411 6.92688 10.0567 7.80884 10.0488L8.65063 10.041L8.66821 9.52148C8.70407 8.46355 9.0405 7.90244 9.80688 7.62207C9.99915 7.55189 10.779 7.55112 10.9709 7.62109C11.778 7.91639 12.1759 8.53409 12.136 9.43066C12.0984 10.2759 11.5908 10.8941 10.8508 11.0518H10.2874C10.2091 11.0037 10.0914 10.8986 9.8313 10.666L9.71997 10.5674L9.81665 10.4834C9.86969 10.4372 10.0009 10.3232 10.1077 10.2305C10.2918 10.0703 10.3107 10.0612 10.4778 10.0479C10.944 10.0102 11.1686 9.68356 11.0833 9.16895C11.0027 8.68273 10.5477 8.44105 10.0959 8.64453C9.74113 8.80446 9.71936 8.88179 9.70239 10.083L9.68872 11.0518H6.57056C6.36603 11.0244 6.24822 10.9798 6.08813 10.9033C5.7941 10.7627 5.59077 10.5291 5.45825 10.1787L5.39575 10.0127L5.37817 5.28613L5.89185 5.29297ZM14.1868 8.65918L14.179 11.0518H13.1692L13.1614 8.69434C13.1575 7.38359 13.1599 6.29512 13.1672 6.27539C13.1773 6.24909 13.3086 6.24023 13.6877 6.24023H14.1936L14.1868 8.65918ZM2.39868 6.07324C2.42593 6.07244 2.43383 6.25851 2.43384 6.91309C2.43384 7.52464 2.42486 7.75488 2.40161 7.75488C2.33999 7.75148 1.22382 6.938 1.23462 6.9043C1.24892 6.86189 2.34841 6.07706 2.39868 6.07324ZM0.146729 7.36328C0.162093 7.36329 0.18982 7.37302 0.208252 7.38477C0.262425 7.41918 0.204029 7.48611 0.142822 7.45996C0.0927261 7.4382 0.0923668 7.43682 0.143799 7.4248C0.186305 7.41481 0.188836 7.40757 0.157471 7.3877C0.136095 7.37417 0.131307 7.36328 0.146729 7.36328ZM13.3274 4.1416C13.5063 4.00744 13.9511 3.95691 14.2112 4.04102C14.3589 4.08893 14.5493 4.20752 14.595 4.28027C14.6171 4.31576 14.5879 4.376 14.4612 4.55566L14.2991 4.78613L14.2249 4.71777C13.8634 4.38123 13.2538 4.75258 13.55 5.12891C13.652 5.25837 13.7059 5.27243 14.179 5.28711L14.6282 5.30078V5.8623L13.6526 5.86914L12.678 5.87695V5.28711H12.8352C12.9736 5.28711 12.99 5.28122 12.9719 5.23828C12.8202 4.88028 12.9733 4.40688 13.3274 4.1416Z" fill="#556767"/>
</svg>