<svg width="91" height="164" viewBox="0 0 91 164" fill="none" xmlns="http://www.w3.org/2000/svg">
<g clip-path="url(#clip0_2_15)">
<path d="M66.8693 69.0257L46.387 89.5598C44.771 91.1786 42.1527 91.1786 40.5367 89.5598L19.9383 68.9122C18.0675 67.0337 18.0675 63.9874 19.9383 62.1106C21.8146 60.2322 24.8517 60.2322 26.724 62.1106L40.2097 75.6305C42.0059 77.4326 44.9179 77.4326 46.714 75.6305L60.2024 62.1106C62.2188 60.0877 65.5896 60.2445 67.3964 62.5802C68.8923 64.5132 68.5935 67.2958 66.8693 69.0257ZM90.7505 75.4526C90.7451 71.2558 89.0798 67.2331 86.1198 64.2659L80.7982 58.9318C80.7195 58.8609 80.6394 58.794 80.5632 58.718L67.0776 45.1978C65.2815 43.3972 62.3682 43.3972 60.5721 45.1978L47.0849 58.718C45.05 60.7595 41.6362 60.5829 39.8416 58.184C38.395 56.2523 38.7139 53.511 40.4181 51.8026L60.899 31.2699C62.5163 29.6498 65.1346 29.6498 66.7506 31.2699L78.9368 43.4855L83.2922 38.8967C86.2733 35.7555 87.9389 31.587 87.9442 27.2511C87.9442 21.7219 86.6884 16.9338 84.1771 12.8843C81.6655 8.83739 78.3161 5.67746 74.1314 3.40584C69.9438 1.13423 65.2906 -0.000244141 60.1704 -0.000244141H17.9807C8.15521 -0.000244141 0.189941 7.98386 0.189941 17.8342V89.1586C0.189941 97.176 6.67267 103.675 14.67 103.675H61.9424C67.2615 103.675 72.0858 102.515 76.4211 100.194C80.7543 97.8758 84.2264 94.5914 86.8365 90.3451C89.4454 86.1003 90.7505 81.1623 90.7505 75.5343V75.4526Z" fill="#E60000"/>
<path d="M5.08555 127.271C5.35243 127.003 5.56597 126.689 5.72475 126.329C5.88356 125.969 5.96229 125.588 5.96229 125.186C5.96229 124.784 5.88356 124.4 5.72475 124.03C5.56597 123.663 5.35243 123.344 5.08555 123.077C4.81867 122.809 4.50108 122.595 4.1341 122.436C3.7658 122.276 3.38282 122.198 2.98114 122.198C2.58081 122.198 2.19649 122.276 1.82818 122.436C1.46121 122.595 1.14495 122.809 0.876729 123.077C0.609841 123.344 0.397664 123.663 0.237531 124.03C0.0800668 124.4 0 124.784 0 125.186C0 125.588 0.0800668 125.969 0.237531 126.329C0.397664 126.689 0.609841 127.003 0.876729 127.271C1.14495 127.538 1.46121 127.752 1.82818 127.911C2.19649 128.071 2.58081 128.15 2.98114 128.15C3.38282 128.15 3.7658 128.071 4.1341 127.911C4.50108 127.752 4.81867 127.538 5.08555 127.271Z" fill="#E60000"/>
<path d="M5.08555 135.667C5.35243 135.399 5.56597 135.085 5.72475 134.724C5.88356 134.365 5.96229 133.983 5.96229 133.582C5.96229 133.163 5.88356 132.774 5.72475 132.414C5.56597 132.054 5.35243 131.736 5.08555 131.459C4.81867 131.183 4.50108 130.965 4.1341 130.806C3.7658 130.648 3.38282 130.568 2.98114 130.568C2.58081 130.568 2.19649 130.648 1.82818 130.806C1.46121 130.965 1.14495 131.183 0.876729 131.459C0.609841 131.736 0.397664 132.054 0.237531 132.414C0.0800668 132.774 0 133.163 0 133.582C0 133.983 0.0800668 134.365 0.237531 134.724C0.397664 135.085 0.609841 135.399 0.876729 135.667C1.14495 135.934 1.46121 136.148 1.82818 136.307C2.19649 136.466 2.58081 136.545 2.98114 136.545C3.38282 136.545 3.7658 136.466 4.1341 136.307C4.50108 136.148 4.81867 135.934 5.08555 135.667Z" fill="#E60000"/>
<path d="M57.4653 130.696C57.4653 131.231 57.0341 131.665 56.5004 131.665L53.6235 131.687C53.1082 131.689 52.6959 131.281 52.668 130.771V131.845L52.6627 119.614C52.6639 119.616 52.6652 119.618 52.6664 119.62L52.6652 118.622C52.6652 118.609 52.6611 118.597 52.6611 118.583V118.575C52.6344 117.357 51.6444 116.376 50.4234 116.378H50.1658C48.9436 116.379 47.9561 117.359 47.9307 118.58H47.9241L47.9332 131.848L47.9347 131.816H47.9533C47.9853 132.527 48.0813 133.154 48.2482 133.686C48.455 134.346 48.7619 134.89 49.1676 135.317C49.5734 135.744 50.0698 136.055 50.6556 136.256C51.2415 136.455 51.9127 136.556 52.6718 136.554L54.6468 136.553H54.7268L57.4907 136.53L62.2798 136.529L64.7233 136.525L69.4631 136.522L71.8731 136.521L76.6132 136.518L84.0059 136.513L84.5036 136.512L86.221 136.51H86.2279C87.7545 136.508 88.9258 136.097 89.7427 135.277C90.5406 134.477 90.9464 133.175 90.9636 131.379C90.9649 131.333 90.9677 131.291 90.9677 131.244L90.9636 124.729C90.9636 124.716 90.9595 124.704 90.9595 124.69V124.491C90.9583 123.251 89.9548 122.245 88.7166 122.247H88.4602C87.222 122.248 86.2184 123.254 86.2197 124.495V124.66C86.2184 124.685 86.2131 124.708 86.2131 124.733L86.2172 130.901C86.1638 131.384 85.7688 131.765 85.2736 131.765L83.6403 131.766V131.77L79.2005 131.773V131.769L77.5684 131.77C77.0482 131.77 76.6318 131.357 76.6092 130.84L76.6079 128.147C76.6079 128.145 76.6079 128.142 76.6079 128.138V127.111L76.6051 124.44C76.6038 123.199 75.6003 122.194 74.3618 122.195H74.1057C72.8672 122.197 71.8652 123.203 71.8652 124.444L71.8665 124.621L71.8677 126.996L71.8665 127.143C71.8652 127.159 71.8612 127.175 71.8612 127.192L71.864 130.752C71.8291 131.254 71.4127 131.654 70.8925 131.655H70.9217H70.6882H70.44C69.9062 131.655 69.4751 131.238 69.4591 130.717L69.4578 128.05C69.4578 128.042 69.4591 128.033 69.4591 128.023V126.996C69.4578 126.996 69.4578 126.997 69.4566 126.998V126.099C69.4553 124.858 68.4502 123.853 67.2132 123.853H66.9556C65.7187 123.854 64.7151 124.862 64.7167 126.102V127.002C64.7151 127.001 64.7151 127 64.7139 126.998V128.027C64.7151 128.038 64.7167 128.047 64.718 128.058L64.7192 130.717C64.7045 131.239 64.2843 131.659 63.7596 131.659L63.7145 131.661H63.4863H63.2434C62.715 131.661 62.288 131.234 62.2798 130.705L62.2785 129.765C62.2785 129.756 62.2785 129.748 62.2773 129.738L62.2757 128.113C62.2757 128.085 62.281 128.057 62.2839 128.028L62.2826 127.001C62.2798 127.004 62.2773 127.008 62.2732 127.01L62.2719 124.669V124.462C62.2704 123.207 61.2562 122.192 60.0061 122.192H59.7459C58.514 122.193 57.5174 123.182 57.4879 124.41C57.4879 124.428 57.4825 124.446 57.4825 124.465" fill="#E60000"/>
<path d="M90.0856 143.209C90.3524 142.941 90.5661 142.627 90.7248 142.267C90.8836 141.907 90.9624 141.526 90.9624 141.124C90.9624 140.706 90.8836 140.316 90.7248 139.957C90.5661 139.597 90.3524 139.279 90.0856 139.001C89.8186 138.726 89.501 138.508 89.1342 138.348C88.7658 138.191 88.3827 138.11 87.981 138.11C87.5806 138.11 87.1966 138.191 86.8282 138.348C86.4613 138.508 86.145 138.726 85.8767 139.001C85.6097 139.279 85.3976 139.597 85.2375 139.957C85.08 140.316 85 140.706 85 141.124C85 141.526 85.08 141.907 85.2375 142.267C85.3976 142.627 85.6097 142.941 85.8767 143.209C86.145 143.476 86.4613 143.69 86.8282 143.85C87.1966 144.009 87.5806 144.088 87.981 144.088C88.3827 144.088 88.7658 144.009 89.1342 143.85C89.501 143.69 89.8186 143.476 90.0856 143.209Z" fill="#E60000"/>
<path d="M41.0608 130.284C41.0608 131.097 40.4028 131.757 39.5929 131.757H33.0635C32.252 131.757 31.5956 131.097 31.5956 130.284V128.38C31.5956 127.567 32.252 126.908 33.0635 126.908H39.5929C40.4028 126.908 41.0608 127.567 41.0608 128.38V130.284ZM17.2569 131.103C17.2569 131.887 16.6231 132.524 15.8411 132.524H13.8341C13.0508 132.524 12.4169 131.887 12.4169 131.103V125.863C12.4169 125.079 13.0508 124.442 13.8341 124.442H15.8411C16.6231 124.442 17.2569 125.079 17.2569 125.863V131.103ZM45.207 125.072C45.0014 124.406 44.6983 123.861 44.2995 123.443C43.9003 123.021 43.4039 122.715 42.8127 122.522C42.219 122.328 41.5372 122.232 40.7659 122.232H31.5808V118.854V118.647C31.5808 117.396 30.5693 116.38 29.3203 116.38H29.0614C27.831 116.38 26.8355 117.366 26.8062 118.592C26.8048 118.61 26.7995 118.628 26.7995 118.647V120.066C26.7995 120.073 26.7969 120.082 26.7969 120.082V128.862H26.7875V130.889C26.7875 131.345 26.4179 131.716 25.9628 131.716H22.8002C22.3558 131.716 22.0009 131.362 21.9822 130.922V128.617V128.613V127.736V125.715C21.9689 123.863 21.5592 122.525 20.7545 121.705C19.9498 120.883 18.7889 120.474 17.2716 120.474H12.4222C10.905 120.474 9.73736 120.883 8.91802 121.705C8.09999 122.525 7.69165 123.863 7.69165 125.715V131.296C7.69165 132.229 7.79442 133.027 7.99992 133.688C8.20674 134.347 8.51234 134.89 8.91802 135.319C9.32369 135.745 9.82008 136.058 10.4059 136.259C10.9917 136.458 11.663 136.559 12.4222 136.559H23.9758H24.1347H26.7315H31.4713H40.8057C41.5651 136.559 42.2363 136.458 42.8221 136.259C43.408 136.058 43.9003 135.745 44.2995 135.319C44.6983 134.89 45.0014 134.347 45.207 133.688C45.4138 133.027 45.5164 132.229 45.5164 131.296V127.475C45.5164 126.54 45.4138 125.74 45.207 125.072Z" fill="#E60000"/>
<path d="M44.9652 154.935C44.1763 154.604 43.2372 154.44 42.148 154.44H39.578C39.3057 154.44 39.0763 154.347 38.8921 154.162C38.7066 153.977 38.6147 153.758 38.6147 153.506C38.6147 153.233 38.7066 153.01 38.8921 152.834C39.0763 152.659 39.3057 152.571 39.578 152.571H44.294C45.284 152.571 46.0886 151.769 46.0886 150.778V150.749C46.0886 149.758 45.284 148.955 44.294 148.955H38.8773C38.0022 148.955 37.2001 149.169 36.4686 149.595C35.7388 150.025 35.1652 150.588 34.7472 151.288C34.3283 151.988 34.1187 152.768 34.1187 153.622C34.1187 154.731 34.3483 155.63 34.8046 156.321C35.2612 157.011 35.8844 157.517 36.6729 157.838C37.4615 158.158 38.3423 158.318 39.3163 158.318H41.9428C42.1361 158.318 42.3124 158.361 42.4684 158.451C42.6231 158.538 42.7498 158.658 42.8487 158.814C42.9447 158.971 42.9943 159.145 42.9943 159.339C42.9943 159.514 42.9447 159.679 42.8487 159.835C42.7498 159.991 42.6231 160.112 42.4684 160.201C42.3124 160.287 42.1361 160.33 41.9428 160.33H36.5273C35.5361 160.33 34.7312 161.134 34.7312 162.126C34.7312 163.116 35.5361 163.92 36.5273 163.92H42.5857C43.4998 163.92 44.3232 163.705 45.0518 163.277C45.7817 162.851 46.3663 162.277 46.8041 161.556C47.2418 160.836 47.4605 160.049 47.4605 159.193C47.4605 158.067 47.2418 157.157 46.8041 156.466C46.3663 155.776 45.7525 155.265 44.9652 154.935Z" fill="#E60000"/>
<path d="M25.6618 159.787C23.7216 159.787 22.1483 158.21 22.1483 156.265C22.1483 154.32 23.7216 152.742 25.6618 152.742C27.6021 152.742 29.1755 154.32 29.1755 156.265C29.1755 158.21 27.6021 159.787 25.6618 159.787ZM32.3166 153.493C31.9325 152.619 31.416 151.847 30.7675 151.177C30.1202 150.507 29.3503 149.98 28.4588 149.593C27.5661 149.207 26.6347 149.014 25.6618 149.014C24.6891 149.014 23.7576 149.207 22.8649 149.593C21.9748 149.98 21.2048 150.507 20.5563 151.177C19.9078 151.847 19.3927 152.619 19.007 153.493C18.6213 154.367 18.4292 155.311 18.4292 156.326C18.4292 157.3 18.6213 158.226 19.007 159.098C19.3927 159.973 19.9078 160.735 20.5563 161.383C21.2048 162.034 21.9748 162.551 22.8649 162.938C23.7576 163.324 24.6891 163.516 25.6618 163.516C26.6347 163.516 27.5661 163.324 28.4588 162.938C28.7978 162.791 29.1194 162.625 29.4223 162.439C29.4877 163.29 30.1923 163.961 31.057 163.96H31.2452C32.1405 163.96 32.8651 163.24 32.8827 162.346H32.888L32.8852 156.7C32.8905 156.575 32.8933 156.451 32.8933 156.326C32.8933 155.311 32.7022 154.367 32.3166 153.493Z" fill="#E60000"/>
<path d="M56.5417 159.787C54.6015 159.787 53.0282 158.21 53.0282 156.265C53.0282 154.32 54.6015 152.742 56.5417 152.742C58.4819 152.742 60.0552 154.32 60.0552 156.265C60.0552 158.21 58.4819 159.787 56.5417 159.787ZM63.1966 153.493C62.8122 152.619 62.2957 151.847 61.6471 151.177C61.0001 150.507 60.23 149.98 59.3385 149.593C58.4458 149.207 57.5145 149.014 56.5417 149.014C55.5689 149.014 54.6373 149.207 53.7445 149.593C52.8546 149.98 52.0858 150.507 51.436 151.177C50.7877 151.847 50.2712 152.619 49.8868 153.493C49.5011 154.367 49.3091 155.311 49.3091 156.326C49.3091 157.3 49.5011 158.226 49.8868 159.098C50.2712 159.973 50.7877 160.735 51.436 161.383C52.0858 162.034 52.8546 162.551 53.7445 162.938C54.6373 163.324 55.5689 163.516 56.5417 163.516C57.5145 163.516 58.4458 163.324 59.3385 162.938C59.6774 162.791 59.9991 162.625 60.3022 162.439C60.3675 163.29 61.0719 163.961 61.9367 163.96H62.125C63.0203 163.96 63.7448 163.24 63.7624 162.346H63.7677L63.7636 156.7C63.7702 156.575 63.7743 156.451 63.7743 156.326C63.7743 155.311 63.5823 154.367 63.1966 153.493Z" fill="#E60000"/>
<path d="M83.7687 159.787C81.8286 159.787 80.2552 158.21 80.2552 156.265C80.2552 154.32 81.8286 152.742 83.7687 152.742C85.7092 152.742 87.2826 154.32 87.2826 156.265C87.2826 158.21 85.7092 159.787 83.7687 159.787ZM91.0017 156.326C91.0017 155.311 90.8093 154.367 90.4237 153.493C90.0393 152.619 89.5231 151.847 88.8745 151.177C88.2271 150.507 87.4574 149.98 86.5659 149.593C85.6732 149.207 84.7418 149.014 83.7687 149.014C82.796 149.014 81.8647 149.207 80.9719 149.593C80.0817 149.98 79.3132 150.507 78.6633 151.177C78.0147 151.847 77.4998 152.619 77.1141 153.493C76.7285 154.367 76.5361 155.311 76.5361 156.326C76.5361 157.3 76.7285 158.226 77.1141 159.098C77.4998 159.973 78.0147 160.735 78.6633 161.383C79.3132 162.034 80.0817 162.551 80.9719 162.938C81.8647 163.324 82.796 163.516 83.7687 163.516C84.7418 163.516 85.6732 163.324 86.5659 162.938C86.9048 162.791 87.2264 162.625 87.5292 162.439C87.5948 163.29 88.2993 163.961 89.1641 163.96H89.3521C90.2476 163.96 90.9722 163.24 90.9894 162.346H90.9948L90.9923 156.7C90.9989 156.575 91.0017 156.451 91.0017 156.326Z" fill="#E60000"/>
<path d="M73.0095 152.797C73.0202 152.797 73.028 152.794 73.0387 152.794H73.044C73.9675 152.774 74.7121 152.019 74.7109 151.088V150.893C74.7096 149.962 73.9663 149.209 73.0415 149.19V149.185L71.5695 149.186H71.3119V147.514C71.3135 147.515 71.3135 147.516 71.3147 147.518V146.761C71.3147 146.75 71.3106 146.741 71.3106 146.73V146.724C71.2905 145.799 70.5393 145.054 69.6105 145.054L69.4156 145.055C68.4871 145.055 67.7356 145.801 67.7171 146.727H67.7117L67.713 149.186H67.3528C67.3421 149.186 67.3339 149.189 67.3233 149.19H67.3179C66.3944 149.21 65.6501 149.964 65.6514 150.895V151.09C65.6526 152.021 66.396 152.774 67.3207 152.793V152.798H67.713L67.7142 161.755C67.7158 162.974 68.7018 163.962 69.9174 163.962H71.316L73.044 163.96C73.4256 163.96 73.7714 163.816 74.0356 163.58C74.4253 163.268 74.6761 162.789 74.6761 162.25V162.054C74.6761 161.123 73.9314 160.37 73.0079 160.352V160.346L71.3147 160.348L71.3134 152.796L72.258 152.794C72.2567 152.796 72.2555 152.797 72.2526 152.798L73.0095 152.797Z" fill="#E60000"/>
<path d="M11.8566 159.236C11.6764 159.544 11.4376 159.787 11.1413 159.968C10.8437 160.147 10.5074 160.237 10.1285 160.237H6.5642C5.46059 160.237 4.56653 159.34 4.56653 158.234C4.56653 157.129 5.46059 156.231 6.5642 156.231H10.1285C10.5074 156.231 10.8437 156.322 11.1413 156.503C11.4376 156.683 11.6764 156.922 11.8566 157.221C12.0367 157.518 12.1262 157.857 12.1262 158.235C12.1262 158.597 12.0367 158.93 11.8566 159.236ZM6.44276 148.844H9.66943C10.0297 148.844 10.3487 148.929 10.6289 149.099C10.9065 149.272 11.128 149.498 11.2895 149.776C11.4522 150.057 11.5323 150.377 11.5323 150.738C11.5323 151.081 11.4522 151.392 11.2895 151.672C11.128 151.951 10.9065 152.176 10.6289 152.347C10.3487 152.52 10.0297 152.604 9.66943 152.604H6.44276C5.40721 152.604 4.56653 151.763 4.56653 150.725C4.56653 149.685 5.40721 148.844 6.44276 148.844ZM15.0299 155.257C14.5521 154.789 14.0077 154.428 13.3952 154.175C13.917 153.922 14.38 153.589 14.7857 153.173C15.1913 152.759 15.5049 152.281 15.7318 151.739C15.956 151.197 16.0681 150.63 16.0681 150.034C16.0681 149.023 15.8385 148.148 15.3795 147.408C14.9204 146.668 14.308 146.092 13.5433 145.676C12.7787 145.261 11.9286 145.054 10.9919 145.054H3.98071C1.80023 145.054 0.0307617 146.826 0.0307617 149.012V160.99C0.0307617 162.651 1.37588 164 3.03459 164H11.3175C12.2876 164 13.1697 163.788 13.9623 163.365C14.755 162.94 15.3888 162.341 15.8666 161.564C16.343 160.788 16.5818 159.886 16.5818 158.857C16.5818 158.153 16.4417 157.495 16.1628 156.881C15.8826 156.267 15.5049 155.727 15.0299 155.257Z" fill="#E60000"/>
</g>
<defs>
<clipPath id="clip0_2_15">
<rect width="91" height="164" fill="white"/>
</clipPath>
</defs>
</svg>