<svg width="8" height="15" viewBox="0 0 8 15" fill="none" xmlns="http://www.w3.org/2000/svg">
<g clip-path="url(#clip0_30_11219)">
<path d="M5.87852 6.03759L4.07789 7.83368C3.93582 7.97528 3.70564 7.97528 3.56357 7.83368L1.75272 6.02766C1.58825 5.86336 1.58825 5.5969 1.75272 5.43274C1.91767 5.26843 2.18467 5.26843 2.34926 5.43274L3.53482 6.6153C3.69273 6.77293 3.94873 6.77293 4.10663 6.6153L5.29242 5.43274C5.46969 5.2558 5.76602 5.26951 5.92486 5.47381C6.05637 5.64289 6.03011 5.88628 5.87852 6.03759ZM7.97797 6.59975C7.9775 6.23266 7.8311 5.88079 7.57088 5.62126L7.10304 5.1547C7.09612 5.14849 7.08909 5.14264 7.08238 5.13599L5.89684 3.9534C5.73893 3.79591 5.48282 3.79591 5.32492 3.9534L4.13924 5.13599C3.96034 5.31456 3.66023 5.29911 3.50246 5.08929C3.37529 4.92032 3.40332 4.68054 3.55314 4.53111L5.35366 2.73515C5.49584 2.59344 5.72602 2.59344 5.86809 2.73515L6.9394 3.80363L7.3223 3.40226C7.58437 3.1275 7.7308 2.76289 7.73126 2.38363C7.73126 1.9 7.62086 1.4812 7.40009 1.12699C7.17929 0.773014 6.88484 0.49662 6.51695 0.297924C6.14881 0.0992304 5.73973 0 5.28961 0H1.58062C0.716845 0 0.0166016 0.698358 0.0166016 1.55995V7.79859C0.0166016 8.49986 0.586511 9.06833 1.28957 9.06833H5.44539C5.913 9.06833 6.33711 8.96689 6.71824 8.76386C7.09918 8.56107 7.40442 8.27379 7.63389 7.90237C7.86324 7.53108 7.97797 7.09917 7.97797 6.60689V6.59975Z" fill="#556767"/>
<path d="M0.447081 11.1321C0.470543 11.1087 0.489316 11.0812 0.503275 11.0498C0.517236 11.0183 0.524157 10.9849 0.524157 10.9498C0.524157 10.9146 0.517236 10.881 0.503275 10.8487C0.489316 10.8166 0.470543 10.7887 0.447081 10.7653C0.423619 10.7419 0.395699 10.7232 0.363437 10.7092C0.331059 10.6953 0.29739 10.6884 0.262078 10.6884C0.226884 10.6884 0.193098 10.6953 0.160719 10.7092C0.128458 10.7232 0.100655 10.7419 0.077075 10.7653C0.0536124 10.7887 0.0349595 10.8166 0.0208818 10.8487C0.00703884 10.881 0 10.9146 0 10.9498C0 10.9849 0.00703884 11.0183 0.0208818 11.0498C0.0349595 11.0812 0.0536124 11.1087 0.077075 11.1321C0.100655 11.1556 0.128458 11.1743 0.160719 11.1882C0.193098 11.2021 0.226884 11.209 0.262078 11.209C0.29739 11.209 0.331059 11.2021 0.363437 11.1882C0.395699 11.1743 0.423619 11.1556 0.447081 11.1321Z" fill="#556767"/>
<path d="M0.447081 11.8666C0.470543 11.8431 0.489316 11.8157 0.503275 11.7842C0.517236 11.7527 0.524157 11.7193 0.524157 11.6842C0.524157 11.6476 0.517236 11.6136 0.503275 11.5821C0.489316 11.5506 0.470543 11.5227 0.447081 11.4985C0.423619 11.4744 0.395699 11.4554 0.363437 11.4414C0.331059 11.4276 0.29739 11.4206 0.262078 11.4206C0.226884 11.4206 0.193098 11.4276 0.160719 11.4414C0.128458 11.4554 0.100655 11.4744 0.077075 11.4985C0.0536124 11.5227 0.0349595 11.5506 0.0208818 11.5821C0.00703884 11.6136 0 11.6476 0 11.6842C0 11.7193 0.00703884 11.7527 0.0208818 11.7842C0.0349595 11.8157 0.0536124 11.8431 0.077075 11.8666C0.100655 11.8899 0.128458 11.9087 0.160719 11.9226C0.193098 11.9365 0.226884 11.9434 0.262078 11.9434C0.29739 11.9434 0.331059 11.9365 0.363437 11.9226C0.395699 11.9087 0.423619 11.8899 0.447081 11.8666Z" fill="#556767"/>
<path d="M5.05192 11.4318C5.05192 11.4786 5.01402 11.5165 4.96709 11.5165L4.71418 11.5185C4.66889 11.5186 4.63264 11.4829 4.63018 11.4384V11.5323L4.62971 10.4624C4.62982 10.4627 4.62993 10.4628 4.63005 10.463L4.62993 10.3757C4.62993 10.3746 4.62958 10.3735 4.62958 10.3723V10.3716C4.62723 10.265 4.5402 10.1792 4.43286 10.1794H4.41021C4.30276 10.1795 4.21595 10.2653 4.21371 10.372H4.21313L4.21393 11.5325L4.21407 11.5298H4.2157C4.21851 11.592 4.22696 11.6467 4.24163 11.6933C4.25981 11.751 4.28679 11.7986 4.32246 11.836C4.35813 11.8733 4.40177 11.9006 4.45327 11.9181C4.50478 11.9355 4.56378 11.9443 4.63051 11.9442L4.80414 11.9441H4.81118L5.05416 11.9421L5.47518 11.942L5.68999 11.9416L6.10668 11.9414L6.31854 11.9413L6.73526 11.9411L7.38516 11.9406L7.42891 11.9405L7.57989 11.9403H7.5805C7.71471 11.9401 7.81769 11.9042 7.88949 11.8325C7.95965 11.7625 7.99531 11.6486 7.99683 11.4915C7.99694 11.4875 7.99719 11.4839 7.99719 11.4798L7.99683 10.9099C7.99683 10.9087 7.99647 10.9077 7.99647 10.9065V10.8891C7.99636 10.7806 7.90814 10.6926 7.79929 10.6927H7.77675C7.66789 10.6928 7.57967 10.7808 7.57978 10.8894V10.9038C7.57967 10.9061 7.5792 10.908 7.5792 10.9103L7.57956 11.4497C7.57487 11.4919 7.54014 11.5253 7.49661 11.5253L7.35302 11.5254V11.5258L6.96271 11.526V11.5256L6.81923 11.5258C6.77349 11.5258 6.73689 11.4896 6.7349 11.4444L6.73479 11.2089C6.73479 11.2087 6.73479 11.2084 6.73479 11.2081V11.1182L6.73454 10.8846C6.73443 10.776 6.64621 10.6882 6.53733 10.6883H6.51482C6.40593 10.6884 6.31785 10.7764 6.31785 10.885L6.31796 10.9004L6.31807 11.1081L6.31796 11.121C6.31785 11.1224 6.31749 11.1238 6.31749 11.1253L6.31774 11.4367C6.31468 11.4806 6.27807 11.5156 6.23233 11.5157H6.2349H6.21438H6.19256C6.14563 11.5157 6.10773 11.4792 6.10632 11.4337L6.10621 11.2003C6.10621 11.1996 6.10632 11.1988 6.10632 11.198V11.1081C6.10621 11.1081 6.10621 11.1082 6.1061 11.1084V11.0297C6.10599 10.9211 6.01763 10.8333 5.90889 10.8333H5.88624C5.77749 10.8334 5.68927 10.9215 5.68941 11.03V11.1087C5.68927 11.1086 5.68927 11.1085 5.68916 11.1084V11.1984C5.68927 11.1993 5.68941 11.2001 5.68952 11.201L5.68963 11.4337C5.68833 11.4793 5.6514 11.516 5.60527 11.516L5.6013 11.5162H5.58124H5.55989C5.51344 11.5162 5.47589 11.4788 5.47518 11.4326L5.47507 11.3504C5.47507 11.3495 5.47507 11.3488 5.47496 11.348L5.47482 11.2058C5.47482 11.2034 5.47529 11.2009 5.47553 11.1985L5.47542 11.1086C5.47518 11.1088 5.47496 11.1092 5.4746 11.1094L5.47449 10.9047V10.8865C5.47435 10.7767 5.38519 10.6879 5.27529 10.6879H5.25242C5.14411 10.688 5.0565 10.7745 5.05391 10.8819C5.05391 10.8836 5.05344 10.8851 5.05344 10.8867" fill="#556767"/>
<path d="M7.9195 12.5263C7.94295 12.5029 7.96174 12.4754 7.97569 12.4439C7.98965 12.4124 7.99658 12.3791 7.99658 12.344C7.99658 12.3074 7.98965 12.2733 7.97569 12.2418C7.96174 12.2103 7.94295 12.1825 7.9195 12.1583C7.89603 12.1342 7.86811 12.1151 7.83586 12.1011C7.80347 12.0874 7.76979 12.0803 7.73448 12.0803C7.69928 12.0803 7.66552 12.0874 7.63313 12.1011C7.60088 12.1151 7.57307 12.1342 7.54949 12.1583C7.52601 12.1825 7.50736 12.2103 7.4933 12.2418C7.47945 12.2733 7.47241 12.3074 7.47241 12.344C7.47241 12.3791 7.47945 12.4124 7.4933 12.4439C7.50736 12.4754 7.52601 12.5029 7.54949 12.5263C7.57307 12.5497 7.60088 12.5684 7.63313 12.5823C7.66552 12.5963 7.69928 12.6032 7.73448 12.6032C7.76979 12.6032 7.80347 12.5963 7.83586 12.5823C7.86811 12.5684 7.89603 12.5497 7.9195 12.5263Z" fill="#556767"/>
<path d="M3.60982 11.3958C3.60982 11.4669 3.55197 11.5246 3.48077 11.5246H2.90676C2.83542 11.5246 2.77771 11.4669 2.77771 11.3958V11.2293C2.77771 11.1581 2.83542 11.1004 2.90676 11.1004H3.48077C3.55197 11.1004 3.60982 11.1581 3.60982 11.2293V11.3958ZM1.51717 11.4674C1.51717 11.536 1.46145 11.5917 1.3927 11.5917H1.21626C1.1474 11.5917 1.09168 11.536 1.09168 11.4674V11.009C1.09168 10.9405 1.1474 10.8848 1.21626 10.8848H1.3927C1.46145 10.8848 1.51717 10.9405 1.51717 11.009V11.4674ZM3.97432 10.9399C3.95625 10.8816 3.9296 10.834 3.89454 10.7974C3.85945 10.7605 3.81581 10.7337 3.76384 10.7168C3.71164 10.6999 3.6517 10.6915 3.58389 10.6915H2.77642V10.396V10.3779C2.77642 10.2684 2.68749 10.1796 2.57769 10.1796H2.55493C2.44677 10.1796 2.35925 10.2659 2.35667 10.3731C2.35655 10.3747 2.35608 10.3762 2.35608 10.3779V10.502C2.35608 10.5026 2.35585 10.5034 2.35585 10.5034V11.2714H2.35503V11.4487C2.35503 11.4886 2.32253 11.521 2.28253 11.521H2.00449C1.96543 11.521 1.93422 11.4901 1.93258 11.4516V11.25V11.2496V11.1729V10.9962C1.93141 10.8341 1.89539 10.7171 1.82465 10.6453C1.75391 10.5735 1.65185 10.5377 1.51846 10.5377H1.09215C0.958761 10.5377 0.856112 10.5735 0.784082 10.6453C0.712167 10.7171 0.67627 10.8341 0.67627 10.9962V11.4842C0.67627 11.5659 0.685304 11.6357 0.70337 11.6935C0.721552 11.7512 0.748419 11.7987 0.784082 11.8361C0.819745 11.8734 0.863384 11.9008 0.914885 11.9184C0.966385 11.9358 1.0254 11.9446 1.09215 11.9446H2.10785H2.12181H2.3501H2.76679H3.58739C3.65415 11.9446 3.71316 11.9358 3.76466 11.9184C3.81617 11.9008 3.85945 11.8734 3.89454 11.8361C3.9296 11.7987 3.95625 11.7512 3.97432 11.6935C3.9925 11.6357 4.00152 11.5659 4.00152 11.4842V11.1501C4.00152 11.0682 3.9925 10.9983 3.97432 10.9399Z" fill="#556767"/>
<path d="M3.95306 13.5519C3.8837 13.523 3.80114 13.5086 3.70539 13.5086H3.47946C3.45551 13.5086 3.43535 13.5005 3.41915 13.4843C3.40285 13.4681 3.39477 13.4489 3.39477 13.4269C3.39477 13.403 3.40285 13.3835 3.41915 13.3682C3.43535 13.3528 3.45551 13.3451 3.47946 13.3451H3.89405C3.98108 13.3451 4.05182 13.275 4.05182 13.1883V13.1857C4.05182 13.099 3.98108 13.0288 3.89405 13.0288H3.41786C3.34092 13.0288 3.27041 13.0475 3.2061 13.0849C3.14194 13.1224 3.09151 13.1717 3.05477 13.2329C3.01794 13.2941 2.99951 13.3623 2.99951 13.4371C2.99951 13.5341 3.0197 13.6127 3.05982 13.6731C3.09995 13.7335 3.15474 13.7777 3.22406 13.8058C3.29339 13.8338 3.37082 13.8478 3.45645 13.8478H3.68735C3.70434 13.8478 3.71984 13.8516 3.73355 13.8594C3.74715 13.867 3.7583 13.8776 3.76699 13.8912C3.77543 13.9049 3.77979 13.9201 3.77979 13.9371C3.77979 13.9524 3.77543 13.9668 3.76699 13.9805C3.7583 13.9941 3.74715 14.0048 3.73355 14.0125C3.71984 14.0201 3.70434 14.0238 3.68735 14.0238H3.21126C3.12412 14.0238 3.05336 14.0941 3.05336 14.1809C3.05336 14.2675 3.12412 14.3378 3.21126 14.3378H3.74387C3.82423 14.3378 3.89662 14.319 3.96067 14.2816C4.02484 14.2443 4.07623 14.1941 4.11471 14.131C4.15319 14.068 4.17242 13.9992 4.17242 13.9243C4.17242 13.8258 4.15319 13.7462 4.11471 13.6859C4.07623 13.6255 4.02227 13.5808 3.95306 13.5519Z" fill="#556767"/>
<path d="M2.25595 13.9763C2.08538 13.9763 1.94707 13.8384 1.94707 13.6682C1.94707 13.4981 2.08538 13.3601 2.25595 13.3601C2.42653 13.3601 2.56484 13.4981 2.56484 13.6682C2.56484 13.8384 2.42653 13.9763 2.25595 13.9763ZM2.84099 13.4258C2.80722 13.3494 2.76181 13.2818 2.7048 13.2232C2.6479 13.1646 2.58021 13.1185 2.50184 13.0847C2.42336 13.0509 2.34148 13.034 2.25595 13.034C2.17043 13.034 2.08855 13.0509 2.01007 13.0847C1.93182 13.1185 1.86413 13.1646 1.80711 13.2232C1.7501 13.2818 1.70482 13.3494 1.67091 13.4258C1.63701 13.5022 1.62012 13.5848 1.62012 13.6736C1.62012 13.7588 1.63701 13.8398 1.67091 13.9161C1.70482 13.9926 1.7501 14.0592 1.80711 14.1159C1.86413 14.1728 1.93182 14.2181 2.01007 14.2519C2.08855 14.2857 2.17043 14.3025 2.25595 14.3025C2.34148 14.3025 2.42336 14.2857 2.50184 14.2519C2.53164 14.239 2.55992 14.2245 2.58654 14.2083C2.59229 14.2827 2.65424 14.3414 2.73026 14.3413H2.7468C2.82551 14.3413 2.88921 14.2784 2.89075 14.2002H2.89122L2.89097 13.7062C2.89144 13.6954 2.89169 13.6845 2.89169 13.6736C2.89169 13.5848 2.87489 13.5022 2.84099 13.4258Z" fill="#556767"/>
<path d="M4.9708 13.9763C4.80023 13.9763 4.66191 13.8384 4.66191 13.6682C4.66191 13.4981 4.80023 13.3601 4.9708 13.3601C5.14136 13.3601 5.27968 13.4981 5.27968 13.6682C5.27968 13.8384 5.14136 13.9763 4.9708 13.9763ZM5.55584 13.4258C5.52205 13.3494 5.47664 13.2818 5.41962 13.2232C5.36274 13.1646 5.29504 13.1185 5.21667 13.0847C5.13819 13.0509 5.05631 13.034 4.9708 13.034C4.88528 13.034 4.80337 13.0509 4.72489 13.0847C4.64666 13.1185 4.57907 13.1646 4.52194 13.2232C4.46495 13.2818 4.41954 13.3494 4.38575 13.4258C4.35184 13.5022 4.33496 13.5848 4.33496 13.6736C4.33496 13.7588 4.35184 13.8398 4.38575 13.9161C4.41954 13.9926 4.46495 14.0592 4.52194 14.1159C4.57907 14.1728 4.64666 14.2181 4.72489 14.2519C4.80337 14.2857 4.88528 14.3025 4.9708 14.3025C5.05631 14.3025 5.13819 14.2857 5.21667 14.2519C5.24646 14.239 5.27474 14.2245 5.30139 14.2083C5.30713 14.2827 5.36906 14.3414 5.44509 14.3413H5.46164C5.54034 14.3413 5.60404 14.2784 5.60558 14.2002H5.60605L5.60569 13.7062C5.60627 13.6954 5.60663 13.6845 5.60663 13.6736C5.60663 13.5848 5.58975 13.5022 5.55584 13.4258Z" fill="#556767"/>
<path d="M7.36435 13.9763C7.19378 13.9763 7.05547 13.8384 7.05547 13.6682C7.05547 13.4981 7.19378 13.3601 7.36435 13.3601C7.53494 13.3601 7.67326 13.4981 7.67326 13.6682C7.67326 13.8384 7.53494 13.9763 7.36435 13.9763ZM8.00021 13.6736C8.00021 13.5848 7.9833 13.5022 7.9494 13.4258C7.91561 13.3494 7.87023 13.2818 7.81321 13.2232C7.75629 13.1646 7.68863 13.1185 7.61025 13.0847C7.53177 13.0509 7.44989 13.034 7.36435 13.034C7.27883 13.034 7.19696 13.0509 7.11847 13.0847C7.04021 13.1185 6.97265 13.1646 6.91552 13.2232C6.8585 13.2818 6.81323 13.3494 6.77933 13.4258C6.74543 13.5022 6.72852 13.5848 6.72852 13.6736C6.72852 13.7588 6.74543 13.8398 6.77933 13.9161C6.81323 13.9926 6.8585 14.0592 6.91552 14.1159C6.97265 14.1728 7.04021 14.2181 7.11847 14.2519C7.19696 14.2857 7.27883 14.3025 7.36435 14.3025C7.44989 14.3025 7.53177 14.2857 7.61025 14.2519C7.64005 14.239 7.66832 14.2245 7.69494 14.2083C7.70071 14.2827 7.76264 14.3414 7.83867 14.3413H7.85519C7.93392 14.3413 7.99762 14.2784 7.99914 14.2002H7.99961L7.99938 13.7062C7.99996 13.6954 8.00021 13.6845 8.00021 13.6736Z" fill="#556767"/>
<path d="M6.41835 13.3649C6.41929 13.3649 6.41998 13.3647 6.42092 13.3647H6.42139C6.50257 13.3629 6.56804 13.2969 6.56793 13.2155V13.1984C6.56782 13.1169 6.50246 13.0511 6.42117 13.0494V13.049L6.29176 13.0491H6.26911V12.9028C6.26925 12.9029 6.26925 12.903 6.26936 12.9032V12.8369C6.26936 12.836 6.269 12.8352 6.269 12.8342V12.8338C6.26724 12.7528 6.20119 12.6876 6.11954 12.6876L6.10241 12.6877C6.02078 12.6877 5.95471 12.753 5.95308 12.834H5.95262L5.95273 13.0491H5.92106C5.92012 13.0491 5.9194 13.0493 5.91846 13.0494H5.91799C5.83681 13.0512 5.77137 13.1171 5.77148 13.1985V13.2156C5.77159 13.2971 5.83695 13.3629 5.91824 13.3646V13.365H5.95273L5.95284 14.1485C5.95297 14.2551 6.03965 14.3415 6.14652 14.3415H6.26947L6.42139 14.3413C6.45493 14.3413 6.48533 14.3288 6.50856 14.3081C6.54282 14.2808 6.56486 14.2389 6.56486 14.1918V14.1747C6.56486 14.0932 6.4994 14.0273 6.41822 14.0257V14.0252L6.26936 14.0254L6.26925 13.3648L6.35228 13.3647C6.35217 13.3648 6.35206 13.3649 6.35182 13.365L6.41835 13.3649Z" fill="#556767"/>
<path d="M1.04232 13.9281C1.02648 13.955 1.00548 13.9763 0.979437 13.9921C0.953277 14.0078 0.923713 14.0157 0.890397 14.0157H0.577054C0.480033 14.0157 0.401434 13.9372 0.401434 13.8405C0.401434 13.7438 0.480033 13.6653 0.577054 13.6653H0.890397C0.923713 13.6653 0.953277 13.6732 0.979437 13.6891C1.00548 13.7049 1.02648 13.7257 1.04232 13.7519C1.05815 13.7779 1.06602 13.8075 1.06602 13.8406C1.06602 13.8722 1.05815 13.9013 1.04232 13.9281ZM0.566378 13.0191H0.850041C0.881716 13.0191 0.909754 13.0266 0.934389 13.0415C0.958792 13.0566 0.978265 13.0764 0.992461 13.1007C1.00677 13.1253 1.01381 13.1532 1.01381 13.1848C1.01381 13.2148 1.00677 13.242 0.992461 13.2665C0.978265 13.291 0.958792 13.3106 0.934389 13.3256C0.909754 13.3407 0.881716 13.3481 0.850041 13.3481H0.566378C0.475341 13.3481 0.401434 13.2745 0.401434 13.1836C0.401434 13.0928 0.475341 13.0191 0.566378 13.0191ZM1.32129 13.5801C1.27929 13.5392 1.23143 13.5076 1.17758 13.4854C1.22345 13.4633 1.26416 13.4342 1.29982 13.3978C1.33548 13.3616 1.36305 13.3198 1.383 13.2724C1.40271 13.225 1.41256 13.1753 1.41256 13.1233C1.41256 13.0348 1.39238 12.9583 1.35202 12.8936C1.31167 12.8289 1.25782 12.7784 1.1906 12.742C1.12338 12.7058 1.04865 12.6876 0.966298 12.6876H0.349934C0.158243 12.6876 0.00268555 12.8427 0.00268555 13.0339V14.0815C0.00268555 14.2269 0.120938 14.3448 0.266758 14.3448H0.994924C1.08021 14.3448 1.15775 14.3263 1.22744 14.2892C1.29712 14.2521 1.35285 14.1997 1.39484 14.1317C1.43673 14.0639 1.45772 13.985 1.45772 13.895C1.45772 13.8334 1.44541 13.7759 1.42089 13.7222C1.39625 13.6685 1.36305 13.6212 1.32129 13.5801Z" fill="#556767"/>
</g>
<defs>
<clipPath id="clip0_30_11219">
<rect width="8" height="14.3448" fill="white"/>
</clipPath>
</defs>
</svg>