<svg xmlns="http://www.w3.org/2000/svg" width="32" height="32" viewBox="0 0 32 32" fill="none">
<rect width="32" height="32" rx="16" fill="#A50017"/>
<path d="M9.5 10H10.4238C10.7636 10 11.0609 10.2284 11.1485 10.5568L11.4039 11.5147M13 17.5C11.8954 17.5 11 18.3954 11 19.5H21.5M13 17.5H20.4788C21.2262 15.9662 21.8785 14.3776 22.4278 12.7417C19.2534 11.931 15.927 11.5 12.5 11.5C12.1335 11.5 11.7681 11.5049 11.4039 11.5147M13 17.5L11.4039 11.5147M12 21.5C12 21.7761 11.7761 22 11.5 22C11.2239 22 11 21.7761 11 21.5C11 21.2239 11.2239 21 11.5 21C11.7761 21 12 21.2239 12 21.5ZM20.5 21.5C20.5 21.7761 20.2761 22 20 22C19.7239 22 19.5 21.7761 19.5 21.5C19.5 21.2239 19.7239 21 20 21C20.2761 21 20.5 21.2239 20.5 21.5Z" stroke="#FFEAED" stroke-width="1.5" stroke-linecap="round" stroke-linejoin="round"/>
</svg>