<svg width="164" height="164" viewBox="0 0 164 164" fill="none" xmlns="http://www.w3.org/2000/svg">
<g clip-path="url(#clip0_1_14)">
<path d="M150.369 0H13.6312C6.10288 0 0 6.10288 0 13.6312V150.369C0 157.897 6.10288 164 13.6312 164H150.369C157.897 164 164 157.897 164 150.369V13.6312C164 6.10288 157.897 0 150.369 0Z" fill="#2D317F"/>
<path d="M42.5974 136.738L41.6829 142.275H34.9299L35.7115 136.738H42.5974Z" fill="#FADE17"/>
<path d="M48.561 136.738L47.8944 142.275H40.8935L41.5436 136.844L48.561 136.738Z" fill="#FCB72E"/>
<path d="M101.382 137.377L100.825 142.275H46.8571L47.3214 136.738L101.382 137.377Z" fill="#F18222"/>
<path d="M82.889 133.23C72.1281 133.637 61.4297 133.496 51.5667 128.291C42.1133 123.289 35.6693 115.958 35.1021 104.939C34.0622 84.7756 37.623 65.5344 48.7779 48.3097C59.6023 31.6005 75.7833 23.6133 95.399 22.4567C105.577 21.8471 115.882 22.3473 126.028 22.2847C128.329 22.2847 129.463 22.4723 128.612 25.4109C126.895 31.2098 125.54 37.1337 124.216 43.0421C123.665 45.4646 122.436 46.2774 119.962 46.1683C113.376 46.0589 106.775 46.1683 100.173 46.1683C95.025 46.1769 89.9551 47.4173 85.3937 49.7849C80.8324 52.1524 76.9139 55.5764 73.9712 59.7667C66.2011 70.0489 61.8855 82.4937 61.6346 95.3419C61.3352 105.064 65.2899 109.066 75.0583 109.3C84.8268 109.534 94.2174 109.44 103.797 109.3C107.043 109.3 108.429 109.737 107.326 113.364C105.751 118.834 104.348 124.43 102.962 129.979C102.916 130.51 102.759 131.025 102.5 131.492C102.241 131.959 101.886 132.367 101.458 132.689C101.031 133.012 100.54 133.242 100.017 133.364C99.4948 133.487 98.9521 133.5 98.4243 133.402C93.2564 133.121 88.0727 133.23 82.889 133.23Z" fill="white"/>
</g>
<defs>
<clipPath id="clip0_1_14">
<rect width="164" height="164" fill="white"/>
</clipPath>
</defs>
</svg>
