<svg width="13" height="16" viewBox="0 0 13 16" fill="none" xmlns="http://www.w3.org/2000/svg">
<path d="M1.06081 15.2624L0.934289 16H0L0.108138 15.2624H1.06081Z" fill="#B3BBBB"/>
<path d="M1.88576 15.2624L1.79353 16H0.824951L0.91489 15.2766L1.88576 15.2624Z" fill="#839090"/>
<path d="M9.19367 15.3475L9.11658 16H1.65015L1.71438 15.2624L9.19367 15.3475Z" fill="#556767"/>
<path d="M6.63517 14.7952C5.14639 14.8494 3.66627 14.8306 2.30172 14.1374C0.993836 13.4711 0.102298 12.4947 0.0238218 11.0269C-0.120047 8.34133 0.372592 5.7785 1.91588 3.48426C3.41344 1.25868 5.6521 0.194826 8.36594 0.0407661C9.7741 -0.0404311 11.1997 0.0261903 12.6035 0.0178612C12.9218 0.0178612 13.0787 0.0428484 12.9609 0.434247C12.7234 1.20663 12.5359 1.99567 12.3528 2.78264C12.2765 3.1053 12.1065 3.21356 11.7642 3.19904C10.8531 3.18445 9.93977 3.19904 9.02641 3.19904C8.3142 3.20017 7.61277 3.36539 6.9817 3.68074C6.35064 3.99609 5.80851 4.45214 5.4014 5.01027C4.32639 6.3798 3.72933 8.03739 3.69462 9.74871C3.65319 11.0436 4.20033 11.5766 5.5518 11.6078C6.90326 11.639 8.20246 11.6266 9.52776 11.6078C9.97684 11.6078 10.1687 11.6661 10.016 12.1491C9.79809 12.8778 9.60408 13.6231 9.41225 14.3622C9.40588 14.4329 9.38414 14.5016 9.34831 14.5637C9.31247 14.6259 9.26338 14.6802 9.20427 14.7232C9.1451 14.7661 9.07721 14.7968 9.0049 14.8131C8.93259 14.8295 8.85751 14.8312 8.78449 14.8181C8.0695 14.7807 7.35234 14.7952 6.63517 14.7952Z" fill="#556767"/>
</svg>