<svg width="252" height="164" viewBox="0 0 252 164" fill="none" xmlns="http://www.w3.org/2000/svg">
<path d="M123.953 0.373346C122.263 0.554394 121.539 0.976837 121.177 1.94242C120.573 3.69255 119.185 23.9699 119.608 24.6941C119.909 25.1769 126.427 25.5993 126.608 25.1165C126.668 25.0562 126.97 20.8921 127.392 15.9434L128.056 6.89106H130.772H133.487L133.306 16.1245L133.125 25.3579L136.625 25.1769L140.126 24.9958L140.548 21.0731C140.789 18.9005 141.151 14.7968 141.332 11.8397L141.755 6.58931H144.108C147.548 6.58931 147.789 7.49455 147.065 16.6073C146.643 21.1335 146.643 24.513 146.945 24.8148C147.246 25.1165 148.936 25.2976 150.746 25.1769L154.005 24.9958L154.428 20.4696C155.333 10.8138 155.212 4.47709 154.126 2.78731C152.557 0.373346 149.057 -0.350843 142.841 0.494045C139.401 0.916489 136.927 0.976837 135.298 0.554394C132.944 0.0112514 128.479 -0.049099 123.953 0.373346Z" fill="#510C76"/>
<path d="M164.747 0.493963C159.557 1.82165 157.928 4.77876 157.505 13.469C156.962 23.487 158.712 25.2975 169.031 25.2975C176.635 25.2975 177.842 24.8147 177.842 21.7369V19.3833L172.109 19.1419C166.256 18.9608 165.411 18.6591 165.049 16.5469C164.868 15.4002 165.29 15.3399 172.411 15.0381L179.954 14.7364L180.135 10.2102C180.377 2.78723 178.385 0.61466 171.144 0.252565C168.669 0.131868 165.773 0.252565 164.747 0.493963ZM171.626 7.07203C172.049 7.31342 172.471 8.21866 172.532 9.0032C172.713 10.4516 172.532 10.5119 169.212 10.693C166.497 10.8137 165.652 10.693 165.411 9.90844C164.505 7.67552 169.212 5.5633 171.626 7.07203Z" fill="#510C76"/>
<path d="M188.704 0.554401C186.109 1.15789 183.515 3.9943 182.67 7.13246C182.308 8.46015 182.006 12.0207 181.946 15.0382C181.885 20.9524 182.609 22.8836 185.747 24.5734C187.196 25.3579 200.834 25.4183 201.618 24.6941C201.799 24.513 202.101 23.2457 202.343 21.8577L202.705 19.3833L196.549 19.142C190.334 18.9006 189.066 18.4178 189.489 16.2452C189.61 15.521 190.997 15.2796 196.911 15.1589L204.274 14.9779L204.575 12.1414C205.058 8.2791 204.213 3.75291 202.765 2.30453C200.653 0.192307 193.894 -0.652582 188.704 0.554401ZM196.187 7.37386C196.791 7.7963 197.213 8.70154 197.032 9.36538C196.851 10.331 196.248 10.5724 193.351 10.6931C190.273 10.8741 189.911 10.7534 189.911 9.66713C189.911 7.01176 193.773 5.62373 196.187 7.37386Z" fill="#510C76"/>
<path d="M209.101 0.43362C207.532 0.614668 207.412 0.795715 207.412 3.57178V6.52889L212.3 6.70994L217.188 6.89098L213.446 11.4172C211.334 13.8915 208.739 16.9693 207.653 18.2366C206.024 19.9868 205.601 21.0127 205.601 22.8835V25.2975L216.343 25.1768L227.024 24.9957L227.205 21.8576L227.386 18.7194L222.197 18.5384L217.067 18.3573L222.498 11.7793C227.205 6.04609 227.93 4.83911 227.93 2.90794V0.614668L219.36 0.43362C214.593 0.312923 210.007 0.312923 209.101 0.43362Z" fill="#510C76"/>
<path d="M234.568 0.494074C232.516 0.856169 232.455 0.976868 232.274 3.69258L232.093 6.58934H237.404C242.956 6.58934 244.223 7.07214 244.223 9.12401C244.223 10.0896 243.68 10.2103 240.24 10.2103C232.033 10.2103 229.438 12.2018 229.438 18.4781C229.438 21.6163 229.68 22.4612 230.826 23.6078C232.093 24.9355 232.637 24.9958 240.904 24.9958C246.154 24.9958 249.835 24.7545 250.197 24.3924C250.559 24.0303 251.163 19.4437 251.525 14.1933C252.249 5.08061 252.189 4.65817 251.042 3.08909C250.318 2.06315 248.809 1.21827 247.18 0.735472C244.344 0.0112801 238.068 -0.109417 234.568 0.494074ZM243.62 16.8487V19.2627H240.361C236.861 19.2627 235.835 18.3574 236.981 16.2452C237.706 14.8572 238.49 14.5554 241.387 14.4951C243.62 14.4347 243.62 14.4347 243.62 16.8487Z" fill="#510C76"/>
<path d="M21.2431 1.39931C18.6482 2.48559 15.6309 6.16689 15.1481 8.76191C14.9067 9.96889 14.7257 12.8657 14.6654 15.2796C14.605 19.0213 14.8464 19.9869 16.1137 21.8577C18.4672 25.2976 20.4586 26.0821 26.4329 25.8407C30.7175 25.6597 31.9848 25.3579 33.7952 24.0906C37.4159 21.6163 38.3815 19.142 39.0453 10.6931C39.347 6.58934 39.6488 2.66664 39.6488 1.8821C39.6488 0.554419 39.5884 0.554419 31.3813 0.554419C25.8898 0.614769 22.45 0.856165 21.2431 1.39931Z" fill="#510C76"/>
<path d="M49.9076 1.70098C48.761 2.30447 47.011 3.87355 46.0454 5.26159C44.4764 7.4945 44.2954 8.27905 44.054 13.6501C43.8126 18.8402 43.9333 19.8057 45.0195 21.5559C47.3127 25.1165 49.4852 25.9614 55.7008 25.7803C60.6492 25.5993 61.3734 25.4182 63.4252 23.8491C66.9856 21.1938 67.8908 18.4177 68.3736 8.82219L68.796 0.554348H60.4079C53.4077 0.554348 51.6576 0.735395 49.9076 1.70098Z" fill="#510C76"/>
<path d="M26.3726 34.4102C21.9069 35.2551 15.5102 38.8157 11.7687 42.497C8.32899 45.9369 4.7082 51.9718 3.50128 56.3773C2.89781 58.4292 1.63054 74.4217 0.121878 98.9839C-0.541932 109.002 1.4495 114.976 7.48414 121.313C10.9239 124.934 15.1481 127.408 19.7345 128.434C24.0191 129.4 40.6143 129.279 44.6575 128.193C50.149 126.744 54.1319 124.391 58.3561 120.106C62.7614 115.64 65.1753 111.355 66.5029 105.562C67.1667 102.544 71.6927 40.9883 71.6324 34.7723C71.6324 33.8067 70.2444 33.7464 50.3904 33.8067C38.6832 33.8671 27.8812 34.1085 26.3726 34.4102ZM46.2869 58.6102C46.2869 60.1793 43.873 95.1215 43.5713 98.6821C42.9678 104.596 42.3644 104.958 33.3727 104.958C22.6311 104.958 23.4156 107.191 25.1053 81.8447C25.8898 70.499 26.795 60.7225 27.0967 60.119C28.0019 58.3085 29.8727 57.9464 38.3211 57.9464C44.2954 57.8861 46.2869 58.0671 46.2869 58.6102Z" fill="#510C76"/>
<path d="M80.443 36.8846C80.2619 38.6347 79.236 53.1185 78.2705 69.0507C75.4342 113.951 72.8393 153.66 72.4169 158.79L72.0548 163.497H79.7188C87.8656 163.497 90.5208 162.894 93.2364 160.299C96.4348 157.342 96.9175 155.29 97.6417 141.953C98.0641 135.073 98.4865 129.219 98.7279 128.977C98.909 128.796 101.142 129.159 103.616 129.822C107.056 130.788 110.133 131.09 116.289 131.09C123.772 131.15 124.737 131.029 128.599 129.521C132.522 127.952 139.281 123.667 140.97 121.615C141.695 120.77 142.117 120.951 144.772 123.365C151.048 128.977 160.04 131.874 169.695 131.331C175.73 130.969 182.851 128.917 186.894 126.382C189.429 124.813 190.273 124.572 190.635 125.417C191.058 126.503 195.825 128.977 198.843 129.641C200.593 130.003 206.024 130.305 210.912 130.305C220.869 130.305 225.576 129.34 230.705 126.382C237.042 122.701 242.775 115.218 244.766 108.278C245.49 105.683 248.447 66.9989 248.447 59.8173C248.447 47.3854 240.059 36.945 228.05 34.4103C226.059 33.9879 216.946 33.7465 204.093 33.7465H183.334L183.032 35.6776C182.247 40.6866 178.385 105.14 178.747 106.829L179.17 108.7L175.307 108.459C168.066 108.036 162.936 103.872 160.824 96.9321C159.738 93.3111 159.859 81.0602 161.186 60.2397C162.514 40.4452 162.454 40.0228 158.954 36.6432C156.359 34.2292 153.703 33.6258 145.858 33.8672L138.919 34.0482L138.496 37.9709C137.169 50.7649 134.936 90.1126 135.117 98.0183L135.298 107.01L132.884 107.735C127.03 109.545 115.565 108.217 110.495 105.26C105.909 102.545 102.469 96.8717 101.504 90.4747C101.323 88.966 101.866 77.8617 102.711 65.7919C103.616 53.722 104.159 42.9195 103.918 41.7729C103.435 38.9968 99.8141 35.1345 97.0986 34.3499C95.8313 34.0482 91.6674 33.7465 87.8052 33.7465H80.7447L80.443 36.8846ZM223.041 58.9121C224.49 59.8777 224.49 59.9984 224.128 67.4817C223.886 71.6457 223.343 81.4827 222.8 89.2677C221.654 107.071 222.257 106.165 211.696 106.165C201.317 106.165 202.101 108.579 203.731 81.6034C204.515 69.3525 205.179 59.0328 205.3 58.6103C205.481 58.0672 207.714 57.8861 213.567 57.8861C220.085 57.8861 221.895 58.0672 223.041 58.9121Z" fill="#510C76"/>
<path d="M110.254 139.116C105.487 141.168 103.797 144.004 103.254 150.945C102.771 156.979 103.616 159.514 106.995 162.049C109.047 163.618 109.711 163.799 114.116 163.799C120.211 163.799 122.987 162.592 125.341 158.85C126.789 156.557 127.091 155.35 127.392 150.039C127.634 146.66 127.936 142.616 128.117 140.987L128.479 138.151H120.392C114.599 138.211 111.763 138.452 110.254 139.116Z" fill="#510C76"/>
<path d="M138.738 139.418C134.272 141.651 132.582 145.332 132.582 152.755C132.582 160.238 135.238 163.316 142.117 163.92C148.152 164.463 153.04 162.23 155.273 157.945C156.117 156.316 157.264 146.177 157.324 140.383V138.151H149.359C142.419 138.151 140.97 138.332 138.738 139.418Z" fill="#510C76"/>
<path fill-rule="evenodd" clip-rule="evenodd" d="M81.118 5.17171C79.5907 16.2903 81.1292 21.5383 86.7695 24.4492C91.4521 26.8668 99.2278 25.9239 102.631 22.5259C108 17.166 106.474 3.79867 100.222 1.42585C98.8121 0.890871 94.0817 0.452515 89.7119 0.452515H81.766L81.118 5.17171Z" fill="#FC661F"/>
<path fill-rule="evenodd" clip-rule="evenodd" d="M174.929 139.525C171.608 140.318 167.331 145.626 166.822 149.005C166.563 150.727 166.091 154.772 165.774 157.992L165.198 163.848L199.339 163.833C224.395 163.821 233.767 163.833 235.351 163.833C240.145 161.388 242.507 156.384 243.019 147.597L243.498 139.406L210.259 139.525C191.978 139.59 174.929 139.525 174.929 139.525Z" fill="#FC661F"/>
</svg>