<?xml version="1.0" encoding="UTF-8"?>
<svg id="Layer_2" xmlns="http://www.w3.org/2000/svg" version="1.1" viewBox="0 0 1920 1080">
  <!-- Generator: Adobe Illustrator 29.7.1, SVG Export Plug-In . SVG Version: 2.1.1 Build 8)  -->
  <defs>
    <style>
      .st0 {
        fill: #ed5a40;
      }

      .st1 {
        fill: #b73b33;
      }

      .st2 {
        fill: #d24e39;
      }
    </style>
  </defs>
  <g id="arro_3">
    <g>
      <path class="st2" d="M1735.2,448.8c0,76.5-42.6,136.4-107.5,159.4l2.3-318.1c63.3,23.8,105.2,83.7,105.2,158.7h0Z"/>
      <path class="st0" d="M1626.1,288.6l-212.9,234.9c-9.9-22.1-15.3-47.3-15.3-74.6,0-98.5,70.8-170,168.6-170.1,21.2,0,41.3,3.4,59.6,9.8h0Z"/>
      <path class="st1" d="M1625,609.1c-18,6-37.6,9.2-58.5,9.2-69.8,0-125.4-35.5-151.8-91.5l.7-.3c80.5-40.9,178.7-2.2,209.6,82.7h0Z"/>
      <g>
        <path class="st0" d="M1198.7,279c-33.5,0-63.8,8.5-89.3,23.6-1,.6-1.9,1.2-2.9,1.8-28.9,17.9-51.1,44.6-63.8,77.3-7.9,20.3-12.2,42.9-12.2,67.2s2.1,32.9,6,48c0,0,0,.2,0,.2,18.9,72.7,81,121,162.3,121,24.1,0,46.5-4.3,66.6-12.2,28.5-11.2,52.3-29.7,69.8-53.7,8.6-11.8,15.7-25,20.9-39.2h0c7.2-19.5,11.1-41.1,11.1-64.1,0-97.9-71.4-169.9-168.5-169.8h0ZM1197.4,535.3c-8.9-.1-17.4-1.5-25.3-3.9-.4-.1-.8-.2-1.1-.4-12.1-3.9-22.8-10.4-31.6-18.9-.7-.7-1.4-1.3-2.1-2-14.8-15.3-23.6-36.5-23.7-60.7-.1-50.2,36.2-87.3,85.3-87.2,49.2.1,86,37.6,85.6,87.3-.3,49.3-38,86.4-87.2,85.8h0Z"/>
        <polygon class="st0" points="1367.2 279.1 1307.6 279.1 1284.5 445.2 1367.2 445.2 1367.2 279.1"/>
        <path class="st0" d="M1391,727.6c-14.5,37.5-43.7,63.4-80,71.2-7.4,1.6-14.8,2.3-22.1,2.3-29,0-57.3-12-80.1-34.5-8.8-8.7-16.6-18.5-24.2-28.1l-2-2.6c-14.8-18.5-32.4-24.5-52.5-18.1-18.3,5.9-26.5,19.7-26.6,44.9,0,6.1,0,12.3,0,19v11.7s-68.8,0-68.8,0l-.4-1.4c-16.6-61.1,4.6-119.5,52.8-145.3,49.2-26.3,107.4-11.8,148.5,36.9l1.7,2c1.4,1.7,2.9,3.4,4.3,5.2,14.9,19.6,31.8,37.5,60,24.2,20.6-9.7,30.4-39.9,22.5-68.7-7.9-28.5-29.5-43.7-57.7-40.7-.3,0-.6,0-.9.1,28.5-11.2,52.3-29.7,69.8-53.7,67.6,61.4,82.2,107.6,55.8,175.5h0Z"/>
      </g>
      <path class="st0" d="M1000.6,449.4c0,98.3-70.5,169.2-168.4,169.2-98.2,0-168.2-70.4-168.3-169.1,0-98.3,70.7-169.7,168.2-169.8,97-.1,168.4,71.9,168.4,169.7ZM747,450c.1,48.7,35.8,85.3,83.8,85.9,49.1.6,86.8-36.4,87.1-85.8.3-49.7-36.4-87.2-85.6-87.3-49.1-.1-85.4,37-85.3,87.2Z"/>
      <g>
        <path class="st0" d="M368.1,412.7v205.9h82.8v-205.9c0-27.7,22.5-50.2,50.2-50.2h0c27.7,0,50.2,22.5,50.2,50.2v205.9h82.8v-205.9c0-73.4-59.5-133-133-133h0c-73.5,0-133,59.5-133,133h0Z"/>
        <path class="st0" d="M184.8,412.7v205.9h82.8v-205.9c0-27.7,22.5-50.2,50.2-50.2h0c27.7,0,50.2,22.5,50.2,50.2v205.9h82.8v-205.9c0-73.4-59.5-133-133-133h0c-73.4,0-133,59.5-133,133h0Z"/>
      </g>
    </g>
  </g>
</svg>