<svg width="246" height="164" viewBox="0 0 246 164" fill="none" xmlns="http://www.w3.org/2000/svg">
<g clip-path="url(#clip0_1_25)">
<path d="M103.541 76.8435C107.601 80.08 107.369 86.3408 103.056 89.2314C99.2108 91.8089 93.438 93.9817 85.0463 93.6068C49.1988 92.0051 37.3071 62.4338 38.3275 46.5079C40.8939 6.45586 74.8785 -0.284931 86.2969 0.27208C91.266 0.514512 118.268 1.83899 128.78 30.9474C132.958 42.5166 133.822 56.0548 137.81 64.5845C143.662 77.104 153.037 82.2656 163.168 82.7519C171.697 83.1611 190.254 78.8458 194.071 57.4084C194.071 57.4084 194.685 51.4941 194.336 32.267C194.14 21.3469 194.685 6.33927 194.685 6.33927C194.685 6.33927 194.208 -0.000366211 201.297 -0.000366211C207.637 -0.000366211 207.056 6.72253 207.056 6.72253L206.894 46.1107C206.894 46.1107 212.159 90.7454 166.713 95.3734C153.632 96.7056 137.863 90.8293 128.63 74.395C124.77 67.526 122.696 60.147 120.631 47.6866C115.814 18.6212 96.7268 11.99 86.456 11.8464C80.5447 11.7636 48.6452 14.7151 50.0735 50.5187C50.228 54.3906 52.917 72.1239 73.913 80.3901C73.913 80.3901 88.53 85.4524 103.541 76.8435Z" fill="#6F01E4"/>
<path d="M103.541 76.8447C103.541 76.8447 108.074 74.0307 110.327 78.5711C113.597 85.1627 99.5018 91.1903 99.5018 91.1903" fill="#6F01E4"/>
<path d="M57.3929 156.844C58.8331 157.992 58.7509 160.213 57.2209 161.239C55.8567 162.153 53.8088 162.924 50.8316 162.791C38.1143 162.223 33.8957 151.732 34.2577 146.082C35.1682 131.873 47.2245 129.482 51.2753 129.68C53.0381 129.765 62.6175 130.235 66.3466 140.562C67.8288 144.666 68.1355 149.469 69.5501 152.495C71.6264 156.937 74.9522 158.768 78.5462 158.94C81.5722 159.085 88.1551 157.554 89.5095 149.949C89.5095 149.949 89.727 147.851 89.6037 141.03C89.5337 137.156 89.727 131.832 89.727 131.832C89.727 131.832 89.5579 129.583 92.0728 129.583C94.3219 129.583 94.116 131.968 94.116 131.968L94.0584 145.941C94.0584 145.941 95.9261 161.776 79.8037 163.418C75.1631 163.89 69.569 161.806 66.2933 155.975C64.9241 153.538 64.1884 150.921 63.4558 146.5C61.7467 136.189 54.9754 133.837 51.3318 133.785C49.2347 133.756 37.9181 134.803 38.4248 147.505C38.4795 148.879 39.4336 155.17 46.882 158.102C46.882 158.102 52.0675 159.898 57.3929 156.844Z" fill="#6F01E4"/>
<path d="M57.3929 156.847C57.3929 156.847 59.0009 155.849 59.8003 157.46C60.9605 159.798 55.9598 161.937 55.9598 161.937" fill="#6F01E4"/>
<path d="M9.49318 140.188C7.93735 139.6 6.54856 138.856 5.32699 137.956C4.10448 137.057 3.11562 135.98 2.36046 134.726C1.60492 133.471 1.22711 131.989 1.22711 130.279C1.22711 128.546 1.60492 126.987 2.36046 125.598C3.11562 124.211 4.11035 123.034 5.3436 122.068C6.57663 121.102 7.97074 120.358 9.52647 119.836C11.0815 119.314 12.6594 119.053 14.2593 119.053C15.5476 119.053 16.8034 119.186 18.0256 119.453C19.2475 119.719 20.3923 120.114 21.4586 120.635C22.5252 121.157 23.4919 121.801 24.3584 122.567C25.2249 123.333 25.9467 124.227 26.5247 125.249C26.7692 125.648 26.8247 126.054 26.6914 126.465C26.5581 126.876 26.3691 127.203 26.1248 127.447C25.8134 127.736 25.4084 127.908 24.9084 127.963C24.4083 128.019 23.9251 127.869 23.4585 127.514C22.1696 125.937 20.7921 124.832 19.3255 124.199C17.8589 123.567 16.1923 123.25 14.326 123.25C13.2814 123.25 12.2372 123.4 11.1928 123.7C10.1482 124 9.19845 124.438 8.34323 125.015C7.48772 125.593 6.78769 126.32 6.24331 127.197C5.69854 128.075 5.42697 129.091 5.42697 130.245C5.42697 131.467 5.74854 132.483 6.39327 133.293C7.03774 134.104 7.85407 134.787 8.84322 135.342C9.83144 135.897 10.9148 136.347 12.0928 136.691C13.2703 137.035 14.3927 137.34 15.4594 137.607C17.1034 138.118 18.7089 138.695 20.2755 139.339C21.8419 139.983 23.2304 140.771 24.4417 141.704C25.6525 142.637 26.6246 143.747 27.3581 145.035C28.0913 146.323 28.458 147.866 28.458 149.665C28.458 151.597 28.0745 153.346 27.3079 154.912C26.5413 156.477 25.5083 157.821 24.2085 158.942C22.9085 160.064 21.397 160.93 19.6756 161.54C17.953 162.151 16.1476 162.456 14.2593 162.456C12.6814 162.456 11.1595 162.245 9.69312 161.823C8.22656 161.402 6.87656 160.83 5.64333 160.108C4.4103 159.386 3.33227 158.531 2.41044 157.543C1.48825 156.555 0.782429 155.494 0.2941 154.362C-0.0392248 153.651 -0.0892135 153.058 0.144133 152.58C0.377105 152.102 0.715746 151.742 1.16043 151.497C1.67151 151.209 2.1549 151.147 2.6104 151.314C3.06562 151.48 3.53782 151.875 4.02698 152.496C4.4489 153.385 5.02109 154.184 5.74332 154.895C6.46518 155.606 7.28189 156.211 8.19327 156.71C9.10398 157.21 10.0932 157.593 11.1595 157.859C12.2261 158.126 13.326 158.259 14.4594 158.259C15.6368 158.259 16.809 158.082 17.9756 157.726C19.1422 157.371 20.1922 156.838 21.1253 156.127C22.0586 155.417 22.8137 154.534 23.3917 153.479C23.9692 152.425 24.2585 151.209 24.2585 149.832C24.2585 148.566 23.9692 147.506 23.3917 146.65C22.8137 145.796 22.0471 145.063 21.0919 144.452C20.1363 143.841 19.0589 143.319 17.8589 142.886C16.659 142.453 15.4476 142.037 14.226 141.637C12.6261 141.26 11.0481 140.777 9.49318 140.188Z" fill="#6F01E4"/>
<path d="M106.415 136.307C107.726 134.62 109.276 133.259 111.065 132.227C112.853 131.194 114.77 130.677 116.814 130.677C118.747 130.677 120.486 131.039 122.03 131.76C123.575 132.482 124.897 133.509 125.997 134.841C127.097 136.174 127.941 137.784 128.53 139.671C129.118 141.559 129.413 143.669 129.413 146V146.034V159.957C129.413 160.557 129.213 161.056 128.813 161.456C128.413 161.856 127.913 162.056 127.313 162.056C126.735 162.056 126.247 161.856 125.847 161.456C125.447 161.056 125.247 160.557 125.247 159.957V146.134V146.034C125.247 142.436 124.469 139.671 122.913 137.739C121.358 135.807 119.181 134.841 116.381 134.841C115.025 134.841 113.753 135.108 112.564 135.641C111.375 136.174 110.331 136.912 109.432 137.856C108.531 138.8 107.815 139.916 107.282 141.204C106.748 142.492 106.459 143.88 106.415 145.367V159.891C106.415 160.49 106.209 160.996 105.799 161.406C105.387 161.817 104.893 162.022 104.315 162.022C103.737 162.022 103.243 161.817 102.832 161.406C102.421 160.996 102.215 160.49 102.215 159.891V121.517C102.215 120.918 102.421 120.413 102.832 120.002C103.243 119.591 103.737 119.385 104.315 119.385C104.915 119.385 105.415 119.591 105.815 120.002C106.215 120.413 106.415 120.918 106.415 121.517V136.307Z" fill="#6F01E4"/>
<path d="M139.128 151.08C139.739 152.491 140.566 153.723 141.611 154.778C142.655 155.833 143.889 156.671 145.311 157.293C146.733 157.915 148.266 158.225 149.911 158.225C151.555 158.225 153.088 157.915 154.51 157.293C155.932 156.671 157.171 155.833 158.226 154.778C159.282 153.723 160.11 152.491 160.71 151.08C161.309 149.671 161.609 148.166 161.609 146.567C161.609 144.946 161.309 143.425 160.71 142.004C160.11 140.583 159.282 139.344 158.226 138.289C157.171 137.235 155.932 136.402 154.51 135.791C153.088 135.181 151.555 134.875 149.911 134.875C148.288 134.875 146.766 135.181 145.344 135.791C143.922 136.402 142.683 137.235 141.628 138.289C140.572 139.344 139.739 140.583 139.128 142.004C138.517 143.425 138.212 144.946 138.212 146.567C138.212 148.166 138.517 149.671 139.128 151.08ZM135.262 140.355C136.095 138.412 137.234 136.724 138.678 135.291C140.122 133.859 141.811 132.727 143.744 131.894C145.678 131.061 147.733 130.645 149.911 130.645C152.11 130.645 154.171 131.061 156.093 131.894C158.015 132.727 159.693 133.859 161.126 135.291C162.559 136.724 163.693 138.412 164.526 140.355C165.359 142.298 165.776 144.369 165.776 146.567C165.776 148.744 165.359 150.797 164.526 152.729C163.693 154.661 162.559 156.343 161.126 157.776C159.693 159.208 158.015 160.341 156.093 161.173C154.171 162.006 152.11 162.423 149.911 162.423C147.733 162.423 145.678 162.006 143.744 161.173C141.811 160.341 140.122 159.208 138.678 157.776C137.234 156.343 136.095 154.661 135.262 152.729C134.429 150.797 134.012 148.744 134.012 146.567C134.012 144.369 134.429 142.298 135.262 140.355Z" fill="#6F01E4"/>
<path d="M173.791 151.08C174.402 152.491 175.229 153.723 176.274 154.778C177.318 155.833 178.551 156.671 179.974 157.293C181.395 157.915 182.929 158.225 184.573 158.225C186.218 158.225 187.75 157.915 189.173 157.293C190.594 156.671 191.834 155.833 192.889 154.778C193.945 153.723 194.773 152.491 195.372 151.08C195.972 149.671 196.272 148.166 196.272 146.567C196.272 144.946 195.972 143.425 195.372 142.004C194.773 140.583 193.945 139.344 192.889 138.289C191.834 137.235 190.594 136.402 189.173 135.791C187.75 135.181 186.218 134.875 184.573 134.875C182.951 134.875 181.429 135.181 180.007 135.791C178.585 136.402 177.346 137.235 176.291 138.289C175.235 139.344 174.402 140.583 173.791 142.004C173.18 143.425 172.874 144.946 172.874 146.567C172.874 148.166 173.18 149.671 173.791 151.08ZM169.925 140.355C170.758 138.412 171.896 136.724 173.341 135.291C174.785 133.859 176.474 132.727 178.407 131.894C180.34 131.061 182.395 130.645 184.573 130.645C186.773 130.645 188.834 131.061 190.757 131.894C192.677 132.727 194.355 133.859 195.789 135.291C197.221 136.724 198.356 138.412 199.189 140.355C200.023 142.298 200.438 144.369 200.438 146.567C200.438 148.744 200.023 150.797 199.189 152.729C198.356 154.661 197.221 156.343 195.789 157.776C194.355 159.208 192.677 160.341 190.757 161.173C188.834 162.006 186.773 162.423 184.573 162.423C182.395 162.423 180.34 162.006 178.407 161.173C176.474 160.341 174.785 159.208 173.341 157.776C171.896 156.343 170.758 154.661 169.925 152.729C169.091 150.797 168.675 148.744 168.675 146.567C168.675 144.369 169.091 142.298 169.925 140.355Z" fill="#6F01E4"/>
<path d="M209.47 159.959C209.47 160.537 209.264 161.025 208.854 161.424C208.442 161.824 207.948 162.024 207.37 162.024C206.793 162.024 206.299 161.824 205.887 161.424C205.475 161.025 205.271 160.537 205.271 159.959V121.452C205.271 120.853 205.475 120.359 205.887 119.97C206.299 119.582 206.793 119.387 207.37 119.387C207.948 119.387 208.442 119.582 208.854 119.97C209.264 120.359 209.47 120.853 209.47 121.452V159.959Z" fill="#6F01E4"/>
<path d="M218.437 146.567C218.437 148.166 218.742 149.671 219.352 151.08C219.964 152.491 220.79 153.723 221.835 154.778C222.88 155.833 224.114 156.671 225.534 157.293C226.957 157.915 228.49 158.225 230.134 158.225C231.78 158.225 233.311 157.915 234.734 157.293C236.156 156.671 237.39 155.833 238.433 154.778C239.478 153.723 240.3 152.491 240.901 151.08C241.5 149.671 241.801 148.166 241.801 146.567C241.801 144.946 241.5 143.425 240.901 142.004C240.3 140.583 239.478 139.344 238.433 138.289C237.39 137.235 236.156 136.402 234.734 135.791C233.311 135.181 231.78 134.875 230.134 134.875C228.513 134.875 226.989 135.181 225.569 135.791C224.146 136.402 222.907 137.235 221.852 138.289C220.797 139.344 219.964 140.583 219.352 142.004C218.742 143.425 218.437 144.946 218.437 146.567ZM214.236 146.567C214.236 144.369 214.653 142.298 215.487 140.355C216.32 138.412 217.458 136.724 218.902 135.291C220.347 133.859 222.035 132.727 223.969 131.894C225.902 131.061 227.956 130.645 230.134 130.645C232.312 130.645 234.356 131.056 236.267 131.877C238.178 132.699 239.85 133.815 241.284 135.225C242.716 136.635 243.851 138.295 244.684 140.205C245.518 142.115 245.954 144.158 246 146.334V146.4V146.567V159.858C246 160.457 245.794 160.968 245.384 161.39C244.972 161.812 244.467 162.023 243.866 162.023C243.267 162.023 242.772 161.812 242.384 161.39C241.995 160.968 241.801 160.457 241.801 159.858L241.767 156.993C240.3 158.614 238.572 159.924 236.583 160.924C234.594 161.923 232.445 162.423 230.134 162.423C227.956 162.423 225.902 162.006 223.969 161.173C222.035 160.341 220.347 159.208 218.902 157.776C217.458 156.343 216.32 154.661 215.487 152.729C214.653 150.797 214.236 148.744 214.236 146.567Z" fill="#6F01E4"/>
</g>
<defs>
<clipPath id="clip0_1_25">
<rect width="246" height="164" fill="white"/>
</clipPath>
</defs>
</svg>