<svg width="16" height="16" viewBox="0 0 16 16" fill="none" xmlns="http://www.w3.org/2000/svg">
<g clip-path="url(#clip0_30_11249)">
<path d="M6.39744 9.23867C6.68024 9.45903 6.66412 9.88531 6.36366 10.0821C6.09576 10.2576 5.6936 10.4056 5.10898 10.38C2.61162 10.271 1.78317 8.25755 1.85427 7.17321C2.03306 4.44618 4.40063 3.98723 5.1961 4.02515C5.54227 4.04166 7.42341 4.13184 8.15572 6.11374C8.44679 6.90144 8.507 7.82322 8.78479 8.40398C9.19251 9.25641 9.84562 9.60784 10.5515 9.64095C11.1456 9.66883 12.4384 9.375 12.7044 7.91538C12.7044 7.91538 12.7471 7.51269 12.7228 6.20358C12.7091 5.46008 12.7471 4.43824 12.7471 4.43824C12.7471 4.43824 12.7138 4.00659 13.2078 4.00659C13.6494 4.00659 13.609 4.46434 13.609 4.46434L13.5976 7.14617C13.5976 7.14617 13.9644 10.1852 10.7984 10.5003C9.8871 10.591 8.78853 10.1909 8.14525 9.07194C7.8764 8.60428 7.7319 8.10185 7.58804 7.25346C7.25244 5.27448 5.92271 4.82298 5.20719 4.8132C4.79537 4.80757 2.57306 5.00853 2.67256 7.44628C2.68332 7.70991 2.87067 8.91733 4.33337 9.48014C4.33337 9.48014 5.35167 9.82482 6.39744 9.23867Z" fill="#556767"/>
<path d="M6.39737 9.23868C6.39737 9.23868 6.71316 9.0471 6.87011 9.35623C7.09796 9.80505 6.11597 10.2154 6.11597 10.2154" fill="#556767"/>
<path d="M3.73134 13.5695C3.82496 13.6424 3.81962 13.7836 3.72014 13.8487C3.63146 13.9068 3.49831 13.9558 3.30476 13.9473C2.47795 13.9112 2.20367 13.2446 2.22721 12.8856C2.28641 11.9828 3.07024 11.8308 3.33361 11.8434C3.44821 11.8489 4.071 11.8787 4.31346 12.5349C4.40981 12.7957 4.42975 13.1008 4.52173 13.2931C4.65671 13.5753 4.87293 13.6917 5.1066 13.7026C5.30332 13.7119 5.73132 13.6146 5.81937 13.1313C5.81937 13.1313 5.83351 12.998 5.82549 12.5646C5.82095 12.3185 5.83351 11.9802 5.83351 11.9802C5.83351 11.9802 5.82251 11.8372 5.98603 11.8372C6.13225 11.8372 6.11885 11.9888 6.11885 11.9888L6.11511 12.8767C6.11511 12.8767 6.23655 13.8828 5.18837 13.9871C4.88664 14.0172 4.52294 13.8847 4.30998 13.5142C4.22096 13.3594 4.17313 13.1931 4.12551 12.9122C4.01441 12.257 3.57416 12.1075 3.33726 12.1043C3.20093 12.1024 2.46518 12.169 2.49813 12.976C2.50169 13.0633 2.56371 13.4631 3.04797 13.6494C3.04797 13.6494 3.3851 13.7635 3.73134 13.5695Z" fill="#556767"/>
<path d="M3.73135 13.5695C3.73135 13.5695 3.83591 13.506 3.88787 13.6084C3.9633 13.7569 3.63818 13.8928 3.63818 13.8928" fill="#556767"/>
<path d="M0.617193 12.5111C0.516043 12.4737 0.425747 12.4264 0.346331 12.3693C0.266849 12.3121 0.202566 12.2437 0.153467 12.1639C0.104343 12.0842 0.0797868 11.9901 0.0797868 11.8814C0.0797868 11.7713 0.104343 11.6722 0.153467 11.584C0.202566 11.4958 0.267236 11.421 0.347414 11.3597C0.427578 11.2983 0.518209 11.251 0.619359 11.2179C0.720457 11.1847 0.82305 11.1681 0.927062 11.1681C1.01082 11.1681 1.09247 11.1766 1.17193 11.1935C1.25136 11.2104 1.32579 11.2355 1.3951 11.2686C1.46446 11.3018 1.52731 11.3427 1.58365 11.3914C1.64 11.4401 1.6869 11.4969 1.72449 11.5618C1.74038 11.5872 1.74399 11.613 1.73532 11.639C1.72666 11.6652 1.71437 11.686 1.69848 11.7015C1.67824 11.7198 1.65191 11.7308 1.61941 11.7343C1.5869 11.7378 1.55547 11.7283 1.52513 11.7057C1.44134 11.6055 1.35179 11.5353 1.25643 11.4951C1.16109 11.4549 1.05274 11.4348 0.931393 11.4348C0.863474 11.4348 0.795594 11.4443 0.727688 11.4634C0.65977 11.4824 0.598025 11.5103 0.54243 11.547C0.486808 11.5837 0.441307 11.6299 0.405909 11.6856C0.370487 11.7414 0.352828 11.8059 0.352828 11.8793C0.352828 11.9569 0.373735 12.0215 0.415654 12.0729C0.457548 12.1245 0.51063 12.1679 0.574939 12.2031C0.639184 12.2384 0.709616 12.267 0.78621 12.2888C0.862752 12.3107 0.935736 12.3301 1.00507 12.347C1.11198 12.3795 1.21635 12.4162 1.31821 12.4571C1.42004 12.498 1.5103 12.5481 1.58907 12.6074C1.66779 12.6666 1.73099 12.7372 1.77867 12.819C1.82634 12.9009 1.85018 12.9989 1.85018 13.1132C1.85018 13.236 1.82526 13.3471 1.77542 13.4466C1.72557 13.5461 1.65841 13.6314 1.5739 13.7026C1.48938 13.7739 1.39112 13.829 1.2792 13.8678C1.16721 13.9066 1.04983 13.926 0.927062 13.926C0.824468 13.926 0.725523 13.9126 0.630199 13.8857C0.534851 13.859 0.447081 13.8227 0.366904 13.7768C0.28674 13.731 0.216642 13.6766 0.156715 13.6138C0.0967507 13.551 0.0508611 13.4837 0.0191253 13.4117C-0.0025431 13.3665 -0.00580434 13.3288 0.00936747 13.2984C0.0245264 13.2681 0.04653 13.2452 0.0754428 13.2296C0.108674 13.2113 0.140101 13.2074 0.169709 13.218C0.199305 13.2286 0.23001 13.2536 0.26181 13.2931C0.28924 13.3496 0.326441 13.4004 0.373401 13.4455C0.420333 13.4907 0.473428 13.5291 0.532672 13.5609C0.59189 13.5926 0.6562 13.617 0.725523 13.6339C0.794873 13.6508 0.866387 13.6593 0.940068 13.6593C1.01662 13.6593 1.09283 13.6481 1.16868 13.6254C1.24452 13.6028 1.31279 13.569 1.37344 13.5238C1.43412 13.4787 1.48322 13.4226 1.5208 13.3556C1.55835 13.2886 1.57715 13.2113 1.57715 13.1238C1.57715 13.0434 1.55835 12.976 1.5208 12.9217C1.48322 12.8674 1.43338 12.8208 1.37127 12.782C1.30916 12.7432 1.23911 12.71 1.16109 12.6825C1.08307 12.655 1.00432 12.6285 0.924896 12.6031C0.820884 12.5792 0.718279 12.5485 0.617193 12.5111Z" fill="#556767"/>
<path d="M6.91856 12.2645C7.00377 12.1572 7.10453 12.0708 7.22085 12.0052C7.3371 11.9396 7.46171 11.9068 7.59465 11.9068C7.72032 11.9068 7.83334 11.9297 7.93376 11.9756C8.03415 12.0214 8.12012 12.0867 8.19164 12.1714C8.26315 12.256 8.31803 12.3583 8.35631 12.4783C8.39458 12.5982 8.41374 12.7322 8.41374 12.8804V12.8825V13.7672C8.41374 13.8053 8.40073 13.8371 8.37473 13.8625C8.34873 13.8879 8.31622 13.9006 8.27722 13.9006C8.23963 13.9006 8.20789 13.8879 8.18187 13.8625C8.15588 13.8371 8.14288 13.8053 8.14288 13.7672V12.8888V12.8825C8.14288 12.6539 8.09229 12.4782 7.99118 12.3555C7.89005 12.2327 7.74848 12.1714 7.56647 12.1714C7.47833 12.1714 7.39561 12.1883 7.31835 12.2221C7.24105 12.256 7.17317 12.3029 7.11466 12.3629C7.05615 12.4229 7.00955 12.4938 6.97489 12.5756C6.94022 12.6575 6.92143 12.7457 6.91856 12.8402V13.763C6.91856 13.8011 6.90518 13.8332 6.87847 13.8593C6.85172 13.8855 6.81957 13.8985 6.78203 13.8985C6.74445 13.8985 6.71233 13.8855 6.68559 13.8593C6.65886 13.8332 6.64551 13.8011 6.64551 13.763V11.3247C6.64551 11.2866 6.65886 11.2545 6.68559 11.2284C6.71233 11.2023 6.74445 11.1893 6.78203 11.1893C6.82104 11.1893 6.85356 11.2023 6.87955 11.2284C6.90555 11.2545 6.91856 11.2866 6.91856 11.3247V12.2645Z" fill="#556767"/>
<path d="M9.04526 13.2032C9.08498 13.2928 9.13877 13.3711 9.20668 13.4381C9.27457 13.5052 9.35475 13.5585 9.44724 13.5979C9.53966 13.6374 9.63935 13.6571 9.74627 13.6571C9.85319 13.6571 9.95286 13.6374 10.0453 13.5979C10.1377 13.5585 10.2182 13.5052 10.2869 13.4381C10.3555 13.3711 10.4094 13.2928 10.4483 13.2032C10.4874 13.1136 10.5068 13.018 10.5068 12.9164C10.5068 12.8134 10.4874 12.7167 10.4483 12.6264C10.4094 12.5361 10.3555 12.4574 10.2869 12.3904C10.2182 12.3234 10.1377 12.2705 10.0453 12.2317C9.95286 12.1929 9.85319 12.1735 9.74627 12.1735C9.64079 12.1735 9.54182 12.1929 9.4494 12.2317C9.35692 12.2705 9.27639 12.3234 9.20777 12.3904C9.13916 12.4574 9.08498 12.5361 9.04526 12.6264C9.00552 12.7167 8.98567 12.8134 8.98567 12.9164C8.98567 13.018 9.00552 13.1136 9.04526 13.2032ZM8.79389 12.5216C8.84805 12.3982 8.92209 12.2909 9.016 12.1999C9.10989 12.1089 9.2197 12.037 9.34539 11.984C9.47106 11.9311 9.60467 11.9047 9.74627 11.9047C9.88925 11.9047 10.0232 11.9311 10.1482 11.984C10.2732 12.037 10.3823 12.1089 10.4754 12.1999C10.5686 12.2909 10.6423 12.3982 10.6965 12.5216C10.7506 12.6451 10.7777 12.7767 10.7777 12.9164C10.7777 13.0547 10.7506 13.1852 10.6965 13.3079C10.6423 13.4307 10.5686 13.5376 10.4754 13.6286C10.3823 13.7196 10.2732 13.7916 10.1482 13.8445C10.0232 13.8974 9.88925 13.9239 9.74627 13.9239C9.60467 13.9239 9.47106 13.8974 9.34539 13.8445C9.2197 13.7916 9.10989 13.7196 9.016 13.6286C8.92209 13.5376 8.84805 13.4307 8.79389 13.3079C8.73973 13.1852 8.71265 13.0547 8.71265 12.9164C8.71265 12.7767 8.73973 12.6451 8.79389 12.5216Z" fill="#556767"/>
<path d="M11.2989 13.2032C11.3386 13.2928 11.3925 13.3711 11.4603 13.4381C11.5282 13.5052 11.6084 13.5585 11.7009 13.5979C11.7933 13.6374 11.893 13.6571 11.9999 13.6571C12.1068 13.6571 12.2065 13.6374 12.2989 13.5979C12.3913 13.5585 12.472 13.5052 12.5406 13.4381C12.6091 13.3711 12.663 13.2928 12.702 13.2032C12.741 13.1136 12.7605 13.018 12.7605 12.9164C12.7605 12.8134 12.741 12.7167 12.702 12.6264C12.663 12.5361 12.6091 12.4574 12.5406 12.3904C12.472 12.3234 12.3913 12.2705 12.2989 12.2317C12.2065 12.1929 12.1068 12.1735 11.9999 12.1735C11.8944 12.1735 11.7955 12.1929 11.7031 12.2317C11.6106 12.2705 11.53 12.3234 11.4614 12.3904C11.3928 12.4574 11.3386 12.5361 11.2989 12.6264C11.2591 12.7167 11.2393 12.8134 11.2393 12.9164C11.2393 13.018 11.2591 13.1136 11.2989 13.2032ZM11.0475 12.5216C11.1017 12.3982 11.1757 12.2909 11.2697 12.1999C11.3636 12.1089 11.4734 12.037 11.5991 11.984C11.7247 11.9311 11.8583 11.9047 11.9999 11.9047C12.143 11.9047 12.2769 11.9311 12.4019 11.984C12.5269 12.037 12.6359 12.1089 12.7291 12.1999C12.8223 12.2909 12.896 12.3982 12.9501 12.5216C13.0043 12.6451 13.0314 12.7767 13.0314 12.9164C13.0314 13.0547 13.0043 13.1852 12.9501 13.3079C12.896 13.4307 12.8223 13.5376 12.7291 13.6286C12.6359 13.7196 12.5269 13.7916 12.4019 13.8445C12.2769 13.8974 12.143 13.9239 11.9999 13.9239C11.8583 13.9239 11.7247 13.8974 11.5991 13.8445C11.4734 13.7916 11.3636 13.7196 11.2697 13.6286C11.1757 13.5376 11.1017 13.4307 11.0475 13.3079C10.9934 13.1852 10.9663 13.0547 10.9663 12.9164C10.9663 12.7767 10.9934 12.6451 11.0475 12.5216Z" fill="#556767"/>
<path d="M13.6185 13.7672C13.6185 13.804 13.6051 13.8349 13.5784 13.8603C13.5517 13.8857 13.5195 13.8985 13.482 13.8985C13.4444 13.8985 13.4123 13.8857 13.3856 13.8603C13.3588 13.8349 13.3455 13.804 13.3455 13.7672V11.3205C13.3455 11.2824 13.3588 11.251 13.3856 11.2263C13.4123 11.2016 13.4444 11.1893 13.482 11.1893C13.5195 11.1893 13.5517 11.2016 13.5784 11.2263C13.6051 11.251 13.6185 11.2824 13.6185 11.3205V13.7672Z" fill="#556767"/>
<path d="M14.2015 12.9164C14.2015 13.018 14.2213 13.1136 14.261 13.2032C14.3008 13.2928 14.3545 13.3711 14.4225 13.4381C14.4904 13.5052 14.5705 13.5584 14.663 13.5979C14.7554 13.6374 14.8551 13.6571 14.962 13.6571C15.069 13.6571 15.1686 13.6374 15.2611 13.5979C15.3535 13.5584 15.4337 13.5052 15.5016 13.4381C15.5695 13.3711 15.623 13.2928 15.662 13.2032C15.7009 13.1136 15.7205 13.018 15.7205 12.9164C15.7205 12.8134 15.7009 12.7167 15.662 12.6264C15.623 12.5361 15.5695 12.4574 15.5016 12.3904C15.4337 12.3234 15.3535 12.2705 15.2611 12.2317C15.1686 12.1929 15.069 12.1735 14.962 12.1735C14.8566 12.1735 14.7576 12.1929 14.6651 12.2317C14.5727 12.2705 14.4922 12.3234 14.4235 12.3904C14.3549 12.4574 14.3008 12.5361 14.261 12.6264C14.2213 12.7167 14.2015 12.8134 14.2015 12.9164ZM13.9285 12.9164C13.9285 12.7767 13.9555 12.6451 14.0097 12.5216C14.0638 12.3982 14.1379 12.2909 14.2318 12.1999C14.3257 12.1089 14.4354 12.0369 14.5611 11.984C14.6868 11.9311 14.8204 11.9047 14.962 11.9047C15.1036 11.9047 15.2365 11.9308 15.3607 11.983C15.485 12.0352 15.5937 12.1061 15.6869 12.1957C15.78 12.2853 15.8538 12.3908 15.9079 12.5121C15.9621 12.6335 15.9906 12.7633 15.9935 12.9015V12.9058V12.9164V13.7609C15.9935 13.799 15.9801 13.8314 15.9535 13.8583C15.9267 13.8851 15.8938 13.8985 15.8548 13.8985C15.8158 13.8985 15.7837 13.8851 15.7584 13.8583C15.7331 13.8314 15.7205 13.799 15.7205 13.7609L15.7183 13.5788C15.623 13.6819 15.5106 13.7651 15.3813 13.8286C15.2521 13.8921 15.1123 13.9239 14.962 13.9239C14.8204 13.9239 14.6868 13.8974 14.5611 13.8445C14.4354 13.7916 14.3257 13.7196 14.2318 13.6286C14.1379 13.5376 14.0638 13.4307 14.0097 13.3079C13.9555 13.1852 13.9285 13.0547 13.9285 12.9164Z" fill="#556767"/>
</g>
<defs>
<clipPath id="clip0_30_11249">
<rect width="16" height="10" fill="white" transform="translate(0 4)"/>
</clipPath>
</defs>
</svg>