<svg width="16" height="16" viewBox="0 0 16 16" fill="none" xmlns="http://www.w3.org/2000/svg">
<path d="M3.72064 4.38142C4.30129 4.79354 4.71079 5.34298 4.83432 6.05964C4.83787 6.12189 4.8397 6.18426 4.83997 6.24662C4.84039 6.30045 4.84039 6.30045 4.84082 6.35538C4.84099 6.39367 4.84115 6.43196 4.84132 6.47142C4.84225 6.55317 4.84321 6.63492 4.8442 6.71666C4.8456 6.84504 4.84677 6.97341 4.8473 7.10179C4.84792 7.22604 4.84952 7.35025 4.85128 7.47449C4.8512 7.51271 4.85113 7.55092 4.85105 7.59029C4.85619 7.87212 4.91177 8.00883 5.11309 8.21015C5.2934 8.23473 5.46042 8.23182 5.62832 8.16037C5.73741 8.06781 5.82003 7.9887 5.84501 7.84412C5.84509 7.81254 5.84517 7.78096 5.84525 7.74843C5.84566 7.71238 5.84606 7.67634 5.84648 7.6392C5.84635 7.60045 5.84623 7.5617 5.84611 7.52178C5.84654 7.4815 5.84697 7.44122 5.84742 7.39972C5.84878 7.27079 5.8494 7.14187 5.84984 7.01294C5.85043 6.84403 5.85178 6.67516 5.85358 6.50626C5.85346 6.46808 5.85334 6.4299 5.85321 6.39056C5.86014 5.75569 6.11964 5.17842 6.55424 4.72055C6.85093 4.4353 7.19244 4.23756 7.5822 4.10825C7.62389 4.09408 7.66557 4.07991 7.70852 4.06531C8.33091 3.91543 8.95313 4.03073 9.50622 4.33724C10.0271 4.6767 10.4225 5.14291 10.6089 5.74105C10.6915 6.17376 10.6608 6.62758 10.6626 7.06684C10.6631 7.18092 10.6642 7.29497 10.6659 7.40904C10.6779 8.26422 10.6317 9.0607 10.2504 9.84295C10.2333 9.87948 10.2333 9.87948 10.2157 9.91675C9.56944 11.2915 8.48264 12.3041 7.04831 12.8274C5.61028 13.251 4.11869 13.1466 2.79554 12.4316C1.56218 11.7479 0.609898 10.6092 0.209723 9.25305C0.0257207 8.57194 0.00170135 7.90468 0.00300736 7.20253C0.00313425 7.05967 0.00219208 6.91684 0.00118921 6.77399C0.00109876 6.682 0.00107064 6.59001 0.00111143 6.49802C0.000744658 6.4559 0.000377887 6.41379 0 6.3704C0.00377588 5.75893 0.260767 5.18733 0.685437 4.74979C0.714082 4.72207 0.742728 4.69435 0.772241 4.66579C0.795137 4.643 0.818033 4.6202 0.841623 4.59672C1.61869 3.87542 2.83767 3.8405 3.72064 4.38142ZM1.28996 5.62157C1.06071 5.93524 1.03902 6.27139 1.04183 6.64549C1.04185 6.68564 1.04187 6.72579 1.04189 6.76716C1.04201 6.8517 1.04232 6.93625 1.04282 7.02079C1.04354 7.14916 1.04363 7.27752 1.04362 7.40589C1.04382 7.48844 1.04405 7.57099 1.04432 7.65355C1.04437 7.69143 1.04441 7.72932 1.04446 7.76836C1.05271 8.95174 1.52514 9.96905 2.33037 10.8236C3.20044 11.6655 4.30748 12.0483 5.50343 12.0509C6.61755 12.026 7.67331 11.5069 8.44963 10.7273C9.36921 9.74543 9.67651 8.55817 9.67083 7.24035C9.67049 7.11925 9.67165 6.99822 9.6729 6.87713C9.67514 6.28464 9.63159 5.83518 9.20458 5.39678C8.85532 5.09635 8.46988 5.02515 8.02247 5.05347C7.66252 5.09991 7.3648 5.34761 7.14413 5.62157C6.92273 5.93048 6.8941 6.23045 6.8957 6.59758C6.89509 6.67961 6.89444 6.76165 6.89375 6.84368C6.8931 6.9716 6.89274 7.0995 6.89303 7.22742C6.89357 7.86575 6.88207 8.39544 6.4119 8.88063C5.97026 9.24635 5.5016 9.28608 4.9538 9.24559C4.58585 9.17752 4.30329 8.9203 4.08202 8.62862C3.86452 8.2897 3.82739 7.95565 3.82783 7.55959C3.82702 7.48108 3.82619 7.40257 3.82534 7.32406C3.82444 7.20209 3.82378 7.08012 3.82355 6.95814C3.82162 6.35775 3.81897 5.88619 3.3812 5.43178C3.03132 5.12054 2.71056 5.03729 2.25321 5.04801C1.85408 5.0735 1.53402 5.31915 1.28996 5.62157Z" fill="#556767"/>
<path d="M2.73603 6.89104C2.84305 6.97566 2.84305 6.97566 2.9227 7.09514C2.93287 7.1833 2.93287 7.1833 2.93359 7.28617C2.93429 7.32406 2.93499 7.36195 2.93571 7.40099C2.93667 7.46151 2.93667 7.46151 2.93764 7.52325C2.96235 8.3071 3.17822 8.96998 3.75901 9.52442C4.22937 9.94109 4.82253 10.1612 5.45497 10.1369C6.1664 10.0579 6.76031 9.79452 7.22373 9.22792C7.62513 8.67599 7.71404 8.20348 7.71718 7.53219C7.72261 7.28227 7.72906 7.1236 7.90075 6.93584C8.01649 6.8259 8.09534 6.79919 8.25419 6.79894C8.44325 6.80452 8.55234 6.84888 8.69723 6.97566C8.79299 7.11929 8.78714 7.1862 8.78746 7.35695C8.78756 7.40903 8.78766 7.46111 8.78777 7.51477C8.7876 7.54194 8.78744 7.5691 8.78726 7.59709C8.78684 7.67908 8.78726 7.76103 8.78777 7.84301C8.78724 8.11227 8.77951 8.35156 8.69723 8.60846C8.68974 8.63721 8.68224 8.66596 8.67452 8.69558C8.39813 9.59871 7.80603 10.3383 6.98479 10.7988C6.79228 10.8967 6.59288 10.9715 6.38742 11.0377C6.34916 11.0502 6.34916 11.0502 6.31012 11.0629C5.40903 11.3465 4.48652 11.1932 3.65448 10.7689C2.82753 10.2995 2.24329 9.51028 1.98458 8.6015C1.91107 8.2924 1.90539 7.97881 1.9022 7.66263C1.90128 7.61048 1.90036 7.55832 1.89941 7.50458C1.90281 7.09172 1.90281 7.09172 2.0223 6.94377C2.25938 6.74396 2.46278 6.73637 2.73603 6.89104Z" fill="#556767"/>
<path d="M12.9585 4.10826C13.0448 4.1904 13.0448 4.1904 13.1253 4.30738C13.1555 4.3503 13.1857 4.39322 13.2169 4.43743C13.2504 4.48691 13.2837 4.53649 13.3169 4.58615C13.3753 4.6734 13.4337 4.76063 13.4924 4.84766C13.531 4.90512 13.5692 4.96288 13.6069 5.02095C13.6533 5.09052 13.7038 5.15724 13.755 5.22334C13.7944 5.22334 13.8338 5.22334 13.8744 5.22334C13.9487 5.12772 14.0152 5.03334 14.081 4.93213C14.12 4.87371 14.1591 4.81532 14.1982 4.75696C14.2174 4.72802 14.2367 4.69908 14.2565 4.66926C14.6287 4.1167 14.6287 4.1167 14.7705 4.08835C14.976 4.11771 15.1357 4.22733 15.2683 4.38703C15.298 4.51511 15.2874 4.59116 15.2241 4.70664C15.1637 4.79751 15.1 4.88482 15.0343 4.97195C15.0122 5.00216 14.9901 5.03237 14.9673 5.0635C14.9262 5.11955 14.8849 5.17543 14.8433 5.23107C14.7973 5.29358 14.7538 5.35789 14.7108 5.42246C14.723 5.5082 14.723 5.5082 14.7506 5.58176C14.7837 5.58234 14.8169 5.58292 14.851 5.58352C14.9742 5.58595 15.0973 5.58891 15.2204 5.59221C15.2999 5.59419 15.3793 5.59556 15.4588 5.59693C15.5087 5.59834 15.5586 5.59975 15.6101 5.60121C15.6562 5.60225 15.7023 5.60329 15.7497 5.60437C15.8657 5.62159 15.8657 5.62159 15.9405 5.67442C16.0144 5.78478 15.9993 5.89215 15.9976 6.02232C15.9974 6.07206 15.9973 6.12181 15.9971 6.17306C15.9851 6.2986 15.9851 6.2986 15.9055 6.37825C15.7904 6.39095 15.7904 6.39095 15.6451 6.39474C15.5932 6.39628 15.5414 6.39782 15.488 6.3994C15.433 6.40066 15.378 6.4019 15.3231 6.40314C15.2678 6.40466 15.2125 6.40621 15.1572 6.4078C15.0217 6.41157 14.8861 6.41498 14.7506 6.41807C14.7095 6.55652 14.7095 6.55652 14.7446 6.69148C14.7624 6.71419 14.7802 6.73691 14.7985 6.76031C14.8178 6.78572 14.8372 6.81114 14.8571 6.83732C14.8778 6.86324 14.8985 6.88917 14.9198 6.91588C15.2589 7.35384 15.2589 7.35384 15.2874 7.53595C15.2683 7.65263 15.2683 7.65263 15.1882 7.73694C15.153 7.76004 15.1179 7.78314 15.0816 7.80695C15.0296 7.84252 15.0296 7.84252 14.9766 7.87882C14.8588 7.93693 14.8002 7.94688 14.6709 7.9314C14.6059 7.87318 14.6059 7.87318 14.5494 7.79139C14.5283 7.76145 14.5072 7.73152 14.4855 7.70068C14.4637 7.66839 14.442 7.63611 14.4195 7.60285C14.3969 7.57041 14.3743 7.53797 14.3511 7.50455C14.2844 7.40838 14.2186 7.3116 14.1532 7.21456C14.1351 7.18788 14.117 7.16119 14.0983 7.1337C14.0091 7.0022 13.9211 6.86996 13.8346 6.73667C13.7266 6.84009 13.637 6.94324 13.5535 7.06724C13.5316 7.09961 13.5096 7.13197 13.487 7.16532C13.4646 7.19882 13.4421 7.23232 13.419 7.26683C13.3742 7.33306 13.3295 7.39928 13.2847 7.46548C13.2527 7.51289 13.2527 7.51289 13.22 7.56125C13.1348 7.68607 13.047 7.80885 12.9585 7.9314C12.7327 7.92199 12.606 7.8558 12.4249 7.72294C12.3378 7.62695 12.3187 7.58449 12.3213 7.4535C12.379 7.3377 12.4536 7.23629 12.5304 7.13242C12.5504 7.10426 12.5705 7.07611 12.5912 7.04709C12.6689 6.93855 12.7454 6.83226 12.8334 6.73184C12.897 6.62706 12.8818 6.53847 12.8788 6.41807C12.8443 6.41728 12.8097 6.41649 12.7741 6.41568C12.646 6.41257 12.5179 6.40912 12.3898 6.40543C12.3343 6.40391 12.2788 6.40252 12.2234 6.40127C12.1437 6.39946 12.064 6.3971 11.9843 6.39474C11.9364 6.39349 11.8884 6.39223 11.839 6.39095C11.7239 6.37825 11.7239 6.37825 11.6443 6.2986C11.6353 6.19711 11.6314 6.10136 11.6318 5.99992C11.6312 5.97245 11.6306 5.94499 11.6299 5.91669C11.6298 5.83689 11.6298 5.83689 11.6443 5.70123C11.7851 5.60736 11.8522 5.60963 12.0193 5.6051C12.0942 5.60279 12.0942 5.60279 12.1706 5.60043C12.2228 5.5992 12.275 5.59796 12.3288 5.5967C12.3819 5.59517 12.4351 5.59362 12.4883 5.59203C12.6185 5.58827 12.7486 5.58486 12.8788 5.58176C12.9081 5.5101 12.9081 5.5101 12.9187 5.42246C12.8825 5.34138 12.8825 5.34138 12.8222 5.26441C12.8011 5.2351 12.7799 5.20579 12.7581 5.17558C12.7242 5.13023 12.7242 5.13023 12.6897 5.08396C12.6677 5.05372 12.6457 5.02348 12.6231 4.99233C12.5418 4.8807 12.4603 4.76966 12.3736 4.66217C12.3213 4.58615 12.3213 4.58615 12.3233 4.48613C12.3702 4.36322 12.424 4.31504 12.5279 4.2352C12.558 4.21112 12.5882 4.18705 12.6192 4.16224C12.7459 4.09409 12.8167 4.08375 12.9585 4.10826Z" fill="#556767"/>
<path d="M11.684 5.66141C11.7103 5.68769 11.7366 5.71398 11.7636 5.74106C11.7505 5.7542 11.7374 5.76734 11.7238 5.78088C11.7145 5.86781 11.7073 5.95499 11.7014 6.04223C11.6981 6.08992 11.6947 6.13761 11.6913 6.18675C11.6889 6.22366 11.6865 6.26057 11.684 6.2986C11.6709 6.2986 11.6577 6.2986 11.6442 6.2986C11.6431 6.19986 11.6423 6.10114 11.6417 6.0024C11.6412 5.96017 11.6412 5.96017 11.6407 5.91708C11.6403 5.84512 11.6421 5.77316 11.6442 5.70123C11.6573 5.68809 11.6705 5.67495 11.684 5.66141Z" fill="#556767"/>
</svg>