<svg xmlns="http://www.w3.org/2000/svg" width="32" height="32" viewBox="0 0 32 32" fill="none">
<path d="M12.9359 16.4912C12.922 17.4438 12.921 17.4553 12.7689 17.8799C12.5319 18.5411 11.9245 18.9335 11.2493 19.0518H10.3694C9.73699 18.9407 9.1574 18.5883 8.87531 17.9854C8.56271 17.3172 8.647 16.2747 9.05793 15.7363L9.12824 15.6445L9.52082 15.9277C9.93032 16.2232 9.93582 16.2298 9.87531 16.3457C9.73996 16.6053 9.69692 17.1154 9.78839 17.3779C10.0899 18.2426 11.4275 18.3098 11.8118 17.4795L11.89 17.3115L11.8987 16.4844C11.9035 16.0313 11.9137 15.6444 11.9202 15.6221C11.9293 15.5958 12.0591 15.5869 12.4407 15.5869H12.9495L12.9359 16.4912ZM15.0911 13.3008L15.1048 15.5029C15.1203 17.9338 15.1108 17.8061 15.2982 17.9395C15.4396 18.0401 15.6125 18.0557 16.4944 18.0479L17.3362 18.04L17.3538 17.5215C17.3897 16.4633 17.7267 15.9014 18.4935 15.6211C18.6866 15.551 19.4662 15.5511 19.6575 15.6211C20.4643 15.9164 20.8615 16.5342 20.8216 17.4307C20.7839 18.2756 20.277 18.8938 19.5374 19.0518H18.973C18.8947 19.0036 18.7769 18.8985 18.5169 18.666L18.4066 18.5674L18.5032 18.4834C18.5563 18.4371 18.6866 18.3232 18.7933 18.2305C18.9776 18.0701 18.9963 18.0612 19.1634 18.0479C19.6298 18.0103 19.8552 17.6836 19.7698 17.1689C19.6893 16.6826 19.2334 16.4409 18.7816 16.6445C18.4269 16.8044 18.4059 16.882 18.389 18.083L18.3743 19.0518H15.2571C15.0521 19.0244 14.9341 18.9799 14.7737 18.9033C14.4798 18.7628 14.2773 18.529 14.1448 18.1787L14.0814 18.0127L14.0726 15.6494L14.0638 13.2852L15.0911 13.3008ZM22.8724 16.6592L22.8655 19.0518H21.8548L21.847 16.6943C21.8431 15.3832 21.8465 14.2946 21.8538 14.2754C21.8643 14.2492 21.9949 14.2402 22.3734 14.2402H22.8792L22.8724 16.6592ZM11.0853 14.0732C11.1121 14.0747 11.1194 14.2624 11.1194 14.9131C11.1194 15.5216 11.1112 15.7526 11.0882 15.7549C11.0309 15.7549 9.91156 14.9395 9.92023 14.9043C9.93372 14.8624 11.0382 14.0746 11.0853 14.0732ZM8.83234 15.3633C8.84768 15.3633 8.87543 15.373 8.89386 15.3848C8.94822 15.4192 8.88974 15.4864 8.82843 15.46C8.77839 15.4382 8.77814 15.4368 8.82941 15.4248C8.87192 15.4148 8.8752 15.4075 8.84406 15.3877C8.82254 15.3742 8.81716 15.3634 8.83234 15.3633ZM22.013 12.1416C22.1919 12.0074 22.6367 11.9569 22.8968 12.041C23.0445 12.0889 23.2349 12.2075 23.2806 12.2803C23.3028 12.3158 23.2736 12.3759 23.1468 12.5557L22.9847 12.7861L22.9105 12.7168C22.549 12.381 21.9397 12.7528 22.2357 13.1289C22.3376 13.2584 22.3922 13.2724 22.8655 13.2871L23.3138 13.3008V13.8613L22.3392 13.8691L21.3636 13.876V13.2871H21.5208C21.6599 13.2871 21.676 13.2807 21.6575 13.2373C21.5061 12.8794 21.6592 12.4068 22.013 12.1416Z" fill="#556767"/>
</svg>