<svg xmlns="http://www.w3.org/2000/svg" width="32" height="32" viewBox="0 0 32 32" fill="none">
<path d="M10.5608 23.2624L10.4343 24H9.5L9.60814 23.2624H10.5608Z" fill="#B3BBBB"/>
<path d="M11.3859 23.2624L11.2936 24H10.3251L10.415 23.2766L11.3859 23.2624Z" fill="#839090"/>
<path d="M18.6937 23.3475L18.6166 24H11.1501L11.2144 23.2624L18.6937 23.3475Z" fill="#556767"/>
<path d="M16.1352 22.7952C14.6464 22.8494 13.1663 22.8306 11.8017 22.1374C10.4938 21.4711 9.6023 20.4947 9.52382 19.0269C9.37995 16.3413 9.87259 13.7785 11.4159 11.4843C12.9134 9.25868 15.1521 8.19483 17.8659 8.04077C19.2741 7.95957 20.6997 8.02619 22.1035 8.01786C22.4218 8.01786 22.5787 8.04285 22.4609 8.43425C22.2234 9.20663 22.0359 9.99567 21.8528 10.7826C21.7765 11.1053 21.6065 11.2136 21.2642 11.199C20.3531 11.1845 19.4398 11.199 18.5264 11.199C17.8142 11.2002 17.1128 11.3654 16.4817 11.6807C15.8506 11.9961 15.3085 12.4521 14.9014 13.0103C13.8264 14.3798 13.2293 16.0374 13.1946 17.7487C13.1532 19.0436 13.7003 19.5766 15.0518 19.6078C16.4033 19.639 17.7025 19.6266 19.0278 19.6078C19.4768 19.6078 19.6687 19.6661 19.516 20.1491C19.2981 20.8778 19.1041 21.6231 18.9122 22.3622C18.9059 22.4329 18.8841 22.5016 18.8483 22.5637C18.8125 22.6259 18.7634 22.6802 18.7043 22.7232C18.6451 22.7661 18.5772 22.7968 18.5049 22.8131C18.4326 22.8295 18.3575 22.8312 18.2845 22.8181C17.5695 22.7807 16.8523 22.7952 16.1352 22.7952Z" fill="#556767"/>
</svg>