<svg xmlns="http://www.w3.org/2000/svg" width="32" height="32" viewBox="0 0 32 32" fill="none">

<g clip-path="url(#clip0_413_125)">
<path d="M14.3974 17.2387C14.6802 17.459 14.6641 17.8853 14.3636 18.0821C14.0957 18.2576 13.6935 18.4056 13.1089 18.38C10.6116 18.271 9.7831 16.2576 9.8542 15.1732C10.033 12.4462 12.4006 11.9872 13.196 12.0252C13.5422 12.0417 15.4233 12.1318 16.1557 14.1137C16.4467 14.9014 16.5069 15.8232 16.7847 16.404C17.1924 17.2564 17.8456 17.6078 18.5514 17.641C19.1456 17.6688 20.4383 17.375 20.7043 15.9154C20.7043 15.9154 20.747 15.5127 20.7228 14.2036C20.709 13.4601 20.747 12.4382 20.747 12.4382C20.747 12.4382 20.7138 12.0066 21.2077 12.0066C21.6493 12.0066 21.6089 12.4643 21.6089 12.4643L21.5976 15.1462C21.5976 15.1462 21.9644 18.1852 18.7983 18.5003C17.887 18.591 16.7885 18.1909 16.1452 17.0719C15.8763 16.6043 15.7318 16.1019 15.588 15.2535C15.2524 13.2745 13.9226 12.823 13.2071 12.8132C12.7953 12.8076 10.573 13.0085 10.6725 15.4463C10.6833 15.7099 10.8706 16.9173 12.3333 17.4801C12.3333 17.4801 13.3516 17.8248 14.3974 17.2387Z" fill="#556767"/>
<path d="M14.3974 17.2387C14.3974 17.2387 14.7132 17.0471 14.8701 17.3562C15.098 17.805 14.116 18.2154 14.116 18.2154" fill="#556767"/>
<path d="M11.7314 21.5695C11.825 21.6424 11.8197 21.7836 11.7202 21.8487C11.6315 21.9068 11.4984 21.9558 11.3048 21.9473C10.478 21.9113 10.2037 21.2447 10.2273 20.8857C10.2865 19.9828 11.0703 19.8309 11.3337 19.8434C11.4483 19.8489 12.0711 19.8788 12.3135 20.5349C12.4099 20.7957 12.4298 21.1009 12.5218 21.2931C12.6568 21.5754 12.873 21.6917 13.1067 21.7027C13.3034 21.7119 13.7314 21.6147 13.8194 21.1314C13.8194 21.1314 13.8336 20.9981 13.8255 20.5646C13.821 20.3185 13.8336 19.9802 13.8336 19.9802C13.8336 19.9802 13.8226 19.8373 13.9861 19.8373C14.1323 19.8373 14.1189 19.9888 14.1189 19.9888L14.1152 20.8767C14.1152 20.8767 14.2366 21.8828 13.1884 21.9872C12.8867 22.0172 12.523 21.8847 12.31 21.5143C12.221 21.3594 12.1732 21.1931 12.1256 20.9122C12.0145 20.257 11.5742 20.1076 11.3373 20.1043C11.201 20.1025 10.4652 20.169 10.4982 20.9761C10.5017 21.0634 10.5638 21.4631 11.048 21.6494C11.048 21.6494 11.3852 21.7636 11.7314 21.5695Z" fill="#556767"/>
<path d="M11.7314 21.5695C11.7314 21.5695 11.8359 21.506 11.8879 21.6084C11.9633 21.7569 11.6382 21.8928 11.6382 21.8928" fill="#556767"/>
<path d="M8.61721 20.511C8.51606 20.4737 8.42577 20.4264 8.34635 20.3692C8.26687 20.3121 8.20259 20.2436 8.15349 20.1639C8.10436 20.0842 8.07981 19.99 8.07981 19.8813C8.07981 19.7713 8.10436 19.6722 8.15349 19.584C8.20259 19.4958 8.26726 19.421 8.34743 19.3596C8.4276 19.2983 8.51823 19.251 8.61938 19.2178C8.72048 19.1847 8.82307 19.1681 8.92708 19.1681C9.01084 19.1681 9.09249 19.1766 9.17194 19.1935C9.25138 19.2104 9.32581 19.2355 9.39512 19.2686C9.46448 19.3018 9.52733 19.3427 9.58367 19.3914C9.64001 19.4401 9.68692 19.4969 9.72451 19.5618C9.7404 19.5871 9.74401 19.6129 9.73534 19.639C9.72668 19.6651 9.71439 19.6859 9.69849 19.7014C9.67826 19.7198 9.65193 19.7308 9.61943 19.7343C9.58692 19.7378 9.55549 19.7283 9.52515 19.7057C9.44136 19.6055 9.35181 19.5353 9.25645 19.4951C9.16111 19.4549 9.05276 19.4348 8.93141 19.4348C8.86349 19.4348 8.79561 19.4443 8.72771 19.4633C8.65979 19.4824 8.59804 19.5103 8.54245 19.5469C8.48683 19.5837 8.44133 19.6299 8.40593 19.6856C8.37051 19.7413 8.35285 19.8059 8.35285 19.8792C8.35285 19.9569 8.37375 20.0214 8.41567 20.0729C8.45757 20.1244 8.51065 20.1678 8.57496 20.2031C8.6392 20.2384 8.70964 20.2669 8.78623 20.2888C8.86277 20.3107 8.93576 20.3301 9.00509 20.347C9.112 20.3795 9.21637 20.4161 9.31823 20.4571C9.42006 20.498 9.51032 20.5481 9.58909 20.6073C9.66781 20.6666 9.73101 20.7372 9.77869 20.819C9.82636 20.9008 9.8502 20.9989 9.8502 21.1132C9.8502 21.2359 9.82528 21.3471 9.77544 21.4465C9.72559 21.5461 9.65843 21.6314 9.57392 21.7026C9.4894 21.7739 9.39114 21.829 9.27922 21.8678C9.16723 21.9066 9.04985 21.9259 8.92708 21.9259C8.82449 21.9259 8.72554 21.9125 8.63022 21.8857C8.53487 21.859 8.4471 21.8226 8.36692 21.7767C8.28676 21.7309 8.21666 21.6766 8.15673 21.6138C8.09677 21.551 8.05088 21.4836 8.01914 21.4116C7.99748 21.3665 7.99421 21.3288 8.00939 21.2984C8.02455 21.2681 8.04655 21.2451 8.07546 21.2296C8.10869 21.2113 8.14012 21.2074 8.16973 21.218C8.19932 21.2285 8.23003 21.2536 8.26183 21.2931C8.28926 21.3496 8.32646 21.4003 8.37342 21.4455C8.42035 21.4907 8.47345 21.5291 8.53269 21.5609C8.59191 21.5926 8.65622 21.617 8.72554 21.6339C8.79489 21.6508 8.86641 21.6593 8.94009 21.6593C9.01664 21.6593 9.09285 21.648 9.1687 21.6254C9.24454 21.6028 9.31281 21.569 9.37346 21.5238C9.43414 21.4786 9.48324 21.4226 9.52082 21.3555C9.55837 21.2885 9.57717 21.2113 9.57717 21.1238C9.57717 21.0433 9.55837 20.976 9.52082 20.9216C9.48324 20.8673 9.4334 20.8208 9.37129 20.782C9.30918 20.7432 9.23913 20.71 9.16111 20.6825C9.08309 20.655 9.00434 20.6285 8.92492 20.6031C8.8209 20.5791 8.7183 20.5484 8.61721 20.511Z" fill="#556767"/>
<path d="M14.9185 20.2645C15.0038 20.1572 15.1045 20.0708 15.2208 20.0052C15.3371 19.9396 15.4617 19.9068 15.5946 19.9068C15.7203 19.9068 15.8333 19.9297 15.9337 19.9756C16.0341 20.0214 16.1201 20.0867 16.1916 20.1714C16.2631 20.256 16.318 20.3583 16.3563 20.4783C16.3946 20.5982 16.4137 20.7322 16.4137 20.8804V20.8825V21.7672C16.4137 21.8053 16.4007 21.8371 16.3747 21.8625C16.3487 21.8879 16.3162 21.9006 16.2772 21.9006C16.2396 21.9006 16.2079 21.8879 16.1819 21.8625C16.1559 21.8371 16.1429 21.8053 16.1429 21.7672V20.8888V20.8825C16.1429 20.6539 16.0923 20.4782 15.9912 20.3555C15.89 20.2327 15.7485 20.1714 15.5665 20.1714C15.4783 20.1714 15.3956 20.1883 15.3183 20.2221C15.241 20.256 15.1732 20.3029 15.1146 20.3629C15.0561 20.4229 15.0095 20.4938 14.9749 20.5756C14.9402 20.6575 14.9214 20.7457 14.9185 20.8402V21.763C14.9185 21.8011 14.9052 21.8332 14.8785 21.8593C14.8517 21.8855 14.8196 21.8985 14.782 21.8985C14.7444 21.8985 14.7123 21.8855 14.6856 21.8593C14.6588 21.8332 14.6455 21.8011 14.6455 21.763V19.3247C14.6455 19.2866 14.6588 19.2545 14.6856 19.2284C14.7123 19.2023 14.7444 19.1893 14.782 19.1893C14.821 19.1893 14.8535 19.2023 14.8795 19.2284C14.9055 19.2545 14.9185 19.2866 14.9185 19.3247V20.2645Z" fill="#556767"/>
<path d="M17.0454 21.2032C17.0851 21.2928 17.1389 21.3711 17.2068 21.4381C17.2747 21.5052 17.3549 21.5585 17.4473 21.5979C17.5398 21.6374 17.6395 21.6571 17.7464 21.6571C17.8533 21.6571 17.953 21.6374 18.0454 21.5979C18.1378 21.5585 18.2183 21.5052 18.287 21.4381C18.3556 21.3711 18.4095 21.2928 18.4484 21.2032C18.4875 21.1136 18.5069 21.018 18.5069 20.9164C18.5069 20.8134 18.4875 20.7167 18.4484 20.6264C18.4095 20.5361 18.3556 20.4574 18.287 20.3904C18.2183 20.3234 18.1378 20.2705 18.0454 20.2317C17.953 20.1929 17.8533 20.1735 17.7464 20.1735C17.6409 20.1735 17.5419 20.1929 17.4495 20.2317C17.357 20.2705 17.2765 20.3234 17.2079 20.3904C17.1393 20.4574 17.0851 20.5361 17.0454 20.6264C17.0056 20.7167 16.9858 20.8134 16.9858 20.9164C16.9858 21.018 17.0056 21.1136 17.0454 21.2032ZM16.794 20.5216C16.8482 20.3982 16.9222 20.2909 17.0161 20.1999C17.11 20.1089 17.2198 20.037 17.3455 19.984C17.4712 19.9311 17.6048 19.9047 17.7464 19.9047C17.8894 19.9047 18.0233 19.9311 18.1484 19.984C18.2733 20.037 18.3824 20.1089 18.4755 20.1999C18.5687 20.2909 18.6424 20.3982 18.6966 20.5216C18.7507 20.6451 18.7778 20.7767 18.7778 20.9164C18.7778 21.0547 18.7507 21.1852 18.6966 21.3079C18.6424 21.4307 18.5687 21.5376 18.4755 21.6286C18.3824 21.7196 18.2733 21.7916 18.1484 21.8445C18.0233 21.8974 17.8894 21.9239 17.7464 21.9239C17.6048 21.9239 17.4712 21.8974 17.3455 21.8445C17.2198 21.7916 17.11 21.7196 17.0161 21.6286C16.9222 21.5376 16.8482 21.4307 16.794 21.3079C16.7398 21.1852 16.7127 21.0547 16.7127 20.9164C16.7127 20.7767 16.7398 20.6451 16.794 20.5216Z" fill="#556767"/>
<path d="M19.2989 21.2032C19.3386 21.2928 19.3925 21.3711 19.4604 21.4381C19.5282 21.5052 19.6085 21.5585 19.7009 21.5979C19.7933 21.6374 19.893 21.6571 19.9999 21.6571C20.1068 21.6571 20.2065 21.6374 20.2989 21.5979C20.3913 21.5585 20.472 21.5052 20.5406 21.4381C20.6092 21.3711 20.663 21.2928 20.7021 21.2032C20.741 21.1136 20.7606 21.018 20.7606 20.9164C20.7606 20.8134 20.741 20.7167 20.7021 20.6264C20.663 20.5361 20.6092 20.4574 20.5406 20.3904C20.472 20.3234 20.3913 20.2705 20.2989 20.2317C20.2065 20.1929 20.1068 20.1735 19.9999 20.1735C19.8944 20.1735 19.7955 20.1929 19.7031 20.2317C19.6106 20.2705 19.5301 20.3234 19.4614 20.3904C19.3929 20.4574 19.3386 20.5361 19.2989 20.6264C19.2592 20.7167 19.2393 20.8134 19.2393 20.9164C19.2393 21.018 19.2592 21.1136 19.2989 21.2032ZM19.0475 20.5216C19.1017 20.3982 19.1757 20.2909 19.2697 20.1999C19.3636 20.1089 19.4734 20.037 19.5991 19.984C19.7248 19.9311 19.8584 19.9047 19.9999 19.9047C20.143 19.9047 20.2769 19.9311 20.4019 19.984C20.5269 20.037 20.6359 20.1089 20.7291 20.1999C20.8223 20.2909 20.896 20.3982 20.9501 20.5216C21.0043 20.6451 21.0314 20.7767 21.0314 20.9164C21.0314 21.0547 21.0043 21.1852 20.9501 21.3079C20.896 21.4307 20.8223 21.5376 20.7291 21.6286C20.6359 21.7196 20.5269 21.7916 20.4019 21.8445C20.2769 21.8974 20.143 21.9239 19.9999 21.9239C19.8584 21.9239 19.7248 21.8974 19.5991 21.8445C19.4734 21.7916 19.3636 21.7196 19.2697 21.6286C19.1757 21.5376 19.1017 21.4307 19.0475 21.3079C18.9934 21.1852 18.9663 21.0547 18.9663 20.9164C18.9663 20.7767 18.9934 20.6451 19.0475 20.5216Z" fill="#556767"/>
<path d="M21.6186 21.7672C21.6186 21.804 21.6052 21.8349 21.5785 21.8603C21.5518 21.8857 21.5196 21.8985 21.4821 21.8985C21.4444 21.8985 21.4123 21.8857 21.3857 21.8603C21.3589 21.8349 21.3455 21.804 21.3455 21.7672V19.3205C21.3455 19.2824 21.3589 19.251 21.3857 19.2263C21.4123 19.2016 21.4444 19.1893 21.4821 19.1893C21.5196 19.1893 21.5518 19.2016 21.5785 19.2263C21.6052 19.251 21.6186 19.2824 21.6186 19.3205V21.7672Z" fill="#556767"/>
<path d="M22.2015 20.9164C22.2015 21.018 22.2213 21.1136 22.2611 21.2032C22.3008 21.2928 22.3546 21.3711 22.4225 21.4381C22.4904 21.5052 22.5705 21.5584 22.6631 21.5979C22.7555 21.6374 22.8552 21.6571 22.9621 21.6571C23.069 21.6571 23.1687 21.6374 23.2611 21.5979C23.3535 21.5584 23.4338 21.5052 23.5016 21.4381C23.5695 21.3711 23.6231 21.2928 23.662 21.2032C23.701 21.1136 23.7205 21.018 23.7205 20.9164C23.7205 20.8134 23.701 20.7167 23.662 20.6264C23.6231 20.5361 23.5695 20.4574 23.5016 20.3904C23.4338 20.3234 23.3535 20.2705 23.2611 20.2317C23.1687 20.1929 23.069 20.1735 22.9621 20.1735C22.8566 20.1735 22.7576 20.1929 22.6652 20.2317C22.5728 20.2705 22.4922 20.3234 22.4236 20.3904C22.3549 20.4574 22.3008 20.5361 22.2611 20.6264C22.2213 20.7167 22.2015 20.8134 22.2015 20.9164ZM21.9285 20.9164C21.9285 20.7767 21.9556 20.6451 22.0097 20.5216C22.0639 20.3982 22.1379 20.2909 22.2319 20.1999C22.3258 20.1089 22.4355 20.0369 22.5612 19.984C22.6868 19.9311 22.8204 19.9047 22.9621 19.9047C23.1036 19.9047 23.2365 19.9308 23.3608 19.983C23.485 20.0352 23.5938 20.1061 23.687 20.1957C23.7801 20.2853 23.8538 20.3908 23.908 20.5121C23.9621 20.6335 23.9906 20.7633 23.9935 20.9015V20.9058V20.9164V21.7609C23.9935 21.799 23.9802 21.8314 23.9535 21.8583C23.9267 21.8851 23.8939 21.8985 23.8549 21.8985C23.8158 21.8985 23.7837 21.8851 23.7584 21.8583C23.7332 21.8314 23.7205 21.799 23.7205 21.7609L23.7184 21.5788C23.6231 21.6819 23.5106 21.7651 23.3814 21.8286C23.2521 21.8921 23.1123 21.9239 22.9621 21.9239C22.8204 21.9239 22.6868 21.8974 22.5612 21.8445C22.4355 21.7916 22.3258 21.7196 22.2319 21.6286C22.1379 21.5376 22.0639 21.4307 22.0097 21.3079C21.9556 21.1852 21.9285 21.0547 21.9285 20.9164Z" fill="#556767"/>
</g>
<defs>
<clipPath id="clip0_413_125">
<rect width="16" height="10" fill="white" transform="translate(8 12)"/>
</clipPath>
</defs>
</svg>