<svg xmlns="http://www.w3.org/2000/svg" width="32" height="32" viewBox="0 0 32 32" fill="none">

<path d="M11.7206 12.3814C12.3013 12.7935 12.7108 13.343 12.8343 14.0596C12.8379 14.1219 12.8397 14.1843 12.84 14.2466C12.8404 14.3005 12.8404 14.3005 12.8408 14.3554C12.841 14.3937 12.8412 14.432 12.8413 14.4714C12.8422 14.5532 12.8432 14.6349 12.8442 14.7167C12.8456 14.845 12.8468 14.9734 12.8473 15.1018C12.8479 15.226 12.8495 15.3503 12.8513 15.4745C12.8512 15.5127 12.8511 15.5509 12.851 15.5903C12.8562 15.8721 12.9118 16.0088 13.1131 16.2102C13.2934 16.2347 13.4604 16.2318 13.6283 16.1604C13.7374 16.0678 13.82 15.9887 13.845 15.8441C13.8451 15.8125 13.8452 15.781 13.8453 15.7484C13.8457 15.7124 13.8461 15.6763 13.8465 15.6392C13.8464 15.6005 13.8462 15.5617 13.8461 15.5218C13.8465 15.4815 13.847 15.4412 13.8474 15.3997C13.8488 15.2708 13.8494 15.1419 13.8498 15.0129C13.8504 14.844 13.8518 14.6752 13.8536 14.5063C13.8535 14.4681 13.8533 14.4299 13.8532 14.3906C13.8601 13.7557 14.1196 13.1784 14.5542 12.7205C14.8509 12.4353 15.1924 12.2376 15.5822 12.1082C15.6239 12.0941 15.6656 12.0799 15.7085 12.0653C16.3309 11.9154 16.9531 12.0307 17.5062 12.3372C18.0271 12.6767 18.4225 13.1429 18.6089 13.741C18.6915 14.1738 18.6608 14.6276 18.6626 15.0668C18.6631 15.1809 18.6642 15.295 18.6659 15.409C18.6779 16.2642 18.6317 17.0607 18.2504 17.843C18.2333 17.8795 18.2333 17.8795 18.2157 17.9167C17.5694 19.2915 16.4826 20.3041 15.0483 20.8274C13.6103 21.251 12.1187 21.1466 10.7955 20.4316C9.56218 19.7479 8.6099 18.6092 8.20972 17.2531C8.02572 16.5719 8.0017 15.9047 8.00301 15.2025C8.00313 15.0597 8.00219 14.9168 8.00119 14.774C8.0011 14.682 8.00107 14.59 8.00111 14.498C8.00074 14.4559 8.00038 14.4138 8 14.3704C8.00378 13.7589 8.26077 13.1873 8.68544 12.7498C8.71408 12.7221 8.74273 12.6944 8.77224 12.6658C8.79514 12.643 8.81803 12.6202 8.84162 12.5967C9.61869 11.8754 10.8377 11.8405 11.7206 12.3814ZM9.28996 13.6216C9.06071 13.9352 9.03902 14.2714 9.04183 14.6455C9.04185 14.6856 9.04187 14.7258 9.04189 14.7672C9.04201 14.8517 9.04232 14.9362 9.04282 15.0208C9.04354 15.1492 9.04363 15.2775 9.04362 15.4059C9.04382 15.4884 9.04405 15.571 9.04432 15.6535C9.04437 15.6914 9.04441 15.7293 9.04446 15.7684C9.05271 16.9517 9.52514 17.9691 10.3304 18.8236C11.2004 19.6655 12.3075 20.0483 13.5034 20.0509C14.6176 20.026 15.6733 19.5069 16.4496 18.7273C17.3692 17.7454 17.6765 16.5582 17.6708 15.2404C17.6705 15.1192 17.6716 14.9982 17.6729 14.8771C17.6751 14.2846 17.6316 13.8352 17.2046 13.3968C16.8553 13.0964 16.4699 13.0252 16.0225 13.0535C15.6625 13.0999 15.3648 13.3476 15.1441 13.6216C14.9227 13.9305 14.8941 14.2305 14.8957 14.5976C14.8951 14.6796 14.8944 14.7616 14.8938 14.8437C14.8931 14.9716 14.8927 15.0995 14.893 15.2274C14.8936 15.8658 14.8821 16.3954 14.4119 16.8806C13.9703 17.2464 13.5016 17.2861 12.9538 17.2456C12.5858 17.1775 12.3033 16.9203 12.082 16.6286C11.8645 16.2897 11.8274 15.9557 11.8278 15.5596C11.827 15.4811 11.8262 15.4026 11.8253 15.3241C11.8244 15.2021 11.8238 15.0801 11.8235 14.9581C11.8216 14.3578 11.819 13.8862 11.3812 13.4318C11.0313 13.1205 10.7106 13.0373 10.2532 13.048C9.85408 13.0735 9.53402 13.3191 9.28996 13.6216Z" fill="#556767"/>
<path d="M10.736 14.891C10.8431 14.9757 10.8431 14.9757 10.9227 15.0951C10.9329 15.1833 10.9329 15.1833 10.9336 15.2862C10.9343 15.3241 10.935 15.362 10.9357 15.401C10.9367 15.4615 10.9367 15.4615 10.9377 15.5232C10.9624 16.3071 11.1782 16.97 11.759 17.5244C12.2294 17.9411 12.8226 18.1612 13.455 18.1369C14.1664 18.0579 14.7603 17.7945 15.2238 17.2279C15.6251 16.676 15.7141 16.2035 15.7172 15.5322C15.7226 15.2823 15.7291 15.1236 15.9008 14.9358C16.0165 14.8259 16.0954 14.7992 16.2542 14.7989C16.4433 14.8045 16.5524 14.8489 16.6973 14.9757C16.793 15.1193 16.7872 15.1862 16.7875 15.357C16.7876 15.409 16.7877 15.4611 16.7878 15.5148C16.7876 15.5419 16.7875 15.5691 16.7873 15.5971C16.7869 15.6791 16.7873 15.761 16.7878 15.843C16.7873 16.1123 16.7795 16.3516 16.6973 16.6085C16.6898 16.6372 16.6823 16.666 16.6745 16.6956C16.3981 17.5987 15.806 18.3383 14.9848 18.7988C14.7923 18.8967 14.5929 18.9715 14.3874 19.0377C14.3492 19.0502 14.3492 19.0502 14.3101 19.0629C13.409 19.3465 12.4865 19.1932 11.6545 18.7689C10.8275 18.2995 10.2433 17.5103 9.98459 16.6015C9.91109 16.2924 9.90541 15.9788 9.90222 15.6626C9.9013 15.6105 9.90038 15.5583 9.89943 15.5046C9.90283 15.0917 9.90283 15.0917 10.0223 14.9438C10.2594 14.744 10.4628 14.7364 10.736 14.891Z" fill="#556767"/>
<path d="M20.9585 12.1083C21.0448 12.1904 21.0448 12.1904 21.1252 12.3074C21.1555 12.3503 21.1857 12.3932 21.2169 12.4374C21.2504 12.4869 21.2837 12.5365 21.3169 12.5862C21.3753 12.6734 21.4337 12.7606 21.4924 12.8477C21.531 12.9051 21.5692 12.9629 21.6069 13.021C21.6532 13.0905 21.7038 13.1572 21.755 13.2233C21.7944 13.2233 21.8338 13.2233 21.8744 13.2233C21.9487 13.1277 22.0152 13.0333 22.081 12.9321C22.12 12.8737 22.1591 12.8153 22.1982 12.757C22.2174 12.728 22.2367 12.6991 22.2565 12.6693C22.6287 12.1167 22.6287 12.1167 22.7705 12.0883C22.976 12.1177 23.1357 12.2273 23.2683 12.387C23.2979 12.5151 23.2873 12.5912 23.2241 12.7066C23.1637 12.7975 23.1 12.8848 23.0343 12.972C23.0122 13.0022 22.9901 13.0324 22.9673 13.0635C22.9262 13.1195 22.8849 13.1754 22.8433 13.2311C22.7973 13.2936 22.7538 13.3579 22.7107 13.4225C22.723 13.5082 22.723 13.5082 22.7506 13.5818C22.7837 13.5823 22.8169 13.5829 22.851 13.5835C22.9742 13.586 23.0973 13.5889 23.2204 13.5922C23.2999 13.5942 23.3793 13.5956 23.4588 13.5969C23.5087 13.5983 23.5586 13.5998 23.6101 13.6012C23.6562 13.6022 23.7022 13.6033 23.7497 13.6044C23.8657 13.6216 23.8657 13.6216 23.9405 13.6744C24.0144 13.7848 23.9993 13.8921 23.9976 14.0223C23.9974 14.0721 23.9973 14.1218 23.9971 14.1731C23.9851 14.2986 23.9851 14.2986 23.9055 14.3782C23.7904 14.3909 23.7904 14.3909 23.6451 14.3947C23.5932 14.3963 23.5414 14.3978 23.4879 14.3994C23.433 14.4007 23.378 14.4019 23.323 14.4031C23.2678 14.4047 23.2125 14.4062 23.1572 14.4078C23.0217 14.4116 22.8861 14.415 22.7506 14.4181C22.7095 14.5565 22.7095 14.5565 22.7445 14.6915C22.7623 14.7142 22.7801 14.7369 22.7985 14.7603C22.8178 14.7857 22.8372 14.8111 22.8571 14.8373C22.8778 14.8632 22.8985 14.8892 22.9198 14.9159C23.2589 15.3538 23.2589 15.3538 23.2874 15.536C23.2683 15.6526 23.2683 15.6526 23.1882 15.7369C23.153 15.76 23.1178 15.7831 23.0816 15.8069C23.0296 15.8425 23.0296 15.8425 22.9766 15.8788C22.8588 15.9369 22.8002 15.9469 22.6709 15.9314C22.6059 15.8732 22.6059 15.8732 22.5494 15.7914C22.5283 15.7615 22.5072 15.7315 22.4854 15.7007C22.4637 15.6684 22.4419 15.6361 22.4195 15.6028C22.3969 15.5704 22.3743 15.538 22.3511 15.5045C22.2844 15.4084 22.2186 15.3116 22.1532 15.2146C22.1351 15.1879 22.117 15.1612 22.0983 15.1337C22.0091 15.0022 21.9211 14.87 21.8346 14.7367C21.7266 14.8401 21.637 14.9432 21.5535 15.0672C21.5316 15.0996 21.5096 15.132 21.487 15.1653C21.4645 15.1988 21.4421 15.2323 21.4189 15.2668C21.3742 15.3331 21.3295 15.3993 21.2847 15.4655C21.2527 15.5129 21.2527 15.5129 21.22 15.5613C21.1348 15.6861 21.047 15.8089 20.9585 15.9314C20.7327 15.922 20.606 15.8558 20.4249 15.7229C20.3378 15.6269 20.3187 15.5845 20.3213 15.4535C20.379 15.3377 20.4536 15.2363 20.5304 15.1324C20.5504 15.1043 20.5705 15.0761 20.5912 15.0471C20.6689 14.9385 20.7454 14.8323 20.8334 14.7318C20.897 14.6271 20.8818 14.5385 20.8788 14.4181C20.8443 14.4173 20.8097 14.4165 20.7741 14.4157C20.646 14.4126 20.5179 14.4091 20.3898 14.4054C20.3343 14.4039 20.2788 14.4025 20.2234 14.4013C20.1437 14.3995 20.064 14.3971 19.9843 14.3947C19.9364 14.3935 19.8884 14.3922 19.839 14.3909C19.7239 14.3782 19.7239 14.3782 19.6443 14.2986C19.6353 14.1971 19.6314 14.1014 19.6318 13.9999C19.6312 13.9725 19.6305 13.945 19.6299 13.9167C19.6298 13.8369 19.6298 13.8369 19.6443 13.7012C19.7851 13.6074 19.8522 13.6096 20.0193 13.6051C20.0942 13.6028 20.0942 13.6028 20.1706 13.6004C20.2228 13.5992 20.275 13.598 20.3288 13.5967C20.3819 13.5952 20.4351 13.5936 20.4883 13.592C20.6185 13.5883 20.7486 13.5849 20.8788 13.5818C20.9081 13.5101 20.9081 13.5101 20.9187 13.4225C20.8825 13.3414 20.8825 13.3414 20.8222 13.2644C20.8011 13.2351 20.7799 13.2058 20.7581 13.1756C20.7242 13.1302 20.7242 13.1302 20.6897 13.084C20.6677 13.0537 20.6457 13.0235 20.6231 12.9923C20.5418 12.8807 20.4603 12.7697 20.3735 12.6622C20.3213 12.5862 20.3213 12.5862 20.3233 12.4861C20.3702 12.3632 20.424 12.315 20.5279 12.2352C20.558 12.2111 20.5881 12.187 20.6192 12.1622C20.7459 12.0941 20.8167 12.0837 20.9585 12.1083Z" fill="#556767"/>
<path d="M19.6841 13.6614C19.7103 13.6877 19.7366 13.714 19.7637 13.7411C19.7506 13.7542 19.7374 13.7673 19.7239 13.7809C19.7145 13.8678 19.7074 13.955 19.7015 14.0422C19.6981 14.0899 19.6948 14.1376 19.6914 14.1867C19.689 14.2237 19.6865 14.2606 19.6841 14.2986C19.6709 14.2986 19.6578 14.2986 19.6442 14.2986C19.6432 14.1999 19.6424 14.1011 19.6417 14.0024C19.6412 13.9602 19.6412 13.9602 19.6407 13.9171C19.6404 13.8451 19.6422 13.7732 19.6442 13.7012C19.6574 13.6881 19.6705 13.6749 19.6841 13.6614Z" fill="#556767"/>
</svg>