<svg width="256" height="256" viewBox="0 0 256 256" fill="none" xmlns="http://www.w3.org/2000/svg">
<path opacity="0.7" d="M34.7804 85.5501C34.7804 85.5501 20.5058 122.414 40.566 159.534C60.6261 196.654 101.945 216.264 135.015 233.032C168.085 249.8 202.425 241.633 218.742 214.17C235.059 186.706 212.68 167.101 212.649 127.939C212.618 88.7757 218.512 78.4077 197.289 45.3223C176.067 12.2368 124.042 4.91009 84.7004 29.4503C45.3583 53.9904 34.7804 85.5501 34.7804 85.5501Z" fill="white"/>
<path d="M39.46 85.2225C54.2158 58.0558 91.3358 26.3425 142.259 39.5521C193.183 52.7617 227.589 80.7067 221.952 129.326C216.315 177.946 186.691 218.343 122.88 219.525C59.0696 220.708 7.10157 144.794 39.46 85.2225Z" fill="#D5D9D9"/>
<path opacity="0.7" d="M39.46 85.2225C54.2158 58.0558 91.3358 26.3425 142.259 39.5521C193.183 52.7617 227.589 80.7067 221.952 129.326C216.315 177.946 186.691 218.342 122.88 219.525C59.0696 220.708 7.10157 144.794 39.46 85.2225Z" fill="white"/>
<path d="M224.824 121.963L191.612 127.105C190.343 127.301 189.474 128.489 189.67 129.757L192.802 149.986C192.998 151.255 194.186 152.124 195.454 151.928L228.666 146.786C229.935 146.59 230.804 145.402 230.608 144.133L227.476 123.905C227.28 122.636 226.092 121.767 224.824 121.963Z" stroke="#263238" stroke-linecap="round" stroke-linejoin="round"/>
<path d="M190.177 133.023L227.983 127.17" stroke="#263238" stroke-linecap="round" stroke-linejoin="round"/>
<path d="M225.028 133.807L218.92 134.752L220.282 143.546L226.389 142.6L225.028 133.807Z" stroke="#263238" stroke-linecap="round" stroke-linejoin="round"/>
<path d="M221.399 136.192C222.69 134.656 224.809 135.68 224.313 140.447L226.202 141.384L226.386 142.582L220.283 143.529L220.032 141.926L222.336 141.03C222.336 141.03 220.186 137.641 221.399 136.192Z" stroke="#263238" stroke-linecap="round" stroke-linejoin="round"/>
<path d="M208.154 146.944C208.154 146.944 212.567 146.98 211.303 146.099C210.038 145.219 209.849 144.328 210.924 144.312C211.999 144.297 213.801 146.36 213.658 145.101C213.514 143.841 214.293 144.661 214.441 144.742C214.59 144.824 215.865 144.312 215.926 144.461C215.987 144.609 215.9 145.024 220.053 144.384" stroke="#263238" stroke-linecap="round" stroke-linejoin="round"/>
<path d="M193.382 136.95L211.896 134.083" stroke="#263238" stroke-linecap="round" stroke-linejoin="round"/>
<path d="M193.71 139.049L204.616 137.359" stroke="#263238" stroke-linecap="round" stroke-linejoin="round"/>
<path d="M194.284 142.751L209.495 140.396" stroke="#263238" stroke-linecap="round" stroke-linejoin="round"/>
<path d="M199.004 128.906L217.57 126.029" stroke="#263238" stroke-linecap="round" stroke-linejoin="round"/>
<path d="M22.1953 115.937L63.7031 107.648L78.1979 177.239L34.0788 186.701L22.1953 115.937Z" stroke="#263238" stroke-linecap="round" stroke-linejoin="round"/>
<path d="M32.4097 176.773L76.4417 168.801" stroke="#263238" stroke-linecap="round" stroke-linejoin="round"/>
<path d="M71.2246 162.883L50.1968 166.764" stroke="#263238" stroke-linecap="round" stroke-linejoin="round"/>
<path d="M68.1064 159.391L61.9624 160.297" stroke="#263238" stroke-linecap="round" stroke-linejoin="round"/>
<path d="M69.0433 152.284L37.6577 158.172" stroke="#263238" stroke-linecap="round" stroke-linejoin="round"/>
<path d="M27.6226 148.265L70.5845 140.682" stroke="#263238" stroke-linecap="round" stroke-linejoin="round" stroke-dasharray="1 2"/>
<path d="M73.2724 174.986L47.1758 180.454" stroke="#263238" stroke-linecap="round" stroke-linejoin="round"/>
<path d="M72.4941 172.785L60.2266 174.986" stroke="#263238" stroke-linecap="round" stroke-linejoin="round"/>
<path d="M65.8587 136.095L44.3394 140.36" stroke="#263238" stroke-linecap="round" stroke-linejoin="round"/>
<path d="M64.1589 131.318L57.3032 132.664" stroke="#263238" stroke-linecap="round" stroke-linejoin="round"/>
<path d="M63.7543 128L32.4097 134.042" stroke="#263238" stroke-linecap="round" stroke-linejoin="round"/>
<path d="M60.9077 111.852L52.4443 113.603" stroke="#263238" stroke-linecap="round" stroke-linejoin="round"/>
<path d="M32.4095 117.867L25.1084 119.286" stroke="#263238" stroke-linecap="round" stroke-linejoin="round"/>
<path d="M27.7661 123.31C27.9184 122.791 28.1799 122.31 28.5331 121.901C28.8863 121.491 29.3231 121.161 29.8141 120.934" stroke="#263238" stroke-linecap="round" stroke-linejoin="round"/>
<path d="M31.0118 128C30.1052 127.893 29.2671 127.464 28.6499 126.791C28.0327 126.118 27.6772 125.246 27.6479 124.334" stroke="#263238" stroke-linecap="round" stroke-linejoin="round"/>
<path d="M33.8586 127.13C33.3388 127.597 32.692 127.9 32 128" stroke="#263238" stroke-linecap="round" stroke-linejoin="round"/>
<path d="M31.3701 120.586C32.0293 120.608 32.6717 120.8 33.2348 121.143C33.7978 121.487 34.2622 121.97 34.5829 122.547C34.9036 123.123 35.0695 123.773 35.0646 124.432C35.0597 125.092 34.884 125.739 34.5548 126.31" stroke="#263238" stroke-linecap="round" stroke-linejoin="round"/>
<path d="M38.8351 121.549C38.1541 121.334 37.4783 121.088 36.7871 120.934" stroke="#263238" stroke-linecap="round" stroke-linejoin="round"/>
<path d="M44.6412 122.04C44.0627 123.418 40.8268 122.163 39.8848 121.876" stroke="#263238" stroke-linecap="round" stroke-linejoin="round"/>
<path d="M39.1016 118.385L45.1534 119.808C45.0561 120.212 44.9793 120.622 44.9025 121.026" stroke="#263238" stroke-linecap="round" stroke-linejoin="round"/>
<path d="M36.1064 119.808C36.7516 118.272 36.4956 117.76 38.1032 118.134" stroke="#263238" stroke-linecap="round" stroke-linejoin="round"/>
<path opacity="0.2" d="M164.654 167.788C164.654 167.788 162.832 189.844 165.468 195.195C168.105 200.545 169.426 237.102 168.243 241.7C168.243 241.7 176.732 243.84 180.091 240.799C183.45 237.757 188.616 240.686 197.125 237.727C205.635 234.767 199.496 169.083 199.496 169.083L199.757 145.188L185.723 132.685L164.654 167.788Z" fill="black" fill-opacity="0.7"/>
<path d="M175.969 178.396C175.916 178.554 175.831 178.699 175.719 178.821C173.906 180.536 166.17 182.441 159.524 183.813C154.02 184.955 149.284 185.728 149.284 185.728C149.284 185.728 145.639 155.433 145.639 152.248C145.639 149.064 139.761 97.5054 139.761 97.5054L153.851 96.8961L172.544 96.0872C172.544 96.0872 172.657 97.4644 172.846 99.8708C174.08 115.2 178.319 172.35 175.969 178.396Z" fill="#D5D9D9"/>
<mask id="mask0_114_15755" style="mask-type:luminance" maskUnits="userSpaceOnUse" x="139" y="96" width="38" height="90">
<path d="M175.969 178.396C175.916 178.554 175.831 178.699 175.719 178.821C173.906 180.536 166.17 182.441 159.524 183.813C154.02 184.955 149.284 185.728 149.284 185.728C149.284 185.728 145.639 155.433 145.639 152.248C145.639 149.064 139.761 97.5054 139.761 97.5054L153.851 96.8961L172.544 96.0872C172.544 96.0872 172.657 97.4644 172.846 99.8708C174.08 115.2 178.319 172.35 175.969 178.396Z" fill="white"/>
</mask>
<g mask="url(#mask0_114_15755)">
<path opacity="0.2" d="M175.969 178.396L159.524 181.76L153.313 183.035C151.629 181.381 150.344 181.351 150.344 181.351L149.832 176.717L149.028 169.134L141.952 102.421C143.488 101.361 144.246 99.0414 144.246 99.0414L153.718 98.6984L170.128 98.0994L172.836 99.8504C174.08 115.2 178.32 172.35 175.969 178.396Z" fill="black" fill-opacity="0.7"/>
<path d="M175.969 178.396L159.524 181.76L153.313 183.035C151.629 181.381 150.344 181.351 150.344 181.351L149.832 176.717L149.028 169.134L141.952 102.421C143.488 101.361 144.246 99.0414 144.246 99.0414L153.718 98.6984L170.128 98.0994L172.836 99.8504C174.08 115.2 178.32 172.35 175.969 178.396Z" stroke="#263238" stroke-linecap="round" stroke-linejoin="round"/>
<path d="M151.214 158.756L156.703 158.746L156.708 160.461L155.182 161.004L151.665 161.388L151.214 158.756Z" fill="#D5D9D9" stroke="#263238" stroke-linecap="round" stroke-linejoin="round"/>
<path d="M151.552 162.289L155.587 162.151L156.621 162.642L156.57 164.921L151.859 164.972L151.552 162.289Z" fill="#D5D9D9" stroke="#263238" stroke-linecap="round" stroke-linejoin="round"/>
<path d="M152.197 165.929L156.805 165.596L156.754 167.322L154.527 168.11L152.172 167.977L152.197 165.929Z" fill="#D5D9D9" stroke="#263238" stroke-linecap="round" stroke-linejoin="round"/>
<path d="M152.474 168.837L156.196 169.027L156.534 169.979L155.991 171.029L152.663 171.244L152.09 169.621L152.474 168.837Z" fill="#D5D9D9" stroke="#263238" stroke-linecap="round" stroke-linejoin="round"/>
<path d="M156.764 172.17L157.276 173.66C157.358 173.819 157.401 173.994 157.401 174.172C157.401 174.35 157.358 174.526 157.276 174.684C157.181 174.793 157.06 174.876 156.923 174.924C156.787 174.973 156.641 174.985 156.498 174.961C156.211 174.935 155.93 174.838 155.643 174.823C154.778 174.787 153.984 175.498 153.134 175.335C152.801 174.413 151.962 173.061 153.098 172.647C153.308 172.58 156.887 172.508 156.764 172.17Z" fill="#D5D9D9" stroke="#263238" stroke-linecap="round" stroke-linejoin="round"/>
<path d="M156.749 176.364C156.83 176.718 156.888 177.077 156.923 177.439C156.975 177.667 156.967 177.906 156.901 178.131C156.835 178.356 156.712 178.56 156.544 178.724C156.326 178.844 156.081 178.909 155.832 178.913L152.873 179.18C152.83 178.621 152.821 178.06 152.847 177.5C153.021 176.835 152.898 176.891 153.528 176.62C154.527 176.195 155.725 176.87 156.749 176.364Z" fill="#D5D9D9" stroke="#263238" stroke-linecap="round" stroke-linejoin="round"/>
<path d="M145.987 103.936C145.987 103.936 147.103 114.724 147.154 116.859" stroke="#263238" stroke-linecap="round" stroke-linejoin="round"/>
<path d="M148.393 104.054L148.915 109.998" stroke="#263238" stroke-linecap="round" stroke-linejoin="round"/>
<path d="M156.733 101.806L157.409 108.774L158.356 108.867L158.049 101.873L156.733 101.806Z" fill="#D5D9D9" stroke="#263238" stroke-linecap="round" stroke-linejoin="round"/>
<path opacity="0.2" d="M175.969 178.396C175.916 178.554 175.831 178.699 175.719 178.821C173.906 180.536 166.17 182.441 159.524 183.813V179.205L149.852 176.727L148.393 176.353L149.048 169.144L151.552 141.599L153.738 98.7188L153.831 96.8961L172.544 96.0872C172.544 96.0872 172.657 97.4644 172.846 99.8708C174.08 115.2 178.319 172.35 175.969 178.396Z" fill="black" fill-opacity="0.7"/>
</g>
<path d="M175.969 178.396C175.916 178.554 175.831 178.699 175.719 178.821C173.906 180.536 166.17 182.441 159.524 183.813C154.02 184.955 149.284 185.728 149.284 185.728C149.284 185.728 145.639 155.433 145.639 152.248C145.639 149.064 139.761 97.5054 139.761 97.5054L153.851 96.8961L172.544 96.0872C172.544 96.0872 172.657 97.4644 172.846 99.8708C174.08 115.2 178.319 172.35 175.969 178.396Z" stroke="#263238" stroke-linecap="round" stroke-linejoin="round"/>
<path d="M185.887 247.142C186.005 246.062 184.305 230.564 184.274 228.879C184.192 224.271 182.886 218.225 182.886 218.225C181.064 213.565 179.645 202.829 174.781 195.942C169.917 189.056 169.923 180.956 169.114 174.08C168.305 167.204 168.504 167.798 168.709 161.695C168.857 157.11 168.653 152.521 168.1 147.968C167.695 143.913 166.886 136.781 168.1 133.458C169.313 130.135 172.488 129.362 175.964 132.69C179.441 136.018 180.859 149.663 180.859 151.347C180.859 153.032 180.859 158.295 182.077 160.323C182.077 160.323 188.964 156.8 188.964 155.827C188.964 154.854 188.759 146.258 189.773 145.797L185.723 132.69L193.403 129.961C194.849 131.258 196.097 132.758 197.11 134.415C197.977 135.787 198.702 137.244 199.276 138.762C202.517 147.359 207.724 153.354 208.799 155.827C209.874 158.3 208.799 177.94 208.799 181.591C208.799 185.242 206.444 202.071 206.505 204.902C206.551 206.95 207.933 214.569 209.311 220.411C209.823 222.664 212.931 238.986 213.407 240.282L185.887 247.142Z" fill="white"/>
<path opacity="0.4" d="M191.949 144.932C191.898 146.033 193.213 154.808 193.213 154.808C194.125 156.995 189.148 164.449 189.148 164.449C188.073 165.053 187.612 168.801 187.612 168.801C184.243 168.054 176.527 160.297 176.527 160.297C176.527 160.297 175.616 163.476 174.592 171.346C173.568 179.215 180.06 197.908 182.825 210.816C185.59 223.724 184.274 228.864 184.274 228.864C184.192 224.256 182.886 218.209 182.886 218.209C181.064 213.55 179.645 202.813 174.781 195.927C169.917 189.041 169.923 180.956 169.114 174.08C168.305 167.204 168.504 167.798 168.709 161.695C168.857 157.11 168.653 152.521 168.1 147.968C167.695 143.913 166.886 136.781 168.1 133.458C169.313 130.135 172.488 129.362 175.964 132.69C179.441 136.018 180.859 149.663 180.859 151.347C180.859 153.032 180.859 158.295 182.077 160.323C182.077 160.323 188.964 156.8 188.964 155.827C188.964 154.854 188.759 146.258 189.773 145.797L185.723 132.69L193.403 129.961C194.849 131.258 196.097 132.758 197.11 134.415C194.627 139.382 192 144.246 191.949 144.932Z" fill="#D5D9D9"/>
<path opacity="0.4" d="M204.862 206.259C205.2 203.187 206.208 195.886 206.848 191.329C206.065 194.888 204.8 196.69 204.8 196.69C204.8 196.69 206.981 170.578 207.196 168.986C207.411 167.393 209.613 160.236 208.804 155.802C209.879 158.27 208.804 177.915 208.804 181.566C208.804 185.216 206.449 202.046 206.51 204.877C206.556 206.925 208.753 219.976 210.13 225.818C207.171 221.517 204.524 209.347 204.862 206.259Z" fill="#D5D9D9"/>
<path d="M213.397 240.256C211.779 235.597 206.582 207.693 206.52 204.877C206.459 202.061 208.814 185.211 208.814 181.566C208.814 177.92 209.889 158.27 208.814 155.802C207.739 153.334 202.532 147.333 199.291 138.737C198.066 135.375 196.052 132.357 193.418 129.936L185.738 132.665L189.788 145.772C188.764 146.233 188.979 154.829 188.979 155.802C188.979 156.775 182.093 160.297 182.093 160.297C180.874 158.249 180.874 153.006 180.874 151.322C180.874 149.637 179.456 135.987 175.98 132.665C172.503 129.342 169.324 130.105 168.115 133.433C166.907 136.761 167.711 143.888 168.115 147.943C168.669 152.501 168.873 157.095 168.725 161.685C168.52 167.788 168.315 167.184 169.129 174.07C169.943 180.956 169.938 189.056 174.797 195.943C179.656 202.829 181.079 213.566 182.902 218.225C182.902 218.225 186.342 243.093 185.902 247.143" stroke="#263238" stroke-linecap="round" stroke-linejoin="round"/>
<path d="M182.078 160.297C182.078 160.297 183.291 165.965 186.025 168.801" stroke="#263238" stroke-linecap="round" stroke-linejoin="round"/>
<path d="M182.815 162.883C182.815 162.883 187.935 164.449 190.075 164.547" stroke="#263238" stroke-linecap="round" stroke-linejoin="round"/>
<path d="M188.964 155.802C188.964 155.802 192.609 154.117 194.939 155.131" stroke="#263238" stroke-linecap="round" stroke-linejoin="round"/>
<path d="M189.773 145.772C189.773 145.772 192.609 145.511 193.214 144.092" stroke="#263238" stroke-linecap="round" stroke-linejoin="round"/>
<path d="M175.719 197.386C175.719 197.386 181.166 204.15 182.784 207.59" stroke="#263238" stroke-linecap="round" stroke-linejoin="round"/>
<path d="M207.396 167.788C206.484 173.158 205.266 187.843 204.861 190.474" stroke="#263238" stroke-linecap="round" stroke-linejoin="round"/>
<path d="M209.137 157.66C209.29 162.524 208.113 165.053 208.113 165.053" stroke="#263238" stroke-linecap="round" stroke-linejoin="round"/>
<path d="M167.26 89.6001L204.8 99.5022C204.8 99.5022 191.606 139.546 188.928 144.512L184.453 179.42C184.453 179.42 160.471 178.366 149.443 175.032C149.443 175.032 156.416 138.68 156.79 133.832C157.164 128.983 167.26 89.6001 167.26 89.6001Z" fill="#D5D9D9"/>
<mask id="mask1_114_15755" style="mask-type:luminance" maskUnits="userSpaceOnUse" x="149" y="89" width="56" height="91">
<path d="M167.26 89.6001L204.8 99.5022C204.8 99.5022 191.606 139.546 188.928 144.512L184.453 179.42C184.453 179.42 160.471 178.366 149.443 175.032C149.443 175.032 156.416 138.68 156.79 133.832C157.164 128.983 167.26 89.6001 167.26 89.6001Z" fill="white"/>
</mask>
<g mask="url(#mask1_114_15755)">
<path opacity="0.2" d="M159.186 131.681L167.46 96.3072C167.46 96.3072 171.018 94.5408 172.396 92.928L199.291 100.577C199.291 100.577 199.373 103.214 200.914 104.904L187.341 144.015L184.049 172.846C184.049 172.846 179.671 173.194 179.251 176.43C179.251 176.43 165.059 177.198 155.541 174.689C155.541 174.689 154.419 171.192 152.704 168.98L159.186 131.681Z" fill="black" fill-opacity="0.7"/>
<path d="M159.186 131.681L167.46 96.3072C167.46 96.3072 171.018 94.5408 172.396 92.928L199.291 100.577C199.291 100.577 199.373 103.214 200.914 104.904L187.341 144.015L184.049 172.846C184.049 172.846 179.671 173.194 179.251 176.43C179.251 176.43 165.059 177.198 155.541 174.689C155.541 174.689 154.419 171.192 152.704 168.98L159.186 131.681Z" stroke="#263238" stroke-linecap="round" stroke-linejoin="round"/>
<path d="M166.072 133.519C166.072 133.519 168.515 124.303 177.116 125.957C185.718 127.611 180.859 138.967 180.859 138.967C180.859 138.967 180.91 148.132 173.932 146.867C167.88 145.772 164.654 142.449 166.072 133.519Z" fill="#D5D9D9" stroke="#263238" stroke-linecap="round" stroke-linejoin="round"/>
<path d="M170.732 99.6709C170.732 99.6709 168.131 110.203 167.46 112.23" stroke="#263238" stroke-linecap="round" stroke-linejoin="round"/>
<path d="M172.959 100.582L171.443 106.358" stroke="#263238" stroke-linecap="round" stroke-linejoin="round"/>
<path d="M191.949 104.632L197.125 106.455L196.557 108.078H194.939L191.493 107.269L191.949 104.632Z" fill="#D5D9D9" stroke="#263238" stroke-linecap="round" stroke-linejoin="round"/>
<path d="M191.089 108.078L194.939 109.292L195.748 110.101L194.939 112.23L190.479 110.71L191.089 108.078Z" fill="#D5D9D9" stroke="#263238" stroke-linecap="round" stroke-linejoin="round"/>
<path d="M190.48 111.723L194.939 112.952L194.309 114.56H191.949L189.773 113.649L190.48 111.723Z" fill="#D5D9D9" stroke="#263238" stroke-linecap="round" stroke-linejoin="round"/>
<path d="M189.773 114.56L193.214 115.978V116.987L192.354 117.801L189.148 116.89V115.164L189.773 114.56Z" fill="#D5D9D9" stroke="#263238" stroke-linecap="round" stroke-linejoin="round"/>
<path d="M192.707 119.132V120.709C192.733 120.883 192.719 121.06 192.665 121.228C192.61 121.395 192.518 121.547 192.394 121.672C192.267 121.741 192.125 121.778 191.98 121.778C191.835 121.778 191.692 121.741 191.565 121.672C191.304 121.549 191.053 121.365 190.807 121.257C190.003 120.934 189.015 121.339 188.247 120.909C188.247 119.931 187.904 118.38 189.112 118.349C189.312 118.364 192.707 119.491 192.707 119.132Z" fill="#D5D9D9" stroke="#263238" stroke-linecap="round" stroke-linejoin="round"/>
<path d="M191.288 123.08C191.25 123.441 191.185 123.798 191.094 124.15C190.981 124.605 190.761 125.112 190.305 125.235C190.06 125.276 189.808 125.255 189.573 125.174L186.696 124.416C186.835 123.877 187.006 123.347 187.208 122.829C187.597 122.26 187.464 122.271 188.145 122.225C189.251 122.179 190.152 123.218 191.288 123.08Z" fill="#D5D9D9" stroke="#263238" stroke-linecap="round" stroke-linejoin="round"/>
<path d="M181.571 101.294L179.845 108.078L180.705 108.482L182.784 101.796L181.571 101.294Z" fill="#D5D9D9" stroke="#263238" stroke-linecap="round" stroke-linejoin="round"/>
<path d="M159.949 146.852L165.264 148.229L164.834 149.888L163.221 150.031L159.719 149.514L159.949 146.852Z" fill="#D5D9D9" stroke="#263238" stroke-linecap="round" stroke-linejoin="round"/>
<path d="M159.386 150.359L163.323 151.24L164.204 151.977L163.579 154.168L159.007 153.032L159.386 150.359Z" fill="#D5D9D9" stroke="#263238" stroke-linecap="round" stroke-linejoin="round"/>
<path d="M159.094 154.045L163.641 154.885L163.149 156.539L160.799 156.744L158.551 156.022L159.094 154.045Z" fill="#D5D9D9" stroke="#263238" stroke-linecap="round" stroke-linejoin="round"/>
<path d="M158.628 156.928L162.181 158.049L162.268 159.058L161.48 159.939L158.208 159.304L158.06 157.588L158.628 156.928Z" fill="#D5D9D9" stroke="#263238" stroke-linecap="round" stroke-linejoin="round"/>
<path d="M161.941 161.234L162.079 162.806C162.121 162.977 162.122 163.156 162.082 163.327C162.042 163.499 161.962 163.659 161.848 163.794C161.728 163.874 161.589 163.922 161.445 163.933C161.301 163.945 161.156 163.92 161.024 163.86C160.753 163.763 160.512 163.599 160.231 163.517C159.406 163.261 158.454 163.748 157.671 163.384C157.578 162.411 157.112 160.896 158.311 160.778C158.495 160.768 161.971 161.592 161.941 161.234Z" fill="#D5D9D9" stroke="#263238" stroke-linecap="round" stroke-linejoin="round"/>
<path d="M160.871 165.289C160.863 165.661 160.829 166.032 160.768 166.4C160.691 166.861 160.517 167.388 160.077 167.547C159.835 167.608 159.582 167.608 159.34 167.547L156.411 167.035C156.51 166.485 156.641 165.941 156.805 165.407C157.143 164.808 157.01 164.828 157.686 164.726C158.761 164.567 159.744 165.524 160.871 165.289Z" fill="#D5D9D9" stroke="#263238" stroke-linecap="round" stroke-linejoin="round"/>
<path d="M182.078 170.26C182.078 170.26 183.296 156.672 183.296 155.305" stroke="#263238" stroke-linecap="round" stroke-linejoin="round"/>
<path d="M179.646 169.651C179.646 169.651 180.158 162.585 180.25 161.357" stroke="#263238" stroke-linecap="round" stroke-linejoin="round"/>
<path d="M170.148 164.547L168.504 172.59H170.148L171.341 164.547H170.148Z" fill="#D5D9D9" stroke="#263238" stroke-linecap="round" stroke-linejoin="round"/>
<path opacity="0.2" d="M189.015 144.312C185.462 143.57 182.292 142.479 179.948 140.908C179.948 140.908 181.647 145.792 187.674 154.117L184.433 179.42C184.433 179.42 168.781 178.734 156.954 176.712C160.589 166.472 167.194 147.067 166.41 143.222C165.35 137.943 169.093 131.712 169.093 131.712C180.925 129.582 192.399 120.637 200.274 113.075C196.265 124.928 190.792 140.8 189.015 144.312Z" fill="black" fill-opacity="0.7"/>
</g>
<path d="M167.26 89.6001L204.8 99.5022C204.8 99.5022 191.606 139.546 188.928 144.512L184.453 179.42C184.453 179.42 160.471 178.366 149.443 175.032C149.443 175.032 156.416 138.68 156.79 133.832C157.164 128.983 167.26 89.6001 167.26 89.6001Z" stroke="#263238" stroke-linecap="round" stroke-linejoin="round"/>
<path d="M188.073 169.313L182.784 207.591C181.606 205.087 178.396 200.817 176.737 198.682C176.123 197.883 175.713 197.386 175.713 197.386L174.776 195.943C169.917 189.056 169.917 180.956 169.109 174.07C168.3 167.184 168.499 167.788 168.704 161.685C168.853 157.104 168.651 152.518 168.1 147.968C167.695 143.913 166.886 136.781 168.1 133.458C168.694 131.83 169.764 130.816 171.105 130.601C172.447 130.386 174.177 131 175.964 132.69C179.441 136.013 180.859 149.663 180.859 151.347C180.859 153.032 180.859 158.295 182.077 160.323C182.077 160.297 185.344 166.477 188.073 169.313Z" fill="white"/>
<path opacity="0.4" d="M174.377 193.214C175.483 194.627 176.236 196.664 176.737 198.682C176.123 197.883 175.713 197.386 175.713 197.386L174.776 195.943C169.917 189.056 169.917 180.956 169.109 174.07C168.3 167.183 168.499 167.788 168.704 161.685C168.853 157.104 168.651 152.518 168.1 147.968C167.695 143.913 166.886 136.781 168.1 133.458C168.694 131.83 169.764 130.816 171.105 130.601C173.665 131.328 176.225 133.934 177.116 138.394C178.652 145.879 171.725 139.832 170.122 146.176C168.52 152.52 170.849 154.23 171.807 155.827C172.764 157.425 171.54 160.947 170.122 165.678C168.704 170.409 171.341 189.327 174.377 193.214Z" fill="#D5D9D9"/>
<path d="M188.073 169.313C185.339 166.477 182.078 160.297 182.078 160.297C180.859 158.249 180.859 153.006 180.859 151.322C180.859 149.637 179.441 135.987 175.964 132.664C172.488 129.341 169.308 130.104 168.1 133.432C166.892 136.76 167.696 143.887 168.1 147.942C168.654 152.501 168.858 157.095 168.709 161.684C168.505 167.788 168.3 167.183 169.114 174.07C169.928 180.956 169.923 189.056 174.782 195.942L175.719 197.386C175.719 197.386 181.166 204.15 182.784 207.59" stroke="#263238" stroke-linecap="round" stroke-linejoin="round"/>
<path d="M170.148 153.114C170.148 153.114 174.792 150.712 177.116 150.917" stroke="#263238" stroke-linecap="round" stroke-linejoin="round"/>
<path opacity="0.2" d="M99.2308 87.4547C99.2308 87.4547 87.4855 74.5216 86.6766 73.728C85.8676 72.9344 85.2583 59.1411 83.026 53.0688C80.7937 46.9965 79.7134 11.3408 79.7134 11.3408C79.7134 11.3408 77.5886 8.70913 71.5982 10.1274C65.6078 11.5456 59.7351 8.90881 53.0535 12.759C46.3719 16.6093 59.3306 71.68 59.3306 71.68L72.4839 113.597L99.2308 87.4547Z" fill="black" fill-opacity="0.7"/>
<path d="M107.3 87.5519C107.3 87.5519 102.036 121.175 96.5477 125.629C93.3785 128.189 88.4377 129.367 84.0549 129.213C80.8805 129.101 77.9929 128.302 76.293 126.853C72.2431 123.407 66.565 121.585 63.7388 119.357C60.9125 117.13 60.9023 109.23 59.0796 102.543C57.2569 95.8565 54.6201 95.6569 54.0159 88.9753C53.4117 82.2937 50.9746 61.8393 46.5714 56.1612C42.1682 50.4831 42.0658 46.0338 40.2431 40.2585C38.4204 34.4831 25.0879 13.5884 25.0879 13.5884L57.5897 6.93237C57.5897 6.93237 60.7845 20.1573 64.2047 30.9452C65.8277 36.0652 67.502 40.6425 68.9049 42.9874C71.5986 47.5232 73.932 52.2635 75.8834 57.1647C79.5596 61.0149 81.5717 69.5449 82.181 77.0149L90.885 81.8687C97.5769 83.6965 107.3 87.5519 107.3 87.5519Z" fill="white"/>
<path opacity="0.4" d="M107.3 87.5518C107.3 87.5518 102.037 121.175 96.5479 125.629C93.3786 128.189 88.4378 129.367 84.0551 129.213C73.6615 126.653 70.866 120.857 69.458 119.455C67.5841 117.586 65.1213 106.199 66.473 99.5736C67.8247 92.9483 66.8519 90.4958 65.7357 87.26C63.2628 80.092 70.8045 76.2315 71.5828 73.5179C72.361 70.8043 72.0948 55.6286 68.7002 50.6929C66.898 48.0664 62.2541 34.5291 64.21 30.9553C65.833 36.0753 67.5073 40.6526 68.9101 42.9976C71.6039 47.5333 73.9373 52.2737 75.8887 57.1748C79.5649 61.0251 81.577 69.555 82.1863 77.0251L90.8903 81.8788C97.577 83.6964 107.3 87.5518 107.3 87.5518Z" fill="#D5D9D9"/>
<path d="M67.6096 85.1865C67.6096 85.1865 65.7766 87.342 64.1587 87.342" stroke="#263238" stroke-linecap="round" stroke-linejoin="round"/>
<path d="M71.598 92.4722C71.598 92.4722 69.6268 96.6603 66.478 97.5922" stroke="#263238" stroke-linecap="round" stroke-linejoin="round"/>
<path d="M68.0957 117.017C68.0957 117.017 72.5552 115.092 73.2618 111.851" stroke="#263238" stroke-linecap="round" stroke-linejoin="round"/>
<path d="M90.8955 81.8738C90.8955 81.8738 89.7793 83.292 89.7793 84.4338" stroke="#263238" stroke-linecap="round" stroke-linejoin="round"/>
<path d="M57.6101 6.93237C57.6101 6.93237 64.5631 35.6914 68.9253 43.0079C71.6191 47.5437 73.9525 52.284 75.9039 57.1852C79.58 61.0354 81.5922 69.5705 82.2015 77.0405L90.9055 81.8943C97.5871 83.717 107.289 87.5673 107.289 87.5673C107.289 87.5673 102.026 121.19 96.5375 125.645C91.0488 130.099 80.3839 130.283 76.2879 126.843C72.1919 123.402 66.5599 121.574 63.7336 119.347C60.9074 117.12 60.8972 109.22 59.0744 102.533C57.2517 95.8463 54.6149 95.6466 54.0108 88.965C53.4066 82.2834 50.9695 61.829 46.5663 56.1509C42.1631 50.4728 42.0607 46.0236 40.238 40.2482C38.4152 34.4729 25.0879 13.5884 25.0879 13.5884" stroke="#263238" stroke-linecap="round" stroke-linejoin="round"/>
<path d="M119.613 85.3708L65.8584 168.115L78.5458 169.528L117.094 171.131L121.042 97.5309L119.613 85.3708Z" fill="#263238" stroke="#263238" stroke-linecap="round" stroke-linejoin="round"/>
<path d="M119.613 85.3657L114.647 169.718L65.8584 168.115L69.7086 103.48L70.9067 83.4099L92.165 84.265L119.613 85.3657Z" fill="#757575"/>
<mask id="mask2_114_15755" style="mask-type:luminance" maskUnits="userSpaceOnUse" x="65" y="83" width="55" height="87">
<path d="M119.613 85.3657L114.647 169.718L65.8584 168.115L69.7086 103.48L70.9067 83.4099L92.165 84.265L119.613 85.3657Z" fill="white"/>
</mask>
<g mask="url(#mask2_114_15755)">
<path d="M107.346 160.005C110.626 160.005 113.285 157.346 113.285 154.066C113.285 150.786 110.626 148.127 107.346 148.127C104.066 148.127 101.407 150.786 101.407 154.066C101.407 157.346 104.066 160.005 107.346 160.005Z" fill="#BFBFBF" stroke="#263238" stroke-miterlimit="10"/>
<path d="M105.671 150.124L109.696 150.651" stroke="#263238" stroke-linecap="round" stroke-linejoin="round"/>
<path d="M104.591 151.101L110.638 151.69" stroke="#263238" stroke-linecap="round" stroke-linejoin="round"/>
<path d="M103.92 157.061L109.972 157.65" stroke="#263238" stroke-linecap="round" stroke-linejoin="round"/>
<path d="M106.567 152.448C106.734 152.489 106.909 152.465 107.058 152.38C107.207 152.295 107.317 152.156 107.366 151.992L107.817 152.038L107.361 156.313L106.69 156.242L107.038 152.98L106.526 152.924L106.567 152.448Z" fill="#263238"/>
<path d="M108.805 152.627C109.071 152.627 109.194 152.827 109.163 153.108V153.16L108.902 153.134V153.088C108.902 152.965 108.871 152.909 108.784 152.899C108.697 152.888 108.641 152.934 108.631 153.057C108.62 153.18 108.661 153.288 108.825 153.462C108.908 153.532 108.974 153.621 109.015 153.722C109.057 153.823 109.075 153.932 109.066 154.04C109.035 154.322 108.881 154.465 108.61 154.435C108.339 154.404 108.221 154.23 108.247 153.953V153.846L108.503 153.871V153.999C108.503 154.122 108.538 154.173 108.625 154.184C108.713 154.194 108.774 154.153 108.784 154.03C108.794 153.907 108.753 153.8 108.59 153.626C108.506 153.555 108.441 153.466 108.399 153.365C108.358 153.265 108.34 153.156 108.349 153.047C108.385 152.74 108.544 152.576 108.805 152.627Z" fill="#263238"/>
<path d="M109.286 152.699L110.136 152.786L110.106 153.037L109.819 153.006L109.66 154.501L109.389 154.476L109.547 152.975L109.261 152.945L109.286 152.699Z" fill="#263238"/>
<path d="M94.8929 89.1103L85.3685 87.032C85.1227 86.9783 84.8798 87.1341 84.8262 87.38L83.5305 93.3177C83.4768 93.5636 83.6326 93.8064 83.8785 93.8601L93.4029 95.9385C93.6487 95.9921 93.8916 95.8363 93.9452 95.5904L95.2409 89.6527C95.2946 89.4068 95.1388 89.164 94.8929 89.1103Z" fill="white" stroke="#263238" stroke-linecap="round" stroke-linejoin="round"/>
<path d="M87.0396 92.8871L87.0038 92.8512C87.0038 92.8512 87.0038 92.7898 86.9782 92.7642C86.9538 92.7412 86.9346 92.7133 86.9219 92.6823C86.9197 92.6721 86.9197 92.6617 86.9219 92.6515C86.9219 92.6515 86.9475 92.6515 86.9628 92.6157C86.9755 92.608 86.9862 92.5976 86.9941 92.5852C87.0021 92.5728 87.0072 92.5587 87.0089 92.544C87.007 92.5356 87.007 92.5268 87.0089 92.5184H87.0396C87.0396 92.4211 86.9782 92.3495 86.9168 92.2727C86.7683 92.0883 86.7376 91.9962 86.7683 91.8733C86.799 91.7504 86.8502 91.7146 86.9372 91.7299C87.0243 91.7453 87.0601 91.8067 87.0345 91.9296V92.0013L87.2905 92.0576V92.0013C87.3251 91.9108 87.3237 91.8104 87.2865 91.7209C87.2494 91.6314 87.1794 91.5595 87.0908 91.52L87.1216 91.3971L86.9014 91.3459L86.8758 91.4739C86.6761 91.4739 86.5481 91.6019 86.4969 91.8323C86.4774 91.9354 86.4845 92.0417 86.5177 92.1412C86.5508 92.2406 86.6089 92.33 86.6864 92.4007C86.8348 92.5799 86.8656 92.6823 86.8348 92.8C86.8041 92.9178 86.7478 92.9587 86.6608 92.9383C86.5737 92.9178 86.5328 92.8615 86.5584 92.7437L86.5891 92.6055L86.3331 92.5491V92.6669C86.3119 92.7135 86.3003 92.7639 86.299 92.8151C86.2976 92.8663 86.3065 92.9173 86.3251 92.965C86.3437 93.0127 86.3716 93.0562 86.4073 93.0929C86.443 93.1297 86.4856 93.1589 86.5328 93.1789V93.3018L86.7529 93.353L86.7785 93.225H86.9116C86.9519 93.2109 86.9886 93.1882 87.0192 93.1584C87.0504 93.127 87.0763 93.0907 87.096 93.0509C87.0396 92.9178 87.0396 92.9024 87.0396 92.8871Z" fill="#263238"/>
<path d="M88.4476 92.8051C88.4453 92.7642 88.4349 92.7241 88.4169 92.6873C88.4119 92.6671 88.4119 92.646 88.4169 92.6259C88.4247 92.6104 88.4373 92.5979 88.4527 92.59C88.591 92.4671 88.422 92.3033 88.2889 92.2726C88.2429 92.2611 88.1947 92.2617 88.149 92.2743C88.1032 92.2868 88.0615 92.3109 88.0278 92.3443L88.1353 91.9449L88.6063 92.0473L88.6575 91.8016L87.951 91.6479C87.936 91.6823 87.9257 91.7184 87.9203 91.7555C87.9203 91.7913 87.9663 91.8016 87.9663 91.8425C87.9663 91.8835 87.9663 91.8784 87.9663 91.8988C87.9757 91.9288 87.9957 91.9543 88.0226 91.9705C88.0482 91.9705 88.0738 92.0166 88.0687 92.0473C88.0722 92.0572 88.0722 92.0681 88.0687 92.078C88.0493 92.1251 88.0152 92.1646 87.9715 92.1907C87.9513 92.1946 87.9332 92.2054 87.9203 92.2214V92.2521C87.9203 92.2879 87.8793 92.3084 87.8486 92.3289C87.8179 92.3494 87.741 92.5132 87.7103 92.6259L87.9663 92.6822V92.631C87.9919 92.5081 88.0585 92.4774 88.1404 92.4927C88.2223 92.5081 88.2735 92.5695 88.2428 92.6924L88.1609 93.0713C88.1609 93.1891 88.0739 93.2249 87.9868 93.2044C87.8998 93.1839 87.8588 93.1328 87.8844 93.0099L87.9203 92.8512L87.6643 92.7948L87.6335 92.9382C87.6137 92.9937 87.6059 93.0529 87.6108 93.1117C87.6156 93.1705 87.6329 93.2276 87.6616 93.2791C87.6903 93.3307 87.7296 93.3755 87.777 93.4107C87.8243 93.4458 87.8787 93.4705 87.9363 93.483C87.994 93.4955 88.0536 93.4955 88.1113 93.4831C88.169 93.4707 88.2233 93.4461 88.2708 93.411C88.3182 93.376 88.3576 93.3312 88.3863 93.2796C88.415 93.2281 88.4324 93.1711 88.4374 93.1123C88.4555 93.0109 88.459 92.9074 88.4476 92.8051Z" fill="#263238"/>
<path d="M91.7912 93.5219C91.7864 93.4814 91.7761 93.4417 91.7605 93.4041C91.7555 93.3839 91.7555 93.3628 91.7605 93.3427C91.7683 93.3272 91.7809 93.3147 91.7963 93.3068C91.9294 93.184 91.7605 93.0201 91.6325 92.9894C91.5864 92.9779 91.5382 92.9785 91.4925 92.9911C91.4468 93.0036 91.4051 93.0277 91.3713 93.0611L91.4789 92.6617L91.9499 92.7641L92.0011 92.5183L91.2945 92.3647C91.2773 92.3982 91.2669 92.4348 91.2638 92.4723C91.2638 92.5081 91.3048 92.5183 91.3099 92.5593C91.315 92.6003 91.3099 92.5951 91.3099 92.6156C91.3192 92.6456 91.3393 92.6711 91.3662 92.6873C91.3918 92.6873 91.4174 92.7334 91.4123 92.7641C91.4072 92.7948 91.4123 92.7641 91.4123 92.7948C91.3926 92.8434 91.3563 92.8833 91.3099 92.9075C91.2917 92.9127 91.2757 92.9235 91.2638 92.9382C91.2638 92.9382 91.2638 92.9382 91.2638 92.9689C91.2638 92.9996 91.228 93.0252 91.1973 93.0457C91.1665 93.0662 91.0897 93.23 91.059 93.3427L91.315 93.399V93.3478C91.3406 93.2249 91.4072 93.1942 91.4891 93.2096C91.571 93.2249 91.6171 93.2864 91.5915 93.4092L91.5096 93.7881C91.5096 93.9059 91.4225 93.9417 91.3355 93.9212C91.2485 93.9008 91.2075 93.8495 91.2331 93.7267L91.2689 93.5679L91.0129 93.5116L90.9822 93.655C90.9668 93.7088 90.9625 93.7653 90.9697 93.8209C90.977 93.8764 90.9955 93.9299 91.0242 93.978C91.053 94.0261 91.0913 94.0678 91.1367 94.1005C91.1822 94.1333 91.2339 94.1563 91.2887 94.1682C91.3434 94.1802 91.4 94.1807 91.455 94.1699C91.51 94.1591 91.5622 94.1371 91.6083 94.1053C91.6544 94.0735 91.6936 94.0326 91.7233 93.9851C91.753 93.9376 91.7726 93.8845 91.7809 93.8291C91.8014 93.728 91.8049 93.6241 91.7912 93.5219Z" fill="#263238"/>
<path d="M89.0314 92.2982C89.057 92.1753 89.1235 92.1395 89.2055 92.16C89.2317 92.1636 89.2559 92.1763 89.2737 92.196C89.2915 92.2157 89.3018 92.241 89.3027 92.2675H89.3898C89.3928 92.2824 89.3989 92.2965 89.4077 92.3088C89.4165 92.3212 89.4279 92.3315 89.441 92.3392C89.4717 92.3648 89.5127 92.3801 89.5485 92.4057C89.5654 92.3519 89.5707 92.2951 89.564 92.2391C89.5574 92.1831 89.5389 92.1291 89.5099 92.0807C89.4809 92.0324 89.4419 91.9907 89.3956 91.9585C89.3493 91.9262 89.2967 91.9042 89.2413 91.8937C89.1849 91.8748 89.1248 91.8691 89.0658 91.877C89.0068 91.8849 88.9504 91.9063 88.901 91.9394C88.8515 91.9725 88.8103 92.0166 88.7806 92.0681C88.7508 92.1197 88.7333 92.1774 88.7293 92.2368C88.7269 92.2692 88.7269 92.3017 88.7293 92.3341C88.7293 92.416 88.7293 92.3904 88.8112 92.4211C88.8931 92.4518 88.9187 92.4928 88.8471 92.5184H88.8931C88.8931 92.5184 88.8931 92.5542 88.8931 92.5696C88.8931 92.5849 88.8931 92.5952 88.8675 92.6157C88.8722 92.6289 88.8722 92.6434 88.8675 92.6566C88.8675 92.6566 88.8266 92.7232 88.8163 92.7334C88.8014 92.7588 88.7802 92.7799 88.7549 92.7949C88.6883 92.8358 88.6576 92.7949 88.6371 92.8973C88.6167 92.9997 88.6115 93.0099 88.6013 93.0611C88.5816 93.1171 88.5741 93.1767 88.5792 93.2359C88.5842 93.2951 88.6018 93.3525 88.6307 93.4044C88.6596 93.4563 88.6992 93.5015 88.7469 93.5369C88.7946 93.5724 88.8492 93.5973 88.9072 93.6101C88.9652 93.6229 89.0253 93.6232 89.0834 93.611C89.1416 93.5989 89.1965 93.5745 89.2445 93.5395C89.2925 93.5046 89.3326 93.4598 89.3621 93.4083C89.3915 93.3567 89.4097 93.2994 89.4154 93.2403L89.4973 92.8819H89.4666C89.4059 92.8545 89.3476 92.822 89.2925 92.7846L89.2464 92.7437L89.144 93.2045C89.144 93.3273 89.0519 93.3632 88.9699 93.3427C88.888 93.3222 88.8419 93.2659 88.8675 93.143L89.016 92.4467C89.0127 92.4035 89.0234 92.3604 89.0467 92.3238L89.0314 92.2982Z" fill="#263238"/>
<path d="M90.291 93.1431H90.3166C90.3166 93.1175 90.3166 93.0919 90.3166 93.0561H90.4292L90.5163 92.6618C90.5359 92.6058 90.5435 92.5462 90.5384 92.487C90.5334 92.4278 90.5158 92.3704 90.4869 92.3185C90.4579 92.2666 90.4184 92.2215 90.3707 92.186C90.323 92.1505 90.2684 92.1256 90.2104 92.1128C90.1524 92.1001 90.0923 92.0998 90.0342 92.1119C89.976 92.1241 89.9211 92.1484 89.8731 92.1834C89.825 92.2184 89.785 92.2631 89.7555 92.3147C89.7261 92.3663 89.7079 92.4235 89.7022 92.4826V92.5543C89.738 92.585 89.7585 92.6362 89.7944 92.6618C89.8302 92.6874 89.8865 92.6618 89.8712 92.7489C89.8558 92.8359 89.8404 92.8206 89.8712 92.8462C89.9019 92.8718 89.907 92.8462 89.9121 92.882C89.9184 92.8901 89.9217 92.9 89.9217 92.9102C89.9217 92.9203 89.9184 92.9303 89.9121 92.9383C89.9121 92.9383 89.8763 92.9383 89.8712 92.9844C89.866 93.0305 89.8712 93.0612 89.8404 93.0714C89.8097 93.0817 89.7432 93.01 89.6868 93.0151C89.6667 93.021 89.6484 93.0322 89.634 93.0475C89.6196 93.0628 89.6096 93.0817 89.6049 93.1022C89.5788 93.1892 89.56 93.2782 89.5486 93.3684C89.5299 93.4226 89.5234 93.4802 89.5296 93.5371C89.5358 93.5941 89.5544 93.649 89.5843 93.6979C89.6141 93.7468 89.6544 93.7885 89.7022 93.8201C89.75 93.8516 89.8042 93.8722 89.8609 93.8804C89.9191 93.896 89.98 93.8986 90.0393 93.888C90.0986 93.8774 90.1548 93.8538 90.204 93.819C90.2493 93.7798 90.2874 93.733 90.3166 93.6807C90.3396 93.6545 90.3524 93.6209 90.3524 93.586C90.3524 93.5511 90.3396 93.5175 90.3166 93.4913H90.291L90.2552 93.3684C90.2552 93.3684 90.2552 93.3684 90.291 93.3377C90.3268 93.307 90.291 93.2404 90.3422 93.2046C90.3934 93.1687 90.2808 93.1534 90.291 93.1431ZM90.076 93.4913C90.0504 93.6142 89.9838 93.65 89.8968 93.6295C89.8097 93.609 89.7688 93.5527 89.7944 93.4298L89.9992 92.5082C90.0248 92.3854 90.0862 92.3495 90.1732 92.37C90.2603 92.3905 90.3013 92.4468 90.2757 92.5697L90.076 93.4913Z" fill="#263238"/>
<path d="M90.7466 93.778L90.6903 94.0391L90.4292 93.9828L90.4855 93.7217L90.7466 93.778Z" fill="#263238"/>
<path d="M92.8868 93.3223C92.9175 93.3223 92.9176 93.2045 92.9278 93.1636C92.9475 93.1075 92.955 93.0479 92.9499 92.9887C92.9449 92.9295 92.9273 92.8721 92.8984 92.8202C92.8695 92.7683 92.8299 92.7232 92.7822 92.6877C92.7345 92.6523 92.6799 92.6273 92.6219 92.6146C92.5639 92.6018 92.5038 92.6015 92.4457 92.6136C92.3875 92.6258 92.3326 92.6502 92.2846 92.6851C92.2366 92.7201 92.1965 92.7648 92.167 92.8164C92.1376 92.868 92.1194 92.9252 92.1137 92.9843L92.0369 93.3274C92.1035 93.3888 92.0369 93.4861 92.0676 93.5578C92.0984 93.6295 92.0676 93.5578 92.0676 93.5885C92.0676 93.6192 91.9908 93.6346 91.9908 93.6756C91.9908 93.6756 91.9499 93.737 91.9243 93.7677C91.9081 93.792 91.8992 93.8204 91.8987 93.8496C91.879 93.9057 91.8715 93.9653 91.8765 94.0245C91.8816 94.0836 91.8992 94.1411 91.9281 94.193C91.957 94.2449 91.9966 94.29 92.0443 94.3255C92.0919 94.3609 92.1466 94.3859 92.2046 94.3986C92.2626 94.4114 92.3227 94.4117 92.3808 94.3995C92.4389 94.3874 92.4938 94.363 92.5419 94.3281C92.5899 94.2931 92.63 94.2484 92.6594 94.1968C92.6889 94.1452 92.7071 94.088 92.7128 94.0288L92.7742 93.7472C92.7742 93.6756 92.8663 93.4861 92.7742 93.4298C92.682 93.3735 92.7332 93.4298 92.723 93.394C92.7167 93.3821 92.7134 93.3689 92.7134 93.3556C92.7134 93.3422 92.7167 93.329 92.723 93.3171C92.7844 93.2659 92.8305 93.353 92.8868 93.3223ZM92.5745 93.7728C92.5745 93.8035 92.5233 93.8138 92.4977 93.8547C92.478 93.9056 92.4659 93.9591 92.4619 94.0135C92.4363 94.1363 92.3697 94.1671 92.2878 94.1517C92.2059 94.1363 92.1547 94.0749 92.1854 93.952C92.1854 93.9162 92.2315 93.8138 92.2212 93.7831C92.211 93.7523 92.17 93.7831 92.1495 93.7216C92.1342 93.6681 92.1342 93.6113 92.1495 93.5578C92.152 93.546 92.152 93.5338 92.1495 93.522C92.1495 93.522 92.1239 93.4759 92.1495 93.4554C92.1495 93.4554 92.1495 93.3888 92.1495 93.3427C92.3134 93.4042 92.3083 93.1533 92.3339 93.0509C92.3595 92.9485 92.426 92.8922 92.5079 92.9127C92.5899 92.9331 92.636 92.9895 92.6104 93.1072C92.5756 93.2115 92.5549 93.32 92.5489 93.4298C92.5703 93.4331 92.59 93.4435 92.6048 93.4592C92.6197 93.475 92.6288 93.4953 92.6308 93.5168C92.6257 93.5439 92.6257 93.5717 92.6308 93.5987C92.6308 93.5987 92.6308 93.6448 92.6308 93.6653C92.6308 93.6858 92.6001 93.6653 92.5796 93.6653C92.5655 93.6709 92.5529 93.6799 92.5431 93.6915C92.5333 93.7031 92.5265 93.717 92.5233 93.7319L92.5745 93.7728Z" fill="#263238"/>
<path d="M90.0249 89.6001L91.7555 89.979" stroke="#263238" stroke-linecap="round" stroke-linejoin="round"/>
<path d="M86.0928 88.7397L89.1648 89.4156" stroke="#263238" stroke-linecap="round" stroke-linejoin="round"/>
<path d="M85.8364 89.9277L87.8639 90.3681" stroke="#263238" stroke-linecap="round" stroke-linejoin="round"/>
<path opacity="0.4" d="M68.0957 167.368C70.7862 166.664 73.5529 166.292 76.3338 166.262C81.3309 166.139 84.5258 167.086 88.6218 165.059C92.7178 163.031 95.3751 166.682 99.2919 164.654C103.209 162.626 105.026 159.38 107.289 159.452C109.552 159.524 112.921 123.259 114.007 117.018C115.092 110.776 117.401 93.3785 118.195 89.8457L113.735 168.474L68.0957 167.368Z" fill="white"/>
<path d="M68.3108 151.895L80.7985 167.086L67.6094 166.267L68.3108 151.895Z" fill="#D5D9D9" stroke="#263238" stroke-linecap="round" stroke-linejoin="round"/>
<path d="M101.453 121.856L101.253 127.636C101.225 128.443 101.039 129.236 100.705 129.971C100.37 130.705 99.8944 131.367 99.3044 131.917C98.7143 132.468 98.0216 132.897 97.2657 133.18C96.5099 133.462 95.7057 133.593 94.8992 133.565L88.96 133.355C88.1512 133.328 87.3558 133.141 86.6196 132.805C85.8834 132.469 85.2208 131.99 84.6699 131.398C84.119 130.805 83.6906 130.109 83.4093 129.35C83.1281 128.591 82.9995 127.785 83.031 126.976L83.2973 119.45C83.3547 117.822 84.0562 116.283 85.2477 115.172C86.4393 114.061 88.0232 113.469 89.6512 113.526L95.5904 113.731C95.7542 113.731 95.9181 113.73 96.1024 113.766C95.2713 114.566 94.7467 115.631 94.6199 116.777C94.493 117.924 94.7719 119.078 95.408 120.04C96.0442 121.002 96.9973 121.71 98.1017 122.042C99.2061 122.374 100.392 122.308 101.453 121.856Z" fill="#D5D9D9" stroke="#263238" stroke-linecap="round" stroke-linejoin="round"/>
<path d="M102.523 116.864C102.504 117.42 102.321 117.957 101.997 118.409C101.673 118.861 101.222 119.206 100.701 119.402C100.181 119.597 99.6139 119.634 99.0725 119.507C98.5311 119.38 98.0395 119.096 97.6598 118.69C97.2801 118.283 97.0294 117.774 96.9394 117.225C96.8494 116.676 96.9242 116.113 97.1542 115.607C97.3843 115.101 97.7593 114.674 98.2319 114.381C98.7044 114.088 99.2532 113.942 99.8089 113.961C100.553 113.988 101.257 114.308 101.765 114.852C102.274 115.396 102.546 116.12 102.523 116.864Z" fill="#D5D9D9" stroke="#263238" stroke-linecap="round" stroke-linejoin="round"/>
<path opacity="0.4" d="M84.7202 127.693L93.4498 120.228C93.4498 120.228 92.3439 116.229 93.4498 114.964H89.2565C88.2467 114.961 87.2737 115.343 86.5362 116.033C85.7987 116.723 85.3525 117.669 85.2885 118.676L84.7202 127.693Z" fill="white"/>
<path opacity="0.4" d="M98.524 117.017L100.393 114.969C100.393 114.969 99.2305 114.186 98.524 114.969C97.8174 115.753 98.524 117.017 98.524 117.017Z" fill="white"/>
<path d="M97.6128 161.618L111.688 162.227" stroke="#263238" stroke-linecap="round" stroke-linejoin="round"/>
<path d="M92.7383 163.036L111.687 164.05" stroke="#263238" stroke-linecap="round" stroke-linejoin="round"/>
<path d="M106.726 167.086H111.687" stroke="#263238" stroke-linecap="round" stroke-linejoin="round"/>
<path opacity="0.2" d="M89.4768 115.389C82.2167 118.881 74.3523 106.65 71.5978 104.965C70.9187 104.536 70.2856 104.039 69.7085 103.48L70.9066 83.4099L92.1597 84.265C92.0215 87.255 92.0675 90.5574 92.7331 92.457C94.1667 96.599 96.7319 111.903 89.4768 115.389Z" fill="black" fill-opacity="0.7"/>
<path opacity="0.4" d="M81.3413 116.014C81.3413 116.014 87.1474 118.533 89.7791 117.038C92.4108 115.543 95.2472 112.686 95.6517 106.342C95.6517 106.342 99.1077 115.277 92.1394 117.954C85.1711 120.632 81.3413 116.014 81.3413 116.014Z" fill="white"/>
<path opacity="0.4" d="M79.0781 119.588C79.0781 119.588 90.8541 122.752 95.8922 117.028C95.8922 117.028 95.2164 120.207 89.7789 121.124C84.3415 122.04 79.0781 119.588 79.0781 119.588Z" fill="white"/>
<path opacity="0.4" d="M98.0173 99.1334C97.1213 97.5411 98.2221 111.852 98.2221 111.852C98.2221 111.852 99.84 102.4 98.0173 99.1334Z" fill="white"/>
</g>
<path d="M119.613 85.3657L114.647 169.718L65.8584 168.115L69.7086 103.48L70.9067 83.4099L92.165 84.265L119.613 85.3657Z" stroke="#263238" stroke-linecap="round" stroke-linejoin="round"/>
<path opacity="0.4" d="M117.145 170.168L115.369 169.718L119.613 92.4722L120.366 97.5717L117.145 170.168Z" fill="white"/>
<path d="M89.4771 115.389C88.8057 115.746 88.0591 115.938 87.2989 115.95C86.5387 115.961 85.7866 115.792 85.1046 115.456C83.9244 114.836 82.9721 113.857 82.3859 112.66C80.3635 109.015 74.8902 100.71 73.8816 98.3243C72.8729 95.9383 70.6406 89.1902 68.4134 86.3588C66.1862 83.5275 64.9677 79.2676 64.9677 79.2676L64.1587 37.9492C65.3721 43.9243 68.7155 50.7083 68.7155 50.7083C71.6202 52.2198 74.0884 54.4516 75.8835 57.1902C76.406 57.7466 76.8741 58.3519 77.2813 58.9975C80.5888 64.1175 82.1913 73.3335 82.3654 80.5015C82.5702 88.6065 85.2019 92.2775 89.4566 99.338C93.7113 106.399 92.2419 113.817 89.4771 115.389Z" fill="white"/>
<path opacity="0.4" d="M89.4771 115.389C88.803 115.737 88.0573 115.925 87.2987 115.936C86.5401 115.948 85.7891 115.783 85.1046 115.456C87.4291 114.821 90.4806 113.628 89.7792 111.872C88.6784 109.066 85.4579 113.229 83.84 111.872C82.2221 110.515 76.3443 102.733 80.0768 99.3073C83.8093 95.882 82.6368 90.1374 80.0768 88.5195C77.5168 86.9016 79.1808 83.0462 79.9898 76.979C80.5018 73.308 78.7456 64.9931 77.3018 58.9924C80.6093 64.1124 82.2118 73.3284 82.3859 80.4964C82.5907 88.6014 85.2224 92.2724 89.4771 99.3329C93.7318 106.393 92.2419 113.915 89.4771 115.389Z" fill="#D5D9D9"/>
<path d="M64.1587 37.9238C65.3721 43.8989 68.7155 50.6829 68.7155 50.6829C71.6202 52.1944 74.0884 54.4262 75.8835 57.1648C80.1382 61.6192 82.1657 72.3558 82.3654 80.4557C82.5651 88.5555 85.2019 92.2317 89.4566 99.2921C93.7113 106.353 92.5286 113.715 89.4566 115.389C87.3165 116.562 84.3929 116.306 82.3654 112.66C80.3379 109.015 74.8697 100.71 73.8611 98.3245C72.8525 95.9385 70.6201 89.1904 68.3929 86.359C66.1657 83.5277 64.9472 79.2678 64.9472 79.2678" stroke="#263238" stroke-linecap="round" stroke-linejoin="round"/>
<path d="M77.312 97.5716C77.312 97.5716 80.6195 97.2747 82.1351 96.0356" stroke="#263238" stroke-linecap="round" stroke-linejoin="round"/>
<path d="M63.7543 80.0818C63.7543 80.0818 63.1092 81.6178 66.4884 83.1538" stroke="#263238" stroke-linecap="round" stroke-linejoin="round"/>
</svg>