<svg width="127" height="184" viewBox="0 0 127 184" fill="none" xmlns="http://www.w3.org/2000/svg">
<path d="M63.823 126.612C56.7744 126.612 51.0584 129.907 51.0584 133.968V151.702C51.0584 155.763 56.7744 159.058 63.823 159.058C70.8715 159.058 76.5875 155.763 76.5875 151.702V133.968C76.5875 129.907 70.8715 126.612 63.823 126.612Z" fill="#EBEBEB"/>
<path d="M63.823 126.612C56.7744 126.612 51.0584 129.907 51.0584 133.968V151.702C51.0584 155.763 56.7744 159.058 63.823 159.058C70.8715 159.058 76.5875 155.763 76.5875 151.702V133.968C76.5875 129.907 70.8715 126.612 63.823 126.612Z" fill="#D5D9D9"/>
<path opacity="0.1" d="M51.0584 133.968V151.702C51.0584 154.992 54.8073 157.774 59.9814 158.716V126.954C54.8073 127.891 51.0584 130.678 51.0584 133.968Z" fill="black"/>
<path d="M78.5301 135.696C78.6278 135.55 113.9 78.8101 113.9 78.8101C113.9 78.8101 96.0734 90.3152 63.8326 90.3152C58.0433 90.3222 52.2602 89.9341 46.5237 89.1535C25.2755 86.2247 13.7606 78.8101 13.7606 78.8101L49.1059 135.687C51.2731 139.162 57.0428 141.647 63.818 141.647C70.5932 141.647 76.358 139.162 78.5253 135.687L78.5301 135.696Z" fill="#EBEBEB"/>
<path d="M38.2108 93.4783L32.8414 86.42C20.3698 83.0812 13.7411 78.8101 13.7411 78.8101L49.0863 135.687C50.8289 138.484 54.9048 140.636 59.9569 141.368L38.2108 93.4783Z" fill="#E0E0E0"/>
<path d="M108.374 34.5516C97.5964 28.328 83.8849 24.833 69.8122 24.0667C51.7515 23.0904 33.149 26.5805 19.3399 34.5565C-5.24706 48.7561 -5.24218 71.7713 19.3399 85.966C25.2741 89.3109 31.6335 91.8379 38.245 93.4783C55.1293 97.8129 74.6446 97.642 91.3288 92.9902C93.6783 92.3393 95.9644 91.5941 98.187 90.7545C99.1144 90.408 100.032 90.0419 100.93 89.6611C102.209 89.1242 103.457 88.5563 104.674 87.9576C105.943 87.3279 107.183 86.6738 108.379 85.9807C132.942 71.7664 132.947 48.7561 108.374 34.5516Z" fill="#D5D9D9"/>
<path opacity="0.1" d="M69.7779 24.0667C51.7172 23.0904 33.1147 26.5805 19.3056 34.5565C-5.28138 48.7561 -5.2765 71.7713 19.3056 85.966C25.2398 89.3109 31.5991 91.8379 38.2107 93.4783C35.8628 90.203 34.3057 82.4027 38.8306 81.9194C32.9762 80.443 27.3442 78.1942 22.083 75.2321C15.0149 71.1514 10.2264 66.2847 8.21045 61.1545C6.49712 56.7614 6.89738 52.3683 9.41123 48.0093C11.8519 43.787 16.245 39.7795 22.0684 36.4016C33.8127 29.6167 49.7647 26.3609 65.5458 26.6391C65.5458 26.6244 65.1895 24.6524 69.7779 24.0667Z" fill="black"/>
<path d="M105.445 36.3919C94.5846 30.1243 80.1263 26.8587 65.5313 26.6293C49.7502 26.3609 33.8031 29.6167 22.0539 36.3919C16.1964 39.7697 11.8276 43.7772 9.39674 47.9995C6.88289 52.339 6.46798 56.7858 8.19595 61.1448C10.2119 66.275 15.0004 71.1416 22.0685 75.2223C27.3297 78.1844 32.9617 80.4332 38.8161 81.9097C41.1299 82.5198 43.5022 83.0373 45.9184 83.4668C50.2043 84.2211 54.5352 84.6923 58.883 84.8775C59.7812 84.9198 60.6793 84.9491 61.5775 84.9653C63.0663 85.0044 64.5697 85.0093 66.0585 84.9653C71.115 84.8728 76.1572 84.3964 81.1416 83.54L81.3125 83.5107C84.513 82.9572 87.6808 82.2288 90.8016 81.3288C93.0015 80.678 95.133 79.9539 97.1961 79.1566C98.0601 78.8247 98.9046 78.4684 99.7441 78.1023C100.745 77.6581 101.731 77.1895 102.697 76.7062C103.664 76.223 104.542 75.73 105.436 75.2419C111.293 71.8591 115.686 67.8419 118.127 63.6245C123.506 54.2622 118.776 44.0847 105.445 36.3919Z" fill="#F5F5F5"/>
<path d="M63.8225 66.7338C49.0371 66.7338 36.4239 72.069 31.4304 79.5764C33.856 80.4804 36.3258 81.2608 38.8304 81.9146C41.1441 82.5247 43.5164 83.0421 45.9327 83.4717C50.2138 84.2237 54.5398 84.6933 58.8827 84.8775C59.7808 84.9198 60.679 84.9491 61.5771 84.9654C63.0659 85.0044 64.5693 85.0093 66.0581 84.9654C71.1147 84.8728 76.1569 84.3964 81.1412 83.54L81.3121 83.5107C84.5125 82.9565 87.6802 82.2281 90.8013 81.3288C92.6431 80.7919 94.4329 80.1964 96.1707 79.5423C91.182 72.0544 78.5981 66.7338 63.8225 66.7338Z" fill="#EBEBEB"/>
<path d="M78.9398 73.2454C82.2638 73.2454 84.9584 70.5508 84.9584 67.2268C84.9584 63.9028 82.2638 61.2082 78.9398 61.2082C75.6158 61.2082 72.9212 63.9028 72.9212 67.2268C72.9212 70.5508 75.6158 73.2454 78.9398 73.2454Z" fill="#D5D9D9"/>
<path opacity="0.1" d="M77.261 69.3941C74.3957 67.3147 74.1614 63.2389 76.4019 61.7696C75.4214 62.2224 74.5809 62.9307 73.9684 63.8202C73.3559 64.7097 72.994 65.7476 72.9208 66.8251C72.8475 67.9026 73.0654 68.98 73.5518 69.9442C74.0382 70.9085 74.7751 71.7241 75.6852 72.3055C76.5953 72.8869 77.6451 73.2127 78.7245 73.2488C79.8039 73.2849 80.8731 73.0298 81.82 72.5105C82.7668 71.9911 83.5565 71.2265 84.1062 70.2968C84.6559 69.3672 84.9453 68.3068 84.9441 67.2268C84.7293 70.1263 80.1263 71.4687 77.261 69.3941Z" fill="black"/>
<path d="M99.5929 50.035C105.168 50.035 109.687 45.5156 109.687 39.9406C109.687 34.3655 105.168 29.8461 99.5929 29.8461C94.0179 29.8461 89.4984 34.3655 89.4984 39.9406C89.4984 45.5156 94.0179 50.035 99.5929 50.035Z" fill="#455A64"/>
<path d="M96.776 43.5722C91.968 40.087 91.5726 33.2435 95.3361 30.7833C93.694 31.5465 92.2872 32.7371 91.2632 34.2305C90.2392 35.7239 89.6355 37.4652 89.5154 39.272C89.3953 41.0788 89.7632 42.8846 90.5805 44.5005C91.3979 46.1163 92.6346 47.4826 94.1613 48.4564C95.6879 49.4302 97.4483 49.9757 99.2581 50.0357C101.068 50.0956 102.86 49.6679 104.448 48.7973C106.036 47.9267 107.36 46.6452 108.283 45.087C109.205 43.5289 109.692 41.7513 109.692 39.9406C109.306 44.8023 101.589 47.0526 96.776 43.5722Z" fill="#37474F"/>
<path d="M37.7787 20.6043C40.8707 17.5124 40.8707 12.4993 37.7787 9.4074C34.6868 6.31546 29.6738 6.31546 26.5818 9.4074C23.4899 12.4993 23.4899 17.5124 26.5818 20.6043C29.6738 23.6963 34.6868 23.6963 37.7787 20.6043Z" fill="#455A64"/>
<path d="M29.9712 17.8528C26.198 15.1242 25.8904 9.75479 28.8387 7.82669C27.5517 8.42524 26.4493 9.35877 25.6468 10.5295C24.8444 11.7003 24.3714 13.0653 24.2775 14.4815C24.1835 15.8978 24.472 17.3133 25.1127 18.5798C25.7535 19.8463 26.7229 20.9173 27.9195 21.6806C29.1162 22.444 30.496 22.8716 31.9146 22.9187C33.3332 22.9659 34.7384 22.6308 35.9831 21.9485C37.2277 21.2663 38.2661 20.262 38.9895 19.0408C39.7129 17.8196 40.0947 16.4264 40.0949 15.007C39.7923 18.8193 33.7395 20.5863 29.9712 17.8528Z" fill="#37474F"/>
<path d="M21.7268 52.8515L25.9052 43.7675C26.1228 43.3542 26.4345 42.998 26.8153 42.7275C27.196 42.457 27.635 42.2798 28.0969 42.2103L37.3029 40.9461C37.7692 40.9293 38.2329 41.0221 38.6568 41.2171C39.0807 41.4121 39.4529 41.7038 39.7436 42.0688L45.523 50.2303C45.772 50.626 45.9243 51.0749 45.9675 51.5404C46.0108 52.006 45.9438 52.4752 45.7719 52.9101L41.5936 61.9941C41.3749 62.4075 41.0622 62.7637 40.6807 63.0342C40.2991 63.3046 39.8595 63.4817 39.397 63.5512L30.1958 64.8008C29.7294 64.8184 29.2655 64.726 28.8414 64.5309C28.4174 64.3359 28.0453 64.0437 27.7552 63.6782L21.9758 55.5313C21.7257 55.136 21.5727 54.6871 21.5295 54.2213C21.4862 53.7555 21.5538 53.2861 21.7268 52.8515Z" fill="#D5D9D9"/>
<path opacity="0.1" d="M27.7552 63.6928C28.0453 64.0584 28.4174 64.3505 28.8414 64.5456C29.2654 64.7406 29.7294 64.8331 30.1958 64.8155L39.397 63.5659C39.8163 63.5021 40.2175 63.3503 40.5742 63.1207C40.9308 62.8911 41.235 62.5887 41.4666 62.2333C41.0908 62.7898 40.4904 62.78 40.0462 62.1552L34.2668 53.9888C34.0075 53.5988 33.8544 53.1479 33.8226 52.6807L21.5315 54.2183C21.5643 54.6869 21.7173 55.1391 21.9757 55.5313L27.7552 63.6928Z" fill="black"/>
<path opacity="0.4" d="M39.6115 41.9224C39.1234 41.4342 38.5376 41.5367 38.2155 42.2396L34.0322 51.3286C33.8096 51.8766 33.7602 52.4796 33.8907 53.0565C33.8653 52.939 33.8473 52.82 33.837 52.7002L21.5459 54.2378C21.4908 53.7714 21.5581 53.2987 21.7412 52.8662L25.9196 43.7821C26.1376 43.3683 26.4502 43.0116 26.8318 42.7411C27.2134 42.4706 27.6534 42.2938 28.1161 42.225L37.3173 40.9461C37.7474 40.9343 38.175 41.0154 38.5709 41.1839C38.9669 41.3524 39.3218 41.6042 39.6115 41.9224Z" fill="white"/>
<path d="M79.2232 1.08077L87.6385 0.0117753C88.0333 -0.0169518 88.4292 0.0481191 88.794 0.201671C89.1588 0.355224 89.4821 0.592902 89.7375 0.895285L94.7701 6.95782C94.9916 7.28572 95.133 7.66103 95.183 8.05356C95.233 8.44609 95.1902 8.84488 95.0581 9.21785L91.7778 17.0279C91.6049 17.3846 91.3504 17.6955 91.035 17.9355C90.7195 18.1755 90.3519 18.3378 89.962 18.4093L81.5272 19.4929C81.1326 19.5205 80.737 19.4549 80.3724 19.3014C80.0078 19.1479 79.6844 18.9109 79.4282 18.6094L74.4103 12.5469C74.1888 12.219 74.0473 11.8437 73.9973 11.4511C73.9473 11.0586 73.9901 10.6598 74.1223 10.2868L77.4074 2.47681C77.5785 2.11739 77.8322 1.80355 78.1478 1.56092C78.4634 1.3183 78.8319 1.15377 79.2232 1.08077Z" fill="#D5D9D9"/>
<path opacity="0.1" d="M74.1223 10.2868C73.9901 10.6598 73.9473 11.0586 73.9973 11.4511C74.0473 11.8437 74.1888 12.219 74.4103 12.5469L79.4429 18.6094C79.6762 18.8828 79.9647 19.1037 80.2894 19.2576C80.6141 19.4116 80.9678 19.4951 81.327 19.5027C80.7559 19.5027 80.4972 19.0438 80.7462 18.4434L84.0313 10.6334C84.1919 10.2639 84.448 9.94379 84.7732 9.70598L78.1493 1.55426C77.8276 1.78752 77.5719 2.10038 77.4074 2.46218L74.1223 10.2868Z" fill="black"/>
<path opacity="0.4" d="M95.1311 9.04213C95.2824 8.47102 94.9261 8.09517 94.2768 8.17815L85.8567 9.24715C85.3627 9.33474 84.9067 9.56954 84.5485 9.92076C84.6217 9.85242 84.6998 9.78408 84.7828 9.72063L78.1638 1.56403C78.4718 1.30852 78.8426 1.14 79.2377 1.0759L87.6481 0.00690429C88.0432 -0.0224068 88.4396 0.0418823 88.8051 0.194548C89.1707 0.347214 89.495 0.583952 89.7519 0.885533L94.7845 6.94807C94.9894 7.25169 95.1264 7.59592 95.1862 7.95729C95.246 8.31867 95.2272 8.68869 95.1311 9.04213Z" fill="white"/>
<path d="M59.3224 35.3619L63.8669 35.44C64.0813 35.4515 64.2898 35.5142 64.475 35.6229C64.6601 35.7316 64.8165 35.8832 64.931 36.0648L67.1324 39.6623C67.2285 39.8523 67.2786 40.0621 67.2786 40.2749C67.2786 40.4878 67.2285 40.6976 67.1324 40.8875L64.7943 44.7925C64.6747 44.9677 64.5157 45.1124 64.33 45.2149C64.1444 45.3175 63.9373 45.3751 63.7253 45.3832L59.1809 45.3051C58.9694 45.2901 58.7645 45.2252 58.5829 45.1157C58.4013 45.0063 58.2483 44.8554 58.1363 44.6754L55.9348 41.0779C55.8384 40.889 55.7881 40.6799 55.7881 40.4677C55.7881 40.2556 55.8384 40.0465 55.9348 39.8576L58.2729 35.9526C58.3901 35.7795 58.5459 35.636 58.728 35.5335C58.9102 35.431 59.1137 35.3722 59.3224 35.3619Z" fill="#37474F"/>
<path opacity="0.4" d="M67.1471 40.8046C67.2691 40.5117 67.1129 40.2823 66.7566 40.2774L62.217 40.1993C61.9473 40.2061 61.6863 40.2965 61.4702 40.458C61.5144 40.4242 61.5618 40.3947 61.6117 40.3701L58.7269 35.5377C58.9113 35.4312 59.1193 35.3725 59.3322 35.3668L63.8718 35.4449C64.0845 35.4581 64.2912 35.5211 64.4752 35.6288C64.6591 35.7365 64.8153 35.8858 64.931 36.0648L67.1324 39.6623C67.2171 39.8404 67.2623 40.0347 67.2648 40.2318C67.2673 40.429 67.2272 40.6244 67.1471 40.8046Z" fill="#455A64"/>
<path d="M55.9153 39.8527C55.8188 40.0416 55.7686 40.2507 55.7686 40.4629C55.7686 40.675 55.8188 40.8841 55.9153 41.073L58.1167 44.6705C58.2191 44.8337 58.3553 44.9731 58.5161 45.0792C58.677 45.1853 58.8587 45.2557 59.049 45.2855C58.7464 45.2319 58.639 44.9829 58.8196 44.6803L61.1578 40.7753C61.2807 40.5936 61.449 40.4472 61.6459 40.3506L58.761 35.5181C58.5641 35.6148 58.3959 35.7611 58.2729 35.9428L55.9153 39.8527Z" fill="#263238"/>
<path d="M65.4542 177.423C66.0438 173.791 63.5772 170.368 59.9449 169.779C56.3126 169.189 52.8901 171.656 52.3005 175.288C51.7109 178.92 54.1775 182.343 57.8098 182.932C61.4421 183.522 64.8646 181.055 65.4542 177.423Z" fill="#D5D9D9"/>
<path opacity="0.1" d="M57.0182 178.744C53.8453 176.445 53.6013 171.911 56.0663 170.305C54.9828 170.808 54.0546 171.593 53.3787 172.578C52.7029 173.563 52.3044 174.712 52.2249 175.904C52.1454 177.096 52.3879 178.288 52.9269 179.354C53.4659 180.42 54.2817 181.322 55.2888 181.964C56.2959 182.607 57.4572 182.967 58.6512 183.007C59.8452 183.046 61.028 182.765 62.0756 182.19C63.1232 181.616 63.9972 180.771 64.606 179.743C65.2147 178.715 65.536 177.542 65.536 176.348C65.2822 179.574 60.191 181.038 57.0182 178.744Z" fill="black"/>
<path d="M70.1147 163.051L73.5658 163.114C73.7275 163.127 73.8838 163.178 74.0221 163.263C74.1604 163.348 74.2766 163.464 74.3614 163.603L76.0308 166.341C76.1041 166.485 76.1423 166.644 76.1423 166.805C76.1423 166.966 76.1041 167.125 76.0308 167.268L74.2541 170.226C74.1637 170.36 74.0433 170.47 73.9025 170.548C73.7618 170.626 73.6046 170.67 73.4438 170.676L69.9927 170.617C69.8308 170.605 69.6742 170.554 69.5358 170.469C69.3974 170.384 69.2813 170.268 69.1971 170.129L67.5228 167.395C67.4506 167.251 67.4131 167.093 67.4131 166.932C67.4131 166.771 67.4506 166.612 67.5228 166.468L69.2996 163.505C69.3912 163.372 69.5125 163.261 69.6539 163.182C69.7953 163.104 69.9531 163.059 70.1147 163.051Z" fill="#37474F"/>
<path opacity="0.4" d="M76.0552 167.185C76.148 166.966 76.0308 166.79 75.7624 166.785L72.3113 166.727C72.1068 166.731 71.9087 166.799 71.7451 166.922L71.8476 166.854L69.6559 163.183C69.7981 163.104 69.9571 163.061 70.1196 163.056L73.5707 163.114C73.7324 163.127 73.8887 163.178 74.027 163.263C74.1652 163.348 74.2815 163.464 74.3663 163.603L76.0357 166.336C76.0989 166.468 76.1333 166.612 76.1366 166.759C76.14 166.905 76.1123 167.051 76.0552 167.185Z" fill="#455A64"/>
<path d="M67.5228 166.463C67.4506 166.607 67.4131 166.766 67.4131 166.927C67.4131 167.088 67.4506 167.247 67.5228 167.39L69.1971 170.124C69.2724 170.252 69.3748 170.362 69.497 170.446C69.6193 170.531 69.7585 170.587 69.9048 170.612C69.6754 170.568 69.5924 170.378 69.7291 170.153L71.5059 167.195C71.5933 167.059 71.7144 166.948 71.8574 166.873L69.6657 163.202C69.5243 163.278 69.4036 163.387 69.3142 163.52L67.5228 166.463Z" fill="#263238"/>
</svg>