<svg width="64" height="93" viewBox="0 0 64 93" fill="none" xmlns="http://www.w3.org/2000/svg">
<g clip-path="url(#clip0_716_3829)">
<path d="M53.7303 75.5671C53.6866 74.6278 53.4263 73.7123 52.9704 72.895C52.5145 72.0778 51.8759 71.382 51.1067 70.8641C50.3424 70.4059 49.653 70.3858 49.1645 70.7114L47.3721 71.7404L51.1342 78.3607L52.9109 77.3317C53.4073 77.0543 53.7224 76.4474 53.7303 75.5671Z" fill="#37474F"/>
<path d="M49.2433 71.9412C50.0115 72.4602 50.6492 73.1564 51.105 73.9733C51.5607 74.7903 51.8218 75.7052 51.867 76.6442C51.867 78.3726 50.6615 79.0559 49.2039 78.1917C48.4358 77.6727 47.7981 76.9766 47.3423 76.1596C46.8865 75.3426 46.6255 74.4277 46.5803 73.4888C46.5921 71.7603 47.7858 71.069 49.2433 71.9412Z" fill="#455A64"/>
<path d="M48.3294 74.5339C48.3294 73.8586 48.7233 73.5491 49.2315 73.8466C49.5042 74.0476 49.7266 74.3114 49.8806 74.6167C50.0346 74.9219 50.1159 75.2598 50.1179 75.6031C50.1179 76.2784 49.7239 76.5839 49.2157 76.2905C48.9442 76.0883 48.7226 75.8242 48.5687 75.5193C48.4148 75.2143 48.3329 74.8769 48.3294 74.5339Z" fill="#263238"/>
<path opacity="0.15" d="M51.8669 76.6442C51.8581 76.0234 51.7351 75.4098 51.5045 74.8353L46.9545 72.1382C46.6977 72.5387 46.5684 73.0104 46.5842 73.4888C46.5842 73.5089 46.5842 73.529 46.5842 73.5531L51.863 76.6803C51.863 76.6803 51.8669 76.6562 51.8669 76.6442Z" fill="black"/>
<path d="M34.8685 90.2748C33.9059 90.3494 32.9405 90.1723 32.0636 89.7603L7.24544 75.1651C5.74453 74.3933 4.05847 72.3916 3.9521 70.4943L3.1918 52.4422L4.57453 52.3618L5.33877 70.4179C5.40968 71.7042 6.72938 73.3201 7.86392 73.8989L32.7018 88.4981C33.3693 88.7823 34.0914 88.9079 34.8134 88.8654C35.5355 88.8229 36.2386 88.6135 36.8697 88.2529L53.4151 78.5174C53.8091 78.2521 54.0415 77.9346 54.0257 77.6653C54.01 77.396 53.7618 77.1307 53.3403 76.9136L26.7533 61.1648C25.2563 60.397 23.5782 58.3913 23.4718 56.494L23.1015 46.4812L24.4842 46.4048L24.8545 56.4136C24.9254 57.7079 26.2451 59.3198 27.3757 59.8986L53.9627 75.6514C54.8491 76.1057 55.3612 76.793 55.4085 77.5849C55.4557 78.3767 55.0145 79.1445 54.1754 79.6992L37.63 89.4347C36.7945 89.9498 35.844 90.2389 34.8685 90.2748Z" fill="#455A64"/>
<path d="M30.4091 89.8685C30.3654 88.9292 30.1051 88.0137 29.6492 87.1965C29.1933 86.3793 28.5547 85.6834 27.7854 85.1656C27.0212 84.7074 26.3318 84.6832 25.8473 85.0128L24.0509 86.0419L27.813 92.6622L29.5897 91.6331C30.0782 91.3558 30.4091 90.7488 30.4091 89.8685Z" fill="#37474F"/>
<path d="M25.9142 86.2428C26.684 86.7611 27.3229 87.4576 27.7788 88.2755C28.2347 89.0935 28.4948 90.0098 28.5379 90.9498C28.5379 92.6742 27.3363 93.3616 25.8748 92.4933C25.1067 91.9746 24.4693 91.2784 24.0141 90.4613C23.559 89.6442 23.299 88.7292 23.2551 87.7904C23.2669 86.066 24.4566 85.3625 25.9142 86.2428Z" fill="#455A64"/>
<path d="M25.0003 88.8357C25.0003 88.1604 25.3942 87.8509 25.9024 88.1483C26.1756 88.3489 26.3983 88.6127 26.5524 88.918C26.7065 89.2233 26.7875 89.5615 26.7888 89.9049C26.7888 90.5762 26.3948 90.8857 25.8906 90.5882C25.6179 90.3878 25.3953 90.1247 25.2406 89.8203C25.086 89.5159 25.0036 89.1786 25.0003 88.8357Z" fill="#263238"/>
<path d="M12.0594 79.0759C12.0177 78.137 11.7594 77.2213 11.3056 76.4035C10.8517 75.5856 10.2151 74.8885 9.44756 74.3689C8.67938 73.9107 7.99392 73.8866 7.50544 74.2122L5.70908 75.2372L9.45938 81.8655L11.24 80.8365C11.7363 80.5631 12.0515 79.9562 12.0594 79.0759Z" fill="#37474F"/>
<path d="M7.5803 75.4465C8.34609 75.9646 8.98181 76.659 9.43618 77.4738C9.89056 78.2887 10.1508 79.2011 10.1961 80.1374C10.1961 81.8618 8.98666 82.5492 7.52909 81.6769C6.76151 81.1574 6.12492 80.4603 5.67109 79.6424C5.21725 78.8245 4.95898 77.9089 4.91727 76.97C4.92909 75.2576 6.12273 74.5703 7.5803 75.4465Z" fill="#455A64"/>
<path d="M6.66241 78.0309C6.66241 77.3597 7.05635 77.0502 7.56453 77.3476C7.83679 77.5491 8.05885 77.813 8.21281 78.1182C8.36677 78.4233 8.44832 78.761 8.4509 79.1042C8.4509 79.7795 8.05696 80.085 7.54484 79.7915C7.27368 79.5883 7.05272 79.3234 6.89954 79.0177C6.74635 78.7121 6.66516 78.3742 6.66241 78.0309Z" fill="#263238"/>
<path d="M0.225439 30.5674C-0.0096317 29.648 0.0335192 28.6775 0.349225 27.7835C0.66493 26.8896 1.2384 26.1141 1.99422 25.559L18.5042 16.0365C20.0051 15.0316 21.6557 15.731 22.1757 17.4796L23.3221 21.27L22.1876 21.9453L20.9545 18.1147C20.9043 17.9098 20.8051 17.7209 20.6656 17.5649C20.5261 17.409 20.3509 17.2908 20.1556 17.221C19.9603 17.1513 19.751 17.1321 19.5467 17.1653C19.3423 17.1985 19.1493 17.283 18.9848 17.4112L2.90817 26.6764C2.42658 27.0367 2.06009 27.5341 1.85473 28.1063C1.64936 28.6784 1.61429 29.2997 1.75392 29.8921L2.72301 33.5299L1.3718 34.3338L0.225439 30.5674Z" fill="#455A64"/>
<path d="M25.7527 48.8325L3.57391 61.9003L35.9872 80.9934L58.166 67.9257L25.7527 48.8325Z" fill="#CFD8DC"/>
<path opacity="0.5" d="M25.7527 48.8325L3.57391 61.9003L35.9872 80.9934L58.166 67.9257L25.7527 48.8325Z" fill="black"/>
<path d="M1.3718 34.3578L23.3221 21.2739L25.7527 48.8324L3.57392 61.9001L1.3718 34.3578Z" fill="#CFD8DC"/>
<path opacity="0.35" d="M1.3718 34.3578L23.3221 21.2739L25.7527 48.8324L3.57392 61.9001L1.3718 34.3578Z" fill="black"/>
<path d="M23.3182 21.2739L25.7488 48.8324L58.1621 67.9255L63.2833 44.8087L23.3182 21.2739ZM34.6518 47.7712C34.1837 47.9192 33.6773 47.8731 33.2423 47.6429C32.8073 47.4127 32.4786 47.0169 32.3276 46.5412L26.97 32.356C26.8521 32.1324 26.7824 31.8857 26.7654 31.6323C26.7485 31.379 26.7847 31.1249 26.8717 30.887C26.9586 30.6491 27.0943 30.4329 27.2697 30.2528C27.4451 30.0727 27.6561 29.9328 27.8887 29.8426C28.1213 29.7523 28.3701 29.7137 28.6184 29.7294C28.8668 29.7451 29.109 29.8147 29.3289 29.9335C29.5489 30.0523 29.7414 30.2176 29.8937 30.4184C30.046 30.6192 30.1545 30.8508 30.2121 31.0978L35.5697 45.283C35.767 45.7373 35.7818 46.2524 35.6109 46.7176C35.44 47.1829 35.097 47.5612 34.6558 47.7712H34.6518ZM44.7721 52.6269C44.3046 52.7773 43.7977 52.7328 43.3622 52.503C42.9267 52.2733 42.598 51.8771 42.4479 51.4009L37.1061 37.2157C36.9884 36.9927 36.9187 36.7467 36.9015 36.4941C36.8842 36.2414 36.9198 35.9879 37.006 35.7504C37.0922 35.5129 37.2269 35.2969 37.4012 35.1166C37.5755 34.9363 37.7854 34.796 38.017 34.7048C38.2485 34.6137 38.4965 34.5739 38.7443 34.5881C38.9921 34.6023 39.2341 34.6701 39.4542 34.7871C39.6743 34.9041 39.8675 35.0675 40.021 35.2665C40.1745 35.4656 40.2846 35.6956 40.3442 35.9415L45.7018 50.1267C45.9031 50.5836 45.9186 51.1033 45.7451 51.5719C45.5716 52.0405 45.2231 52.4199 44.7761 52.6269H44.7721ZM54.8924 57.4866C54.4274 57.6379 53.9227 57.5962 53.4877 57.3704C53.0527 57.1447 52.7223 56.7532 52.5682 56.2807L47.2145 42.0955C47.0999 41.8732 47.0327 41.6286 47.0173 41.3779C47.0019 41.1272 47.0387 40.876 47.1252 40.6409C47.2117 40.4057 47.346 40.1918 47.5193 40.0134C47.6925 39.8349 47.9008 39.6959 48.1305 39.6054C48.3601 39.5149 48.606 39.4751 48.8518 39.4884C49.0976 39.5017 49.3379 39.568 49.5569 39.6828C49.7758 39.7977 49.9685 39.9585 50.1222 40.1547C50.2759 40.3509 50.3872 40.5781 50.4488 40.8213L55.8064 55.0065C56.0025 55.4592 56.0171 55.9723 55.847 56.4359C55.6769 56.8995 55.3357 57.2766 54.8964 57.4866H54.8924Z" fill="#CFD8DC"/>
<path opacity="0.23" d="M23.3182 21.2739L25.7488 48.8324L58.1621 67.9255L63.2833 44.8087L23.3182 21.2739ZM34.6518 47.7712C34.1837 47.9192 33.6773 47.8731 33.2423 47.6429C32.8073 47.4127 32.4786 47.0169 32.3276 46.5412L26.97 32.356C26.8521 32.1324 26.7824 31.8857 26.7654 31.6323C26.7485 31.379 26.7847 31.1249 26.8717 30.887C26.9586 30.6491 27.0943 30.4329 27.2697 30.2528C27.4451 30.0727 27.6561 29.9328 27.8887 29.8426C28.1213 29.7523 28.3701 29.7137 28.6184 29.7294C28.8668 29.7451 29.109 29.8147 29.3289 29.9335C29.5489 30.0523 29.7414 30.2176 29.8937 30.4184C30.046 30.6192 30.1545 30.8508 30.2121 31.0978L35.5697 45.283C35.767 45.7373 35.7818 46.2524 35.6109 46.7176C35.44 47.1829 35.097 47.5612 34.6558 47.7712H34.6518ZM44.7721 52.6269C44.3046 52.7773 43.7977 52.7328 43.3622 52.503C42.9267 52.2733 42.598 51.8771 42.4479 51.4009L37.1061 37.2157C36.9884 36.9927 36.9187 36.7467 36.9015 36.4941C36.8842 36.2414 36.9198 35.9879 37.006 35.7504C37.0922 35.5129 37.2269 35.2969 37.4012 35.1166C37.5755 34.9363 37.7854 34.796 38.017 34.7048C38.2485 34.6137 38.4965 34.5739 38.7443 34.5881C38.9921 34.6023 39.2341 34.6701 39.4542 34.7871C39.6743 34.9041 39.8675 35.0675 40.021 35.2665C40.1745 35.4656 40.2846 35.6956 40.3442 35.9415L45.7018 50.1267C45.9031 50.5836 45.9186 51.1033 45.7451 51.5719C45.5716 52.0405 45.2231 52.4199 44.7761 52.6269H44.7721ZM54.8924 57.4866C54.4274 57.6379 53.9227 57.5962 53.4877 57.3704C53.0527 57.1447 52.7223 56.7532 52.5682 56.2807L47.2145 42.0955C47.0999 41.8732 47.0327 41.6286 47.0173 41.3779C47.0019 41.1272 47.0387 40.876 47.1252 40.6409C47.2117 40.4057 47.346 40.1918 47.5193 40.0134C47.6925 39.8349 47.9008 39.6959 48.1305 39.6054C48.3601 39.5149 48.606 39.4751 48.8518 39.4884C49.0976 39.5017 49.3379 39.568 49.5569 39.6828C49.7758 39.7977 49.9685 39.9585 50.1222 40.1547C50.2759 40.3509 50.3872 40.5781 50.4488 40.8213L55.8064 55.0065C56.0025 55.4592 56.0171 55.9723 55.847 56.4359C55.6769 56.8995 55.3357 57.2766 54.8964 57.4866H54.8924Z" fill="black"/>
<path d="M1.3718 34.3579L3.57392 61.9003L35.9873 80.9934L41.1085 57.8807L1.3718 34.3579ZM14.167 61.4702C13.6989 61.6182 13.1925 61.5721 12.7574 61.3419C12.3224 61.1117 11.9938 60.7159 11.8427 60.2402L6.48907 46.055C6.37371 45.8325 6.30589 45.5875 6.29009 45.3363C6.27428 45.0851 6.31085 44.8334 6.39738 44.5977C6.48391 44.3619 6.61843 44.1476 6.79208 43.9688C6.96573 43.79 7.17455 43.6508 7.40478 43.5604C7.63501 43.47 7.8814 43.4304 8.12772 43.4443C8.37404 43.4581 8.61468 43.5251 8.83377 43.6408C9.05286 43.7565 9.24542 43.9183 9.39876 44.1155C9.55209 44.3127 9.66271 44.5408 9.72332 44.7848L15.0809 58.9659C15.2831 59.422 15.3005 59.941 15.1293 60.4101C14.9581 60.8791 14.6122 61.2602 14.167 61.4702ZM24.2873 66.3259C23.8197 66.4763 23.3128 66.4317 22.8773 66.202C22.4418 65.9723 22.1131 65.5761 21.963 65.0999L16.6212 50.9147C16.5036 50.6917 16.4338 50.4457 16.4166 50.193C16.3993 49.9404 16.435 49.6869 16.5211 49.4494C16.6073 49.2119 16.742 48.9959 16.9163 48.8156C17.0906 48.6353 17.3005 48.4949 17.5321 48.4038C17.7637 48.3127 18.0116 48.2729 18.2594 48.2871C18.5072 48.3013 18.7492 48.3691 18.9693 48.4861C19.1895 48.603 19.3827 48.7665 19.5361 48.9655C19.6896 49.1645 19.7998 49.3946 19.8594 49.6405L25.213 63.8257C25.4143 64.2826 25.4299 64.8023 25.2563 65.2709C25.0828 65.7395 24.7343 66.1189 24.2873 66.3259ZM34.4076 71.1856C33.9405 71.3358 33.4342 71.2912 32.9993 71.0614C32.5644 70.8317 32.2365 70.4355 32.0873 69.9596L26.7297 55.7744C26.6121 55.5514 26.5423 55.3054 26.5251 55.0528C26.5078 54.8001 26.5435 54.5466 26.6296 54.3091C26.7158 54.0716 26.8505 53.8556 27.0248 53.6753C27.1991 53.495 27.409 53.3547 27.6406 53.2635C27.8722 53.1724 28.1201 53.1326 28.3679 53.1468C28.6157 53.161 28.8577 53.2288 29.0778 53.3458C29.2979 53.4627 29.4912 53.6262 29.6446 53.8252C29.7981 54.0243 29.9083 54.2543 29.9679 54.5002L35.3215 68.6854C35.5235 69.1408 35.5408 69.6593 35.3696 70.1277C35.1984 70.5961 34.8525 70.9764 34.4076 71.1856Z" fill="#CFD8DC"/>
<g opacity="0.15">
<path d="M1.3718 34.3579L3.57392 61.9003L35.9873 80.9934L41.1085 57.8807L1.3718 34.3579ZM14.167 61.4702C13.6989 61.6182 13.1925 61.5721 12.7574 61.3419C12.3224 61.1117 11.9938 60.7159 11.8427 60.2402L6.48907 46.055C6.37371 45.8325 6.30589 45.5875 6.29009 45.3363C6.27428 45.0851 6.31085 44.8334 6.39738 44.5977C6.48391 44.3619 6.61843 44.1476 6.79208 43.9688C6.96573 43.79 7.17455 43.6508 7.40478 43.5604C7.63501 43.47 7.8814 43.4304 8.12772 43.4443C8.37404 43.4581 8.61468 43.5251 8.83377 43.6408C9.05286 43.7565 9.24542 43.9183 9.39876 44.1155C9.55209 44.3127 9.66271 44.5408 9.72332 44.7848L15.0809 58.9659C15.2831 59.422 15.3005 59.941 15.1293 60.4101C14.9581 60.8791 14.6122 61.2602 14.167 61.4702ZM24.2873 66.3259C23.8197 66.4763 23.3128 66.4317 22.8773 66.202C22.4418 65.9723 22.1131 65.5761 21.963 65.0999L16.6212 50.9147C16.5036 50.6917 16.4338 50.4457 16.4166 50.193C16.3993 49.9404 16.435 49.6869 16.5211 49.4494C16.6073 49.2119 16.742 48.9959 16.9163 48.8156C17.0906 48.6353 17.3005 48.4949 17.5321 48.4038C17.7637 48.3127 18.0116 48.2729 18.2594 48.2871C18.5072 48.3013 18.7492 48.3691 18.9693 48.4861C19.1895 48.603 19.3827 48.7665 19.5361 48.9655C19.6896 49.1645 19.7998 49.3946 19.8594 49.6405L25.213 63.8257C25.4143 64.2826 25.4299 64.8023 25.2563 65.2709C25.0828 65.7395 24.7343 66.1189 24.2873 66.3259ZM34.4076 71.1856C33.9405 71.3358 33.4342 71.2912 32.9993 71.0614C32.5644 70.8317 32.2365 70.4355 32.0873 69.9596L26.7297 55.7744C26.6121 55.5514 26.5423 55.3054 26.5251 55.0528C26.5078 54.8001 26.5435 54.5466 26.6296 54.3091C26.7158 54.0716 26.8505 53.8556 27.0248 53.6753C27.1991 53.495 27.409 53.3547 27.6406 53.2635C27.8722 53.1724 28.1201 53.1326 28.3679 53.1468C28.6157 53.161 28.8577 53.2288 29.0778 53.3458C29.2979 53.4627 29.4912 53.6262 29.6446 53.8252C29.7981 54.0243 29.9083 54.2543 29.9679 54.5002L35.3215 68.6854C35.5235 69.1408 35.5408 69.6593 35.3696 70.1277C35.1984 70.5961 34.8525 70.9764 34.4076 71.1856Z" fill="black"/>
</g>
<path d="M41.1045 57.8807L63.2833 44.813L58.1661 67.9298L35.9873 80.9935L41.1045 57.8807Z" fill="#CFD8DC"/>
<path opacity="0.4" d="M41.1045 57.8807L63.2833 44.813L58.1661 67.9298L35.9873 80.9935L41.1045 57.8807Z" fill="black"/>
<path d="M49.0936 7.97723L46.533 9.5087L46.5409 1.59409L44.9888 0.681641L37.9609 4.82184L37.9491 14.5855L33.8521 16.953L43.023 23.0226L50.6457 8.88968L49.0936 7.97723Z" fill="#37474F"/>
<path d="M39.513 5.73443L39.5012 15.4981L35.4042 17.8696L43.023 23.0228L50.6458 8.88983L46.5291 11.3579L46.5409 1.59424L39.513 5.73443Z" fill="#455A64"/>
<path d="M37.9609 4.82178L39.513 5.73422L39.5012 15.4979L37.9491 14.5854L37.9609 4.82178Z" fill="#263238"/>
</g>
<defs>
<clipPath id="clip0_716_3829">
<rect width="64" height="93" fill="white"/>
</clipPath>
</defs>
</svg>