<svg width="256" height="256" viewBox="0 0 256 256" fill="none" xmlns="http://www.w3.org/2000/svg">
<path opacity="0.7" d="M34.7802 85.5501C34.7802 85.5501 20.5056 122.414 40.5658 159.534C60.6259 196.654 101.944 216.264 135.014 233.032C168.084 249.8 202.424 241.633 218.742 214.17C235.059 186.706 212.68 167.101 212.649 127.939C212.618 88.7757 218.511 78.4077 197.289 45.3222C176.067 12.2368 124.042 4.91008 84.7002 29.4502C45.3581 53.9904 34.7802 85.5501 34.7802 85.5501Z" fill="white"/>
<path d="M39.4598 85.2224C54.2157 58.0557 91.3357 26.3424 142.259 39.552C193.183 52.7616 227.589 80.7066 221.952 129.326C216.315 177.946 186.691 218.342 122.88 219.525C59.0694 220.708 7.10145 144.794 39.4598 85.2224Z" fill="#D5D9D9"/>
<path opacity="0.7" d="M39.4598 85.2224C54.2157 58.0557 91.3357 26.3424 142.259 39.552C193.183 52.7616 227.589 80.7066 221.952 129.326C216.315 177.946 186.691 218.342 122.88 219.525C59.0694 220.708 7.10145 144.794 39.4598 85.2224Z" fill="white"/>
<path d="M224.824 121.963L191.612 127.105C190.343 127.301 189.474 128.489 189.67 129.757L192.802 149.986C192.998 151.255 194.186 152.124 195.454 151.928L228.666 146.786C229.935 146.59 230.804 145.402 230.608 144.133L227.476 123.905C227.28 122.636 226.092 121.767 224.824 121.963Z" stroke="#263238" stroke-linecap="round" stroke-linejoin="round"/>
<path d="M190.177 133.023L227.983 127.171" stroke="#263238" stroke-linecap="round" stroke-linejoin="round"/>
<path d="M225.027 133.807L218.92 134.752L220.282 143.546L226.389 142.6L225.027 133.807Z" stroke="#263238" stroke-linecap="round" stroke-linejoin="round"/>
<path d="M221.399 136.192C222.689 134.656 224.809 135.68 224.312 140.447L226.202 141.384L226.386 142.582L220.283 143.529L220.032 141.926L222.336 141.03C222.336 141.03 220.186 137.641 221.399 136.192Z" stroke="#263238" stroke-linecap="round" stroke-linejoin="round"/>
<path d="M208.154 146.944C208.154 146.944 212.567 146.98 211.302 146.099C210.038 145.219 209.848 144.328 210.923 144.312C211.999 144.297 213.801 146.36 213.658 145.101C213.514 143.841 214.292 144.661 214.441 144.742C214.589 144.824 215.864 144.312 215.926 144.461C215.987 144.609 215.9 145.024 220.052 144.384" stroke="#263238" stroke-linecap="round" stroke-linejoin="round"/>
<path d="M193.382 136.95L211.896 134.083" stroke="#263238" stroke-linecap="round" stroke-linejoin="round"/>
<path d="M193.71 139.049L204.616 137.359" stroke="#263238" stroke-linecap="round" stroke-linejoin="round"/>
<path d="M194.284 142.751L209.495 140.396" stroke="#263238" stroke-linecap="round" stroke-linejoin="round"/>
<path d="M199.004 128.906L217.569 126.029" stroke="#263238" stroke-linecap="round" stroke-linejoin="round"/>
<path d="M22.1952 115.937L63.703 107.648L78.1977 177.239L34.0787 186.701L22.1952 115.937Z" stroke="#263238" stroke-linecap="round" stroke-linejoin="round"/>
<path d="M32.4096 176.773L76.4416 168.801" stroke="#263238" stroke-linecap="round" stroke-linejoin="round"/>
<path d="M71.2243 162.883L50.1965 166.764" stroke="#263238" stroke-linecap="round" stroke-linejoin="round"/>
<path d="M68.1062 159.391L61.9622 160.297" stroke="#263238" stroke-linecap="round" stroke-linejoin="round"/>
<path d="M69.0432 152.284L37.6576 158.172" stroke="#263238" stroke-linecap="round" stroke-linejoin="round"/>
<path d="M27.6224 148.265L70.5843 140.682" stroke="#263238" stroke-linecap="round" stroke-linejoin="round" stroke-dasharray="1 2"/>
<path d="M73.2723 174.986L47.1757 180.454" stroke="#263238" stroke-linecap="round" stroke-linejoin="round"/>
<path d="M72.4941 172.785L60.2266 174.986" stroke="#263238" stroke-linecap="round" stroke-linejoin="round"/>
<path d="M65.8585 136.095L44.3392 140.36" stroke="#263238" stroke-linecap="round" stroke-linejoin="round"/>
<path d="M64.1587 131.318L57.303 132.664" stroke="#263238" stroke-linecap="round" stroke-linejoin="round"/>
<path d="M63.7542 128L32.4096 134.042" stroke="#263238" stroke-linecap="round" stroke-linejoin="round"/>
<path d="M60.9075 111.852L52.4442 113.603" stroke="#263238" stroke-linecap="round" stroke-linejoin="round"/>
<path d="M32.4096 117.868L25.1085 119.286" stroke="#263238" stroke-linecap="round" stroke-linejoin="round"/>
<path d="M27.7657 123.31C27.918 122.791 28.1795 122.31 28.5327 121.901C28.886 121.491 29.3227 121.162 29.8137 120.934" stroke="#263238" stroke-linecap="round" stroke-linejoin="round"/>
<path d="M31.0118 128C30.1052 127.893 29.2672 127.464 28.65 126.791C28.0327 126.118 27.6772 125.247 27.648 124.334" stroke="#263238" stroke-linecap="round" stroke-linejoin="round"/>
<path d="M33.8586 127.13C33.3388 127.597 32.692 127.9 32 128" stroke="#263238" stroke-linecap="round" stroke-linejoin="round"/>
<path d="M31.3702 120.586C32.0295 120.608 32.6719 120.8 33.2349 121.143C33.7979 121.487 34.2624 121.97 34.583 122.547C34.9037 123.123 35.0697 123.773 35.0647 124.432C35.0598 125.092 34.8841 125.739 34.5549 126.31" stroke="#263238" stroke-linecap="round" stroke-linejoin="round"/>
<path d="M38.8352 121.549C38.1542 121.334 37.4784 121.088 36.7872 120.934" stroke="#263238" stroke-linecap="round" stroke-linejoin="round"/>
<path d="M44.6412 122.04C44.0627 123.418 40.8268 122.163 39.8848 121.876" stroke="#263238" stroke-linecap="round" stroke-linejoin="round"/>
<path d="M39.1014 118.385L45.1533 119.808C45.056 120.212 44.9792 120.622 44.9024 121.027" stroke="#263238" stroke-linecap="round" stroke-linejoin="round"/>
<path d="M36.1062 119.808C36.7513 118.272 36.4953 117.76 38.103 118.134" stroke="#263238" stroke-linecap="round" stroke-linejoin="round"/>
<path opacity="0.2" d="M164.654 167.787C164.654 167.787 162.831 189.844 165.468 195.195C168.105 200.545 169.426 237.102 168.243 241.7C168.243 241.7 176.732 243.84 180.091 240.799C183.45 237.757 188.616 240.686 197.125 237.727C205.635 234.767 199.496 169.083 199.496 169.083L199.757 145.188L185.723 132.685L164.654 167.787Z" fill="black" fill-opacity="0.7"/>
<path d="M175.969 178.396C175.916 178.554 175.831 178.699 175.718 178.821C173.906 180.536 166.17 182.441 159.524 183.813C154.02 184.955 149.284 185.728 149.284 185.728C149.284 185.728 145.638 155.433 145.638 152.248C145.638 149.064 139.761 97.5053 139.761 97.5053L153.851 96.896L172.544 96.087C172.544 96.087 172.657 97.4643 172.846 99.8707C174.08 115.2 178.319 172.349 175.969 178.396Z" fill="#D5D9D9"/>
<mask id="mask0_21_7890" style="mask-type:luminance" maskUnits="userSpaceOnUse" x="139" y="96" width="38" height="90">
<path d="M175.969 178.396C175.916 178.554 175.831 178.699 175.718 178.821C173.906 180.536 166.17 182.441 159.524 183.813C154.02 184.955 149.284 185.728 149.284 185.728C149.284 185.728 145.638 155.433 145.638 152.248C145.638 149.064 139.761 97.5053 139.761 97.5053L153.851 96.896L172.544 96.087C172.544 96.087 172.657 97.4643 172.846 99.8707C174.08 115.2 178.319 172.349 175.969 178.396Z" fill="white"/>
</mask>
<g mask="url(#mask0_21_7890)">
<path opacity="0.2" d="M175.969 178.396L159.524 181.76L153.313 183.035C151.629 181.381 150.344 181.35 150.344 181.35L149.832 176.717L149.028 169.134L141.952 102.42C143.488 101.361 144.246 99.0413 144.246 99.0413L153.718 98.6983L170.127 98.0992L172.836 99.8503C174.08 115.2 178.319 172.349 175.969 178.396Z" fill="black" fill-opacity="0.7"/>
<path d="M175.969 178.396L159.524 181.76L153.313 183.035C151.629 181.381 150.344 181.35 150.344 181.35L149.832 176.717L149.028 169.134L141.952 102.42C143.488 101.361 144.246 99.0413 144.246 99.0413L153.718 98.6983L170.127 98.0992L172.836 99.8503C174.08 115.2 178.319 172.349 175.969 178.396Z" stroke="#263238" stroke-linecap="round" stroke-linejoin="round"/>
<path d="M151.214 158.756L156.703 158.746L156.708 160.461L155.182 161.004L151.665 161.388L151.214 158.756Z" fill="#D5D9D9" stroke="#263238" stroke-linecap="round" stroke-linejoin="round"/>
<path d="M151.552 162.289L155.587 162.15L156.621 162.642L156.57 164.92L151.859 164.971L151.552 162.289Z" fill="#D5D9D9" stroke="#263238" stroke-linecap="round" stroke-linejoin="round"/>
<path d="M152.197 165.929L156.805 165.596L156.754 167.322L154.527 168.11L152.172 167.977L152.197 165.929Z" fill="#D5D9D9" stroke="#263238" stroke-linecap="round" stroke-linejoin="round"/>
<path d="M152.474 168.837L156.196 169.027L156.534 169.979L155.991 171.028L152.663 171.244L152.09 169.62L152.474 168.837Z" fill="#D5D9D9" stroke="#263238" stroke-linecap="round" stroke-linejoin="round"/>
<path d="M156.764 172.17L157.276 173.66C157.358 173.818 157.4 173.994 157.4 174.172C157.4 174.35 157.358 174.526 157.276 174.684C157.181 174.793 157.059 174.876 156.923 174.924C156.787 174.972 156.64 174.985 156.498 174.961C156.211 174.935 155.93 174.838 155.643 174.822C154.778 174.787 153.984 175.498 153.134 175.334C152.801 174.413 151.962 173.061 153.098 172.646C153.308 172.58 156.887 172.508 156.764 172.17Z" fill="#D5D9D9" stroke="#263238" stroke-linecap="round" stroke-linejoin="round"/>
<path d="M156.749 176.364C156.83 176.718 156.888 177.077 156.923 177.439C156.975 177.667 156.967 177.906 156.901 178.131C156.835 178.356 156.712 178.56 156.544 178.724C156.326 178.844 156.081 178.909 155.832 178.913L152.873 179.18C152.83 178.621 152.821 178.06 152.847 177.5C153.021 176.835 152.899 176.891 153.528 176.62C154.527 176.195 155.725 176.87 156.749 176.364Z" fill="#D5D9D9" stroke="#263238" stroke-linecap="round" stroke-linejoin="round"/>
<path d="M145.987 103.936C145.987 103.936 147.103 114.724 147.154 116.859" stroke="#263238" stroke-linecap="round" stroke-linejoin="round"/>
<path d="M148.393 104.054L148.915 109.998" stroke="#263238" stroke-linecap="round" stroke-linejoin="round"/>
<path d="M156.733 101.806L157.409 108.774L158.356 108.867L158.049 101.873L156.733 101.806Z" fill="#D5D9D9" stroke="#263238" stroke-linecap="round" stroke-linejoin="round"/>
<path opacity="0.2" d="M175.969 178.396C175.916 178.554 175.831 178.699 175.718 178.821C173.906 180.536 166.17 182.441 159.524 183.813V179.205L149.852 176.727L148.393 176.353L149.048 169.144L151.552 141.599L153.738 98.7187L153.83 96.896L172.544 96.087C172.544 96.087 172.657 97.4643 172.846 99.8707C174.08 115.2 178.319 172.349 175.969 178.396Z" fill="black" fill-opacity="0.7"/>
</g>
<path d="M175.969 178.396C175.916 178.554 175.831 178.699 175.718 178.821C173.906 180.536 166.17 182.441 159.524 183.813C154.02 184.955 149.284 185.728 149.284 185.728C149.284 185.728 145.638 155.433 145.638 152.248C145.638 149.064 139.761 97.5053 139.761 97.5053L153.851 96.896L172.544 96.087C172.544 96.087 172.657 97.4643 172.846 99.8707C174.08 115.2 178.319 172.349 175.969 178.396Z" stroke="#263238" stroke-linecap="round" stroke-linejoin="round"/>
<path d="M185.887 247.142C186.005 246.062 184.305 230.564 184.274 228.879C184.192 224.271 182.886 218.225 182.886 218.225C181.064 213.565 179.645 202.829 174.781 195.942C169.917 189.056 169.923 180.956 169.114 174.08C168.305 167.204 168.504 167.798 168.709 161.695C168.857 157.11 168.653 152.521 168.1 147.968C167.695 143.913 166.886 136.781 168.1 133.458C169.313 130.135 172.488 129.362 175.964 132.69C179.441 136.018 180.859 149.663 180.859 151.347C180.859 153.032 180.859 158.295 182.077 160.323C182.077 160.323 188.964 156.8 188.964 155.827C188.964 154.854 188.759 146.258 189.773 145.797L185.723 132.69L193.403 129.961C194.849 131.258 196.097 132.758 197.11 134.415C197.977 135.787 198.702 137.244 199.276 138.762C202.517 147.359 207.724 153.354 208.799 155.827C209.874 158.3 208.799 177.94 208.799 181.591C208.799 185.242 206.444 202.071 206.505 204.902C206.551 206.95 207.933 214.569 209.311 220.411C209.823 222.664 212.931 238.986 213.407 240.282L185.887 247.142Z" fill="white"/>
<path opacity="0.4" d="M191.949 144.932C191.898 146.033 193.213 154.808 193.213 154.808C194.125 156.995 189.148 164.449 189.148 164.449C188.073 165.053 187.612 168.801 187.612 168.801C184.243 168.054 176.527 160.297 176.527 160.297C176.527 160.297 175.616 163.476 174.592 171.346C173.568 179.215 180.06 197.908 182.825 210.816C185.59 223.724 184.274 228.864 184.274 228.864C184.192 224.256 182.886 218.209 182.886 218.209C181.064 213.55 179.645 202.813 174.781 195.927C169.917 189.041 169.923 180.956 169.114 174.08C168.305 167.204 168.504 167.798 168.709 161.695C168.857 157.11 168.653 152.521 168.1 147.968C167.695 143.913 166.886 136.781 168.1 133.458C169.313 130.135 172.488 129.362 175.964 132.69C179.441 136.018 180.859 149.663 180.859 151.347C180.859 153.032 180.859 158.295 182.077 160.323C182.077 160.323 188.964 156.8 188.964 155.827C188.964 154.854 188.759 146.258 189.773 145.797L185.723 132.69L193.403 129.961C194.849 131.258 196.097 132.758 197.11 134.415C194.627 139.382 192 144.246 191.949 144.932Z" fill="#D5D9D9"/>
<path opacity="0.4" d="M204.861 206.259C205.199 203.187 206.208 195.886 206.848 191.329C206.065 194.888 204.8 196.69 204.8 196.69C204.8 196.69 206.981 170.578 207.196 168.986C207.411 167.393 209.613 160.236 208.804 155.802C209.879 158.269 208.804 177.915 208.804 181.565C208.804 185.216 206.449 202.045 206.51 204.877C206.556 206.925 208.753 219.976 210.13 225.818C207.171 221.517 204.524 209.347 204.861 206.259Z" fill="#D5D9D9"/>
<path d="M213.397 240.256C211.779 235.597 206.582 207.693 206.52 204.877C206.459 202.061 208.814 185.211 208.814 181.565C208.814 177.92 209.889 158.269 208.814 155.802C207.739 153.334 202.532 147.333 199.291 138.737C198.066 135.375 196.052 132.357 193.418 129.935L185.738 132.664L189.788 145.772C188.764 146.232 188.979 154.829 188.979 155.802C188.979 156.774 182.093 160.297 182.093 160.297C180.874 158.249 180.874 153.006 180.874 151.322C180.874 149.637 179.456 135.987 175.98 132.664C172.503 129.341 169.324 130.104 168.115 133.432C166.907 136.76 167.711 143.887 168.115 147.942C168.669 152.501 168.873 157.095 168.725 161.684C168.52 167.788 168.315 167.183 169.129 174.07C169.943 180.956 169.938 189.056 174.797 195.942C179.656 202.829 181.079 213.565 182.902 218.225C182.902 218.225 186.342 243.092 185.902 247.142" stroke="#263238" stroke-linecap="round" stroke-linejoin="round"/>
<path d="M182.077 160.297C182.077 160.297 183.291 165.965 186.025 168.801" stroke="#263238" stroke-linecap="round" stroke-linejoin="round"/>
<path d="M182.815 162.883C182.815 162.883 187.935 164.449 190.075 164.547" stroke="#263238" stroke-linecap="round" stroke-linejoin="round"/>
<path d="M188.964 155.802C188.964 155.802 192.609 154.117 194.939 155.131" stroke="#263238" stroke-linecap="round" stroke-linejoin="round"/>
<path d="M189.773 145.772C189.773 145.772 192.609 145.51 193.213 144.092" stroke="#263238" stroke-linecap="round" stroke-linejoin="round"/>
<path d="M175.718 197.386C175.718 197.386 181.166 204.15 182.784 207.59" stroke="#263238" stroke-linecap="round" stroke-linejoin="round"/>
<path d="M207.396 167.788C206.484 173.158 205.266 187.843 204.861 190.474" stroke="#263238" stroke-linecap="round" stroke-linejoin="round"/>
<path d="M209.137 157.66C209.29 162.524 208.113 165.053 208.113 165.053" stroke="#263238" stroke-linecap="round" stroke-linejoin="round"/>
<path d="M167.26 89.6L204.8 99.5021C204.8 99.5021 191.606 139.546 188.928 144.512L184.453 179.42C184.453 179.42 160.471 178.365 149.443 175.032C149.443 175.032 156.416 138.68 156.79 133.832C157.164 128.983 167.26 89.6 167.26 89.6Z" fill="#D5D9D9"/>
<mask id="mask1_21_7890" style="mask-type:luminance" maskUnits="userSpaceOnUse" x="149" y="89" width="56" height="91">
<path d="M167.26 89.6L204.8 99.5021C204.8 99.5021 191.606 139.546 188.928 144.512L184.453 179.42C184.453 179.42 160.471 178.365 149.443 175.032C149.443 175.032 156.416 138.68 156.79 133.832C157.164 128.983 167.26 89.6 167.26 89.6Z" fill="white"/>
</mask>
<g mask="url(#mask1_21_7890)">
<path opacity="0.2" d="M159.186 131.681L167.46 96.3072C167.46 96.3072 171.018 94.5408 172.395 92.928L199.291 100.577C199.291 100.577 199.373 103.214 200.914 104.904L187.341 144.015L184.049 172.846C184.049 172.846 179.671 173.194 179.251 176.43C179.251 176.43 165.059 177.198 155.54 174.689C155.54 174.689 154.419 171.192 152.704 168.98L159.186 131.681Z" fill="black" fill-opacity="0.7"/>
<path d="M159.186 131.681L167.46 96.3072C167.46 96.3072 171.018 94.5408 172.395 92.928L199.291 100.577C199.291 100.577 199.373 103.214 200.914 104.904L187.341 144.015L184.049 172.846C184.049 172.846 179.671 173.194 179.251 176.43C179.251 176.43 165.059 177.198 155.54 174.689C155.54 174.689 154.419 171.192 152.704 168.98L159.186 131.681Z" stroke="#263238" stroke-linecap="round" stroke-linejoin="round"/>
<path d="M166.072 133.519C166.072 133.519 168.515 124.303 177.116 125.957C185.718 127.611 180.859 138.967 180.859 138.967C180.859 138.967 180.91 148.132 173.931 146.867C167.88 145.772 164.654 142.449 166.072 133.519Z" fill="#D5D9D9" stroke="#263238" stroke-linecap="round" stroke-linejoin="round"/>
<path d="M170.732 99.6711C170.732 99.6711 168.131 110.203 167.46 112.23" stroke="#263238" stroke-linecap="round" stroke-linejoin="round"/>
<path d="M172.959 100.582L171.443 106.358" stroke="#263238" stroke-linecap="round" stroke-linejoin="round"/>
<path d="M191.949 104.632L197.125 106.455L196.557 108.078H194.939L191.493 107.269L191.949 104.632Z" fill="#D5D9D9" stroke="#263238" stroke-linecap="round" stroke-linejoin="round"/>
<path d="M191.089 108.078L194.939 109.292L195.748 110.1L194.939 112.23L190.479 110.71L191.089 108.078Z" fill="#D5D9D9" stroke="#263238" stroke-linecap="round" stroke-linejoin="round"/>
<path d="M190.479 111.724L194.939 112.952L194.309 114.56H191.949L189.773 113.649L190.479 111.724Z" fill="#D5D9D9" stroke="#263238" stroke-linecap="round" stroke-linejoin="round"/>
<path d="M189.773 114.56L193.213 115.978V116.987L192.353 117.801L189.148 116.89V115.164L189.773 114.56Z" fill="#D5D9D9" stroke="#263238" stroke-linecap="round" stroke-linejoin="round"/>
<path d="M192.707 119.132V120.709C192.733 120.883 192.719 121.06 192.665 121.227C192.61 121.395 192.518 121.547 192.394 121.672C192.267 121.741 192.124 121.778 191.979 121.778C191.835 121.778 191.692 121.741 191.565 121.672C191.304 121.549 191.053 121.365 190.807 121.257C190.003 120.934 189.015 121.339 188.247 120.909C188.247 119.931 187.904 118.38 189.112 118.349C189.312 118.364 192.707 119.491 192.707 119.132Z" fill="#D5D9D9" stroke="#263238" stroke-linecap="round" stroke-linejoin="round"/>
<path d="M191.288 123.08C191.25 123.441 191.185 123.798 191.094 124.15C190.981 124.605 190.761 125.112 190.305 125.235C190.06 125.276 189.808 125.255 189.573 125.174L186.696 124.416C186.835 123.877 187.006 123.347 187.208 122.829C187.597 122.26 187.464 122.271 188.145 122.225C189.251 122.179 190.152 123.218 191.288 123.08Z" fill="#D5D9D9" stroke="#263238" stroke-linecap="round" stroke-linejoin="round"/>
<path d="M181.571 101.294L179.845 108.078L180.705 108.483L182.784 101.796L181.571 101.294Z" fill="#D5D9D9" stroke="#263238" stroke-linecap="round" stroke-linejoin="round"/>
<path d="M159.949 146.852L165.263 148.229L164.833 149.888L163.22 150.031L159.718 149.514L159.949 146.852Z" fill="#D5D9D9" stroke="#263238" stroke-linecap="round" stroke-linejoin="round"/>
<path d="M159.386 150.359L163.323 151.24L164.204 151.977L163.579 154.168L159.007 153.032L159.386 150.359Z" fill="#D5D9D9" stroke="#263238" stroke-linecap="round" stroke-linejoin="round"/>
<path d="M159.094 154.045L163.64 154.885L163.149 156.539L160.799 156.744L158.551 156.022L159.094 154.045Z" fill="#D5D9D9" stroke="#263238" stroke-linecap="round" stroke-linejoin="round"/>
<path d="M158.628 156.928L162.181 158.049L162.268 159.058L161.48 159.939L158.208 159.304L158.06 157.588L158.628 156.928Z" fill="#D5D9D9" stroke="#263238" stroke-linecap="round" stroke-linejoin="round"/>
<path d="M161.94 161.234L162.079 162.806C162.121 162.977 162.122 163.156 162.082 163.327C162.042 163.499 161.962 163.659 161.848 163.794C161.728 163.874 161.589 163.922 161.445 163.933C161.301 163.945 161.156 163.92 161.024 163.86C160.753 163.763 160.512 163.599 160.23 163.517C159.406 163.261 158.454 163.748 157.67 163.384C157.578 162.412 157.112 160.896 158.31 160.778C158.495 160.768 161.971 161.592 161.94 161.234Z" fill="#D5D9D9" stroke="#263238" stroke-linecap="round" stroke-linejoin="round"/>
<path d="M160.87 165.289C160.863 165.661 160.829 166.033 160.768 166.4C160.691 166.861 160.517 167.388 160.077 167.547C159.835 167.608 159.581 167.608 159.339 167.547L156.411 167.035C156.509 166.485 156.641 165.941 156.805 165.407C157.143 164.808 157.01 164.828 157.686 164.726C158.761 164.567 159.744 165.524 160.87 165.289Z" fill="#D5D9D9" stroke="#263238" stroke-linecap="round" stroke-linejoin="round"/>
<path d="M182.077 170.26C182.077 170.26 183.296 156.672 183.296 155.305" stroke="#263238" stroke-linecap="round" stroke-linejoin="round"/>
<path d="M179.645 169.651C179.645 169.651 180.157 162.586 180.25 161.357" stroke="#263238" stroke-linecap="round" stroke-linejoin="round"/>
<path d="M170.148 164.547L168.504 172.59H170.148L171.341 164.547H170.148Z" fill="#D5D9D9" stroke="#263238" stroke-linecap="round" stroke-linejoin="round"/>
<path opacity="0.2" d="M189.015 144.312C185.462 143.57 182.292 142.479 179.947 140.908C179.947 140.908 181.647 145.792 187.674 154.117L184.433 179.42C184.433 179.42 168.781 178.734 156.954 176.712C160.589 166.472 167.194 147.067 166.41 143.222C165.35 137.943 169.093 131.712 169.093 131.712C180.925 129.582 192.399 120.637 200.274 113.075C196.265 124.928 190.792 140.8 189.015 144.312Z" fill="black" fill-opacity="0.7"/>
</g>
<path d="M167.26 89.6L204.8 99.5021C204.8 99.5021 191.606 139.546 188.928 144.512L184.453 179.42C184.453 179.42 160.471 178.365 149.443 175.032C149.443 175.032 156.416 138.68 156.79 133.832C157.164 128.983 167.26 89.6 167.26 89.6Z" stroke="#263238" stroke-linecap="round" stroke-linejoin="round"/>
<path d="M188.073 169.313L182.784 207.59C181.606 205.087 178.396 200.817 176.737 198.682C176.123 197.883 175.713 197.386 175.713 197.386L174.776 195.942C169.917 189.056 169.917 180.956 169.109 174.07C168.3 167.183 168.499 167.788 168.704 161.684C168.853 157.104 168.651 152.518 168.1 147.968C167.695 143.913 166.886 136.781 168.1 133.458C168.694 131.83 169.764 130.816 171.105 130.601C172.447 130.386 174.177 131 175.964 132.69C179.441 136.013 180.859 149.663 180.859 151.347C180.859 153.032 180.859 158.295 182.077 160.323C182.077 160.297 185.344 166.477 188.073 169.313Z" fill="white"/>
<path opacity="0.4" d="M174.377 193.213C175.483 194.627 176.236 196.664 176.737 198.682C176.123 197.883 175.713 197.386 175.713 197.386L174.776 195.942C169.917 189.056 169.917 180.956 169.109 174.07C168.3 167.183 168.499 167.788 168.704 161.684C168.853 157.104 168.651 152.518 168.1 147.968C167.695 143.913 166.886 136.781 168.1 133.458C168.694 131.83 169.764 130.816 171.105 130.601C173.665 131.328 176.225 133.934 177.116 138.394C178.652 145.879 171.725 139.832 170.122 146.176C168.52 152.52 170.849 154.23 171.807 155.827C172.764 157.425 171.54 160.947 170.122 165.678C168.704 170.409 171.341 189.327 174.377 193.213Z" fill="#D5D9D9"/>
<path d="M188.073 169.313C185.339 166.477 182.077 160.297 182.077 160.297C180.859 158.249 180.859 153.006 180.859 151.322C180.859 149.637 179.441 135.987 175.964 132.664C172.488 129.341 169.308 130.104 168.1 133.432C166.892 136.76 167.695 143.887 168.1 147.942C168.654 152.501 168.858 157.095 168.709 161.684C168.504 167.788 168.3 167.183 169.114 174.07C169.928 180.956 169.923 189.056 174.781 195.942L175.718 197.386C175.718 197.386 181.166 204.15 182.784 207.59" stroke="#263238" stroke-linecap="round" stroke-linejoin="round"/>
<path d="M170.148 153.114C170.148 153.114 174.792 150.712 177.116 150.917" stroke="#263238" stroke-linecap="round" stroke-linejoin="round"/>
<path opacity="0.2" d="M99.2307 87.4547C99.2307 87.4547 87.4855 74.5216 86.6765 73.728C85.8675 72.9344 85.2583 59.1411 83.0259 53.0688C80.7936 46.9965 79.7133 11.3408 79.7133 11.3408C79.7133 11.3408 77.5885 8.70911 71.5981 10.1274C65.6077 11.5456 59.7351 8.90879 53.0535 12.759C46.3719 16.6093 59.3306 71.68 59.3306 71.68L72.4839 113.597L99.2307 87.4547Z" fill="black" fill-opacity="0.7"/>
<path d="M107.3 87.552C107.3 87.552 102.036 121.175 96.5479 125.629C93.3786 128.189 88.4378 129.367 84.0551 129.213C80.8807 129.101 77.993 128.302 76.2931 126.853C72.2432 123.407 66.5651 121.585 63.7389 119.357C60.9127 117.13 60.9024 109.23 59.0797 102.543C57.257 95.8566 54.6202 95.657 54.016 88.9754C53.4119 82.2938 50.9747 61.8394 46.5715 56.1613C42.1683 50.4832 42.0659 46.0339 40.2432 40.2586C38.4205 34.4832 25.088 13.5885 25.088 13.5885L57.5898 6.93248C57.5898 6.93248 60.7847 20.1574 64.2048 30.9453C65.8279 36.0653 67.5021 40.6426 68.905 42.9875C71.5987 47.5233 73.9321 52.2636 75.8835 57.1648C79.5597 61.015 81.5719 69.545 82.1811 77.015L90.8851 81.8688C97.577 83.6966 107.3 87.552 107.3 87.552Z" fill="white"/>
<path opacity="0.4" d="M107.3 87.552C107.3 87.552 102.036 121.175 96.5478 125.629C93.3786 128.189 88.4378 129.367 84.055 129.213C73.6614 126.653 70.8659 120.858 69.4579 119.455C67.584 117.586 65.1213 106.199 66.473 99.5738C67.8246 92.9485 66.8518 90.496 65.7357 87.2602C63.2627 80.0922 70.8045 76.2317 71.5827 73.5181C72.361 70.8045 72.0947 55.6288 68.7002 50.6931C66.8979 48.0666 62.2541 34.5293 64.2099 30.9555C65.833 36.0755 67.5072 40.6528 68.9101 42.9978C71.6038 47.5335 73.9372 52.2739 75.8886 57.175C79.5648 61.0253 81.577 69.5552 82.1862 77.0253L90.8902 81.879C97.577 83.6966 107.3 87.552 107.3 87.552Z" fill="#D5D9D9"/>
<path d="M67.6096 85.1866C67.6096 85.1866 65.7767 87.3421 64.1588 87.3421" stroke="#263238" stroke-linecap="round" stroke-linejoin="round"/>
<path d="M71.5981 92.4723C71.5981 92.4723 69.6269 96.6605 66.4781 97.5923" stroke="#263238" stroke-linecap="round" stroke-linejoin="round"/>
<path d="M68.096 117.018C68.096 117.018 72.5555 115.092 73.2621 111.852" stroke="#263238" stroke-linecap="round" stroke-linejoin="round"/>
<path d="M90.8954 81.8739C90.8954 81.8739 89.7792 83.2922 89.7792 84.4339" stroke="#263238" stroke-linecap="round" stroke-linejoin="round"/>
<path d="M57.6102 6.93248C57.6102 6.93248 64.5632 35.6915 68.9254 43.008C71.6192 47.5438 73.9526 52.2841 75.904 57.1853C79.5802 61.0355 81.5923 69.5706 82.2016 77.0406L90.9056 81.8944C97.5872 83.7171 107.29 87.5674 107.29 87.5674C107.29 87.5674 102.026 121.19 96.5376 125.645C91.049 130.099 80.384 130.284 76.288 126.843C72.192 123.402 66.56 121.574 63.7338 119.347C60.9075 117.12 60.8973 109.22 59.0746 102.533C57.2518 95.8464 54.615 95.6467 54.0109 88.9651C53.4067 82.2835 50.9696 61.8291 46.5664 56.151C42.1632 50.473 42.0608 46.0237 40.2381 40.2483C38.4154 34.473 25.088 13.5885 25.088 13.5885" stroke="#263238" stroke-linecap="round" stroke-linejoin="round"/>
<path d="M119.613 85.3709L65.8586 168.115L78.5459 169.528L117.094 171.131L121.042 97.5309L119.613 85.3709Z" fill="#263238" stroke="#263238" stroke-linecap="round" stroke-linejoin="round"/>
<path d="M119.613 85.3657L114.647 169.718L65.8586 168.115L69.7088 103.48L70.9069 83.4099L92.1651 84.265L119.613 85.3657Z" fill="#757575"/>
<mask id="mask2_21_7890" style="mask-type:luminance" maskUnits="userSpaceOnUse" x="65" y="83" width="55" height="87">
<path d="M119.613 85.3657L114.647 169.718L65.8586 168.115L69.7088 103.48L70.9069 83.4099L92.1651 84.265L119.613 85.3657Z" fill="white"/>
</mask>
<g mask="url(#mask2_21_7890)">
<path d="M107.346 160.005C110.626 160.005 113.285 157.346 113.285 154.066C113.285 150.786 110.626 148.127 107.346 148.127C104.066 148.127 101.407 150.786 101.407 154.066C101.407 157.346 104.066 160.005 107.346 160.005Z" fill="#BFBFBF" stroke="#263238" stroke-miterlimit="10"/>
<path d="M105.672 150.124L109.696 150.651" stroke="#263238" stroke-linecap="round" stroke-linejoin="round"/>
<path d="M104.591 151.101L110.638 151.69" stroke="#263238" stroke-linecap="round" stroke-linejoin="round"/>
<path d="M103.921 157.061L109.972 157.65" stroke="#263238" stroke-linecap="round" stroke-linejoin="round"/>
<path d="M106.568 152.448C106.734 152.489 106.91 152.465 107.058 152.38C107.207 152.295 107.317 152.156 107.366 151.992L107.817 152.038L107.361 156.314L106.691 156.242L107.039 152.98L106.527 152.924L106.568 152.448Z" fill="#263238"/>
<path d="M108.805 152.627C109.071 152.627 109.194 152.827 109.164 153.108V153.16L108.902 153.134V153.088C108.902 152.965 108.872 152.909 108.785 152.899C108.698 152.888 108.641 152.934 108.631 153.057C108.621 153.18 108.662 153.288 108.826 153.462C108.909 153.532 108.974 153.621 109.016 153.722C109.058 153.823 109.075 153.932 109.066 154.04C109.036 154.322 108.882 154.465 108.611 154.435C108.339 154.404 108.221 154.23 108.247 153.953V153.846L108.503 153.871V153.999C108.503 154.122 108.539 154.173 108.626 154.184C108.713 154.194 108.774 154.153 108.785 154.03C108.795 153.907 108.754 153.8 108.59 153.626C108.507 153.555 108.442 153.466 108.4 153.365C108.358 153.265 108.341 153.156 108.349 153.047C108.385 152.74 108.544 152.576 108.805 152.627Z" fill="#263238"/>
<path d="M109.286 152.699L110.136 152.786L110.106 153.037L109.819 153.006L109.66 154.501L109.389 154.475L109.548 152.975L109.261 152.945L109.286 152.699Z" fill="#263238"/>
<path d="M94.8932 89.1102L85.3688 87.0318C85.123 86.9782 84.8801 87.134 84.8265 87.3799L83.5308 93.3176C83.4771 93.5635 83.633 93.8063 83.8788 93.86L93.4032 95.9383C93.6491 95.992 93.8919 95.8362 93.9455 95.5903L95.2412 89.6526C95.2949 89.4067 95.1391 89.1639 94.8932 89.1102Z" fill="white" stroke="#263238" stroke-linecap="round" stroke-linejoin="round"/>
<path d="M87.04 92.887L87.0042 92.8512C87.0042 92.8512 87.0042 92.7898 86.9786 92.7642C86.9542 92.7412 86.935 92.7132 86.9222 92.6822C86.92 92.6721 86.92 92.6616 86.9222 92.6515C86.9222 92.6515 86.9478 92.6515 86.9632 92.6157C86.9758 92.608 86.9865 92.5976 86.9945 92.5852C87.0025 92.5727 87.0075 92.5587 87.0093 92.544C87.0073 92.5356 87.0073 92.5268 87.0093 92.5184H87.04C87.04 92.4211 86.9786 92.3494 86.9171 92.2726C86.7686 92.0883 86.7379 91.9962 86.7686 91.8733C86.7994 91.7504 86.8506 91.7146 86.9376 91.7299C87.0246 91.7453 87.0605 91.8067 87.0349 91.9296V92.0013L87.2909 92.0576V92.0013C87.3255 91.9107 87.3241 91.8104 87.2869 91.7209C87.2498 91.6313 87.1797 91.5595 87.0912 91.52L87.1219 91.3971L86.9018 91.3459L86.8762 91.4739C86.6765 91.4739 86.5485 91.6019 86.4973 91.8323C86.4777 91.9353 86.4849 92.0416 86.518 92.1411C86.5512 92.2406 86.6093 92.3299 86.6867 92.4006C86.8352 92.5798 86.8659 92.6822 86.8352 92.8C86.8045 92.9178 86.7482 92.9587 86.6611 92.9382C86.5741 92.9178 86.5331 92.8614 86.5587 92.7437L86.5894 92.6054L86.3334 92.5491V92.6669C86.3123 92.7135 86.3007 92.7639 86.2993 92.8151C86.298 92.8663 86.3068 92.9172 86.3254 92.9649C86.344 93.0126 86.372 93.0561 86.4077 93.0929C86.4433 93.1296 86.486 93.1589 86.5331 93.1789V93.3018L86.7533 93.353L86.7789 93.225H86.912C86.9523 93.2109 86.989 93.1882 87.0195 93.1584C87.0508 93.1269 87.0767 93.0906 87.0963 93.0509C87.04 92.9178 87.04 92.9024 87.04 92.887Z" fill="#263238"/>
<path d="M88.448 92.8051C88.4458 92.7642 88.4353 92.7242 88.4173 92.6873C88.4123 92.6672 88.4123 92.6461 88.4173 92.6259C88.4252 92.6105 88.4377 92.5979 88.4532 92.5901C88.5914 92.4672 88.4224 92.3033 88.2893 92.2726C88.2433 92.2612 88.1951 92.2618 88.1494 92.2743C88.1037 92.2869 88.0619 92.311 88.0282 92.3443L88.1357 91.9449L88.6068 92.0473L88.658 91.8016L87.9514 91.648C87.9365 91.6823 87.9261 91.7185 87.9207 91.7555C87.9207 91.7913 87.9668 91.8016 87.9668 91.8425C87.9668 91.8835 87.9668 91.8784 87.9668 91.8989C87.9761 91.9289 87.9961 91.9544 88.0231 91.9705C88.0487 91.9705 88.0743 92.0166 88.0692 92.0473C88.0727 92.0573 88.0727 92.0681 88.0692 92.0781C88.0498 92.1251 88.0156 92.1647 87.9719 92.1907C87.9517 92.1946 87.9336 92.2055 87.9207 92.2214V92.2521C87.9207 92.288 87.8797 92.3085 87.849 92.3289C87.8183 92.3494 87.7415 92.5133 87.7108 92.6259L87.9668 92.6822V92.631C87.9924 92.5081 88.0589 92.4774 88.1408 92.4928C88.2228 92.5081 88.274 92.5696 88.2432 92.6925L88.1613 93.0713C88.1613 93.1891 88.0743 93.2249 87.9872 93.2045C87.9002 93.184 87.8592 93.1328 87.8848 93.0099L87.9207 92.8512L87.6647 92.7949L87.634 92.9382C87.6141 92.9938 87.6064 93.0529 87.6112 93.1117C87.616 93.1705 87.6334 93.2276 87.662 93.2792C87.6907 93.3307 87.73 93.3756 87.7774 93.4107C87.8248 93.4459 87.8791 93.4705 87.9367 93.483C87.9944 93.4955 88.0541 93.4955 88.1117 93.4831C88.1694 93.4707 88.2238 93.4462 88.2712 93.4111C88.3186 93.376 88.358 93.3312 88.3867 93.2797C88.4155 93.2281 88.4329 93.1711 88.4378 93.1123C88.456 93.0109 88.4594 92.9075 88.448 92.8051Z" fill="#263238"/>
<path d="M91.7914 93.5219C91.7866 93.4814 91.7763 93.4418 91.7606 93.4041C91.7557 93.384 91.7557 93.3629 91.7606 93.3427C91.7685 93.3273 91.781 93.3147 91.7965 93.3069C91.9296 93.184 91.7606 93.0201 91.6326 92.9894C91.5866 92.978 91.5384 92.9786 91.4927 92.9911C91.447 93.0037 91.4052 93.0278 91.3715 93.0611L91.479 92.6617L91.9501 92.7641L92.0013 92.5184L91.2947 92.3648C91.2775 92.3983 91.2671 92.4348 91.264 92.4723C91.264 92.5081 91.305 92.5184 91.3101 92.5593C91.3152 92.6003 91.3101 92.5952 91.3101 92.6157C91.3194 92.6457 91.3395 92.6712 91.3664 92.6873C91.392 92.6873 91.4176 92.7334 91.4125 92.7641C91.4074 92.7949 91.4125 92.7641 91.4125 92.7949C91.3928 92.8434 91.3565 92.8833 91.3101 92.9075C91.2919 92.9128 91.2758 92.9235 91.264 92.9382C91.264 92.9382 91.264 92.9382 91.264 92.9689C91.264 92.9997 91.2282 93.0253 91.1974 93.0457C91.1667 93.0662 91.0899 93.2301 91.0592 93.3427L91.3152 93.399V93.3478C91.3408 93.2249 91.4074 93.1942 91.4893 93.2096C91.5712 93.2249 91.6173 93.2864 91.5917 93.4093L91.5098 93.7881C91.5098 93.9059 91.4227 93.9417 91.3357 93.9213C91.2486 93.9008 91.2077 93.8496 91.2333 93.7267L91.2691 93.568L91.0131 93.5117L90.9824 93.655C90.9669 93.7089 90.9627 93.7653 90.9699 93.8209C90.9771 93.8765 90.9957 93.9299 91.0244 93.978C91.0531 94.0262 91.0914 94.0679 91.1369 94.1006C91.1824 94.1333 91.2341 94.1563 91.2889 94.1683C91.3436 94.1802 91.4002 94.1808 91.4552 94.1699C91.5102 94.1591 91.5623 94.1371 91.6085 94.1053C91.6546 94.0736 91.6938 94.0326 91.7234 93.9851C91.7531 93.9376 91.7728 93.8845 91.7811 93.8291C91.8016 93.728 91.8051 93.6242 91.7914 93.5219Z" fill="#263238"/>
<path d="M89.0317 92.2982C89.0573 92.1754 89.1238 92.1395 89.2058 92.16C89.232 92.1636 89.2562 92.1764 89.274 92.196C89.2918 92.2157 89.3021 92.241 89.303 92.2675H89.3901C89.3931 92.2824 89.3992 92.2965 89.408 92.3088C89.4168 92.3212 89.4282 92.3316 89.4413 92.3392C89.472 92.3648 89.513 92.3802 89.5488 92.4058C89.5657 92.3519 89.571 92.2951 89.5643 92.2391C89.5577 92.1831 89.5392 92.1291 89.5102 92.0808C89.4812 92.0324 89.4422 91.9907 89.3959 91.9585C89.3496 91.9263 89.297 91.9042 89.2416 91.8938C89.1852 91.8748 89.1251 91.8691 89.0661 91.877C89.0071 91.8849 88.9507 91.9063 88.9013 91.9394C88.8518 91.9726 88.8106 92.0166 88.7809 92.0682C88.7511 92.1197 88.7336 92.1774 88.7296 92.2368C88.7272 92.2692 88.7272 92.3017 88.7296 92.3341C88.7296 92.416 88.7296 92.3904 88.8115 92.4211C88.8935 92.4518 88.919 92.4928 88.8474 92.5184H88.8934C88.8934 92.5184 88.8934 92.5542 88.8934 92.5696C88.8934 92.585 88.8935 92.5952 88.8679 92.6157C88.8725 92.6289 88.8725 92.6434 88.8679 92.6566C88.8679 92.6566 88.8269 92.7232 88.8166 92.7334C88.8017 92.7588 88.7806 92.7799 88.7552 92.7949C88.6887 92.8358 88.6579 92.7949 88.6374 92.8973C88.617 92.9997 88.6118 93.0099 88.6016 93.0611C88.5819 93.1172 88.5744 93.1768 88.5795 93.236C88.5845 93.2951 88.6021 93.3526 88.631 93.4045C88.6599 93.4563 88.6995 93.5015 88.7472 93.537C88.7949 93.5724 88.8495 93.5974 88.9075 93.6101C88.9655 93.6229 89.0256 93.6232 89.0837 93.611C89.1419 93.5989 89.1968 93.5745 89.2448 93.5396C89.2928 93.5046 89.3329 93.4599 89.3624 93.4083C89.3918 93.3567 89.41 93.2995 89.4157 93.2403L89.4976 92.8819H89.4669C89.4062 92.8545 89.3479 92.822 89.2928 92.7846L89.2467 92.7437L89.1443 93.2045C89.1443 93.3274 89.0522 93.3632 88.9702 93.3427C88.8883 93.3222 88.8423 93.2659 88.8679 93.143L89.0163 92.4467C89.013 92.4035 89.0237 92.3604 89.047 92.3238L89.0317 92.2982Z" fill="#263238"/>
<path d="M90.2913 93.143H90.3168C90.3168 93.1174 90.3168 93.0918 90.3168 93.056H90.4295L90.5165 92.6617C90.5362 92.6057 90.5437 92.5461 90.5387 92.4869C90.5336 92.4277 90.516 92.3703 90.4871 92.3184C90.4582 92.2665 90.4186 92.2214 90.3709 92.1859C90.3233 92.1505 90.2686 92.1255 90.2106 92.1128C90.1526 92.1 90.0925 92.0997 90.0344 92.1118C89.9763 92.124 89.9214 92.1484 89.8733 92.1833C89.8253 92.2183 89.7852 92.263 89.7558 92.3146C89.7263 92.3662 89.7081 92.4234 89.7024 92.4825V92.5542C89.7383 92.5849 89.7588 92.6361 89.7946 92.6617C89.8305 92.6873 89.8868 92.6617 89.8714 92.7488C89.8561 92.8358 89.8407 92.8205 89.8714 92.8461C89.9021 92.8717 89.9073 92.8461 89.9124 92.8819C89.9186 92.89 89.922 92.8999 89.922 92.9101C89.922 92.9203 89.9186 92.9302 89.9124 92.9382C89.9124 92.9382 89.8765 92.9382 89.8714 92.9843C89.8663 93.0304 89.8714 93.0611 89.8407 93.0713C89.81 93.0816 89.7434 93.0099 89.6871 93.015C89.6669 93.0209 89.6487 93.0321 89.6343 93.0474C89.6199 93.0627 89.6098 93.0816 89.6052 93.1021C89.5791 93.1891 89.5602 93.2782 89.5488 93.3683C89.5302 93.4225 89.5237 93.4801 89.5298 93.537C89.536 93.594 89.5547 93.6489 89.5845 93.6978C89.6144 93.7467 89.6546 93.7884 89.7024 93.82C89.7503 93.8515 89.8045 93.8721 89.8612 93.8803C89.9193 93.8959 89.9803 93.8985 90.0396 93.8879C90.0988 93.8773 90.1551 93.8537 90.2042 93.8189C90.2496 93.7797 90.2877 93.7329 90.3168 93.6806C90.3399 93.6545 90.3526 93.6208 90.3526 93.5859C90.3526 93.551 90.3399 93.5174 90.3168 93.4912H90.2913L90.2554 93.3683C90.2554 93.3683 90.2554 93.3683 90.2913 93.3376C90.3271 93.3069 90.2912 93.2403 90.3424 93.2045C90.3936 93.1686 90.281 93.1533 90.2913 93.143ZM90.0762 93.4912C90.0506 93.6141 89.9841 93.6499 89.897 93.6294C89.81 93.6089 89.769 93.5526 89.7946 93.4297L89.9994 92.5081C90.025 92.3853 90.0864 92.3494 90.1735 92.3699C90.2605 92.3904 90.3015 92.4467 90.2759 92.5696L90.0762 93.4912Z" fill="#263238"/>
<path d="M90.7469 93.7779L90.6906 94.039L90.4294 93.9827L90.4858 93.7216L90.7469 93.7779Z" fill="#263238"/>
<path d="M92.8871 93.3222C92.9178 93.3222 92.9178 93.2045 92.928 93.1635C92.9477 93.1075 92.9552 93.0479 92.9502 92.9887C92.9451 92.9295 92.9275 92.8721 92.8986 92.8202C92.8697 92.7683 92.8301 92.7231 92.7824 92.6877C92.7348 92.6522 92.6801 92.6273 92.6221 92.6145C92.5641 92.6018 92.504 92.6014 92.4459 92.6136C92.3878 92.6258 92.3329 92.6501 92.2848 92.6851C92.2368 92.72 92.1967 92.7648 92.1673 92.8164C92.1378 92.8679 92.1196 92.9252 92.114 92.9843L92.0372 93.3274C92.1037 93.3888 92.0372 93.4861 92.0679 93.5578C92.0986 93.6294 92.0679 93.5578 92.0679 93.5885C92.0679 93.6192 91.9911 93.6346 91.9911 93.6755C91.9911 93.6755 91.9501 93.737 91.9245 93.7677C91.9084 93.792 91.8995 93.8204 91.8989 93.8496C91.8793 93.9057 91.8717 93.9652 91.8768 94.0244C91.8818 94.0836 91.8994 94.141 91.9283 94.1929C91.9573 94.2448 91.9968 94.29 92.0445 94.3254C92.0922 94.3609 92.1468 94.3858 92.2048 94.3986C92.2628 94.4114 92.3229 94.4117 92.3811 94.3995C92.4392 94.3874 92.4941 94.363 92.5421 94.328C92.5902 94.2931 92.6302 94.2483 92.6597 94.1968C92.6891 94.1452 92.7073 94.0879 92.713 94.0288L92.7744 93.7472C92.7744 93.6755 92.8666 93.4861 92.7744 93.4298C92.6823 93.3734 92.7335 93.4298 92.7232 93.3939C92.717 93.3821 92.7137 93.3689 92.7137 93.3555C92.7137 93.3421 92.717 93.3289 92.7232 93.3171C92.7847 93.2659 92.8308 93.353 92.8871 93.3222ZM92.5748 93.7728C92.5748 93.8035 92.5236 93.8138 92.498 93.8547C92.4782 93.9056 92.4662 93.9591 92.4621 94.0134C92.4365 94.1363 92.37 94.167 92.288 94.1517C92.2061 94.1363 92.1549 94.0749 92.1856 93.952C92.1856 93.9162 92.2317 93.8138 92.2215 93.783C92.2112 93.7523 92.1703 93.783 92.1498 93.7216C92.1344 93.6681 92.1344 93.6113 92.1498 93.5578C92.1523 93.5459 92.1523 93.5337 92.1498 93.5219C92.1498 93.5219 92.1242 93.4758 92.1498 93.4554C92.1498 93.4554 92.1498 93.3888 92.1498 93.3427C92.3136 93.4042 92.3085 93.1533 92.3341 93.0509C92.3597 92.9485 92.4263 92.8922 92.5082 92.9126C92.5901 92.9331 92.6362 92.9894 92.6106 93.1072C92.5758 93.2115 92.5552 93.32 92.5492 93.4298C92.5705 93.4331 92.5902 93.4434 92.6051 93.4592C92.6199 93.475 92.6291 93.4952 92.6311 93.5168C92.6259 93.5439 92.6259 93.5717 92.6311 93.5987C92.6311 93.5987 92.6311 93.6448 92.6311 93.6653C92.6311 93.6858 92.6004 93.6653 92.5799 93.6653C92.5657 93.6709 92.5532 93.6799 92.5433 93.6915C92.5335 93.7031 92.5267 93.717 92.5236 93.7318L92.5748 93.7728Z" fill="#263238"/>
<path d="M90.025 89.6L91.7555 89.9789" stroke="#263238" stroke-linecap="round" stroke-linejoin="round"/>
<path d="M86.0928 88.7398L89.1648 89.4157" stroke="#263238" stroke-linecap="round" stroke-linejoin="round"/>
<path d="M85.8368 89.9277L87.8643 90.368" stroke="#263238" stroke-linecap="round" stroke-linejoin="round"/>
<path opacity="0.4" d="M68.096 167.368C70.7865 166.664 73.5532 166.292 76.3341 166.262C81.3312 166.139 84.5261 167.086 88.6221 165.059C92.7181 163.031 95.3754 166.682 99.2922 164.654C103.209 162.627 105.027 159.38 107.29 159.452C109.553 159.524 112.922 123.259 114.007 117.018C115.092 110.776 117.402 93.3785 118.195 89.8457L113.736 168.474L68.096 167.368Z" fill="white"/>
<path d="M68.3111 151.895L80.7987 167.086L67.6096 166.267L68.3111 151.895Z" fill="#D5D9D9" stroke="#263238" stroke-linecap="round" stroke-linejoin="round"/>
<path d="M101.453 121.856L101.253 127.636C101.225 128.443 101.039 129.236 100.705 129.971C100.37 130.705 99.8945 131.367 99.3045 131.917C98.7144 132.468 98.0217 132.897 97.2658 133.18C96.51 133.462 95.7058 133.593 94.8992 133.565L88.96 133.356C88.1513 133.328 87.3559 133.141 86.6197 132.805C85.8835 132.469 85.2209 131.991 84.67 131.398C84.119 130.805 83.6906 130.109 83.4094 129.35C83.1282 128.592 82.9996 127.785 83.0311 126.976L83.2973 119.45C83.3547 117.822 84.0563 116.283 85.2478 115.172C86.4393 114.061 88.0232 113.469 89.6512 113.526L95.5904 113.731C95.7543 113.731 95.9181 113.731 96.1024 113.766C95.2714 114.566 94.7468 115.631 94.6199 116.777C94.4931 117.924 94.7719 119.078 95.4081 120.04C96.0442 121.002 96.9974 121.71 98.1018 122.042C99.2062 122.374 100.392 122.308 101.453 121.856Z" fill="#D5D9D9" stroke="#263238" stroke-linecap="round" stroke-linejoin="round"/>
<path d="M102.523 116.864C102.504 117.42 102.321 117.957 101.997 118.409C101.673 118.861 101.222 119.206 100.702 119.402C100.181 119.597 99.6142 119.634 99.0728 119.507C98.5315 119.38 98.0398 119.096 97.6601 118.69C97.2804 118.283 97.0297 117.774 96.9398 117.225C96.8498 116.676 96.9246 116.113 97.1546 115.607C97.3847 115.101 97.7597 114.674 98.2322 114.381C98.7048 114.088 99.2536 113.942 99.8093 113.961C100.554 113.988 101.257 114.308 101.766 114.852C102.274 115.396 102.546 116.12 102.523 116.864Z" fill="#D5D9D9" stroke="#263238" stroke-linecap="round" stroke-linejoin="round"/>
<path opacity="0.4" d="M84.7206 127.693L93.4502 120.228C93.4502 120.228 92.3443 116.229 93.4502 114.964H89.257C88.2471 114.961 87.2741 115.343 86.5366 116.033C85.7992 116.723 85.3529 117.669 85.289 118.676L84.7206 127.693Z" fill="white"/>
<path opacity="0.4" d="M98.5242 117.018L100.393 114.97C100.393 114.97 99.2307 114.186 98.5242 114.97C97.8176 115.753 98.5242 117.018 98.5242 117.018Z" fill="white"/>
<path d="M97.6128 161.618L111.688 162.227" stroke="#263238" stroke-linecap="round" stroke-linejoin="round"/>
<path d="M92.7386 163.036L111.688 164.05" stroke="#263238" stroke-linecap="round" stroke-linejoin="round"/>
<path d="M106.726 167.086H111.688" stroke="#263238" stroke-linecap="round" stroke-linejoin="round"/>
<path opacity="0.2" d="M89.4771 115.389C82.217 118.881 74.3526 106.65 71.5981 104.965C70.919 104.536 70.2859 104.039 69.7088 103.48L70.9069 83.4099L92.16 84.265C92.0218 87.255 92.0678 90.5574 92.7334 92.457C94.167 96.599 96.7322 111.903 89.4771 115.389Z" fill="black" fill-opacity="0.7"/>
<path opacity="0.4" d="M81.3414 116.014C81.3414 116.014 87.1475 118.533 89.7792 117.038C92.4109 115.543 95.2474 112.686 95.6518 106.342C95.6518 106.342 99.1078 115.277 92.1395 117.955C85.1712 120.632 81.3414 116.014 81.3414 116.014Z" fill="white"/>
<path opacity="0.4" d="M79.0784 119.588C79.0784 119.588 90.8544 122.752 95.8925 117.028C95.8925 117.028 95.2167 120.207 89.7792 121.124C84.3418 122.04 79.0784 119.588 79.0784 119.588Z" fill="white"/>
<path opacity="0.4" d="M98.0173 99.1334C97.1213 97.5411 98.2221 111.852 98.2221 111.852C98.2221 111.852 99.84 102.4 98.0173 99.1334Z" fill="white"/>
</g>
<path d="M119.613 85.3657L114.647 169.718L65.8586 168.115L69.7088 103.48L70.9069 83.4099L92.1651 84.265L119.613 85.3657Z" stroke="#263238" stroke-linecap="round" stroke-linejoin="round"/>
<path opacity="0.4" d="M117.146 170.168L115.369 169.718L119.613 92.4723L120.366 97.5718L117.146 170.168Z" fill="white"/>
<path d="M89.4772 115.389C88.8057 115.746 88.0592 115.938 87.2989 115.95C86.5387 115.961 85.7866 115.792 85.1047 115.456C83.9244 114.837 82.9721 113.858 82.386 112.66C80.3636 109.015 74.8903 100.71 73.8816 98.3245C72.873 95.9386 70.6407 89.1904 68.4135 86.359C66.1863 83.5277 64.9677 79.2679 64.9677 79.2679L64.1588 37.9494C65.3722 43.9245 68.7156 50.7085 68.7156 50.7085C71.6203 52.22 74.0884 54.4519 75.8836 57.1904C76.4061 57.7469 76.8741 58.3521 77.2813 58.9978C80.5888 64.1178 82.1914 73.3338 82.3655 80.5018C82.5703 88.6067 85.202 92.2778 89.4567 99.3383C93.7114 106.399 92.242 113.818 89.4772 115.389Z" fill="white"/>
<path opacity="0.4" d="M89.4771 115.389C88.803 115.738 88.0573 115.925 87.2987 115.936C86.5401 115.948 85.7891 115.783 85.1046 115.456C87.4291 114.821 90.4806 113.628 89.7792 111.872C88.6784 109.066 85.4579 113.229 83.84 111.872C82.2221 110.515 76.3443 102.733 80.0768 99.3075C83.8093 95.8822 82.6368 90.1376 80.0768 88.5197C77.5168 86.9018 79.1808 83.0464 79.9898 76.9792C80.5018 73.3082 78.7456 64.9933 77.3018 58.9926C80.6093 64.1126 82.2118 73.3286 82.3859 80.4966C82.5907 88.6016 85.2224 92.2726 89.4771 99.3331C93.7318 106.394 92.2419 113.915 89.4771 115.389Z" fill="#D5D9D9"/>
<path d="M64.1588 37.9238C65.3722 43.8989 68.7156 50.6829 68.7156 50.6829C71.6203 52.1944 74.0884 54.4263 75.8836 57.1648C80.1383 61.6192 82.1658 72.3558 82.3655 80.4557C82.5652 88.5555 85.202 92.2317 89.4567 99.2922C93.7114 106.353 92.5287 113.715 89.4567 115.389C87.3165 116.562 84.393 116.306 82.3655 112.66C80.338 109.015 74.8698 100.71 73.8612 98.3245C72.8525 95.9386 70.6202 89.1904 68.393 86.359C66.1658 83.5277 64.9472 79.2678 64.9472 79.2678" stroke="#263238" stroke-linecap="round" stroke-linejoin="round"/>
<path d="M77.312 97.5718C77.312 97.5718 80.6195 97.2749 82.1351 96.0358" stroke="#263238" stroke-linecap="round" stroke-linejoin="round"/>
<path d="M63.7543 80.0819C63.7543 80.0819 63.1092 81.6179 66.4884 83.1539" stroke="#263238" stroke-linecap="round" stroke-linejoin="round"/>
</svg>