<svg width="256" height="256" viewBox="0 0 256 256" fill="none" xmlns="http://www.w3.org/2000/svg">
<path d="M104.991 22.5997C104.991 22.5997 128.911 17.751 150.676 22.5997C163.988 25.5642 192.02 32.5939 198.641 48.5274C205.261 64.4608 173.399 78.0544 189.051 94.2183C195.804 101.192 228.209 110.387 226.386 155.617C224.563 200.847 177.085 228.419 111.104 227.19C45.1226 225.961 7.02976 165.96 32.5478 136.412C58.0659 106.865 69.0534 106.778 57.4874 82.7136C45.9213 58.6496 61.9776 29.4861 104.991 22.5997Z" fill="#D5D9D9"/>
<path opacity="0.7" d="M104.991 22.5997C104.991 22.5997 128.911 17.751 150.676 22.5997C163.988 25.5642 192.02 32.5939 198.641 48.5274C205.261 64.4608 173.399 78.0544 189.051 94.2183C195.804 101.192 228.209 110.387 226.386 155.617C224.563 200.847 177.085 228.419 111.104 227.19C45.1226 225.961 7.02976 165.96 32.5478 136.412C58.0659 106.865 69.0534 106.778 57.4874 82.7136C45.9213 58.6496 61.9776 29.4861 104.991 22.5997Z" fill="white"/>
<path d="M169.257 86.0006H86.7431L76.4468 34.7802H179.553L169.257 86.0006Z" fill="#263238"/>
<path d="M84.1882 36.4442L68.9921 139.781H187.008L171.812 36.4442" fill="#D5D9D9"/>
<mask id="mask0_21_8414" style="mask-type:luminance" maskUnits="userSpaceOnUse" x="68" y="36" width="120" height="104">
<path d="M84.1882 36.4442L68.9921 139.781H187.008L171.812 36.4442" fill="white"/>
</mask>
<g mask="url(#mask0_21_8414)">
<path opacity="0.3" d="M187.008 139.781H68.9921L75.346 96.5683H180.654L187.008 139.781Z" fill="black" fill-opacity="0.7"/>
</g>
<path d="M84.1882 36.4442L68.9921 139.781H187.008L171.812 36.4442" stroke="#263238" stroke-linecap="round" stroke-linejoin="round"/>
<path d="M168.602 36.4442H87.3985L73.3185 139.781H182.682L168.602 36.4442Z" fill="#263238"/>
<path d="M160.579 44.3187H116.501L115.989 43.1923C115.851 42.8866 115.628 42.6272 115.346 42.4455C115.065 42.2638 114.737 42.1675 114.401 42.1683H104.407C104.136 42.1683 103.875 42.2762 103.683 42.4682C103.491 42.6603 103.383 42.9207 103.383 43.1923V44.3392H95.4215C95.2778 44.3395 95.136 44.3716 95.0063 44.4331C94.8765 44.4947 94.762 44.5843 94.6709 44.6954C94.5799 44.8065 94.5145 44.9365 94.4797 45.0758C94.4448 45.2152 94.4412 45.3605 94.4692 45.5014L100.982 77.8854H155.018L161.531 45.5014C161.562 45.3591 161.561 45.2115 161.528 45.0695C161.495 44.9276 161.43 44.795 161.339 44.6814C161.247 44.5679 161.132 44.4763 161 44.4135C160.868 44.3507 160.724 44.3183 160.579 44.3187Z" fill="#BFBFBF" stroke="#263238" stroke-linecap="round" stroke-linejoin="round"/>
<path d="M162.243 46.8019L161.679 49.5974L155.894 78.3667C155.811 78.7987 155.58 79.1883 155.24 79.4686C154.901 79.7488 154.475 79.9023 154.035 79.9027H101.965C101.525 79.9023 101.099 79.7488 100.76 79.4686C100.421 79.1883 100.19 78.7987 100.106 78.3667L94.208 48.9165L93.7831 46.8019C93.7553 46.6623 93.7586 46.5182 93.7926 46.38C93.8266 46.2417 93.8905 46.1126 93.9799 46.0018C94.0693 45.8909 94.1818 45.8011 94.3097 45.7385C94.4376 45.6759 94.5777 45.6422 94.72 45.6397H161.28C161.425 45.6384 161.568 45.6694 161.699 45.7303C161.83 45.7913 161.945 45.8806 162.038 45.992C162.13 46.1033 162.196 46.2337 162.232 46.3738C162.267 46.5139 162.271 46.6602 162.243 46.8019Z" fill="white"/>
<mask id="mask1_21_8414" style="mask-type:luminance" maskUnits="userSpaceOnUse" x="93" y="45" width="70" height="35">
<path d="M162.243 46.8019L161.679 49.5974L155.894 78.3667C155.811 78.7987 155.58 79.1883 155.24 79.4686C154.901 79.7488 154.475 79.9023 154.035 79.9027H101.965C101.525 79.9023 101.099 79.7488 100.76 79.4686C100.421 79.1883 100.19 78.7987 100.106 78.3667L94.208 48.9165L93.7831 46.8019C93.7553 46.6623 93.7586 46.5182 93.7926 46.38C93.8266 46.2417 93.8905 46.1126 93.9799 46.0018C94.0693 45.8909 94.1818 45.8011 94.3097 45.7385C94.4376 45.6759 94.5777 45.6422 94.72 45.6397H161.28C161.425 45.6384 161.568 45.6694 161.699 45.7303C161.83 45.7913 161.945 45.8806 162.038 45.992C162.13 46.1033 162.196 46.2337 162.232 46.3738C162.267 46.5139 162.271 46.6602 162.243 46.8019Z" fill="white"/>
</mask>
<g mask="url(#mask1_21_8414)">
<path opacity="0.4" d="M161.679 49.5974L155.894 78.3667C155.811 78.7987 155.58 79.1883 155.24 79.4686C154.901 79.7488 154.475 79.9023 154.035 79.9027H101.965C101.525 79.9023 101.099 79.7488 100.76 79.4686C100.421 79.1883 100.19 78.7987 100.106 78.3667L94.208 48.9165L161.679 49.5974Z" fill="#D5D9D9"/>
</g>
<path d="M162.243 46.8019L161.679 49.5974L155.894 78.3667C155.811 78.7987 155.58 79.1883 155.24 79.4686C154.901 79.7488 154.475 79.9023 154.035 79.9027H101.965C101.525 79.9023 101.099 79.7488 100.76 79.4686C100.421 79.1883 100.19 78.7987 100.106 78.3667L94.208 48.9165L93.7831 46.8019C93.7553 46.6623 93.7586 46.5182 93.7926 46.38C93.8266 46.2417 93.8905 46.1126 93.9799 46.0018C94.0693 45.8909 94.1818 45.8011 94.3097 45.7385C94.4376 45.6759 94.5777 45.6422 94.72 45.6397H161.28C161.425 45.6384 161.568 45.6694 161.699 45.7303C161.83 45.7913 161.945 45.8806 162.038 45.992C162.13 46.1033 162.196 46.2337 162.232 46.3738C162.267 46.5139 162.271 46.6602 162.243 46.8019Z" stroke="#263238" stroke-linecap="round" stroke-linejoin="round"/>
<path d="M161.362 51.7785H116.224L115.712 50.6573C115.567 50.3495 115.338 50.0895 115.05 49.9081C114.763 49.7266 114.429 49.6313 114.089 49.6333H103.849C103.577 49.6333 103.317 49.7412 103.125 49.9332C102.933 50.1252 102.825 50.3857 102.825 50.6573V51.8041H94.633C94.4879 51.8023 94.3443 51.8328 94.2124 51.8933C94.0805 51.9539 93.9638 52.0431 93.8707 52.1543C93.7776 52.2656 93.7104 52.3962 93.674 52.5366C93.6375 52.6771 93.6328 52.8239 93.6602 52.9664L100.316 85.2531H155.648L162.304 52.9664C162.335 52.8246 162.334 52.6777 162.302 52.5363C162.269 52.3948 162.205 52.2624 162.115 52.1487C162.025 52.035 161.911 51.9428 161.78 51.8787C161.65 51.8147 161.507 51.7805 161.362 51.7785Z" fill="#BFBFBF" stroke="#263238" stroke-linecap="round" stroke-linejoin="round"/>
<path d="M163.062 54.3488L162.499 57.0829L156.565 85.8214C156.473 86.2581 156.234 86.6497 155.887 86.9298C155.539 87.2098 155.106 87.3609 154.66 87.3574H101.34C100.894 87.3609 100.461 87.2098 100.113 86.9298C99.7662 86.6497 99.5267 86.2581 99.4356 85.8214L93.481 56.9856L92.9383 54.3488C92.9109 54.2063 92.9156 54.0595 92.952 53.919C92.9884 53.7786 93.0556 53.648 93.1488 53.5367C93.2419 53.4254 93.3586 53.3363 93.4905 53.2757C93.6223 53.2152 93.766 53.1847 93.9111 53.1865H162.089C162.234 53.1847 162.378 53.2152 162.51 53.2757C162.641 53.3363 162.758 53.4254 162.851 53.5367C162.944 53.648 163.012 53.7786 163.048 53.919C163.084 54.0595 163.089 54.2063 163.062 54.3488Z" fill="white"/>
<mask id="mask2_21_8414" style="mask-type:luminance" maskUnits="userSpaceOnUse" x="92" y="53" width="72" height="35">
<path d="M163.062 54.3488L162.499 57.0829L156.565 85.8214C156.473 86.2581 156.234 86.6497 155.887 86.9298C155.539 87.2098 155.106 87.3609 154.66 87.3574H101.34C100.894 87.3609 100.461 87.2098 100.113 86.9298C99.7662 86.6497 99.5267 86.2581 99.4356 85.8214L93.481 56.9856L92.9383 54.3488C92.9109 54.2063 92.9156 54.0595 92.952 53.919C92.9884 53.7786 93.0556 53.648 93.1488 53.5367C93.2419 53.4254 93.3586 53.3363 93.4905 53.2757C93.6223 53.2152 93.766 53.1847 93.9111 53.1865H162.089C162.234 53.1847 162.378 53.2152 162.51 53.2757C162.641 53.3363 162.758 53.4254 162.851 53.5367C162.944 53.648 163.012 53.7786 163.048 53.919C163.084 54.0595 163.089 54.2063 163.062 54.3488Z" fill="white"/>
</mask>
<g mask="url(#mask2_21_8414)">
<path opacity="0.4" d="M162.499 57.0829L156.565 85.8214C156.473 86.2581 156.234 86.6498 155.887 86.9298C155.539 87.2098 155.106 87.3609 154.66 87.3574H101.34C100.894 87.3609 100.461 87.2098 100.113 86.9298C99.7662 86.6498 99.5267 86.2581 99.4356 85.8214L93.481 56.9856L162.499 57.0829Z" fill="#D5D9D9"/>
</g>
<path d="M163.062 54.3488L162.499 57.0829L156.565 85.8214C156.473 86.2581 156.234 86.6497 155.887 86.9298C155.539 87.2098 155.106 87.3609 154.66 87.3574H101.34C100.894 87.3609 100.461 87.2098 100.113 86.9298C99.7662 86.6497 99.5267 86.2581 99.4356 85.8214L93.481 56.9856L92.9383 54.3488C92.9109 54.2063 92.9156 54.0595 92.952 53.919C92.9884 53.7786 93.0556 53.648 93.1488 53.5367C93.2419 53.4254 93.3586 53.3363 93.4905 53.2757C93.6223 53.2152 93.766 53.1847 93.9111 53.1865H162.089C162.234 53.1847 162.378 53.2152 162.51 53.2757C162.641 53.3363 162.758 53.4254 162.851 53.5367C162.944 53.648 163.012 53.7786 163.048 53.919C163.084 54.0595 163.089 54.2063 163.062 54.3488Z" stroke="#263238" stroke-linecap="round" stroke-linejoin="round"/>
<path d="M162.14 59.2384H115.953L115.441 58.1171C115.29 57.8065 115.054 57.5452 114.76 57.3639C114.466 57.1826 114.127 57.0886 113.782 57.0931H103.276C103.139 57.089 103.002 57.1124 102.874 57.1621C102.746 57.2117 102.63 57.2865 102.532 57.382C102.433 57.4775 102.355 57.5917 102.302 57.718C102.248 57.8443 102.221 57.98 102.221 58.1171V59.2589H93.8599C93.7135 59.2543 93.5679 59.2824 93.4337 59.3413C93.2996 59.4002 93.1803 59.4883 93.0846 59.5992C92.9889 59.7101 92.9192 59.841 92.8806 59.9824C92.842 60.1237 92.8355 60.2718 92.8615 60.416L99.6864 92.6054H156.314L163.139 60.416C163.168 60.2704 163.164 60.1199 163.127 59.976C163.09 59.8321 163.021 59.6984 162.925 59.5851C162.829 59.4717 162.708 59.3817 162.572 59.3216C162.436 59.2616 162.289 59.2331 162.14 59.2384Z" fill="#BFBFBF" stroke="#263238" stroke-linecap="round" stroke-linejoin="round"/>
<path d="M162.888 60.7386H93.1124C92.9666 60.7339 92.8217 60.7619 92.6882 60.8206C92.5546 60.8792 92.4359 60.967 92.3407 61.0774C92.2455 61.1878 92.1761 61.3182 92.1378 61.4589C92.0995 61.5996 92.0931 61.7471 92.1191 61.8906L98.7751 93.271C98.8729 93.712 99.1199 94.1056 99.4744 94.3854C99.8289 94.6653 100.269 94.8142 100.721 94.807H155.285C155.736 94.8142 156.176 94.6653 156.531 94.3854C156.885 94.1056 157.132 93.712 157.23 93.271L163.886 61.8906C163.912 61.7466 163.906 61.5987 163.867 61.4576C163.829 61.3165 163.759 61.1859 163.663 61.0753C163.567 60.9648 163.448 60.8772 163.314 60.8189C163.179 60.7606 163.034 60.7331 162.888 60.7386Z" fill="white" stroke="#263238" stroke-linecap="round" stroke-linejoin="round"/>
<path d="M162.924 65.1622H115.676L115.139 64.0461C114.98 63.7338 114.738 63.4722 114.438 63.2912C114.138 63.1101 113.794 63.0169 113.444 63.0221H102.692C102.553 63.0144 102.414 63.0352 102.283 63.0832C102.152 63.1312 102.032 63.2055 101.931 63.3013C101.83 63.3972 101.749 63.5127 101.695 63.6407C101.64 63.7688 101.611 63.9067 101.612 64.0461V65.1878H93.0765C92.9288 65.1804 92.7812 65.2062 92.6448 65.2634C92.5084 65.3206 92.3865 65.4077 92.2882 65.5182C92.19 65.6288 92.1177 65.76 92.077 65.9022C92.0362 66.0444 92.0278 66.194 92.0525 66.3398L99.0311 98.4371H156.964L163.942 66.3398C163.971 66.1926 163.966 66.0406 163.928 65.8956C163.889 65.7505 163.818 65.6161 163.72 65.5026C163.622 65.3891 163.499 65.2994 163.361 65.2405C163.223 65.1815 163.073 65.1547 162.924 65.1622Z" fill="#BFBFBF" stroke="#263238" stroke-linecap="round" stroke-linejoin="round"/>
<path d="M163.686 66.7494H92.3136C92.1659 66.742 92.0184 66.7678 91.8819 66.825C91.7455 66.8822 91.6236 66.9693 91.5254 67.0798C91.4271 67.1904 91.3549 67.3216 91.3141 67.4638C91.2733 67.606 91.2649 67.7556 91.2896 67.9014L98.0941 99.1897C98.2056 99.6296 98.4637 100.018 98.8257 100.292C99.1877 100.566 99.6322 100.708 100.086 100.695H155.894C156.347 100.708 156.792 100.566 157.154 100.292C157.516 100.018 157.774 99.6296 157.885 99.1897L164.69 67.9014C164.714 67.7573 164.706 67.6096 164.667 67.469C164.627 67.3284 164.557 67.1983 164.461 67.0881C164.365 66.9779 164.245 66.8904 164.112 66.8318C163.978 66.7733 163.833 66.7451 163.686 66.7494Z" fill="white" stroke="#263238" stroke-linecap="round" stroke-linejoin="round"/>
<path d="M163.702 71.0861H115.4L114.852 69.9699C114.686 69.6552 114.436 69.3927 114.129 69.2119C113.823 69.0311 113.472 68.939 113.116 68.9459H102.144C101.866 68.932 101.595 69.0287 101.388 69.2149C101.182 69.4012 101.058 69.6616 101.043 69.9392V71.0759H92.2983C92.1528 71.0748 92.0088 71.1048 91.8758 71.1637C91.7428 71.2227 91.624 71.3093 91.5271 71.4178C91.4302 71.5263 91.3575 71.6542 91.3139 71.793C91.2704 71.9318 91.2568 72.0783 91.2743 72.2227L98.4116 104.223H157.609L164.746 72.2227C164.762 72.0774 164.747 71.9302 164.702 71.7912C164.656 71.6522 164.582 71.5246 164.483 71.4169C164.384 71.3092 164.263 71.2239 164.128 71.1669C163.993 71.1098 163.848 71.0823 163.702 71.0861Z" fill="#BFBFBF" stroke="#263238" stroke-linecap="round" stroke-linejoin="round"/>
<path d="M164.48 72.7654H91.52C91.3731 72.7591 91.2265 72.7855 91.091 72.8427C90.9554 72.8999 90.8343 72.9865 90.7363 73.0962C90.6383 73.206 90.5659 73.3361 90.5244 73.4772C90.4828 73.6184 90.4732 73.767 90.496 73.9123L92.2061 81.5923L97.449 105.108C97.571 105.553 97.8395 105.944 98.2112 106.217C98.5829 106.49 99.036 106.63 99.497 106.614H156.534C156.995 106.63 157.448 106.49 157.82 106.217C158.191 105.944 158.46 105.553 158.582 105.108L161.142 93.5731L165.525 73.9174C165.549 73.7699 165.539 73.6189 165.497 73.4755C165.455 73.3321 165.381 73.2002 165.28 73.0894C165.18 72.9787 165.056 72.8921 164.917 72.836C164.779 72.7799 164.629 72.7557 164.48 72.7654Z" fill="white"/>
<mask id="mask3_21_8414" style="mask-type:luminance" maskUnits="userSpaceOnUse" x="90" y="72" width="76" height="35">
<path d="M164.48 72.7654H91.52C91.3731 72.7591 91.2265 72.7855 91.091 72.8427C90.9554 72.8999 90.8343 72.9865 90.7363 73.0962C90.6383 73.206 90.5659 73.3361 90.5244 73.4772C90.4828 73.6184 90.4732 73.767 90.496 73.9123L92.2061 81.5923L97.449 105.108C97.571 105.553 97.8395 105.944 98.2112 106.217C98.5829 106.49 99.036 106.63 99.497 106.614H156.534C156.995 106.63 157.448 106.49 157.82 106.217C158.191 105.944 158.46 105.553 158.582 105.108L161.142 93.5731L165.525 73.9174C165.549 73.7699 165.539 73.6189 165.497 73.4755C165.455 73.3321 165.381 73.2002 165.28 73.0894C165.18 72.9787 165.056 72.8921 164.917 72.836C164.779 72.7799 164.629 72.7557 164.48 72.7654Z" fill="white"/>
</mask>
<g mask="url(#mask3_21_8414)">
<path opacity="0.4" d="M92.1856 81.5872L97.4285 105.103C97.5505 105.548 97.8191 105.939 98.1908 106.212C98.5625 106.485 99.0155 106.625 99.4765 106.609H156.534C156.995 106.625 157.448 106.485 157.82 106.212C158.191 105.939 158.46 105.548 158.582 105.103L161.142 93.568L92.1856 81.5872Z" fill="#D5D9D9"/>
</g>
<path d="M164.48 72.7654H91.52C91.3731 72.7591 91.2265 72.7855 91.091 72.8427C90.9554 72.8999 90.8343 72.9865 90.7363 73.0962C90.6383 73.206 90.5659 73.3361 90.5244 73.4772C90.4828 73.6184 90.4732 73.767 90.496 73.9123L92.2061 81.5923L97.449 105.108C97.571 105.553 97.8395 105.944 98.2112 106.217C98.5829 106.49 99.036 106.63 99.497 106.614H156.534C156.995 106.63 157.448 106.49 157.82 106.217C158.191 105.944 158.46 105.553 158.582 105.108L161.142 93.5731L165.525 73.9174C165.549 73.7699 165.539 73.6189 165.497 73.4755C165.455 73.3321 165.381 73.2002 165.28 73.0894C165.18 72.9787 165.056 72.8921 164.917 72.836C164.779 72.7799 164.629 72.7557 164.48 72.7654Z" stroke="#263238" stroke-linecap="round" stroke-linejoin="round"/>
<path d="M113.546 107.72L112.901 106.644C112.69 106.334 112.4 106.085 112.06 105.923C111.721 105.761 111.345 105.692 110.971 105.723L99.0516 106.271C98.7644 106.259 98.4839 106.36 98.2691 106.55C98.0543 106.741 97.9219 107.008 97.8996 107.295L97.9508 108.421L88.448 108.856C87.721 108.887 87.1988 109.46 87.3728 110.039L96.5888 141.271L160.917 138.312L167.219 106.378C167.332 105.784 166.764 105.262 166.031 105.298L113.546 107.72Z" fill="#BFBFBF" stroke="#263238" stroke-linecap="round" stroke-linejoin="round"/>
<path d="M168.141 108.375L167.424 112.051L162.012 139.51C161.878 139.973 161.596 140.38 161.208 140.667C160.821 140.953 160.349 141.105 159.867 141.097L97.8791 143.944C97.3995 143.996 96.916 143.889 96.5032 143.639C96.0905 143.389 95.7715 143.011 95.5956 142.561L87.0401 113.531L86.6253 112.123C86.4564 111.544 86.9786 110.971 87.7057 110.94L166.968 107.295C167.69 107.264 168.259 107.786 168.141 108.375Z" fill="white"/>
<mask id="mask4_21_8414" style="mask-type:luminance" maskUnits="userSpaceOnUse" x="86" y="107" width="83" height="37">
<path d="M168.141 108.375L167.424 112.051L162.012 139.51C161.878 139.973 161.596 140.38 161.208 140.667C160.821 140.953 160.349 141.105 159.867 141.097L97.8791 143.944C97.3995 143.996 96.916 143.889 96.5032 143.639C96.0905 143.389 95.7715 143.011 95.5956 142.561L87.0401 113.531L86.6253 112.123C86.4564 111.544 86.9786 110.971 87.7057 110.94L166.968 107.295C167.69 107.264 168.259 107.786 168.141 108.375Z" fill="white"/>
</mask>
<g mask="url(#mask4_21_8414)">
<path opacity="0.4" d="M167.424 112.051L162.012 139.51C161.879 139.973 161.596 140.38 161.208 140.667C160.821 140.953 160.349 141.105 159.867 141.097L97.8791 143.944C97.3995 143.996 96.916 143.889 96.5033 143.639C96.0905 143.389 95.7716 143.011 95.5956 142.561L87.0401 113.531L167.424 112.051Z" fill="#D5D9D9"/>
</g>
<path d="M168.141 108.375L167.424 112.051L162.012 139.51C161.878 139.973 161.596 140.38 161.208 140.666C160.821 140.953 160.349 141.105 159.867 141.097L97.8791 143.944C97.3995 143.996 96.916 143.889 96.5032 143.639C96.0905 143.389 95.7715 143.011 95.5956 142.561L87.0401 113.531L86.6253 112.123C86.4564 111.544 86.9786 110.971 87.7057 110.94L166.968 107.295C167.69 107.264 168.259 107.786 168.141 108.375Z" stroke="#263238" stroke-linecap="round" stroke-linejoin="round"/>
<path d="M114.913 114.847L114.365 113.72C114.177 113.388 113.905 113.112 113.576 112.918C113.247 112.724 112.873 112.619 112.492 112.614L100.352 111.98C100.061 111.935 99.7646 112.006 99.5254 112.177C99.2862 112.348 99.1235 112.606 99.0721 112.896L99.0157 114.017L89.3287 113.505C88.5863 113.464 88.0026 113.981 88.1153 114.57L94.377 146.463L159.98 149.893L169.528 118.83C169.702 118.252 169.175 117.678 168.433 117.642L114.913 114.847Z" fill="#BFBFBF" stroke="#263238" stroke-linecap="round" stroke-linejoin="round"/>
<path d="M170.271 120.996L168.735 126.054L160.983 151.276C160.796 151.727 160.467 152.104 160.045 152.35C159.624 152.596 159.133 152.697 158.648 152.637L95.4317 149.335C94.9439 149.342 94.467 149.19 94.0734 148.902C93.6798 148.614 93.3909 148.205 93.2506 147.738L87.9002 120.463L87.1527 116.649C87.0349 116.06 87.6237 115.543 88.3661 115.584L169.175 119.808C169.917 119.849 170.45 120.422 170.271 120.996Z" fill="white"/>
<mask id="mask5_21_8414" style="mask-type:luminance" maskUnits="userSpaceOnUse" x="87" y="115" width="84" height="38">
<path d="M170.271 120.996L168.735 126.054L160.983 151.276C160.796 151.727 160.467 152.104 160.045 152.35C159.624 152.596 159.133 152.697 158.648 152.637L95.4317 149.335C94.9439 149.342 94.467 149.19 94.0734 148.902C93.6798 148.614 93.3909 148.205 93.2506 147.738L87.9002 120.463L87.1527 116.649C87.0349 116.06 87.6237 115.543 88.3661 115.584L169.175 119.808C169.917 119.849 170.45 120.422 170.271 120.996Z" fill="white"/>
</mask>
<g mask="url(#mask5_21_8414)">
<path opacity="0.4" d="M168.714 126.054L160.963 151.276C160.776 151.727 160.446 152.104 160.025 152.35C159.603 152.596 159.112 152.697 158.628 152.637L95.4113 149.335C94.9234 149.342 94.4465 149.19 94.0529 148.902C93.6593 148.614 93.3704 148.205 93.2301 147.738L87.8797 120.463L168.714 126.054Z" fill="#D5D9D9"/>
</g>
<path d="M170.271 120.996L168.735 126.054L160.983 151.276C160.796 151.727 160.467 152.104 160.045 152.35C159.624 152.596 159.133 152.697 158.648 152.637L95.4317 149.335C94.9439 149.342 94.467 149.19 94.0734 148.902C93.6798 148.614 93.3909 148.205 93.2506 147.738L87.9002 120.463L87.1527 116.649C87.0349 116.06 87.6237 115.543 88.3661 115.584L169.175 119.808C169.917 119.849 170.45 120.422 170.271 120.996Z" stroke="#263238" stroke-linecap="round" stroke-linejoin="round"/>
<path d="M113.746 123.013L113.152 121.917C112.942 121.591 112.651 121.326 112.307 121.146C111.963 120.967 111.579 120.88 111.191 120.893H98.7546C98.46 120.861 98.1645 120.946 97.9311 121.128C97.6978 121.311 97.545 121.578 97.5053 121.871V122.988H87.6135C86.8557 122.988 86.2874 123.53 86.4359 124.114L94.505 155.535H161.495L169.564 124.114C169.713 123.53 169.144 122.988 168.387 122.988L113.746 123.013Z" fill="#BFBFBF" stroke="#263238" stroke-linecap="round" stroke-linejoin="round"/>
<path d="M160.256 158.459H95.744C94.6279 158.459 93.6602 157.839 93.44 156.984L85.5552 126.351C85.4016 125.768 85.97 125.225 86.7328 125.225H169.267C170.03 125.225 170.598 125.768 170.445 126.351L162.581 156.984C162.36 157.839 161.393 158.459 160.256 158.459Z" fill="white" stroke="#263238" stroke-linecap="round" stroke-linejoin="round"/>
<path d="M113.469 130.473L112.84 129.382C112.619 129.059 112.319 128.798 111.968 128.623C111.618 128.449 111.229 128.366 110.838 128.384H98.1914C97.8934 128.349 97.5934 128.431 97.3553 128.614C97.1173 128.797 96.9598 129.065 96.9165 129.362V130.473H86.8353C86.057 130.473 85.4785 131.016 85.6321 131.599L93.8599 162.924H162.14L170.368 131.584C170.522 131 169.943 130.458 169.165 130.458L113.469 130.473Z" fill="#BFBFBF" stroke="#263238" stroke-linecap="round" stroke-linejoin="round"/>
<path d="M160.901 165.888H95.0989C93.9623 165.888 92.9792 165.268 92.754 164.413L84.7309 133.878C84.5824 133.294 85.161 132.751 85.9341 132.751H170.066C170.839 132.751 171.418 133.294 171.269 133.878L163.246 164.413C163.021 165.289 162.038 165.888 160.901 165.888Z" fill="white" stroke="#263238" stroke-linecap="round" stroke-linejoin="round"/>
<path d="M174.269 201.201H81.7306L61.4758 143.759H194.524L174.269 201.201Z" fill="#D5D9D9"/>
<mask id="mask6_21_8414" style="mask-type:luminance" maskUnits="userSpaceOnUse" x="61" y="143" width="134" height="59">
<path d="M174.269 201.201H81.7306L61.4758 143.759H194.524L174.269 201.201Z" fill="white"/>
</mask>
<g mask="url(#mask6_21_8414)">
<path opacity="0.3" d="M174.269 201.201H81.7306L61.4758 143.759H194.524L174.269 201.201Z" fill="black" fill-opacity="0.7"/>
</g>
<path d="M174.269 201.201H81.7306L61.4758 143.759H194.524L174.269 201.201Z" stroke="#263238" stroke-linecap="round" stroke-linejoin="round"/>
<path d="M192.763 136.197H63.2371L61.4758 143.759H194.524L192.763 136.197Z" fill="#D5D9D9" stroke="#263238" stroke-linecap="round" stroke-linejoin="round"/>
<path d="M95.8823 170.076L94.5869 182.339H161.413L160.118 170.076H157.169L158.008 178.826H97.9917L98.8314 170.076H95.8823Z" fill="#BFBFBF" stroke="#263238" stroke-linecap="round" stroke-linejoin="round"/>
<path d="M160.911 185.155H95.0887L94.5869 182.339H161.413L160.911 185.155Z" fill="#757575" stroke="#263238" stroke-linecap="round" stroke-linejoin="round"/>
<path d="M157.169 170.076L156.759 173.327L157.169 178.826H158.008L157.169 170.076Z" fill="#757575" stroke="#263238" stroke-linecap="round" stroke-linejoin="round"/>
<path d="M98.8314 170.076L99.2461 173.327L98.8314 178.826H97.9917L98.8314 170.076Z" fill="#757575" stroke="#263238" stroke-linecap="round" stroke-linejoin="round"/>
<path d="M149.535 163.922H106.465L104.412 153.518H151.588L149.535 163.922Z" fill="white" stroke="#263238" stroke-linecap="round" stroke-linejoin="round"/>
<path d="M111.008 156.417C111.468 156.417 111.816 156.517 112.053 156.715C112.292 156.91 112.435 157.179 112.48 157.523C112.508 157.731 112.491 157.924 112.428 158.103C112.365 158.281 112.239 158.425 112.05 158.534C111.865 158.643 111.599 158.697 111.252 158.697H110.927L111.095 159.956H110.34L109.868 156.417H111.008ZM111.05 157.032H110.705L110.845 158.083H111.095C111.308 158.083 111.471 158.041 111.584 157.959C111.699 157.873 111.744 157.736 111.719 157.547C111.673 157.204 111.45 157.032 111.05 157.032Z" fill="black"/>
<path d="M114.171 157.196C114.538 157.196 114.829 157.275 115.043 157.433C115.261 157.589 115.391 157.828 115.434 158.152L115.674 159.956H115.154L114.961 159.589H114.941C114.843 159.735 114.734 159.841 114.613 159.907C114.492 159.973 114.318 160.006 114.091 160.006C113.848 160.006 113.637 159.936 113.458 159.798C113.28 159.659 113.171 159.442 113.132 159.148C113.093 158.861 113.167 158.649 113.352 158.514C113.537 158.378 113.832 158.302 114.237 158.286L114.71 158.271L114.694 158.152C114.675 158.01 114.623 157.906 114.537 157.84C114.455 157.774 114.347 157.741 114.214 157.741C114.081 157.741 113.953 157.761 113.832 157.8C113.71 157.837 113.59 157.883 113.471 157.939L113.159 157.438C113.292 157.366 113.446 157.308 113.621 157.265C113.794 157.219 113.978 157.196 114.171 157.196ZM114.767 158.702L114.479 158.712C114.24 158.719 114.079 158.762 113.996 158.841C113.913 158.92 113.88 159.024 113.897 159.153C113.912 159.266 113.957 159.347 114.03 159.396C114.103 159.442 114.192 159.465 114.299 159.465C114.459 159.465 114.588 159.419 114.686 159.327C114.783 159.231 114.82 159.097 114.797 158.925L114.767 158.702Z" fill="black"/>
<path d="M115.686 157.25H116.501L117.219 158.772C117.256 158.848 117.286 158.924 117.31 159C117.333 159.076 117.354 159.157 117.372 159.242H117.387C117.385 159.157 117.388 159.076 117.395 159C117.401 158.924 117.413 158.848 117.429 158.772L117.731 157.25H118.531L117.783 160.303C117.714 160.584 117.59 160.794 117.412 160.933C117.235 161.075 117.016 161.146 116.756 161.146C116.669 161.146 116.595 161.141 116.534 161.131C116.473 161.124 116.418 161.116 116.37 161.106L116.292 160.521C116.327 160.528 116.371 160.534 116.425 160.541C116.479 160.548 116.535 160.551 116.591 160.551C116.748 160.551 116.865 160.503 116.942 160.407C117.02 160.315 117.073 160.202 117.102 160.07L117.129 159.936L115.686 157.25Z" fill="black"/>
<path d="M122.121 157.201C122.431 157.201 122.675 157.28 122.853 157.438C123.034 157.594 123.147 157.845 123.193 158.192L123.429 159.956H122.684L122.473 158.375C122.421 157.985 122.258 157.79 121.985 157.79C121.788 157.79 121.658 157.86 121.593 157.998C121.528 158.137 121.513 158.337 121.548 158.598L121.729 159.956H120.984L120.773 158.375C120.721 157.985 120.558 157.79 120.285 157.79C120.078 157.79 119.945 157.868 119.886 158.023C119.83 158.175 119.821 158.395 119.859 158.682L120.029 159.956H119.284L118.923 157.25H119.493L119.639 157.597H119.679C119.744 157.458 119.844 157.357 119.979 157.295C120.117 157.232 120.265 157.201 120.421 157.201C120.621 157.201 120.794 157.234 120.94 157.3C121.088 157.362 121.209 157.462 121.304 157.597H121.369C121.434 157.458 121.536 157.357 121.674 157.295C121.816 157.232 121.965 157.201 122.121 157.201Z" fill="black"/>
<path d="M124.953 157.201C125.33 157.201 125.643 157.308 125.891 157.523C126.14 157.734 126.29 158.036 126.342 158.43L126.39 158.787H124.63C124.664 158.995 124.748 159.158 124.88 159.277C125.016 159.396 125.189 159.456 125.399 159.456C125.572 159.456 125.729 159.439 125.868 159.406C126.009 159.37 126.152 159.315 126.296 159.242L126.372 159.812C126.244 159.879 126.109 159.926 125.966 159.956C125.824 159.989 125.647 160.006 125.437 160.006C125.164 160.006 124.916 159.956 124.693 159.857C124.469 159.755 124.284 159.603 124.137 159.401C123.99 159.196 123.895 158.937 123.853 158.623C123.811 158.309 123.83 158.046 123.908 157.835C123.99 157.623 124.12 157.465 124.3 157.359C124.479 157.253 124.697 157.201 124.953 157.201ZM125.028 157.726C124.882 157.726 124.768 157.772 124.687 157.865C124.606 157.957 124.57 158.101 124.579 158.296H125.624C125.6 158.134 125.536 157.998 125.435 157.889C125.337 157.78 125.202 157.726 125.028 157.726Z" fill="black"/>
<path d="M128.333 157.201C128.626 157.201 128.871 157.28 129.069 157.438C129.267 157.594 129.388 157.845 129.435 158.192L129.67 159.956H128.925L128.714 158.375C128.688 158.18 128.634 158.035 128.551 157.939C128.468 157.84 128.35 157.79 128.196 157.79C127.97 157.79 127.825 157.868 127.762 158.023C127.699 158.175 127.687 158.395 127.725 158.682L127.895 159.956H127.15L126.789 157.25H127.359L127.505 157.597H127.545C127.614 157.458 127.718 157.357 127.86 157.295C128.005 157.232 128.163 157.201 128.333 157.201Z" fill="black"/>
<path d="M131.514 159.416C131.597 159.416 131.677 159.409 131.751 159.396C131.826 159.38 131.9 159.358 131.973 159.332L132.046 159.882C131.971 159.918 131.875 159.948 131.758 159.971C131.644 159.994 131.518 160.006 131.378 160.006C131.214 160.006 131.064 159.979 130.927 159.926C130.793 159.874 130.68 159.783 130.586 159.654C130.495 159.525 130.434 159.343 130.403 159.109L130.229 157.805H129.874L129.833 157.493L130.21 157.245L130.349 156.675H130.824L130.9 157.25H131.665L131.739 157.805H130.974L131.148 159.109C131.162 159.211 131.202 159.289 131.269 159.342C131.336 159.391 131.417 159.416 131.514 159.416Z" fill="black"/>
<path d="M134.648 159.956H133.903L133.401 156.189H134.146L134.648 159.956Z" fill="black"/>
<path d="M135.299 156.189C135.409 156.189 135.508 156.216 135.595 156.269C135.681 156.318 135.734 156.413 135.752 156.551C135.77 156.687 135.743 156.781 135.67 156.834C135.597 156.887 135.506 156.913 135.396 156.913C135.282 156.913 135.182 156.887 135.095 156.834C135.011 156.781 134.96 156.687 134.942 156.551C134.924 156.413 134.95 156.318 135.02 156.269C135.093 156.216 135.186 156.189 135.299 156.189ZM135.811 157.25L136.171 159.956H135.426L135.066 157.25H135.811Z" fill="black"/>
<path d="M138.132 157.201C138.426 157.201 138.671 157.28 138.869 157.438C139.066 157.594 139.188 157.845 139.235 158.192L139.47 159.956H138.725L138.514 158.375C138.488 158.18 138.434 158.035 138.351 157.939C138.268 157.84 138.149 157.79 137.996 157.79C137.769 157.79 137.625 157.868 137.562 158.023C137.499 158.175 137.487 158.395 137.525 158.682L137.695 159.956H136.95L136.589 157.25H137.159L137.305 157.597H137.345C137.413 157.458 137.518 157.357 137.66 157.295C137.805 157.232 137.962 157.201 138.132 157.201Z" fill="black"/>
<path d="M140.479 156.189L140.703 157.875C140.717 157.977 140.726 158.079 140.729 158.182C140.736 158.281 140.741 158.382 140.745 158.484H140.755C140.795 158.415 140.838 158.345 140.882 158.276C140.926 158.207 140.974 158.139 141.025 158.073L141.68 157.25H142.52L141.592 158.425L142.946 159.956H142.086L141.155 158.861L140.869 159.114L140.981 159.956H140.236L139.734 156.189H140.479Z" fill="black"/>
<path d="M145.134 159.153C145.171 159.427 145.101 159.639 144.924 159.788C144.75 159.933 144.47 160.006 144.083 160.006C143.893 160.006 143.728 159.992 143.588 159.966C143.448 159.943 143.306 159.903 143.162 159.847L143.081 159.238C143.236 159.304 143.402 159.358 143.577 159.401C143.753 159.444 143.906 159.465 144.036 159.465C144.179 159.465 144.28 159.444 144.337 159.401C144.395 159.358 144.419 159.302 144.41 159.233C144.404 159.186 144.385 159.145 144.353 159.109C144.325 159.072 144.266 159.031 144.177 158.985C144.087 158.938 143.95 158.879 143.763 158.806C143.58 158.734 143.429 158.663 143.31 158.593C143.193 158.521 143.102 158.435 143.035 158.335C142.968 158.233 142.925 158.106 142.905 157.954C142.871 157.703 142.944 157.514 143.124 157.389C143.304 157.263 143.557 157.201 143.884 157.201C144.054 157.201 144.218 157.217 144.376 157.25C144.533 157.283 144.699 157.338 144.872 157.414L144.718 157.944C144.577 157.888 144.445 157.842 144.32 157.805C144.194 157.766 144.07 157.746 143.947 157.746C143.727 157.746 143.625 157.805 143.641 157.924C143.646 157.967 143.665 158.007 143.696 158.043C143.731 158.076 143.791 158.112 143.876 158.152C143.965 158.192 144.093 158.245 144.262 158.311C144.427 158.373 144.571 158.44 144.694 158.509C144.816 158.575 144.914 158.659 144.987 158.762C145.064 158.864 145.113 158.995 145.134 159.153Z" fill="black"/>
<path d="M130.883 63.2474L130.463 62.0442C130.327 61.7014 130.099 61.4027 129.805 61.1806C129.51 60.9584 129.161 60.8215 128.794 60.7846L117.407 59.3152C117.124 59.2611 116.831 59.3211 116.592 59.4823C116.353 59.6435 116.188 59.8926 116.132 60.1754L115.983 61.3274L106.911 60.16C106.76 60.1284 106.604 60.1312 106.454 60.1683C106.305 60.2054 106.165 60.2758 106.047 60.3742C105.928 60.4727 105.833 60.5966 105.769 60.7368C105.705 60.877 105.674 61.0299 105.677 61.184L108.908 94.5357L170.348 102.456L181.929 71.0144C181.971 70.8665 181.979 70.7111 181.952 70.5598C181.926 70.4084 181.865 70.265 181.776 70.1401C181.686 70.0152 181.57 69.912 181.435 69.8383C181.3 69.7645 181.151 69.722 180.997 69.7139L130.883 63.2474Z" fill="white"/>
<mask id="mask7_21_8414" style="mask-type:luminance" maskUnits="userSpaceOnUse" x="105" y="59" width="77" height="44">
<path d="M130.883 63.2474L130.463 62.0442C130.327 61.7014 130.099 61.4027 129.805 61.1806C129.51 60.9584 129.161 60.8215 128.794 60.7846L117.407 59.3152C117.124 59.2611 116.831 59.3211 116.592 59.4823C116.353 59.6435 116.188 59.8926 116.132 60.1754L115.983 61.3274L106.911 60.16C106.76 60.1284 106.604 60.1312 106.454 60.1683C106.305 60.2054 106.165 60.2758 106.047 60.3742C105.928 60.4727 105.833 60.5966 105.769 60.7368C105.705 60.877 105.674 61.0299 105.677 61.184L108.908 94.5357L170.348 102.456L181.929 71.0144C181.971 70.8665 181.979 70.7111 181.952 70.5598C181.926 70.4084 181.865 70.265 181.776 70.1401C181.686 70.0152 181.57 69.912 181.435 69.8383C181.3 69.7645 181.151 69.722 180.997 69.7139L130.883 63.2474Z" fill="white"/>
</mask>
<g mask="url(#mask7_21_8414)">
<path opacity="0.4" d="M130.883 63.2474L130.463 62.0442C130.327 61.7014 130.099 61.4027 129.805 61.1806C129.51 60.9584 129.161 60.8215 128.794 60.7846L117.407 59.3152C117.124 59.2611 116.831 59.3211 116.592 59.4823C116.353 59.6435 116.188 59.8926 116.132 60.1754L115.983 61.3274L106.911 60.16C106.76 60.1284 106.604 60.1312 106.454 60.1683C106.305 60.2054 106.165 60.2758 106.047 60.3742C105.928 60.4727 105.833 60.5966 105.769 60.7368C105.705 60.877 105.674 61.0299 105.677 61.184L108.908 94.5357L170.348 102.456L181.929 71.0144C181.971 70.8665 181.979 70.7111 181.952 70.5598C181.926 70.4084 181.865 70.265 181.776 70.1401C181.686 70.0152 181.57 69.912 181.435 69.8383C181.3 69.7645 181.151 69.722 180.997 69.7139L130.883 63.2474Z" fill="#D5D9D9"/>
</g>
<path d="M130.883 63.2474L130.463 62.0442C130.327 61.7014 130.099 61.4027 129.805 61.1806C129.51 60.9584 129.161 60.8215 128.794 60.7846L117.407 59.3152C117.124 59.2611 116.831 59.3211 116.592 59.4823C116.353 59.6435 116.188 59.8926 116.132 60.1754L115.983 61.3274L106.911 60.16C106.76 60.1284 106.604 60.1312 106.454 60.1683C106.305 60.2054 106.165 60.2758 106.047 60.3742C105.928 60.4727 105.833 60.5966 105.769 60.7368C105.705 60.877 105.674 61.0299 105.677 61.184L108.908 94.5357L170.348 102.456L181.929 71.0144C181.971 70.8665 181.979 70.7111 181.952 70.5598C181.926 70.4084 181.865 70.265 181.776 70.1401C181.686 70.0152 181.57 69.912 181.435 69.8383C181.3 69.7645 181.151 69.722 180.997 69.7139L130.883 63.2474Z" stroke="#263238" stroke-linecap="round" stroke-linejoin="round"/>
<path d="M182.518 72.9037L172.032 101.376L171.223 103.567C171.034 104.004 170.703 104.365 170.285 104.591C169.866 104.818 169.383 104.897 168.914 104.817L109.701 97.1776C109.227 97.136 108.78 96.9362 108.433 96.6103C108.086 96.2844 107.858 95.8513 107.786 95.3805L104.637 62.8685C104.634 62.7144 104.666 62.5615 104.73 62.4213C104.794 62.2811 104.889 62.1571 105.007 62.0587C105.126 61.9603 105.265 61.8899 105.415 61.8528C105.564 61.8157 105.72 61.8129 105.871 61.8445L156.262 68.3418L181.586 71.6032C181.739 71.6113 181.889 71.6538 182.024 71.7275C182.159 71.8013 182.275 71.9045 182.365 72.0294C182.454 72.1543 182.514 72.2977 182.541 72.4491C182.567 72.6004 182.559 72.7558 182.518 72.9037Z" fill="white"/>
<mask id="mask8_21_8414" style="mask-type:luminance" maskUnits="userSpaceOnUse" x="104" y="61" width="79" height="44">
<path d="M182.518 72.9037L172.032 101.376L171.223 103.567C171.034 104.004 170.703 104.365 170.285 104.591C169.866 104.818 169.383 104.897 168.914 104.817L109.701 97.1776C109.227 97.136 108.78 96.9362 108.433 96.6103C108.086 96.2844 107.858 95.8513 107.786 95.3805L104.637 62.8685C104.634 62.7144 104.666 62.5615 104.73 62.4213C104.794 62.2811 104.889 62.1571 105.007 62.0587C105.126 61.9603 105.265 61.8899 105.415 61.8528C105.564 61.8157 105.72 61.8129 105.871 61.8445L156.262 68.3418L181.586 71.6032C181.739 71.6113 181.889 71.6538 182.024 71.7275C182.159 71.8013 182.275 71.9045 182.365 72.0294C182.454 72.1543 182.514 72.2977 182.541 72.4491C182.567 72.6004 182.559 72.7558 182.518 72.9037Z" fill="white"/>
</mask>
<g mask="url(#mask8_21_8414)">
<path opacity="0.3" d="M182.518 72.9037L172.032 101.376C164.603 99.6199 164.321 94.9914 163.077 92.5952C161.705 89.9533 153.006 88.5504 150.574 88.1255C148.142 87.7005 146.662 85.2378 146.662 85.2378C144.471 79.0938 155.909 73.7178 155.909 73.7178C155.684 72.873 156.017 70.1031 156.257 68.352L181.581 71.6135C181.734 71.6211 181.883 71.663 182.017 71.7358C182.152 71.8087 182.268 71.9107 182.358 72.0345C182.448 72.1582 182.509 72.3005 182.536 72.4509C182.564 72.6014 182.558 72.7561 182.518 72.9037Z" fill="black" fill-opacity="0.7"/>
</g>
<path d="M182.518 72.9037L172.032 101.376L171.223 103.567C171.034 104.004 170.703 104.365 170.285 104.591C169.866 104.818 169.383 104.897 168.914 104.817L109.701 97.1776C109.227 97.136 108.78 96.9362 108.433 96.6103C108.086 96.2844 107.858 95.8513 107.786 95.3805L104.637 62.8685C104.634 62.7144 104.666 62.5615 104.73 62.4213C104.794 62.2811 104.889 62.1571 105.007 62.0587C105.126 61.9603 105.265 61.8899 105.415 61.8528C105.564 61.8157 105.72 61.8129 105.871 61.8445L156.262 68.3418L181.586 71.6032C181.739 71.6113 181.889 71.6538 182.024 71.7275C182.159 71.8013 182.275 71.9045 182.365 72.0294C182.454 72.1543 182.514 72.2977 182.541 72.4491C182.567 72.6004 182.559 72.7558 182.518 72.9037Z" stroke="#263238" stroke-linecap="round" stroke-linejoin="round"/>
<path d="M115.773 71.6288L116.582 91.7504L123.873 92.6925L124.733 72.6426L115.773 71.6288Z" fill="#D5D9D9" stroke="#263238" stroke-linecap="round" stroke-linejoin="round"/>
<path d="M120.223 90.2707C120.315 89.9149 120.332 89.5435 120.271 89.1808C120.21 88.8182 120.073 88.4725 119.869 88.1664C119.455 87.5584 118.957 87.012 118.39 86.5434C119.236 87.0285 120.171 87.3384 121.139 87.4547C121.139 86.4051 120.115 85.6781 119.24 85.1251C119.44 85.0473 119.655 85.0152 119.87 85.0311C120.084 85.0471 120.292 85.1107 120.479 85.2173C120.492 85.0545 120.465 84.8911 120.402 84.7406C120.339 84.59 120.24 84.4568 120.115 84.352C120.228 84.4493 120.402 84.2957 120.397 84.1523C120.369 84.0085 120.308 83.8733 120.218 83.7581C120.08 83.448 120.025 83.1075 120.059 82.7699C120.059 81.5667 120.095 80.3584 120.11 79.1552C120.127 79.2653 120.176 79.3679 120.251 79.4507C120.325 79.5334 120.422 79.5926 120.53 79.6211C120.53 79.145 120.474 78.6688 120.428 78.1927C120.315 76.9895 120.202 75.7811 120.084 74.5779" stroke="#263238" stroke-linecap="round" stroke-linejoin="round"/>
<path d="M236.032 137.052C236.032 137.052 194.714 100.086 192.082 97.7562C189.45 95.4266 187.525 95.529 186.107 94.1107C184.689 92.6925 183.977 91.6838 178.207 91.7811C172.436 91.8784 164.736 88.745 163.016 87.6288C161.295 86.5126 158.863 87.3267 157.24 86.697C155.617 86.0672 151.47 86.6202 148.936 86.697C146.401 86.7738 146.202 84.1882 147.215 81.2493C148.229 78.3104 155.919 76.4928 156.943 77.097C157.967 77.7011 162.007 75.9859 162.007 75.9859C161.398 73.856 161.603 68.6899 161.603 68.6899C161.603 68.6899 157.348 66.8672 155.73 66.263C154.483 65.8871 153.177 65.7498 151.88 65.8586C151.88 65.8586 152.392 63.5341 153.196 62.6688C153.999 61.8035 157.855 60.9946 161.603 58.3629C165.35 55.7312 167.68 55.1219 168.259 55.3216C168.837 55.5213 173.02 56.7398 174.136 56.7398C175.252 56.7398 176.87 55.7158 178.488 56.0333C180.106 56.3507 183.045 58.8698 184.361 59.1718C185.677 59.4739 186.081 59.7504 187.807 59.7504C188.564 59.7504 191.657 62.0083 191.657 62.0083C192.952 62.2556 194.211 62.6632 195.405 63.2218C197.325 64.1331 199.352 68.4902 200.264 69.9085C201.175 71.3267 201.288 74.7674 201.288 74.7674C201.288 74.7674 203.72 76.0832 204.631 77.9059C205.542 79.7286 239.104 97.7562 239.104 97.7562C239.104 97.7562 244.393 118.487 236.032 137.052Z" fill="white"/>
<path opacity="0.4" d="M206.612 110.72C199.209 104.095 193.065 98.6061 192.102 97.7562C189.466 95.4266 187.546 95.529 186.127 94.1107C184.709 92.6925 183.997 91.6838 178.227 91.7811C172.457 91.8784 164.756 88.745 163.036 87.6288C161.316 86.5126 158.884 87.3267 157.261 86.697C155.638 86.0672 151.491 86.6202 148.956 86.697C146.422 86.7738 146.222 84.1882 147.236 81.2493C148.25 78.3104 155.94 76.4928 156.964 77.097C157.988 77.7011 162.028 75.9859 162.028 75.9859C161.418 73.856 161.623 68.6899 161.623 68.6899C161.623 68.6899 157.368 66.8672 155.75 66.263C154.504 65.8871 153.198 65.7498 151.9 65.8586C151.9 65.8586 152.412 63.5341 153.216 62.6688C154.02 61.8035 157.875 60.9946 161.623 58.3629C165.371 55.7312 167.7 55.1219 168.279 55.3216C168.858 55.5213 173.041 56.7398 174.157 56.7398C175.002 56.7398 176.143 56.1562 177.357 56.0077C176.374 56.5555 175.693 57.6 175.877 58.1581C176.169 59.0387 176.993 61.2813 177.039 61.4246C176.819 61.2096 171.51 55.9667 168.079 56.2381C165.115 56.4685 162.104 61.4605 162.611 65.1264C163.118 68.7923 161.889 68.7923 162.555 71.5264C163.22 74.2605 163.825 78.1107 162.811 79.6314C161.797 81.152 159.775 78.4486 159.775 78.4486C159.015 78.8654 158.379 79.4746 157.93 80.2152C157.48 80.9557 157.234 81.8015 157.215 82.6675C157.215 85.6064 160.287 85.8061 162.099 86.1133C163.912 86.4205 170.598 90.0813 175.165 90.2758L179.732 90.4653C179.732 90.4653 177.096 86.8813 178.196 86.697C179.297 86.5126 182.651 86.8403 184.852 90.281C187.054 93.7216 188.744 94.4845 192.824 96.1741C195.236 97.1418 201.595 104.008 206.612 110.72Z" fill="#D5D9D9"/>
<path opacity="0.4" d="M226.847 91.0848C226.227 90.793 206.367 81.4336 205.368 80.0359C204.37 78.6381 203.141 78.295 202.025 76.887C200.909 75.479 197.166 74.5677 196.659 72.6426C196.152 70.7175 195.543 64.8755 194.611 64.1536C193.845 63.5916 193.033 63.0949 192.184 62.6688L193.69 66.4218C193.69 66.4218 190.259 61.5629 189.445 61.4298C188.631 61.2967 190.326 64.9626 190.177 64.8499C190.029 64.7373 186.312 61.2659 183.199 58.6342C183.568 58.8572 183.966 59.0294 184.381 59.1462C185.702 59.4483 186.102 59.7248 187.827 59.7248C188.585 59.7248 191.677 61.9827 191.677 61.9827C192.972 62.23 194.231 62.6376 195.425 63.1962C197.345 64.1075 199.373 68.4647 200.284 69.8829C201.196 71.3011 201.308 74.7418 201.308 74.7418C201.308 74.7418 203.74 76.0576 204.652 77.8803C205.199 78.9862 217.175 85.7498 226.847 91.0848Z" fill="#D5D9D9"/>
<path d="M236.032 137.052C236.032 137.052 194.714 100.086 192.082 97.7562C189.45 95.4266 187.525 95.529 186.107 94.1107C184.689 92.6925 183.977 91.6838 178.207 91.7811C172.436 91.8784 164.736 88.745 163.016 87.6288C161.295 86.5126 158.863 87.3267 157.24 86.697C155.617 86.0672 151.47 86.6202 148.936 86.697C146.401 86.7738 146.202 84.1882 147.215 81.2493C148.229 78.3104 155.919 76.4928 156.943 77.097C157.967 77.7011 162.007 75.9859 162.007 75.9859C161.398 73.856 161.603 68.6899 161.603 68.6899C161.603 68.6899 157.348 66.8672 155.73 66.263C154.483 65.8871 153.177 65.7498 151.88 65.8586C151.88 65.8586 152.392 63.5341 153.196 62.6688C153.999 61.8035 157.855 60.9946 161.603 58.3629C165.35 55.7312 167.68 55.1219 168.259 55.3216C168.837 55.5213 173.02 56.7398 174.136 56.7398C175.252 56.7398 176.87 55.7158 178.488 56.0333C180.106 56.3507 183.045 58.8698 184.361 59.1718C185.677 59.4739 186.081 59.7504 187.807 59.7504C188.564 59.7504 191.657 62.0083 191.657 62.0083C192.952 62.2556 194.211 62.6632 195.405 63.2218C197.325 64.1331 199.352 68.4902 200.264 69.9085C201.175 71.3267 201.288 74.7674 201.288 74.7674C201.288 74.7674 203.72 76.0832 204.631 77.9059C205.542 79.7286 239.104 97.7562 239.104 97.7562" stroke="#263238" stroke-linecap="round" stroke-linejoin="round"/>
<path d="M161.618 68.6899C161.618 68.6899 162.089 64.7066 161.618 64.1536" stroke="#263238" stroke-linecap="round" stroke-linejoin="round"/>
<path d="M174.106 58.9363C174.106 58.9363 180.997 64.768 181.535 65.1264" stroke="#263238" stroke-linecap="round" stroke-linejoin="round"/>
<path d="M180.577 56.9754C181.524 57.5642 189.164 64.3379 191.662 65.8893" stroke="#263238" stroke-linecap="round" stroke-linejoin="round"/>
<path d="M201.318 74.752C200.576 74.3168 198.615 73.3696 198.415 72.6272" stroke="#263238" stroke-linecap="round" stroke-linejoin="round"/>
<path d="M162.022 75.9859C162.022 75.9859 162.427 77.6397 162.022 78.4487" stroke="#263238" stroke-linecap="round" stroke-linejoin="round"/>
<path d="M155.945 81.2186C155.945 81.2186 155.003 83.8502 157.23 85.6064" stroke="#263238" stroke-linecap="round" stroke-linejoin="round"/>
<path d="M165.13 56.2381C164.42 56.9822 163.949 57.922 163.779 58.9363" stroke="#263238" stroke-linecap="round" stroke-linejoin="round"/>
<path d="M154.624 64.1536C154.848 64.7634 155.198 65.3191 155.651 65.7841C156.105 66.2491 156.652 66.613 157.256 66.8518" stroke="#263238" stroke-linecap="round" stroke-linejoin="round"/>
<path d="M184.909 92.9843C183.592 91.0755 182.145 89.2603 180.577 87.552" stroke="#263238" stroke-linecap="round" stroke-linejoin="round"/>
<path d="M43.2589 227.999C43.2589 227.999 76.3341 206.259 78.3565 203.453C79.3946 201.94 80.6194 200.564 82.0019 199.357C82.0019 199.357 82.9491 191.252 85.3811 187.069C87.8131 182.886 88.7552 179.773 89.8355 177.613C90.9158 175.452 96.0461 173.834 97.5155 173.005C98.985 172.175 101.571 170.573 103.055 170.573C104.189 170.663 105.292 170.986 106.296 171.52C106.296 171.52 111.293 168.96 113.587 170.573C113.587 170.573 119.26 170.844 120.607 170.706C121.953 170.568 123.986 171.52 123.986 171.52C123.986 171.52 127.36 169.093 129.654 170.035C131.948 170.977 133.043 171.382 133.105 172.733C133.166 174.085 132.536 178.673 132.536 178.673H131.41C131.41 178.673 127.631 183.593 127.227 184.576C126.822 185.559 124.667 190.961 124.667 190.961C124.667 190.961 127.498 188.8 129.275 187.182C131.052 185.564 134.139 182.456 137.38 181.647C140.621 180.838 142.915 182.646 142.915 184.576C142.915 184.576 139.136 187.587 138.307 188.534C137.477 189.481 136.033 191.908 134.405 193.654C132.777 195.4 129.024 202.752 125.757 206.259C122.491 209.766 108.349 217.329 105.093 218.409C105.093 218.409 85.3811 232.182 76.7386 243.794C76.7386 243.794 53.248 243.932 43.2589 227.999Z" fill="white"/>
<path opacity="0.4" d="M107.392 215.439C107.674 215.726 108.826 215.9 110.464 215.951C108.73 216.883 106.941 217.71 105.108 218.429C105.108 218.429 92.2163 227.436 82.7136 237.025C85.9853 231.818 92.2675 225.321 94.6022 223.969C97.8534 222.075 104.1 215.962 104.1 215.962C104.1 215.962 106.455 214.492 107.392 215.439Z" fill="#D5D9D9"/>
<path opacity="0.4" d="M129.265 187.218C130.647 185.859 132.129 184.604 133.699 183.465C132.032 185.294 130.676 187.383 129.684 189.65C129.06 193.044 123.203 200.043 123.203 200.043C125.092 193.971 123.469 192.753 124.001 190.996C124.534 189.24 124.877 184.934 124.877 184.934C124.877 184.934 125.901 183.168 126.981 182.763C128.061 182.359 130.898 175.201 131.425 174.234C131.953 173.266 127.928 171.674 126.848 171.556C125.768 171.438 125.363 173.307 123.203 174.234C121.042 175.16 118.328 176.86 117.33 177.853C116.332 178.847 114.596 183.24 114.483 183.511C114.56 183.204 115.784 178.273 116.101 177.29C116.367 176.471 118.963 174.961 119.926 174.423C118.328 175.165 117.432 173.757 116.101 172.477C114.673 171.105 112.543 170.67 110.213 171.382C107.884 172.093 106.322 173.85 106.312 173.716C106.301 173.583 102.83 172.974 101.704 173.307C100.577 173.64 97.9763 174.817 97.9763 174.817C97.9763 174.817 95.6109 173.455 91.7248 177.29C90.1018 178.893 84.7002 191.114 85.5091 189.65C86.3181 188.186 89.8458 183.813 90.0659 183.542C89.8304 184.115 82.6675 200.192 81.2032 201.216C79.7389 202.24 79.3139 205.865 74.0352 208.84C69.0278 211.661 49.7152 223.8 47.8003 225.003C56.96 218.916 76.8 205.609 78.336 203.453C79.3741 201.94 80.5989 200.564 81.9814 199.357C81.9814 199.357 82.9286 191.252 85.3606 187.069C87.7926 182.886 88.7347 179.773 89.815 177.613C90.8954 175.452 96.0256 173.834 97.495 173.005C98.9645 172.175 101.55 170.573 103.035 170.573C104.169 170.663 105.272 170.986 106.276 171.52C106.276 171.52 111.273 168.96 113.567 170.573C113.567 170.573 119.24 170.844 120.586 170.706C121.933 170.568 123.965 171.52 123.965 171.52C123.965 171.52 127.34 169.093 129.633 170.035C131.927 170.977 133.023 171.382 133.084 172.733C133.146 174.085 132.516 178.673 132.516 178.673H131.389C131.389 178.673 127.611 183.593 127.206 184.576C126.802 185.559 124.646 190.961 124.646 190.961C124.646 190.961 127.488 188.836 129.265 187.218Z" fill="#D5D9D9"/>
<path opacity="0.4" d="M142.904 184.612C142.904 184.612 139.126 187.622 138.296 188.57C137.81 189.138 137.088 190.244 136.248 191.416C136.67 190.048 136.96 188.642 137.114 187.218C137.91 186.056 139.04 185.164 140.355 184.658C141.185 184.413 142.057 184.347 142.915 184.463C142.916 184.513 142.913 184.563 142.904 184.612Z" fill="#D5D9D9"/>
<path d="M43.2589 227.999C43.2589 227.999 76.3341 206.259 78.3565 203.453C79.3946 201.94 80.6194 200.564 82.0019 199.357C82.0019 199.357 82.9491 191.252 85.3811 187.069C87.8131 182.886 88.7552 179.773 89.8355 177.613C90.9158 175.452 96.0461 173.834 97.5155 173.005C98.985 172.175 101.571 170.573 103.055 170.573C104.189 170.663 105.292 170.986 106.296 171.52C106.296 171.52 111.293 168.96 113.587 170.573C113.587 170.573 119.26 170.844 120.607 170.706C121.953 170.568 123.986 171.52 123.986 171.52C123.986 171.52 127.36 169.093 129.654 170.035C131.948 170.977 133.043 171.382 133.105 172.733C133.166 174.085 132.536 178.673 132.536 178.673H131.41C131.41 178.673 127.631 183.593 127.227 184.576C126.822 185.559 124.667 190.961 124.667 190.961C124.667 190.961 127.498 188.8 129.275 187.182C131.052 185.564 134.139 182.456 137.38 181.647C140.621 180.838 142.915 182.646 142.915 184.576C142.915 184.576 139.136 187.587 138.307 188.534C137.477 189.481 136.033 191.908 134.405 193.654C132.777 195.4 129.024 202.752 125.757 206.259C122.491 209.766 108.349 217.329 105.093 218.409C105.093 218.409 85.3811 232.182 76.7386 243.794" stroke="#263238" stroke-linecap="round" stroke-linejoin="round"/>
<path d="M124.677 190.976C124.677 190.976 125.486 195.031 123.863 198.656" stroke="#263238" stroke-linecap="round" stroke-linejoin="round"/>
<path d="M119.409 174.659C121.106 173.886 122.663 172.838 124.017 171.556" stroke="#263238" stroke-linecap="round" stroke-linejoin="round"/>
<path d="M131.425 178.688C131.861 177.795 132.158 176.84 132.306 175.857" stroke="#263238" stroke-linecap="round" stroke-linejoin="round"/>
<path d="M113.603 170.609C111.96 170.572 110.358 171.116 109.076 172.145" stroke="#263238" stroke-linecap="round" stroke-linejoin="round"/>
<path d="M106.312 171.556C106.312 171.556 102.262 173.445 100.844 173.445C99.4253 173.445 97.1264 175.334 97.1264 175.877" stroke="#263238" stroke-linecap="round" stroke-linejoin="round"/>
<path d="M82.0019 199.373C83.1981 197.534 84.1741 195.561 84.9101 193.495" stroke="#263238" stroke-linecap="round" stroke-linejoin="round"/>
<path d="M120.284 175.877C120.284 175.877 117.724 176.548 116.844 178.708C115.963 180.869 111.913 188.365 111.913 188.365" stroke="#263238" stroke-linecap="round" stroke-linejoin="round"/>
<path d="M107.392 174.659C106.849 175.944 100.772 187.218 100.772 187.218" stroke="#263238" stroke-linecap="round" stroke-linejoin="round"/>
</svg>