<svg width="18" height="16" viewBox="0 0 18 16" fill="none" xmlns="http://www.w3.org/2000/svg">
<path fill-rule="evenodd" clip-rule="evenodd" d="M5.40297 11.6241C5.6048 11.1616 5.93716 10.7681 6.35931 10.4917C6.78146 10.2154 7.27507 10.0681 7.77965 10.0681H10.2204C10.725 10.0681 11.2186 10.2154 11.6408 10.4917C12.0629 10.7681 12.3953 11.1616 12.5971 11.6241C12.6456 11.7354 12.7364 11.8228 12.8494 11.8671C12.9624 11.9115 13.0884 11.9091 13.1997 11.8605C13.3109 11.812 13.3983 11.7212 13.4427 11.6082C13.487 11.4952 13.4847 11.3692 13.4361 11.258C13.1632 10.6322 12.7135 10.0997 12.1423 9.72572C11.5711 9.35177 10.9031 9.15267 10.2204 9.15283H7.77965C7.09698 9.15291 6.42914 9.3521 5.85797 9.72602C5.2868 10.0999 4.8371 10.6323 4.56396 11.258C4.53992 11.3131 4.52696 11.3724 4.52584 11.4325C4.52471 11.4926 4.53543 11.5523 4.55739 11.6082C4.57934 11.6642 4.6121 11.7153 4.6538 11.7586C4.6955 11.8019 4.74532 11.8365 4.80041 11.8605C4.8555 11.8846 4.91478 11.8975 4.97488 11.8987C5.03497 11.8998 5.0947 11.8891 5.15066 11.8671C5.20661 11.8452 5.25769 11.8124 5.30098 11.7707C5.34427 11.729 5.37893 11.6792 5.40297 11.6241Z" fill="#001F5F"/>
<path fill-rule="evenodd" clip-rule="evenodd" d="M9.00004 3.05095C7.0633 3.05095 5.49146 4.6228 5.49146 6.55954C5.49146 8.49627 7.0633 10.0681 9.00004 10.0681C10.9368 10.0681 12.5086 8.49627 12.5086 6.55954C12.5086 4.6228 10.9368 3.05095 9.00004 3.05095ZM9.00004 3.96623C10.4315 3.96623 11.5933 5.12803 11.5933 6.55954C11.5933 7.99104 10.4315 9.15284 9.00004 9.15284C7.56854 9.15284 6.40674 7.99104 6.40674 6.55954C6.40674 5.12803 7.56854 3.96623 9.00004 3.96623Z" fill="#001F5F"/>
<path fill-rule="evenodd" clip-rule="evenodd" d="M15.8646 7.77991C15.8646 11.5686 12.7887 14.6445 9 14.6445C6.01313 14.6445 3.46986 12.7334 2.52651 10.0681C2.48463 9.95558 2.4002 9.86401 2.29142 9.81316C2.18265 9.76231 2.05824 9.75624 1.94504 9.79627C1.83183 9.8363 1.73889 9.91922 1.68626 10.0271C1.63363 10.1351 1.62553 10.2594 1.6637 10.3732C2.73275 13.3936 5.61528 15.5598 9 15.5598C13.2939 15.5598 16.7799 12.0738 16.7799 7.77991C16.7799 7.65853 16.7317 7.54213 16.6459 7.45631C16.56 7.37048 16.4436 7.32227 16.3223 7.32227C16.2009 7.32227 16.0845 7.37048 15.9987 7.45631C15.9128 7.54213 15.8646 7.65853 15.8646 7.77991ZM2.13538 7.77991C2.13538 3.99125 5.21134 0.915283 9 0.915283C11.9869 0.915283 14.5301 2.82639 15.4735 5.4917C15.5154 5.60423 15.5998 5.6958 15.7086 5.74666C15.8174 5.79751 15.9418 5.80358 16.055 5.76354C16.1682 5.72351 16.2611 5.64059 16.3137 5.53267C16.3664 5.42474 16.3745 5.30045 16.3363 5.1866C15.2673 2.16617 12.3847 0 9 0C4.7061 0 1.22009 3.48601 1.22009 7.77991C1.22009 7.90128 1.26831 8.01768 1.35413 8.10351C1.43996 8.18933 1.55636 8.23755 1.67773 8.23755C1.79911 8.23755 1.91551 8.18933 2.00134 8.10351C2.08716 8.01768 2.13538 7.90128 2.13538 7.77991Z" fill="#001F5F"/>
<path fill-rule="evenodd" clip-rule="evenodd" d="M0.133957 6.88293L1.35433 8.10331C1.39678 8.14582 1.44719 8.17954 1.50269 8.20255C1.55818 8.22556 1.61766 8.2374 1.67773 8.2374C1.73781 8.2374 1.79729 8.22556 1.85278 8.20255C1.90828 8.17954 1.95869 8.14582 2.00113 8.10331L3.22151 6.88293C3.26398 6.84046 3.29767 6.79004 3.32065 6.73455C3.34364 6.67906 3.35547 6.61959 3.35547 6.55953C3.35547 6.49947 3.34364 6.44 3.32065 6.38451C3.29767 6.32902 3.26398 6.2786 3.22151 6.23613C3.17904 6.19366 3.12862 6.15997 3.07313 6.13699C3.01765 6.114 2.95817 6.10217 2.89811 6.10217C2.83805 6.10217 2.77858 6.114 2.72309 6.13699C2.6676 6.15997 2.61718 6.19366 2.57471 6.23613L1.67773 7.1325L0.780757 6.23613C0.694986 6.15036 0.578655 6.10217 0.457357 6.10217C0.336058 6.10217 0.219728 6.15036 0.133957 6.23613C0.0481857 6.3219 0 6.43823 0 6.55953C0 6.68083 0.0481857 6.79716 0.133957 6.88293ZM15.4253 9.32369L16.3223 8.42732L17.2192 9.32369C17.2617 9.36616 17.3121 9.39984 17.3676 9.42283C17.4231 9.44581 17.4826 9.45764 17.5426 9.45764C17.6027 9.45764 17.6622 9.44581 17.7177 9.42283C17.7732 9.39984 17.8236 9.36616 17.866 9.32369C17.9085 9.28122 17.9422 9.2308 17.9652 9.17531C17.9882 9.11982 18 9.06035 18 9.00029C18 8.94022 17.9882 8.88075 17.9652 8.82526C17.9422 8.76977 17.9085 8.71935 17.866 8.67688L16.6457 7.45651C16.6032 7.414 16.5528 7.38028 16.4973 7.35727C16.4418 7.33426 16.3823 7.32242 16.3223 7.32242C16.2622 7.32242 16.2027 7.33426 16.1472 7.35727C16.0917 7.38028 16.0413 7.414 15.9989 7.45651L14.7785 8.67688C14.736 8.71935 14.7023 8.76977 14.6793 8.82526C14.6564 8.88075 14.6445 8.94022 14.6445 9.00029C14.6445 9.06035 14.6564 9.11982 14.6793 9.17531C14.7023 9.2308 14.736 9.28122 14.7785 9.32369C14.821 9.36616 14.8714 9.39984 14.9269 9.42283C14.9824 9.44581 15.0418 9.45764 15.1019 9.45764C15.162 9.45764 15.2214 9.44581 15.2769 9.42283C15.3324 9.39984 15.3828 9.36616 15.4253 9.32369Z" fill="#001F5F"/>
</svg>