<svg width="90" height="90" viewBox="0 0 90 90" fill="none" xmlns="http://www.w3.org/2000/svg">
<g opacity="0.8" clip-path="url(#clip0_192_6629)">
<path d="M80.2721 0H67.6758C66.2196 0 65.0391 1.18055 65.0391 2.63672C65.0391 4.09289 66.2196 5.27344 67.6758 5.27344H80.2721C82.7283 5.27344 84.7266 7.27172 84.7266 9.72773V22.3242C84.7266 23.7804 85.9071 24.9609 87.3633 24.9609C88.8195 24.9609 90 23.7804 90 22.3242V9.72773C90 4.36395 85.6361 0 80.2721 0Z" fill="url(#paint0_linear_192_6629)"/>
<path d="M2.63672 24.9609C4.09289 24.9609 5.27344 23.7804 5.27344 22.3242V9.72773C5.27344 7.27172 7.27172 5.27344 9.72791 5.27344H22.3242C23.7804 5.27344 24.9609 4.09289 24.9609 2.63672C24.9609 1.18055 23.7804 0 22.3242 0H9.72791C4.36395 0 0 4.36395 0 9.72773V22.3242C0 23.7804 1.18055 24.9609 2.63672 24.9609Z" fill="url(#paint1_linear_192_6629)"/>
<path d="M22.3242 84.7266H9.72791C7.27172 84.7266 5.27344 82.7283 5.27344 80.2723V67.6758C5.27344 66.2196 4.09289 65.0391 2.63672 65.0391C1.18055 65.0391 0 66.2196 0 67.6758V80.2723C0 85.6361 4.36395 90 9.72791 90H22.3242C23.7804 90 24.9609 88.8195 24.9609 87.3633C24.9609 85.9071 23.7804 84.7266 22.3242 84.7266Z" fill="url(#paint2_linear_192_6629)"/>
<path d="M87.3633 65.0391C85.9071 65.0391 84.7266 66.2196 84.7266 67.6758V80.2723C84.7266 82.7285 82.7283 84.7266 80.2721 84.7266H67.6758C66.2196 84.7266 65.0391 85.9071 65.0391 87.3633C65.0391 88.8195 66.2196 90 67.6758 90H80.2721C85.6361 90 90 85.6361 90 80.2723V67.6758C90 66.2196 88.8195 65.0391 87.3633 65.0391Z" fill="url(#paint3_linear_192_6629)"/>
<path d="M57.6177 25.9482V30.5459C57.6177 32.4493 59.1593 33.9941 61.0588 33.9941C62.9584 33.9941 64.5 32.4493 64.5 30.5459V25.9482C64.5 24.0448 62.9584 22.5 61.0588 22.5C59.1593 22.5 57.6177 24.0448 57.6177 25.9482Z" fill="url(#paint4_linear_192_6629)"/>
<path d="M25.5 25.9482V30.5459C25.5 32.4493 27.0416 33.9941 28.9412 33.9941C30.8407 33.9941 32.3823 32.4493 32.3823 30.5459V25.9482C32.3823 24.0448 30.8407 22.5 28.9412 22.5C27.0416 22.5 25.5 24.0448 25.5 25.9482Z" fill="url(#paint5_linear_192_6629)"/>
<path d="M43.853 44.5043V32.8447C43.853 30.9413 45.3946 29.3965 47.2942 29.3965C49.1937 29.3965 50.7353 30.9413 50.7353 32.8447V46.6377C50.7353 47.9434 49.9966 49.1388 48.8312 49.7227L44.243 52.0215C42.5453 52.8721 40.4761 52.1824 39.6272 50.4767C38.7784 48.7756 39.4666 46.702 41.1689 45.8515L43.853 44.5043Z" fill="url(#paint6_linear_192_6629)"/>
<path d="M58.627 55.6951C59.251 55.0698 60.109 54.6836 61.0588 54.6836C62.9583 54.6836 64.5 56.2284 64.5 58.1318C64.5 59.0835 64.1146 59.9433 63.4906 60.5686C62.8666 61.1939 63.4906 60.5732 63.486 60.5778C53.2772 70.8075 36.7228 70.8075 26.514 60.5778C26.5094 60.5732 26.5094 60.5686 26.5094 60.5686C25.8854 59.9433 25.5 59.0835 25.5 58.1318C25.5 56.2284 27.0416 54.6836 28.9412 54.6836C29.8909 54.6836 30.7489 55.0698 31.3729 55.6951C31.9969 56.3204 31.3775 55.6951 31.3821 55.6997C38.9022 63.2352 51.0977 63.2352 58.6179 55.6997C58.6224 55.6951 58.627 55.6951 58.627 55.6951Z" fill="url(#paint7_linear_192_6629)"/>
</g>
<defs>
<linearGradient id="paint0_linear_192_6629" x1="61.9189" y1="18.9287" x2="92.3921" y2="19.3447" gradientUnits="userSpaceOnUse">
<stop stop-color="#00BCB4"/>
<stop offset="1" stop-color="#001F5F"/>
</linearGradient>
<linearGradient id="paint1_linear_192_6629" x1="-3.12012" y1="18.9287" x2="27.353" y2="19.3447" gradientUnits="userSpaceOnUse">
<stop stop-color="#00BCB4"/>
<stop offset="1" stop-color="#001F5F"/>
</linearGradient>
<linearGradient id="paint2_linear_192_6629" x1="-3.12012" y1="83.9678" x2="27.353" y2="84.3838" gradientUnits="userSpaceOnUse">
<stop stop-color="#00BCB4"/>
<stop offset="1" stop-color="#001F5F"/>
</linearGradient>
<linearGradient id="paint3_linear_192_6629" x1="61.9189" y1="83.9678" x2="92.3921" y2="84.3838" gradientUnits="userSpaceOnUse">
<stop stop-color="#00BCB4"/>
<stop offset="1" stop-color="#001F5F"/>
</linearGradient>
<linearGradient id="paint4_linear_192_6629" x1="65.8613" y1="33.228" x2="57.2964" y2="33.5513" gradientUnits="userSpaceOnUse">
<stop stop-color="#001F5F"/>
<stop offset="1" stop-color="#00BCB4"/>
</linearGradient>
<linearGradient id="paint5_linear_192_6629" x1="33.7436" y1="33.228" x2="25.1787" y2="33.5513" gradientUnits="userSpaceOnUse">
<stop stop-color="#001F5F"/>
<stop offset="1" stop-color="#00BCB4"/>
</linearGradient>
<linearGradient id="paint6_linear_192_6629" x1="53.0043" y1="50.8534" x2="38.7221" y2="51.3026" gradientUnits="userSpaceOnUse">
<stop stop-color="#001F5F"/>
<stop offset="1" stop-color="#00BCB4"/>
</linearGradient>
<linearGradient id="paint7_linear_192_6629" x1="72.2139" y1="67.3458" x2="25.1555" y2="75.8734" gradientUnits="userSpaceOnUse">
<stop stop-color="#001F5F"/>
<stop offset="1" stop-color="#00BCB4"/>
</linearGradient>
<clipPath id="clip0_192_6629">
<rect width="90" height="90" fill="white"/>
</clipPath>
</defs>
</svg>
