<svg width="90" height="90" viewBox="0 0 90 90" fill="none" xmlns="http://www.w3.org/2000/svg">
<path d="M80.2721 0H67.6758C66.2196 0 65.0391 1.18055 65.0391 2.63672C65.0391 4.09289 66.2196 5.27344 67.6758 5.27344H80.2721C82.7283 5.27344 84.7266 7.27172 84.7266 9.72773V22.3242C84.7266 23.7804 85.9071 24.9609 87.3633 24.9609C88.8195 24.9609 90 23.7804 90 22.3242V9.72773C90 4.36395 85.6361 0 80.2721 0Z" fill="url(#paint0_linear_192_6567)"/>
<path d="M2.63672 24.9609C4.09289 24.9609 5.27344 23.7804 5.27344 22.3242V9.72773C5.27344 7.27172 7.27172 5.27344 9.72791 5.27344H22.3242C23.7804 5.27344 24.9609 4.09289 24.9609 2.63672C24.9609 1.18055 23.7804 0 22.3242 0H9.72791C4.36395 0 0 4.36395 0 9.72773V22.3242C0 23.7804 1.18055 24.9609 2.63672 24.9609Z" fill="url(#paint1_linear_192_6567)"/>
<path d="M22.3242 84.7266H9.72791C7.27172 84.7266 5.27344 82.7283 5.27344 80.2723V67.6758C5.27344 66.2196 4.09289 65.0391 2.63672 65.0391C1.18055 65.0391 0 66.2196 0 67.6758V80.2723C0 85.6361 4.36395 90 9.72791 90H22.3242C23.7804 90 24.9609 88.8195 24.9609 87.3633C24.9609 85.9071 23.7804 84.7266 22.3242 84.7266Z" fill="url(#paint2_linear_192_6567)"/>
<path d="M87.3633 65.0391C85.9071 65.0391 84.7266 66.2196 84.7266 67.6758V80.2723C84.7266 82.7285 82.7283 84.7266 80.2721 84.7266H67.6758C66.2196 84.7266 65.0391 85.9071 65.0391 87.3633C65.0391 88.8195 66.2196 90 67.6758 90H80.2721C85.6361 90 90 85.6361 90 80.2723V67.6758C90 66.2196 88.8195 65.0391 87.3633 65.0391Z" fill="url(#paint3_linear_192_6567)"/>
<path d="M73.5961 17.5698C55.2944 3.99419 35.5705 3.64878 16.7319 17.3291C15.5536 18.1848 15.2922 19.8337 16.1478 21.0119C17.0033 22.19 18.6519 22.4517 19.8305 21.596C36.8544 9.23388 54.0588 9.64327 70.4543 21.805C71.6238 22.6725 73.2753 22.4278 74.1429 21.2582C75.0104 20.0887 74.7655 18.4373 73.5961 17.5698Z" fill="url(#paint4_linear_192_6567)"/>
<path d="M45 18.457C33.7985 18.457 19.398 25.9153 13.275 35.1C12.4671 36.3117 12.7946 37.9487 14.0062 38.7564C15.2181 39.5638 16.8551 39.2368 17.6627 38.025C22.739 30.4102 35.5136 23.7305 45 23.7305C54.2891 23.7305 66.9937 28.6863 72.242 37.8707C72.7288 38.7225 73.6184 39.1997 74.5337 39.1997C76.5234 39.1997 77.8356 37.0304 76.8206 35.2545C70.7757 24.6755 56.5815 18.457 45 18.457Z" fill="url(#paint5_linear_192_6567)"/>
<path d="M30.7617 61.875C30.7617 53.2485 37.1491 46.2305 45 46.2305C52.8509 46.2305 59.2383 53.2485 59.2383 61.875V64.6875C59.2383 66.1437 60.4188 67.3242 61.875 67.3242C63.3312 67.3242 64.5117 66.1437 64.5117 64.6875V61.875C64.5117 50.3408 55.7589 40.957 45 40.957C34.2411 40.957 25.4883 50.3408 25.4883 61.875C25.4883 73.0869 33.918 79.0933 37.6399 84.4696C38.1519 85.2091 38.974 85.6056 39.8102 85.6056C41.9096 85.6056 43.1944 83.2279 41.9757 81.4678C37.9477 75.6496 30.7617 70.8249 30.7617 61.875Z" fill="url(#paint6_linear_192_6567)"/>
<path d="M74.077 71.4916C82.2261 55.1943 67.735 29.707 45 29.707C28.9935 29.707 14.2383 43.2733 14.2383 60.4688C14.2383 66.7118 15.0391 71.9919 18.9475 77.4691C19.7933 78.6544 21.4399 78.9296 22.6253 78.0838C23.8106 77.2379 24.0861 75.5914 23.24 74.4059C20.4875 70.5484 19.5117 66.9013 19.5117 60.4688C19.5117 46.8909 31.4221 34.9805 45 34.9805C51.8354 34.9805 58.586 37.9953 63.5208 43.252C70.5067 50.6934 73.0171 61.8198 69.3605 69.1334C65.5539 76.7457 53.2617 74.588 53.2617 64.6875C53.2617 45.1327 33.2306 50.9813 36.817 65.327C37.17 66.7397 38.6019 67.5984 40.0143 67.2455C41.4271 66.8923 42.2861 65.4608 41.9328 64.048C41.0119 60.3635 42.7013 57.4805 45 57.4805C47.0642 57.4805 47.9883 61.1002 47.9883 64.6875C47.9883 80.1267 67.7661 84.1143 74.077 71.4916Z" fill="url(#paint7_linear_192_6567)"/>
<defs>
<linearGradient id="paint0_linear_192_6567" x1="77.5195" y1="0" x2="77.5195" y2="24.9609" gradientUnits="userSpaceOnUse">
<stop stop-color="#001F5F"/>
<stop offset="1" stop-color="#00BCB4"/>
</linearGradient>
<linearGradient id="paint1_linear_192_6567" x1="12.4805" y1="0" x2="12.4805" y2="24.9609" gradientUnits="userSpaceOnUse">
<stop stop-color="#001F5F"/>
<stop offset="1" stop-color="#00BCB4"/>
</linearGradient>
<linearGradient id="paint2_linear_192_6567" x1="12.4805" y1="65.0391" x2="12.4805" y2="90" gradientUnits="userSpaceOnUse">
<stop stop-color="#001F5F"/>
<stop offset="1" stop-color="#00BCB4"/>
</linearGradient>
<linearGradient id="paint3_linear_192_6567" x1="77.5195" y1="65.0391" x2="77.5195" y2="90" gradientUnits="userSpaceOnUse">
<stop stop-color="#001F5F"/>
<stop offset="1" stop-color="#00BCB4"/>
</linearGradient>
<linearGradient id="paint4_linear_192_6567" x1="45.1532" y1="7.22729" x2="45.1532" y2="22.3242" gradientUnits="userSpaceOnUse">
<stop stop-color="#001F5F"/>
<stop offset="1" stop-color="#00BCB4"/>
</linearGradient>
<linearGradient id="paint5_linear_192_6567" x1="45.0019" y1="18.457" x2="45.0019" y2="39.1997" gradientUnits="userSpaceOnUse">
<stop stop-color="#001F5F"/>
<stop offset="1" stop-color="#00BCB4"/>
</linearGradient>
<linearGradient id="paint6_linear_192_6567" x1="45" y1="40.957" x2="45" y2="85.6056" gradientUnits="userSpaceOnUse">
<stop stop-color="#001F5F"/>
<stop offset="1" stop-color="#00BCB4"/>
</linearGradient>
<linearGradient id="paint7_linear_192_6567" x1="45.3036" y1="29.707" x2="45.3036" y2="78.9974" gradientUnits="userSpaceOnUse">
<stop stop-color="#001F5F"/>
<stop offset="1" stop-color="#00BCB4"/>
</linearGradient>
</defs>
</svg>
