<svg width="41" height="35" viewBox="0 0 41 35" fill="none" xmlns="http://www.w3.org/2000/svg">
<path d="M10.1538 5.84979C9.43161 7.00707 8.22255 7.76795 6.87201 7.95988C6.11311 8.06773 5.35706 8.18445 4.60399 8.30994C2.49824 8.66083 1 10.5133 1 12.648V29.5C1 31.9853 3.01472 34 5.5 34H35.5C37.9853 34 40 31.9853 40 29.5V12.6481C40 10.5133 38.5018 8.66085 36.396 8.30996C35.6429 8.18447 34.8869 8.06774 34.128 7.95989C32.7775 7.76797 31.5684 7.00709 30.8462 5.84981L29.2038 3.21778C28.4468 2.00473 27.1588 1.21677 25.731 1.1401C23.9991 1.0471 22.2551 1 20.5 1C18.7449 1 17.0009 1.0471 15.269 1.1401C13.8412 1.21677 12.5532 2.00473 11.7962 3.21778L10.1538 5.84979Z" stroke="#001F5F" stroke-width="1.5" stroke-linecap="round" stroke-linejoin="round"/>
<path d="M29.5 19C29.5 23.9706 25.4706 28 20.5 28C15.5294 28 11.5 23.9706 11.5 19C11.5 14.0294 15.5294 10 20.5 10C25.4706 10 29.5 14.0294 29.5 19Z" stroke="#001F5F" stroke-width="1.5" stroke-linecap="round" stroke-linejoin="round"/>
<path d="M34 14.5H34.015V14.515H34V14.5Z" stroke="#001F5F" stroke-width="1.5" stroke-linecap="round" stroke-linejoin="round"/>
</svg>