<svg width="48" height="48" viewBox="0 0 48 48" fill="none" xmlns="http://www.w3.org/2000/svg">
<path fill-rule="evenodd" clip-rule="evenodd" d="M24 2.40002C18.0353 2.40002 13.2 7.23535 13.2 13.2V21.6H12C9.34898 21.6 7.19995 23.7491 7.19995 26.4V40.8C7.19995 43.451 9.34898 45.6 12 45.6H36C38.6509 45.6 40.7999 43.451 40.7999 40.8V26.4C40.7999 23.7491 38.6509 21.6 36 21.6H34.7999V13.2C34.7999 7.23535 29.9646 2.40002 24 2.40002ZM31.2 21.6V13.2C31.2 9.22357 27.9764 6.00002 24 6.00002C20.0235 6.00002 16.8 9.22357 16.8 13.2V21.6H31.2Z" fill="url(#paint0_linear_1958_51376)"/>
<path fill-rule="evenodd" clip-rule="evenodd" d="M22.3999 31.6C22.3999 29.3908 24.1907 27.6 26.3999 27.6C28.609 27.6 30.3999 29.3908 30.3999 31.6C30.3999 33.8091 28.609 35.6 26.3999 35.6C26.014 35.6 25.6409 35.5453 25.2878 35.4434L23.7655 36.9657C23.6155 37.1157 23.412 37.2 23.1999 37.2H22.3999V38C22.3999 38.4418 22.0417 38.8 21.5999 38.8H20.7999V39.6C20.7999 40.0418 20.4417 40.4 19.9999 40.4H18.3999C17.958 40.4 17.5999 40.0418 17.5999 39.6V38C17.5999 37.7878 17.6841 37.5843 17.8342 37.4343L22.5565 32.712C22.4545 32.359 22.3999 31.9859 22.3999 31.6ZM26.3999 29.05C25.9856 29.05 25.6499 29.3858 25.6499 29.8C25.6499 30.2142 25.9856 30.55 26.3999 30.55C26.9798 30.55 27.4499 31.0201 27.4499 31.6C27.4499 32.0142 27.7856 32.35 28.1999 32.35C28.6141 32.35 28.9499 32.0142 28.9499 31.6C28.9499 30.1916 27.8082 29.05 26.3999 29.05Z" fill="white"/>
<defs>
<linearGradient id="paint0_linear_1958_51376" x1="24" y1="2.40002" x2="24" y2="45.6" gradientUnits="userSpaceOnUse">
<stop offset="0.482292" stop-color="#00BCB4"/>
<stop offset="1" stop-color="#001F5F"/>
</linearGradient>
</defs>
</svg>