<svg width="24" height="24" viewBox="0 0 24 24" fill="none" xmlns="http://www.w3.org/2000/svg">
<path fill-rule="evenodd" clip-rule="evenodd" d="M12 1.19995C9.01764 1.19995 6.59998 3.61761 6.59998 6.59995V10.8H5.99998C4.67449 10.8 3.59998 11.8745 3.59998 13.2V20.4C3.59998 21.7254 4.67449 22.7999 5.99998 22.7999H18C19.3255 22.7999 20.4 21.7254 20.4 20.4V13.2C20.4 11.8745 19.3255 10.8 18 10.8H17.4V6.59995C17.4 3.61761 14.9823 1.19995 12 1.19995ZM15.6 10.8V6.59995C15.6 4.61173 13.9882 2.99995 12 2.99995C10.0118 2.99995 8.39998 4.61173 8.39998 6.59995V10.8H15.6Z" fill="#001F5F"/>
<g clip-path="url(#clip0_1948_47415)">
<path fill-rule="evenodd" clip-rule="evenodd" d="M11.2 15.8C11.2 14.6955 12.0954 13.8 13.2 13.8C14.3046 13.8 15.2 14.6955 15.2 15.8C15.2 16.9046 14.3046 17.8 13.2 17.8C13.0071 17.8 12.8205 17.7727 12.644 17.7217L11.8828 18.4829C11.8078 18.5579 11.7061 18.6 11.6 18.6H11.2V19C11.2 19.221 11.0209 19.4 10.8 19.4H10.4V19.8C10.4 20.021 10.2209 20.2 9.99999 20.2H9.19999C8.97907 20.2 8.79999 20.021 8.79999 19.8V19C8.79999 18.894 8.84213 18.7922 8.91715 18.7172L11.2783 16.3561C11.2273 16.1795 11.2 15.993 11.2 15.8ZM13.2 14.15C12.7858 14.15 12.45 14.4858 12.45 14.9C12.45 15.3143 12.7858 15.65 13.2 15.65C13.2828 15.65 13.35 15.7172 13.35 15.8C13.35 16.2143 13.6858 16.55 14.1 16.55C14.5142 16.55 14.85 16.2143 14.85 15.8C14.85 14.8888 14.1113 14.15 13.2 14.15Z" fill="white"/>
</g>
<defs>
<clipPath id="clip0_1948_47415">
<rect width="8" height="8" fill="white" transform="translate(8 13)"/>
</clipPath>
</defs>
</svg>