<svg width="18" height="18" viewBox="0 0 18 18" fill="none" xmlns="http://www.w3.org/2000/svg">
<path d="M11.0553 6.75L10.7957 13.5M7.20433 13.5L6.94471 6.75M14.4207 4.34293C14.6772 4.38166 14.9328 4.4231 15.1875 4.46722M14.4207 4.34293L13.6199 14.7544C13.5522 15.6336 12.8191 16.3125 11.9373 16.3125H6.06268C5.1809 16.3125 4.44778 15.6336 4.38015 14.7544L3.57926 4.34293M14.4207 4.34293C13.5609 4.21308 12.6911 4.11364 11.8125 4.04574M2.8125 4.46722C3.06718 4.4231 3.32278 4.38166 3.57926 4.34293M3.57926 4.34293C4.43908 4.21308 5.30887 4.11364 6.1875 4.04574M11.8125 4.04574V3.35864C11.8125 2.47412 11.1295 1.73567 10.2454 1.70739C9.83192 1.69416 9.41674 1.6875 9 1.6875C8.58326 1.6875 8.16808 1.69416 7.75456 1.70739C6.87049 1.73567 6.1875 2.47412 6.1875 3.35864V4.04574M11.8125 4.04574C10.8844 3.97403 9.94648 3.9375 9 3.9375C8.05352 3.9375 7.11558 3.97403 6.1875 4.04574" stroke="#556767" stroke-linecap="round" stroke-linejoin="round"/>
</svg>