<svg width="24" height="24" viewBox="0 0 24 24" fill="none" xmlns="http://www.w3.org/2000/svg">
<g clip-path="url(#clip0_1826_41354)">
<path d="M19.0544 3H16.5352C16.2439 3 16.0078 3.23611 16.0078 3.52734C16.0078 3.81858 16.2439 4.05469 16.5352 4.05469H19.0544C19.5457 4.05469 19.9453 4.45434 19.9453 4.94555V7.46484C19.9453 7.75608 20.1814 7.99219 20.4727 7.99219C20.7639 7.99219 21 7.75608 21 7.46484V4.94555C21 3.87279 20.1272 3 19.0544 3Z" fill="#001F5F"/>
<path d="M3.52734 7.99219C3.81858 7.99219 4.05469 7.75608 4.05469 7.46484V4.94555C4.05469 4.45434 4.45434 4.05469 4.94558 4.05469H7.46484C7.75608 4.05469 7.99219 3.81858 7.99219 3.52734C7.99219 3.23611 7.75608 3 7.46484 3H4.94558C3.87279 3 3 3.87279 3 4.94555V7.46484C3 7.75608 3.23611 7.99219 3.52734 7.99219Z" fill="#001F5F"/>
<path d="M7.46484 19.9453H4.94558C4.45434 19.9453 4.05469 19.5457 4.05469 19.0545V16.5352C4.05469 16.2439 3.81858 16.0078 3.52734 16.0078C3.23611 16.0078 3 16.2439 3 16.5352V19.0545C3 20.1272 3.87279 21 4.94558 21H7.46484C7.75608 21 7.99219 20.7639 7.99219 20.4727C7.99219 20.1814 7.75608 19.9453 7.46484 19.9453Z" fill="#001F5F"/>
<path d="M20.4727 16.0078C20.1814 16.0078 19.9453 16.2439 19.9453 16.5352V19.0545C19.9453 19.5457 19.5457 19.9453 19.0544 19.9453H16.5352C16.2439 19.9453 16.0078 20.1814 16.0078 20.4727C16.0078 20.7639 16.2439 21 16.5352 21H19.0544C20.1272 21 21 20.1272 21 19.0545V16.5352C21 16.2439 20.7639 16.0078 20.4727 16.0078Z" fill="#001F5F"/>
<path d="M17.7192 6.51393C14.0589 3.79881 10.1141 3.72973 6.34637 6.4658C6.11072 6.63694 6.05844 6.96671 6.22954 7.20236C6.40065 7.43798 6.73038 7.49033 6.9661 7.31918C10.3709 4.84675 13.8118 4.92863 17.0909 7.36099C17.3248 7.53448 17.655 7.48554 17.8286 7.25161C18.0021 7.01772 17.9531 6.68743 17.7192 6.51393Z" fill="#001F5F"/>
<path d="M12 6.69141C9.75972 6.69141 6.87961 8.18305 5.65501 10.02C5.49344 10.2623 5.55893 10.5897 5.80126 10.7513C6.04363 10.9128 6.37104 10.8474 6.53255 10.605C7.54783 9.08203 10.1027 7.74609 12 7.74609C13.8578 7.74609 16.3988 8.73725 17.4484 10.5741C17.5458 10.7445 17.7237 10.84 17.9068 10.84C18.3047 10.84 18.5671 10.4061 18.3641 10.0509C17.1552 7.93509 14.3163 6.69141 12 6.69141Z" fill="#001F5F"/>
<path d="M9.15234 15.375C9.15234 13.6497 10.4298 12.2461 12 12.2461C13.5702 12.2461 14.8477 13.6497 14.8477 15.375V15.9375C14.8477 16.2287 15.0838 16.4648 15.375 16.4648C15.6662 16.4648 15.9023 16.2287 15.9023 15.9375V15.375C15.9023 13.0682 14.1518 11.1914 12 11.1914C9.84823 11.1914 8.09766 13.0682 8.09766 15.375C8.09766 17.6174 9.78361 18.8187 10.528 19.8939C10.6304 20.0418 10.7948 20.1211 10.962 20.1211C11.3819 20.1211 11.6389 19.6456 11.3951 19.2935C10.5895 18.1299 9.15234 17.165 9.15234 15.375Z" fill="#001F5F"/>
<path d="M17.8154 17.2983C19.4452 14.0389 16.547 8.94141 12 8.94141C8.79871 8.94141 5.84766 11.6547 5.84766 15.0938C5.84766 16.3424 6.00783 17.3984 6.78949 18.4938C6.95866 18.7309 7.28797 18.7859 7.52507 18.6168C7.76213 18.4476 7.81722 18.1183 7.64801 17.8812C7.0975 17.1097 6.90234 16.3803 6.90234 15.0938C6.90234 12.3782 9.28443 9.99609 12 9.99609C13.3671 9.99609 14.7172 10.5991 15.7042 11.6504C17.1013 13.1387 17.6034 15.364 16.8721 16.8267C16.1108 18.3491 13.6523 17.9176 13.6523 15.9375C13.6523 12.0265 9.64611 13.1963 10.3634 16.0654C10.434 16.3479 10.7204 16.5197 11.0029 16.4491C11.2854 16.3785 11.4572 16.0922 11.3866 15.8096C11.2024 15.0727 11.5403 14.4961 12 14.4961C12.4128 14.4961 12.5977 15.22 12.5977 15.9375C12.5977 19.0253 16.5532 19.8229 17.8154 17.2983Z" fill="#001F5F"/>
</g>
<defs>
<clipPath id="clip0_1826_41354">
<rect width="18" height="18" fill="white" transform="translate(3 3)"/>
</clipPath>
</defs>
</svg>