<svg width="180" height="39" viewBox="0 0 180 39" fill="none" xmlns="http://www.w3.org/2000/svg">
    <path d="M51.9242 14.9252C45.269 9.88146 35.7397 12.225 32.04 18.8768C30.3922 21.8381 29.935 24.9427 30.5445 28.2033C31.799 34.9283 38.1353 39.4817 45.5348 38.6252C47.7603 38.3673 49.8617 37.2369 51.9916 36.5172C52.0305 36.8356 52.1439 38.2367 52.2113 38.813C55.025 38.813 57.7041 38.813 60.3797 38.813C60.3797 30.4131 60.3797 21.3095 60.3797 12.9701C57.5837 12.9701 54.8762 12.9701 52.1617 12.9701C52.0802 13.6324 52.0128 14.196 51.9242 14.9252ZM45.3576 31.6613C41.463 31.6454 38.7094 29.1076 38.6917 25.5222C38.6775 21.854 41.4594 19.3385 45.4781 19.3863C49.4507 19.434 52.0483 21.8891 52.0128 25.5572C51.9809 29.2031 49.2806 31.6773 45.3576 31.6613Z" fill="#00BCB4"/>
    <path d="M115.931 20.3351C115.396 15.3869 111.044 12.1804 105.537 12.1995C102.638 12.2091 100.087 13.0242 97.6945 15.0398C97.6945 10.7985 97.6945 9.41018 97.6945 5.42676C94.8523 5.42676 92.1839 5.42676 89.3984 5.42676C89.3984 17.2178 89.3984 27.1716 89.3984 38.848C92.1909 38.848 94.863 38.848 97.698 38.848C97.698 38.1985 97.6945 36.8133 97.698 36.2434C97.7264 31.9797 97.6661 27.7129 97.8185 23.4557C97.9142 20.8223 99.7605 19.2907 102.514 19.1888C105.845 19.0647 107.741 20.7077 107.801 23.9333C107.872 27.5187 107.819 31.1041 107.819 34.6895C107.819 35.788 107.819 37.7017 107.819 38.8162C110.718 38.8162 113.425 38.8162 116.243 38.8162C116.243 36.5299 116.271 33.5432 116.236 31.3684C116.172 27.6874 116.324 23.9874 115.931 20.3351Z" fill="#00BCB4"/>
    <path d="M144.715 12.2077C138.148 12.5707 132.857 16.4968 131.355 22.2984C129.795 28.3165 132.609 34.4175 138.382 37.0763C143.258 39.3211 148.333 39.4134 153.4 37.5411C155.569 36.7387 157.323 35.4268 158.698 33.5959C156.413 32.4146 154.272 31.3065 152.16 30.2175C147.089 33.1406 141.617 32.421 140.062 28.514C146.302 28.514 152.401 28.5044 158.496 28.5267C159.092 28.5299 159.875 28.4216 159.875 28.4216C159.875 28.4216 159.988 27.7943 160.024 27.5109C161.179 18.3596 154.102 11.6887 144.715 12.2077ZM140.094 22.8302C140.079 20.9356 141.989 19.3276 144.665 18.9614C148.003 18.5029 150.672 19.9198 151.639 22.8302C147.695 22.8302 143.896 22.8302 140.094 22.8302Z" fill="#00BCB4"/>
    <path d="M80.1497 23.284C78.7712 22.8159 77.3466 22.4688 75.9397 22.0867C74.8411 21.7906 73.374 21.5645 72.6014 20.7271C72.442 20.5551 72.3144 20.3386 72.3321 20.1157C72.3498 19.9278 72.4703 19.7591 72.6121 19.6222C73.4059 18.8548 74.9191 18.651 75.9858 18.9885C76.5138 19.1541 76.978 19.4502 77.382 19.7941C77.4919 19.8864 78.5231 20.9818 78.4912 20.9945C80.8762 19.8387 83.1796 18.721 85.4867 17.6034C81.9074 11.5407 70.9607 10.2192 65.8576 15.1484C62.2287 18.6573 63.1679 24.2488 67.8279 26.5732C68.9478 27.1305 70.1881 27.5094 71.4036 27.8915C72.3286 28.1813 73.2818 28.3946 74.2174 28.6525C75.0963 28.8945 76.0956 29.1652 76.8398 29.6651C77.1375 29.8657 77.382 30.1586 77.4068 30.4898C77.4352 30.8719 77.1658 31.2285 76.815 31.4482C76.4039 31.7062 75.8723 31.8399 75.3798 31.91C72.7715 32.2857 70.702 31.4992 69.6282 29.0697C67.1794 30.321 64.8583 31.5087 62.3457 32.7952C62.8383 33.4925 63.1891 34.0306 63.5825 34.5401C67.913 40.1475 79.5543 39.7049 83.4206 36.1195C84.4944 35.1228 85.4122 33.7663 85.795 32.4322C87.0069 28.2163 84.8948 24.8984 80.1497 23.284Z" fill="#00BCB4"/>
    <path d="M171.782 16.7318C171.704 15.2161 171.647 14.0794 171.587 12.9362C168.773 12.9362 166.144 12.9362 163.401 12.9362C163.401 21.4126 163.401 30.513 163.401 38.811C166.208 38.811 168.872 38.811 171.686 38.811C171.686 38.1933 171.686 36.8718 171.686 36.3464C171.693 33.0508 171.622 29.752 171.736 26.4563C171.853 23.1288 174.178 21.1164 177.895 20.9254C178.579 20.8903 179.263 20.919 180 20.919C180 18.0341 180 15.2989 180 12.4427C176.421 12.4809 173.759 13.796 171.782 16.7318Z" fill="#00BCB4"/>
    <path d="M119.513 38.813C122.302 38.813 124.971 38.813 127.664 38.813C127.664 30.4004 127.664 21.2872 127.664 12.9383C124.889 12.9383 122.263 12.9383 119.513 12.9383C119.513 21.4114 119.513 30.4832 119.513 38.813Z" fill="#00BCB4"/>
    <path d="M35.1261 5.59463V0H28.0845L8.36335 19.1243V5.61055H0V27.2344V27.7534V38.2772C0 38.6752 0.361463 39 0.804437 39C1.05959 39 1.29703 38.8917 1.44941 38.7102L14.5012 25.8748L20.7595 39H31.5929L21.8829 18.618L35.1261 5.59463Z" fill="#00BCB4"/>
</svg>
