<svg width="147" height="147" viewBox="0 0 147 147" fill="none" xmlns="http://www.w3.org/2000/svg">
<path d="M64.3125 9.1875H50.5312C42.9201 9.1875 36.75 15.3576 36.75 22.9688V124.031C36.75 131.642 42.9201 137.813 50.5312 137.813H96.4688C104.08 137.813 110.25 131.642 110.25 124.031V22.9688C110.25 15.3576 104.08 9.1875 96.4688 9.1875H82.6875M64.3125 9.1875V18.375H82.6875V9.1875M64.3125 9.1875H82.6875M64.3125 124.031H82.6875" stroke="url(#paint0_linear_4822_102776)" stroke-width="4" stroke-linecap="round" stroke-linejoin="round"/>
<path fill-rule="evenodd" clip-rule="evenodd" d="M110 47.8C103.041 47.8 97.4 53.4412 97.4 60.4V70.2H96C92.9072 70.2 90.4 72.7072 90.4 75.8V92.6C90.4 95.6928 92.9072 98.2 96 98.2H124C127.093 98.2 129.6 95.6928 129.6 92.6V75.8C129.6 72.7072 127.093 70.2 124 70.2H122.6V60.4C122.6 53.4412 116.959 47.8 110 47.8ZM118.4 70.2V60.4C118.4 55.7608 114.639 52 110 52C105.361 52 101.6 55.7608 101.6 60.4V70.2H118.4Z" fill="url(#paint1_linear_4822_102776)"/>
<path d="M52.3 48C52.3 45.4319 54.3819 43.35 56.95 43.35C59.5182 43.35 61.6 45.4319 61.6 48C61.6 50.5681 59.5182 52.65 56.95 52.65C54.3819 52.65 52.3 50.5681 52.3 48Z" fill="url(#paint2_linear_4822_102776)"/>
<path d="M69.35 48C69.35 45.4319 71.4319 43.35 74 43.35C76.5682 43.35 78.65 45.4319 78.65 48C78.65 50.5681 76.5682 52.65 74 52.65C71.4319 52.65 69.35 50.5681 69.35 48Z" fill="url(#paint3_linear_4822_102776)"/>
<path d="M91.05 43.35C88.4819 43.35 86.4001 45.4319 86.4001 48C86.4001 50.5681 88.4819 52.65 91.05 52.65C93.6182 52.65 95.7001 50.5681 95.7001 48C95.7001 45.4319 93.6182 43.35 91.05 43.35Z" fill="url(#paint4_linear_4822_102776)"/>
<defs>
<linearGradient id="paint0_linear_4822_102776" x1="73.5" y1="9.1875" x2="73.5" y2="137.813" gradientUnits="userSpaceOnUse">
<stop stop-color="#00BCB4"/>
<stop offset="1" stop-color="#001F5F"/>
</linearGradient>
<linearGradient id="paint1_linear_4822_102776" x1="110" y1="47.8" x2="110" y2="98.2" gradientUnits="userSpaceOnUse">
<stop stop-color="#00BCB4"/>
<stop offset="1" stop-color="#001F5F"/>
</linearGradient>
<linearGradient id="paint2_linear_4822_102776" x1="74" y1="43.35" x2="74" y2="52.65" gradientUnits="userSpaceOnUse">
<stop stop-color="#00BCB4"/>
<stop offset="1" stop-color="#001F5F"/>
</linearGradient>
<linearGradient id="paint3_linear_4822_102776" x1="74" y1="43.35" x2="74" y2="52.65" gradientUnits="userSpaceOnUse">
<stop stop-color="#00BCB4"/>
<stop offset="1" stop-color="#001F5F"/>
</linearGradient>
<linearGradient id="paint4_linear_4822_102776" x1="74" y1="43.35" x2="74" y2="52.65" gradientUnits="userSpaceOnUse">
<stop stop-color="#00BCB4"/>
<stop offset="1" stop-color="#001F5F"/>
</linearGradient>
</defs>
</svg>
