<svg width="48" height="49" viewBox="0 0 48 49" fill="none" xmlns="http://www.w3.org/2000/svg">
<path d="M33 21.4375V13.7812C33 8.70713 28.9706 4.59375 24 4.59375C19.0294 4.59375 15 8.70713 15 13.7812V21.4375M13.5 44.4062H34.5C36.9853 44.4062 39 42.3496 39 39.8125V26.0312C39 23.4942 36.9853 21.4375 34.5 21.4375H13.5C11.0147 21.4375 9 23.4942 9 26.0312V39.8125C9 42.3496 11.0147 44.4062 13.5 44.4062Z" stroke="url(#paint0_linear_210_11702)" stroke-width="3.5" stroke-linecap="round" stroke-linejoin="round"/>
<path d="M24.0962 27.999L23.9039 37.9971M28.9039 32.9981L19.0962 32.9981" stroke="url(#paint1_linear_210_11702)" stroke-width="3.5" stroke-linecap="round" stroke-linejoin="round"/>
<defs>
<linearGradient id="paint0_linear_210_11702" x1="24" y1="4.59375" x2="24" y2="44.4062" gradientUnits="userSpaceOnUse">
<stop stop-color="#00BCB4"/>
<stop offset="1" stop-color="#001F5F"/>
</linearGradient>
<linearGradient id="paint1_linear_210_11702" x1="24.0962" y1="27.999" x2="24.0962" y2="37.9971" gradientUnits="userSpaceOnUse">
<stop stop-color="#51BBA8"/>
<stop offset="1" stop-color="#001F5F"/>
</linearGradient>
</defs>
</svg>