<svg width="216" height="216" viewBox="0 0 216 216" fill="none" xmlns="http://www.w3.org/2000/svg">
<g clip-path="url(#clip0_4841_102559)">
<path d="M63.6924 101.723C60.7385 98.7692 55.9385 98.7692 52.9847 101.723C50.0308 104.677 50.0308 109.477 52.9847 112.431L87.877 147.323C89.3539 148.8 91.2001 149.538 93.2308 149.538C93.4154 149.538 93.4154 149.538 93.6001 149.538C95.6308 149.354 97.6616 148.431 99.1385 146.769L186.462 42.0923C189.046 38.9538 188.677 34.1538 185.539 31.3846C182.4 28.8 177.6 29.1692 174.831 32.3077L92.677 130.708L63.6924 101.723Z" fill="#4AAB4E"/>
<path d="M164.492 17.1692C122.031 -9.4154 67.5693 -3.13848 32.1231 32.3077C-9.59996 74.0308 -9.59996 142.154 32.1231 183.877C52.9847 204.738 80.4923 215.262 107.815 215.262C135.139 215.262 162.646 204.738 183.508 183.877C219.139 148.246 225.231 93.6 198.462 51.1384C196.246 47.6308 191.631 46.5231 188.123 48.7384C184.615 50.9538 183.508 55.5692 185.723 59.0769C208.8 95.6308 203.446 142.523 172.8 173.169C136.985 208.985 78.4616 208.985 42.6462 173.169C6.83081 137.354 6.83081 78.8307 42.6462 43.0154C73.2924 12.5538 120 7.19999 156.554 29.9077C160.062 32.1231 164.677 31.0154 166.892 27.5077C169.108 24 168 19.3846 164.492 17.1692Z" fill="#006A66"/>
</g>
<defs>
<clipPath id="clip0_4841_102559">
<rect width="216" height="216" fill="white"/>
</clipPath>
</defs>
</svg>