<svg width="40" height="40" viewBox="0 0 40 40" fill="none" xmlns="http://www.w3.org/2000/svg">
    <path fill-rule="evenodd" clip-rule="evenodd" d="M33.3707 34.1942C37.1443 30.6382 39.5 25.5942 39.5 20C39.5 9.23045 30.7696 0.5 20 0.5C9.23045 0.5 0.5 9.23045 0.5 20C0.5 25.5942 2.85571 30.6382 6.62925 34.1942C10.1202 37.4839 14.8247 39.5 20 39.5C25.1753 39.5 29.8798 37.4839 33.3707 34.1942ZM8.29025 31.6246C11.0392 28.1956 15.2632 26 20 26C24.7368 26 28.9608 28.1956 31.7098 31.6246C28.7205 34.6356 24.578 36.5 20 36.5C15.422 36.5 11.2795 34.6356 8.29025 31.6246ZM27.5 14C27.5 18.1421 24.1421 21.5 20 21.5C15.8579 21.5 12.5 18.1421 12.5 14C12.5 9.85786 15.8579 6.5 20 6.5C24.1421 6.5 27.5 9.85786 27.5 14Z" fill="url(#paint0_linear_2824_212)"/>
    <defs>
        <linearGradient id="paint0_linear_2824_212" x1="20" y1="0.5" x2="20" y2="39.5" gradientUnits="userSpaceOnUse">
            <stop stop-color="#00BCB4"/>
            <stop offset="1" stop-color="#001F5F"/>
        </linearGradient>
    </defs>
</svg>