<svg width="24" height="24" viewBox="0 0 24 24" fill="none" xmlns="http://www.w3.org/2000/svg">
<path fill-rule="evenodd" clip-rule="evenodd" d="M13.2987 3.75298C12.7215 2.75242 11.2774 2.75242 10.7001 3.75298L3.34582 16.5005C2.7689 17.5005 3.49061 18.7501 4.6451 18.7501H19.3538C20.5082 18.7501 21.23 17.5005 20.653 16.5005L13.2987 3.75298ZM9.40087 3.0034C10.5554 1.00229 13.4435 1.00229 14.598 3.0034L21.9523 15.7509C23.1062 17.7509 21.6627 20.2501 19.3538 20.2501H4.6451C2.33612 20.2501 0.892695 17.7509 2.04654 15.7509L9.40087 3.0034ZM11.9994 8.25006C12.4136 8.25006 12.7494 8.58585 12.7494 9.00006V12.7501C12.7494 13.1643 12.4136 13.5001 11.9994 13.5001C11.5852 13.5001 11.2494 13.1643 11.2494 12.7501V9.00006C11.2494 8.58585 11.5852 8.25006 11.9994 8.25006ZM11.2494 15.7501C11.2494 15.3359 11.5852 15.0001 11.9994 15.0001H12.0069C12.4211 15.0001 12.7569 15.3359 12.7569 15.7501V15.7576C12.7569 16.1718 12.4211 16.5076 12.0069 16.5076H11.9994C11.5852 16.5076 11.2494 16.1718 11.2494 15.7576V15.7501Z" fill="#FBAF1F"/>
</svg>