<svg width="44" height="44" viewBox="0 0 44 44" fill="none" xmlns="http://www.w3.org/2000/svg">
    <path d="M21.9999 0C10.0524 0 0.333252 9.71919 0.333252 21.6667C0.333252 33.6141 10.0524 43.3333 21.9999 43.3333C33.9474 43.3333 43.6666 33.6141 43.6666 21.6667C43.6666 9.71919 33.9474 0 21.9999 0ZM31.4791 23.4721H23.8054V31.1458C23.8054 32.1426 22.9967 32.9513 21.9999 32.9513C21.0031 32.9513 20.1945 32.1426 20.1945 31.1458V23.4721H12.5208C11.524 23.4721 10.7153 22.6634 10.7153 21.6667C10.7153 20.6699 11.524 19.8612 12.5208 19.8612H20.1945V12.1875C20.1945 11.1907 21.0031 10.3821 21.9999 10.3821C22.9967 10.3821 23.8054 11.1907 23.8054 12.1875V19.8612H31.4791C32.4759 19.8612 33.2845 20.6699 33.2845 21.6667C33.2845 22.6634 32.4759 23.4721 31.4791 23.4721Z" fill="#001F5F"/>
</svg>