<svg width="96" height="96" viewBox="0 0 96 96" fill="none" xmlns="http://www.w3.org/2000/svg">
<path d="M79.0215 58.6176C78.7354 59.1033 78.4454 59.5776 78.1479 60.0422C77.9558 60.3321 77.7734 60.6182 77.5834 60.9024C77.2646 61.3747 76.9408 61.8349 76.6118 62.2829L76.5792 62.3251C76.4314 62.5286 76.2778 62.7302 76.128 62.928C75.9782 63.1257 75.8554 63.2813 75.7171 63.4541C75.6576 63.527 75.6 63.6019 75.5405 63.6729L75.4675 63.7651C75.3549 63.9072 75.2397 64.0473 75.1219 64.1856C74.9664 64.3776 74.8128 64.5542 74.6554 64.7366C74.4979 64.919 74.3693 65.063 74.2253 65.2243C74.1504 65.3088 74.0775 65.3894 74.0007 65.472C73.8547 65.6352 73.705 65.7945 73.5552 65.9539C73.4055 66.1133 73.2096 66.3187 73.0349 66.4953L73.0215 66.5107C72.8525 66.6797 72.6835 66.8505 72.5146 67.0157C72.2631 67.2614 72.0115 67.5014 71.7562 67.7376C71.4394 68.0313 71.1187 68.3136 70.7962 68.5977C70.7869 68.6043 70.7785 68.6121 70.7712 68.6208C70.3987 68.9414 70.0224 69.2505 69.6423 69.552C69.056 70.0179 68.4621 70.4608 67.8605 70.8806C67.6608 71.0201 67.4592 71.1584 67.2557 71.2953C66.8583 71.5641 66.4551 71.8214 66.048 72.0633L66.0115 72.0864C65.8195 72.2054 65.6179 72.3245 65.4183 72.4416L65.3779 72.4627C64.9722 72.7033 64.5619 72.9331 64.1472 73.152L63.7095 73.3824L63.4541 73.5129C63.2621 73.6128 63.0701 73.7049 62.8666 73.8048C62.4365 74.0141 62.0064 74.2118 61.5706 74.4038C61.3517 74.4979 61.1328 74.5958 60.9139 74.6822C60.6951 74.7686 60.4762 74.8627 60.2535 74.9491C60.0307 75.0355 59.8138 75.12 59.593 75.2025C59.3722 75.2851 59.184 75.3523 58.9786 75.4253L58.7559 75.5021C58.5907 75.5616 58.4237 75.6153 58.2567 75.6729C58.032 75.7459 57.8074 75.8189 57.5827 75.888H57.5693C56.9293 76.0877 56.2893 76.2688 55.6493 76.4313C54.9715 76.608 54.288 76.7597 53.6026 76.896C43.945 78.8352 33.7152 77.2531 25.2 73.3171C24.9792 73.2134 24.7603 73.1097 24.5434 73.0003L24.2189 72.8352C23.9405 72.6931 23.664 72.5414 23.3914 72.384C23.2666 72.3149 23.1418 72.2419 23.0189 72.1689C22.896 72.096 22.8269 72.0537 22.7271 71.9923C22.6272 71.9309 22.5619 71.8925 22.4813 71.8387C22.4007 71.7849 22.2893 71.7235 22.2048 71.664C21.6186 71.28 21.0496 70.8768 20.4979 70.4544C20.3923 70.3737 20.2867 70.2912 20.185 70.2067L19.9699 70.0339L19.7031 69.8112C19.5111 69.6518 19.3191 69.4905 19.1424 69.3235C19.0867 69.2755 19.0349 69.2275 18.9792 69.1757C18.9235 69.1238 18.8179 69.0297 18.7392 68.9549C18.4013 68.6387 18.0736 68.3136 17.7562 67.9795L17.5872 67.799C17.161 67.344 16.7559 66.8717 16.3699 66.3878C16.2663 66.2611 16.1779 66.1325 16.0704 66.0038C15.7575 65.5987 15.4618 65.1821 15.1795 64.7577C15.1008 64.6368 15.0202 64.5158 14.9434 64.3949C14.6746 63.9744 14.4231 63.5501 14.1754 63.1161C14.0986 62.9779 14.0237 62.8377 13.9507 62.6976C13.8778 62.5574 13.8202 62.4461 13.7587 62.3136C13.5309 61.8605 13.3191 61.399 13.1232 60.9293C13.0733 60.8083 13.0234 60.6854 12.9754 60.5606C12.6973 59.8598 12.4569 59.1445 12.2554 58.4179C12.2247 58.3065 12.1959 58.1952 12.1651 58.0857C12.1661 58.0749 12.1661 58.064 12.1651 58.0531C12.144 57.9667 12.121 57.8841 12.1018 57.7977C12.0711 57.6691 12.0403 57.5424 12.0115 57.4137C11.9827 57.2851 11.9501 57.1334 11.9213 56.9952C11.8867 56.8224 11.8522 56.6457 11.8234 56.4691C11.7946 56.2925 11.7715 56.1677 11.7485 56.0141C11.7255 55.8605 11.7024 55.7011 11.6813 55.5437C11.1552 51.5001 11.9597 46.9709 14.1389 43.4054C14.4387 42.9131 14.7669 42.4387 15.1219 41.9846C15.5496 41.4373 16.0188 40.9238 16.5255 40.4486C16.5459 40.4261 16.5684 40.4056 16.5927 40.3872C17.4311 39.6106 18.3732 38.9541 19.392 38.4365L20.1024 38.0793C20.5594 37.8528 21.001 37.6358 21.4349 37.4304L21.8323 37.2384L21.8919 37.2096C22.1927 37.0701 22.489 36.9357 22.7808 36.8064C23.3261 36.5606 23.8547 36.3315 24.3667 36.119C24.4954 36.0633 24.624 36.0115 24.7507 35.9597C25.1347 35.8003 25.5187 35.6467 25.8855 35.5027C26.1658 35.3913 26.4423 35.2838 26.7168 35.1821L26.8128 35.1437C27.0586 35.0515 27.3005 34.9517 27.5405 34.8749C28.4871 34.5216 29.3914 34.2029 30.2707 33.8937C34.9728 32.2349 39.0298 30.791 45.4752 25.9161C51.3658 21.4675 58.2259 17.6889 65.856 18.336C75.4906 19.1539 83.7946 24.8486 84.745 34.9017C85.4726 42.6029 82.8922 52.0128 79.0215 58.6176Z" fill="#CFD8DC"/>
<path opacity="0.7" d="M79.0215 58.6176C78.7354 59.1033 78.4454 59.5776 78.1479 60.0422C77.9558 60.3321 77.7734 60.6182 77.5834 60.9024C77.2646 61.3747 76.9408 61.8349 76.6118 62.2829L76.5792 62.3251C76.4314 62.5286 76.2778 62.7302 76.128 62.928C75.9782 63.1257 75.8554 63.2813 75.7171 63.4541C75.6576 63.527 75.6 63.6019 75.5405 63.6729L75.4675 63.7651C75.3549 63.9072 75.2397 64.0473 75.1219 64.1856C74.9664 64.3776 74.8128 64.5542 74.6554 64.7366C74.4979 64.919 74.3693 65.063 74.2253 65.2243C74.1504 65.3088 74.0775 65.3894 74.0007 65.472C73.8547 65.6352 73.705 65.7945 73.5552 65.9539C73.4055 66.1133 73.2096 66.3187 73.0349 66.4953L73.0215 66.5107C72.8525 66.6797 72.6835 66.8505 72.5146 67.0157C72.2631 67.2614 72.0115 67.5014 71.7562 67.7376C71.4394 68.0313 71.1187 68.3136 70.7962 68.5977C70.7869 68.6043 70.7785 68.6121 70.7712 68.6208C70.3987 68.9395 70.0205 69.2505 69.6423 69.552C69.056 70.0179 68.4621 70.4608 67.8605 70.8806C67.6608 71.0201 67.4592 71.1584 67.2557 71.2953C66.8583 71.5622 66.4551 71.8195 66.048 72.0633L66.0115 72.0864C65.8195 72.2054 65.6179 72.3245 65.4183 72.4416L65.3779 72.4627C64.9728 72.7027 64.56 72.9331 64.1472 73.152L63.7095 73.3824L63.4541 73.5129C63.2621 73.6128 63.0701 73.7049 62.8666 73.8048C62.4365 74.0141 62.0045 74.2118 61.5706 74.4038C61.3517 74.4979 61.1328 74.5958 60.9139 74.6822C60.6951 74.7686 60.4762 74.8627 60.2535 74.9491C60.0307 75.0355 59.8138 75.12 59.593 75.2025C59.3722 75.2851 59.184 75.3523 58.9786 75.4253L58.7559 75.5021C58.5907 75.5616 58.4237 75.6153 58.2567 75.6729C58.032 75.7459 57.8074 75.8189 57.5827 75.888H57.5693C56.9293 76.0877 56.2893 76.2688 55.6493 76.4313C54.9715 76.608 54.288 76.7597 53.6026 76.896C43.945 78.8352 33.7152 77.2531 25.2 73.3171C24.9792 73.2134 24.7603 73.1097 24.5434 73.0003L24.2189 72.8352C23.9405 72.6931 23.664 72.5414 23.3914 72.384C23.2666 72.3149 23.1418 72.2419 23.0189 72.1689C22.896 72.096 22.8269 72.0537 22.7271 71.9923C22.6272 71.9309 22.5619 71.8925 22.4813 71.8387C22.4007 71.7849 22.2893 71.7235 22.2048 71.664C21.6186 71.28 21.0496 70.8768 20.4979 70.4544C20.3923 70.3737 20.2867 70.2912 20.185 70.2067L19.9699 70.0339L19.7031 69.8112C19.5111 69.6518 19.3191 69.4905 19.1424 69.3235C19.0867 69.2755 19.0349 69.2275 18.9792 69.1757C18.9235 69.1238 18.8179 69.0297 18.7392 68.9549C18.4013 68.6387 18.0736 68.3136 17.7562 67.9795L17.5872 67.799C17.161 67.344 16.7559 66.8717 16.3699 66.3878C16.2663 66.2611 16.1779 66.1325 16.0704 66.0038C15.7575 65.5987 15.4618 65.1821 15.1795 64.7577C15.1008 64.6368 15.0202 64.5158 14.9434 64.3949C14.6746 63.9744 14.4231 63.5501 14.1754 63.1161C14.0986 62.9779 14.0237 62.8377 13.9507 62.6976C13.8778 62.5574 13.8202 62.4461 13.7587 62.3136C13.5309 61.8605 13.3191 61.399 13.1232 60.9293C13.0733 60.8083 13.0234 60.6854 12.9754 60.5606C12.6973 59.8598 12.4569 59.1445 12.2554 58.4179C12.2247 58.3065 12.1959 58.1952 12.1651 58.0857C12.1661 58.0749 12.1661 58.064 12.1651 58.0531C12.144 57.9667 12.121 57.8841 12.1018 57.7977C12.0711 57.6691 12.0403 57.5424 12.0115 57.4137C11.9827 57.2851 11.9501 57.1334 11.9213 56.9952C11.8867 56.8224 11.8522 56.6457 11.8234 56.4691C11.7946 56.2925 11.7715 56.1677 11.7485 56.0141C11.7255 55.8605 11.7024 55.7011 11.6813 55.5437C11.1552 51.5001 11.9597 46.9709 14.1389 43.4054C14.4387 42.9131 14.7669 42.4387 15.1219 41.9846C15.5496 41.4373 16.0188 40.9238 16.5255 40.4486C16.5459 40.4261 16.5684 40.4056 16.5927 40.3872C17.4311 39.6106 18.3732 38.9541 19.392 38.4365L20.1024 38.0793C20.5594 37.8528 21.001 37.6358 21.4349 37.4304L21.8323 37.2384L21.8919 37.2096C22.1927 37.0701 22.489 36.9357 22.7808 36.8064C23.3261 36.5606 23.8547 36.3315 24.3667 36.119C24.4954 36.0633 24.624 36.0115 24.7507 35.9597C25.1347 35.8003 25.5187 35.6467 25.8855 35.5027C26.1658 35.3913 26.4423 35.2838 26.7168 35.1821L26.8128 35.1437C27.0586 35.0515 27.3005 34.9517 27.5405 34.8749C28.4871 34.5216 29.3914 34.2029 30.2707 33.8937C34.9728 32.2349 39.0298 30.791 45.4752 25.9161C51.3658 21.4675 58.2259 17.6889 65.856 18.336C75.4906 19.1539 83.7946 24.8486 84.745 34.9017C85.4726 42.6029 82.8922 52.0128 79.0215 58.6176Z" fill="white"/>
<path d="M76.608 62.2828C71.4528 69.2947 64.7732 73.6608 57.5789 75.8956H57.5655C56.9255 76.0953 56.2855 76.2764 55.6455 76.439C54.9684 76.6144 54.2861 76.7692 53.5988 76.9036C43.9412 78.8409 33.7133 77.2608 25.1962 73.3228C20.3899 71.1065 16.4415 67.3773 13.9546 62.7052C16.4179 60.9427 21.0202 59.2704 28.9152 61.4073C42.4551 65.0707 52.8327 73.7222 61.8451 67.415C68.2253 62.9568 72.9005 61.4054 76.608 62.2828Z" fill="#CFD8DC"/>
<path d="M47.9999 90.8006C62.1794 90.8006 73.6742 89.4656 73.6742 87.8189C73.6742 86.1721 62.1794 84.8371 47.9999 84.8371C33.8204 84.8371 22.3257 86.1721 22.3257 87.8189C22.3257 89.4656 33.8204 90.8006 47.9999 90.8006Z" fill="#CFD8DC"/>
<path opacity="0.5" d="M47.9999 90.8006C62.1794 90.8006 73.6742 89.4656 73.6742 87.8189C73.6742 86.1721 62.1794 84.8371 47.9999 84.8371C33.8204 84.8371 22.3257 86.1721 22.3257 87.8189C22.3257 89.4656 33.8204 90.8006 47.9999 90.8006Z" fill="white"/>
<path d="M70.6252 60.5088L70.6137 60.4953L70.5695 60.4358C70.5407 60.3993 70.5158 60.3648 70.4889 60.3341L69.6383 59.472L69.6191 59.4547L66.7583 56.5574C66.7483 56.5482 66.7393 56.5379 66.7314 56.5267C66.5855 56.3539 65.5141 55.0829 65.0553 54.3705C65.0501 54.3633 65.0456 54.3556 65.0418 54.3475C65 54.2856 64.9616 54.2215 64.9266 54.1555C64.8589 54.0345 64.7792 53.9206 64.6886 53.8157C64.6811 53.809 64.6746 53.8012 64.6694 53.7926C64.0846 53.1556 63.4005 52.6174 62.6437 52.199L62.6073 52.1817C62.4554 52.0982 62.299 52.0232 62.1388 51.9571L62.1062 51.9437C62.2475 51.8674 62.3629 51.7506 62.4375 51.6083C62.5121 51.466 62.5424 51.3046 62.5247 51.1449C62.5256 51.129 62.5256 51.1129 62.5247 51.0969C62.5265 51.0855 62.5265 51.0738 62.5247 51.0624V51.0336C62.4038 50.5517 61.7951 49.8989 61.2517 49.5245L61.1154 49.4342C61.0763 49.4085 61.036 49.3848 60.9945 49.3632L60.9426 49.3344L60.7929 47.8867H60.5298L60.453 46.9958C60.453 46.9958 60.453 46.6445 60.4722 46.0838C60.4722 46.0531 60.4722 46.0243 60.4722 45.9936C60.5068 44.6496 60.5855 42.2246 60.7295 40.4928C60.9349 37.9699 61.2364 35.1667 61.3497 33.6288C61.3497 33.6115 61.3497 33.5961 61.3497 33.5808C61.3487 33.5718 61.3487 33.5628 61.3497 33.5539C61.3497 33.4656 61.3631 33.3792 61.3689 33.2928C61.3746 33.2064 61.3823 33.1392 61.3881 33.0643C61.486 31.9622 61.605 30.9523 61.4322 30.5069C61.406 30.4291 61.3555 30.3618 61.2882 30.3149C60.9388 30.096 60.3916 31.4995 59.9788 32.8723C59.9001 33.1411 59.8252 33.4099 59.758 33.6633C59.7484 33.6979 59.7388 33.7305 59.7273 33.767C59.4297 34.8998 58.7116 37.6934 58.3122 39.911C58.1406 40.7277 58.0486 41.5591 58.0377 42.3936V42.4032C58.1241 44.1773 58.247 44.3232 58.6809 45.6672C58.916 46.3628 59.0819 47.0798 59.1762 47.808L58.9689 47.8464L58.8037 47.8771L58.6694 48.72C58.3686 48.7132 58.0702 48.7735 57.7957 48.8966C57.6428 48.965 57.5075 49.0675 57.4002 49.1961L57.2082 49.1539C56.7476 49.0675 56.2809 49.0181 55.8124 49.0061C55.2864 48.9942 54.7604 49.027 54.2399 49.104H54.2226C52.6463 49.3459 51.2678 49.8547 50.7666 50.1581C50.7493 50.1672 50.7326 50.1774 50.7167 50.1888C50.6981 50.199 50.6807 50.2112 50.6649 50.2253C50.6552 50.2305 50.6467 50.2377 50.6399 50.2464L50.6226 50.2598C50.6147 50.2652 50.6076 50.2716 50.6015 50.279L50.5823 50.3001C50.423 50.4921 50.2924 50.9357 50.2444 51.3945C50.2114 51.6729 50.2217 51.9546 50.2751 52.2297C50.2837 52.2744 50.2965 52.3181 50.3135 52.3603L52.2047 52.4717L53.0706 52.5235L54.238 52.5907L54.0652 56.5017C54.0652 56.5017 53.5852 56.8531 53.0092 57.3485C52.552 57.7372 52.1263 58.1615 51.7362 58.6176C51.7017 58.656 51.6729 58.6963 51.6402 58.7385L51.5212 58.8979C51.5092 58.9114 51.4989 58.9262 51.4905 58.9421C50.9736 59.7223 50.4981 60.5292 50.0658 61.3593C49.5916 62.2349 49.1807 63.0201 49.0079 63.2621C48.8044 63.5481 48.4319 64.2854 48.0479 64.9593C47.7426 65.5065 47.4335 66.0153 47.2108 66.2054C46.7174 66.6278 46.414 67.0829 46.6655 67.2C46.917 67.3171 47.326 67.248 48.0786 66.624C48.0882 66.6193 48.0966 66.6128 48.1036 66.6048C48.8485 65.9904 50.7493 63.4637 50.8665 63.3081C50.9836 63.1526 51.1391 62.9721 51.2793 62.8051C51.3349 62.736 51.3926 62.663 51.4521 62.5939C51.7919 62.1849 52.2201 61.6608 52.6041 61.2038C52.6982 61.0848 52.7961 60.9677 52.8959 60.8486C52.9522 60.7795 53.0098 60.7104 53.0687 60.6413C53.1935 60.4877 53.3202 60.336 53.4527 60.1843C53.8367 59.7369 53.9289 59.8003 53.9289 59.8003L53.9001 60.5011L53.8789 60.9523L53.1762 86.4403C53.8041 86.3155 54.43 86.5997 55.0521 86.4403C55.6434 86.2886 56.805 86.6227 57.3887 86.4403H57.4022L56.4594 56.6496V56.6035L56.4863 56.5766L56.9029 56.1158L59.0534 53.7504C59.059 53.7426 59.0662 53.736 59.0745 53.7312C59.1056 53.7534 59.1383 53.7733 59.1724 53.7907C59.228 53.8256 59.2915 53.8457 59.3571 53.8491C59.4226 53.8525 59.4879 53.839 59.5468 53.8099C59.7388 53.6793 60.165 52.7654 60.165 52.7654L60.7199 52.6233H60.7334L61.0041 52.5542L61.2364 52.7712L62.6495 54.144L62.709 54.1997L70.5369 61.4745L70.5484 61.4841C70.5964 61.5398 71.0418 62.0217 71.3298 61.8797C71.566 61.7664 70.9228 60.8889 70.6252 60.5088ZM56.7302 54.336L56.6073 54.4761L56.5919 54.4934L56.4383 54.6662H56.4287V52.8H56.6073H57.6364L57.6921 53.0285V53.0611L57.5788 53.2301C57.3147 53.6128 57.0315 53.9819 56.7302 54.336Z" fill="white"/>
<path d="M61.4745 52.3584L61.2172 52.8192L60.9849 52.608L60.7065 52.679H60.6931L60.1382 52.8211C60.1382 52.8211 59.7216 53.735 59.52 53.8656C59.4611 53.8946 59.3958 53.9081 59.3303 53.9048C59.2647 53.9014 59.2011 53.8813 59.1456 53.8464L59.2742 53.5046C59.1808 53.2408 59.003 53.0153 58.7683 52.8629C58.5336 52.7105 58.2552 52.6398 57.9763 52.6617L57.888 53.2128C57.888 53.2128 57.504 52.5696 57.5136 52.4793C57.5232 52.3891 56.9702 51.7997 56.8838 50.9337C56.7974 50.0678 57.2236 48.3744 59.4393 48.8333C59.4393 48.8333 58.7232 48.9024 58.4332 50.0851C58.1433 51.2678 59.904 52.1049 61.4745 52.3584Z" fill="#CFD8DC"/>
<path d="M53.8252 61.0349L55.9334 58.8384L55.7318 57.481L53.9577 59.6698L53.8252 61.0349Z" fill="#CFD8DC"/>
<path d="M55.3306 51.0509V50.7667L56.5382 51.959L56.4403 52.7482V54.7354C56.1254 55.0502 55.5917 55.4803 55.3421 55.6762C55.369 52.9594 55.369 51.1411 55.3306 51.0509Z" fill="#CFD8DC"/>
<path d="M57.3752 86.494H57.3618C56.7858 86.6764 55.6165 86.3424 55.0251 86.494C55.0885 82.8633 55.173 68.0985 55.2402 63.5654C55.2594 62.2598 55.2767 60.9811 55.2939 59.7753C55.2939 59.6812 55.2939 59.5833 55.2939 59.4988C55.2939 58.9824 55.3074 58.4793 55.3131 57.9935V57.984L55.4648 57.8112L55.7317 57.5059L56.4287 56.7072L57.3752 86.494Z" fill="#CFD8DC"/>
<path d="M71.3299 61.8854C71.0246 62.0371 70.5446 61.4861 70.5446 61.4861L60.9849 52.608L60.7065 52.679C61.2223 52.5271 61.7072 52.2853 62.1389 51.9648C63.168 52.3795 64.5696 53.5008 64.9267 54.1632C65.2838 54.8256 66.7488 56.5517 66.7488 56.5517L70.4889 60.3379C70.4889 60.3379 71.6333 61.7337 71.3299 61.8854Z" fill="#CFD8DC"/>
<path d="M56.9394 50.2483C56.9394 50.2483 51.3023 49.9162 50.6994 50.1965C50.0965 50.4768 50.1138 51.8861 50.2962 52.3872L57.5058 52.8115V52.4774L57.5231 52.3872C57.5231 52.3872 56.7858 51.8669 56.9394 50.2483Z" fill="#CFD8DC"/>
<path d="M58.6714 52.7481C58.6714 52.7481 57.6307 55.0003 56.2579 55.9737C54.8851 56.9472 52.1971 58.8019 49.8835 61.582C49.8835 61.582 51.0835 58.9382 52.4083 57.84C53.7331 56.7417 55.5187 55.6876 56.0563 55.1212C56.5939 54.5548 57.9763 52.6598 57.9763 52.6598L58.6714 52.7481Z" fill="#CFD8DC"/>
<path d="M59.9578 32.9241C59.1494 36.9926 58.9286 42.6643 59.449 44.6592C59.9693 46.6541 59.7965 47.8867 59.7965 47.8867H58.9709V47.856L59.1763 47.8176C59.0821 47.0816 58.9129 46.3572 58.6713 45.6557C58.2355 44.3117 58.1146 44.1619 58.0262 42.3917C57.9379 40.6214 59.3318 35.2205 59.7427 33.671C59.8118 33.4137 59.8886 33.1411 59.9693 32.8685L59.9578 32.9241Z" fill="#CFD8DC"/>
<path d="M58.6713 48.7277C58.0089 48.7526 57.4981 48.9062 57.1833 49.536C56.7186 50.4614 56.7666 51.696 57.5289 52.3872" stroke="#263238" stroke-linecap="round" stroke-linejoin="round"/>
<path d="M60.1382 52.8192C61.3766 52.5734 62.4787 51.8918 62.5228 51.2659C62.567 50.64 61.8335 49.8259 60.8275 49.2825" stroke="#263238" stroke-linecap="round" stroke-linejoin="round"/>
<path d="M60.9235 49.3439L60.7719 47.8943H58.802L58.6714 48.7353C59.0532 48.7496 59.4315 48.8142 59.7965 48.9273" stroke="#263238" stroke-linecap="round" stroke-linejoin="round"/>
<path d="M59.1685 47.8867C59.1685 47.8867 59.3413 46.9267 58.4005 45.095C57.4597 43.2633 58.4005 38.9299 59.1685 35.8118C59.9365 32.6937 60.6085 30.4358 61.2651 30.3033C61.9218 30.1708 60.7122 38.2367 60.6431 41.735C60.5739 45.2332 60.3263 46.1107 60.4511 47.879" stroke="#263238" stroke-linecap="round" stroke-linejoin="round"/>
<path d="M59.2761 53.5027C59.2761 53.5027 58.7654 52.391 57.9763 52.6598C57.3081 53.6909 56.5151 54.8659 55.5033 55.5802C54.4377 56.3309 53.3203 56.8781 52.4083 57.84C51.5361 58.8008 50.7896 59.8685 50.1868 61.0176C49.1155 62.9606 48.2303 65.0362 46.8057 66.7373C46.6847 66.8813 46.5542 67.0771 46.6502 67.2384C46.7462 67.3997 47.0342 67.3613 47.2262 67.2595C48.3955 66.6374 49.1097 65.4682 49.9276 64.4736C50.5766 63.6845 51.2217 62.8934 51.8707 62.1062C53.3625 60.2995 54.8601 58.4986 56.3827 56.7187C56.9587 56.0448 57.5347 55.3747 58.1299 54.7162C58.2163 54.6182 59.303 53.568 59.2761 53.5027Z" stroke="#263238" stroke-linecap="round" stroke-linejoin="round"/>
<path d="M57.7438 53.015C57.6386 52.8491 57.5602 52.6677 57.5115 52.4774C57.5115 52.3065 57.8955 51.7593 57.8955 51.7593" stroke="#263238" stroke-linecap="round" stroke-linejoin="round"/>
<path d="M59.0456 53.783C59.0456 53.783 59.4296 53.9597 59.5698 53.783C59.7099 53.6064 60.1957 52.7097 60.1957 52.7097C60.1957 52.7097 59.5429 51.8669 59.0437 51.7593" stroke="#263238" stroke-linecap="round" stroke-linejoin="round"/>
<path d="M61.0271 52.5849C62.9471 54.4281 70.6425 61.8854 71.134 61.8854C71.6985 61.8854 70.9017 60.8601 70.4889 60.334C70.0761 59.808 66.1305 56.302 65.0399 54.3475C64.3468 53.0995 62.9279 52.295 62.1061 51.9456" stroke="#263238" stroke-linecap="round" stroke-linejoin="round"/>
<path d="M57.6364 52.8192L55.991 52.7232L55.1155 52.6694L53.0534 52.5504L52.1894 52.4985L50.2963 52.3872C50.2963 52.3872 49.9737 50.6592 50.6995 50.1965C51.191 49.8854 52.679 49.4534 53.8156 49.1981C54.2257 49.0958 54.6429 49.0245 55.0636 48.9849C55.3201 48.9823 55.5765 48.9938 55.8316 49.0195C56.1964 49.0502 56.5881 49.0982 56.903 49.1385C57.0489 49.1577 57.2985 49.1616 57.3984 49.1769" stroke="#263238" stroke-linecap="round" stroke-linejoin="round"/>
<path d="M54.0479 56.5305L54.2207 52.6176" stroke="#263238" stroke-linecap="round" stroke-linejoin="round"/>
<path d="M57.3619 86.494H53.1494L53.8521 61.006V61.0041L53.8733 60.5529L53.8752 60.5337L53.9117 59.6544" stroke="#263238" stroke-linecap="round" stroke-linejoin="round"/>
<path d="M57.3619 86.494C57.287 82.9056 56.6131 67.7433 56.5382 63.454C56.5133 62.11 56.4921 60.8006 56.4729 59.6006C56.4576 58.5485 56.4422 57.5731 56.4326 56.7206V56.6765" stroke="#263238" stroke-linecap="round" stroke-linejoin="round"/>
<path d="M56.448 52.7482C56.4192 52.7482 56.423 53.4509 56.4326 54.7565" stroke="#263238" stroke-linecap="round" stroke-linejoin="round"/>
<path d="M55.8334 49.0195C55.3554 49.1712 53.5026 49.7875 53.3029 50.1197C53.0245 50.5901 53.036 51.9706 53.0533 52.5504L52.1893 52.4986C52.172 51.792 52.1797 50.448 52.4638 49.9738C52.6962 49.6973 53.2606 49.4189 53.8078 49.2058C54.2179 49.1035 54.6351 49.0322 55.0558 48.9926C55.3153 48.987 55.5749 48.996 55.8334 49.0195Z" fill="#263238"/>
<path d="M57.4078 49.2077C57.4078 49.2077 56.2942 49.7165 56.0926 50.2579C55.9237 50.7091 55.9755 52.224 55.9986 52.7232L55.123 52.6694C55.123 52.0397 55.1422 50.544 55.2306 50.1542C55.3419 49.6589 56.9125 49.1385 56.9125 49.1385L57.2869 49.1904L57.4078 49.2077Z" fill="#263238"/>
<path d="M56.4728 59.591C55.9635 59.7028 55.446 59.7728 54.9253 59.8003V63.5385C55.464 63.6061 56.0106 63.5748 56.5381 63.4464" stroke="#263238" stroke-linecap="round" stroke-linejoin="round"/>
<path d="M54.2207 52.6176C54.7983 53.2654 55.588 53.6862 56.4479 53.8041L56.4364 52.7059L54.2207 52.6176Z" fill="#263238"/>
<path opacity="0.1" d="M56.4325 56.7033L55.7355 57.502V57.4809L55.4744 57.8054L55.3227 57.9782V57.9916L53.9518 59.6697L53.8193 61.0348L55.292 59.4988C55.292 59.591 55.292 59.6908 55.292 59.7734C55.2747 60.9791 55.2574 62.2579 55.2382 63.5635C55.171 68.0966 55.0865 82.8614 55.0232 86.4921C55.6145 86.3404 56.7761 86.6745 57.3598 86.4921H57.3733L56.4325 56.6995V56.7033Z" fill="black"/>
<path opacity="0.1" d="M70.489 60.3321L66.7488 56.5459C66.7488 56.5459 65.2877 54.8275 64.9267 54.1574C64.5658 53.4873 63.168 52.3737 62.1389 51.959C61.9284 52.1164 61.7041 52.2546 61.4688 52.3718V52.3584C59.8887 52.1049 58.1376 51.2678 58.4275 50.0832C58.7175 48.8985 59.4336 48.8313 59.4336 48.8313C57.7229 48.4761 57.0797 49.4073 56.9146 50.2464C56.5651 50.2272 51.2775 49.9257 50.6938 50.1964C50.1101 50.4672 50.1082 51.886 50.2906 52.3872L55.3555 52.6848C55.3555 53.4624 55.3555 54.4819 55.3363 55.6761C55.5379 55.5187 55.9258 55.2057 56.233 54.9254C56.1677 55.0003 56.1082 55.0675 56.0563 55.1174C55.513 55.6934 53.7293 56.7379 52.4083 57.8361C51.0874 58.9344 49.8835 61.5782 49.8835 61.5782C52.1971 58.798 54.8851 56.9433 56.2579 55.9699C57.5251 55.0713 58.5063 53.0899 58.6522 52.7846C58.9393 52.9393 59.1604 53.1932 59.2743 53.4988L59.1456 53.8406C59.2012 53.8755 59.2648 53.8956 59.3303 53.899C59.3959 53.9024 59.4612 53.8889 59.52 53.8598C59.7216 53.7292 60.1383 52.8153 60.1383 52.8153L60.6931 52.6732H60.7066L60.985 52.6022L70.5447 61.486C70.5447 61.486 71.0247 62.0371 71.3299 61.8854C71.6352 61.7337 70.489 60.3321 70.489 60.3321ZM57.3907 52.2508C57.2296 52.0541 57.1112 51.8258 57.0432 51.5808C57.1364 51.8152 57.2528 52.0397 57.3907 52.2508ZM56.4307 54.6854V52.7481L57.4963 52.8115V52.4774C57.5494 52.6532 57.6283 52.8202 57.7306 52.9728C57.4387 53.3932 56.8743 54.1536 56.448 54.6854H56.4307ZM57.9667 52.6598C58.1474 52.646 58.3289 52.6689 58.5005 52.727L57.9667 52.6598Z" fill="black"/>
<path opacity="0.1" d="M58.6713 45.6556C58.9128 46.3572 59.082 47.0816 59.1762 47.8175L58.9708 47.8559V47.8867H59.7964C59.7964 47.8867 59.9692 46.654 59.4489 44.6592C58.9286 42.6643 59.1494 36.9926 59.9577 32.9241L59.9692 32.8627C59.8886 33.1353 59.8118 33.4079 59.7426 33.6652C59.3318 35.2147 57.9359 40.6137 58.0262 42.3859C58.1164 44.158 58.2354 44.3135 58.6713 45.6556Z" fill="black"/>
<path d="M61.2001 44.736L58.6388 42.6471C58.6388 42.6471 54.8295 38.8071 54.2228 37.6973C53.6161 36.5876 52.6714 35.714 50.9588 35.0266L50.905 35.0036C51.1394 34.8763 51.3307 34.6822 51.4545 34.446C51.5783 34.2097 51.6289 33.942 51.6001 33.6768C51.5156 32.7168 49.9892 31.1962 48.9332 30.6663L48.6817 28.2586H48.2477L48.1172 26.7783C48.1172 26.7783 48.2362 20.1524 48.5837 15.9629C48.9313 11.7735 49.2385 9.66723 49.4266 7.11363C49.6148 4.56003 49.9546 5.06307 49.2596 4.62915C48.6836 4.27011 47.1725 8.43651 47.0593 8.85315C46.3738 11.4298 44.5153 16.5735 44.5153 19.5226C44.5153 22.0416 44.1409 22.9997 45.1853 24.5434C46.4967 26.4826 46.0244 28.1357 46.0244 28.1357L45.6826 28.1991L45.4042 28.249L45.2775 29.0439L45.1853 29.6487C45.1853 29.6487 43.7665 29.5853 43.0733 30.4455C41.3337 30.0672 39.5393 30.0125 37.7799 30.2842C34.8097 30.7316 32.2541 31.7588 31.7549 32.2042C31.2557 32.6496 30.8756 34.681 31.2442 35.7216L37.7722 36.1056V36.1383L41.449 36.4416V36.4282H41.7466L43.4612 36.4378L43.5015 36.6087L43.8855 37.0157C43.4285 37.728 42.5837 38.5056 42.1172 39.0452C41.9353 39.2534 41.7089 39.4181 41.4548 39.5271V39.4944C40.8653 40.1031 39.8708 41.0804 39.0817 41.5853C38.4711 41.9693 37.7108 42.4877 37.1079 42.8967C36.3399 43.4919 35.1265 44.8512 34.0359 46.7367C32.8954 48.7104 30.8295 52.0762 29.7313 53.4413C29.2321 54.8564 31.9316 52.946 31.9316 52.946C31.9316 52.946 35.7831 48.4589 36.5223 47.57C36.8449 47.186 41.1706 42.4128 41.1706 42.4128L43.346 40.0608L45.5636 37.8394C45.6967 37.9468 45.8351 38.0474 45.9783 38.1408C46.0715 38.1986 46.178 38.2316 46.2875 38.2366C46.3971 38.2416 46.5061 38.2186 46.6042 38.1696C46.9364 37.9546 47.6314 36.4416 47.6314 36.4416L48.5569 36.2055H48.578L49.1789 36.05L49.4669 36.3821L62.0007 46.6637L62.4807 46.6848L62.2753 46.0628L61.2001 44.736Z" fill="white"/>
<path d="M39.2526 44.617L38.8628 53.5027L38.2561 67.321L37.6187 81.8016H44.21L43.3479 40.08L39.2526 44.617Z" fill="white"/>
<path d="M43.3459 39.625V36.5703L39.6691 36.2669L39.383 42.7373C39.383 42.7373 39.239 42.8429 38.999 43.0272C39.6019 42.6183 40.3641 42.1075 40.9728 41.7178C41.7619 41.2128 42.7584 40.2336 43.3459 39.625Z" fill="white"/>
<path d="M49.8605 35.6909L49.442 35.9309L49.0426 36.0941L48.5799 36.2113H48.5588L47.6333 36.4474C47.6333 36.4474 46.9383 37.9661 46.6061 38.1754C46.3969 38.3098 45.6903 38.0737 45.529 37.9834L46.1415 37.2308C46.1415 37.2308 45.9706 36.0788 44.4519 36.217L43.8874 37.0829C43.8874 37.0829 43.2327 36.0154 43.2615 35.8657C43.2903 35.7159 42.3591 34.7348 42.2151 33.2948C42.0711 31.8548 42.7815 29.042 46.4698 29.8061C46.4698 29.8061 45.2775 29.9213 44.7937 31.8874C44.3098 33.8535 47.2321 35.2666 49.8605 35.6909Z" fill="#CFD8DC"/>
<path d="M39.0835 46.967L42.5933 43.319L42.2861 41.257L39.3043 44.6995L39.0835 46.967Z" fill="#CFD8DC"/>
<path d="M41.5872 33.5156V33.0452L43.5993 35.0266L43.4361 36.338V39.6384C42.8539 40.1908 42.2438 40.7131 41.6083 41.2032C41.6524 36.6874 41.664 33.6653 41.5872 33.5156Z" fill="#CFD8DC"/>
<path d="M44.21 86.4941H40.9307C41.0132 81.9725 41.7275 55.2154 41.8907 41.6468L43.3345 40.2625L44.21 86.4941Z" fill="#CFD8DC"/>
<path d="M62.352 46.752C61.8451 47.0036 49.248 36.0096 49.248 36.0096L48.9907 35.881C49.7329 35.7387 50.4289 35.417 51.0182 34.944C52.7309 35.6314 54.0173 37.1597 54.6125 38.258C55.2077 39.3562 58.5466 42.194 58.5466 42.194L61.6954 45.2871C61.6954 45.2871 62.857 46.4986 62.352 46.752Z" fill="#CFD8DC"/>
<path d="M42.3074 32.1831C42.3074 32.1831 32.9224 31.6301 31.9182 32.0967C30.9141 32.5632 30.941 34.9056 31.2462 35.7447L43.252 36.4474V35.8925L43.2808 35.7427C43.2808 35.7427 42.0482 34.873 42.3074 32.1831Z" fill="#CFD8DC"/>
<path d="M45.191 36.338C45.191 36.338 43.7645 40.6388 41.1725 41.6967C36.4377 43.6321 34.4909 47.7082 30.6355 52.3296C30.6355 52.3296 33.3792 47.7831 34.9075 45.362C37.1673 41.7773 39.5904 40.754 40.7136 40.0801C42.2653 39.1379 43.5517 37.8165 44.4518 36.2401L45.191 36.338Z" fill="#CFD8DC"/>
<path d="M46.4852 22.8979C47.4452 26.185 47.0612 28.2586 47.0612 28.2586H45.6961V28.2086L46.0379 28.1453C46.0379 28.1453 46.4468 27.2333 45.3831 25.1462C44.8743 24.1478 44.6977 24.432 44.4865 21.4982C44.2753 18.5645 46.8673 8.18881 48.5185 5.32033C48.7201 4.93249 44.6996 16.7827 46.4852 22.8979Z" fill="#CFD8DC"/>
<path d="M45.1911 29.6583C44.0871 29.6986 43.2385 29.9559 42.7124 31.0023C41.9444 32.5383 42.0193 34.5888 43.2884 35.737" stroke="#263238" stroke-width="1.02127" stroke-linecap="round" stroke-linejoin="round"/>
<path d="M47.6333 36.4551C49.6954 36.0481 51.529 34.9191 51.6039 33.8746C51.6787 32.8301 50.4519 31.4823 48.7815 30.5799" stroke="#263238" stroke-width="1.02127" stroke-linecap="round" stroke-linejoin="round"/>
<path d="M48.939 30.6663L48.6875 28.2586H45.41L45.1912 29.6583C45.1912 29.6583 45.8152 29.6372 47.0651 29.9751" stroke="#263238" stroke-width="1.02127" stroke-linecap="round" stroke-linejoin="round"/>
<path d="M46.1186 28.2586C46.1186 28.2586 46.3759 26.976 44.9839 24.5088C43.5919 22.0416 44.9685 16.2221 46.1359 12.0288C47.3032 7.83553 48.2843 4.81153 49.2655 4.62529C50.2466 4.43905 48.4399 15.2871 48.3362 19.9853C48.2325 24.6835 47.8639 25.8643 48.0578 28.2509" stroke="#263238" stroke-width="1.02127" stroke-linecap="round" stroke-linejoin="round"/>
<path d="M46.1416 37.2481C46.1416 37.2481 45.4773 35.9041 44.452 36.2343C43.5861 37.4746 42.5569 38.8839 41.2398 39.7421C39.8574 40.6445 38.4059 41.3031 37.2232 42.457C36.1018 43.5992 35.1337 44.8822 34.3432 46.274C32.9531 48.6106 31.803 51.1028 29.9502 53.1456C29.7947 53.3184 29.6238 53.5546 29.7486 53.7485C29.8734 53.9425 30.2536 53.8944 30.4974 53.7754C32.0161 53.0266 32.9454 51.6212 34.0072 50.4269C34.8501 49.4804 35.6872 48.53 36.5301 47.5834C38.4673 45.4119 40.4123 43.2481 42.3899 41.1111C43.1368 40.3028 43.8894 39.4964 44.6574 38.7034C44.7649 38.5921 46.1762 37.3249 46.1416 37.2481Z" stroke="#263238" stroke-width="1.02127" stroke-linecap="round" stroke-linejoin="round"/>
<path d="M43.6474 36.7795C43.6474 36.7795 43.2768 36.1709 43.2634 35.8867C43.25 35.6026 43.8893 34.6964 43.8893 34.6964" stroke="#263238" stroke-width="1.02127" stroke-linecap="round" stroke-linejoin="round"/>
<path d="M45.8151 38.0583C45.8151 38.0583 46.4468 38.352 46.6868 38.0583C46.9268 37.7645 47.7313 36.2746 47.7313 36.2746C47.7313 36.2746 46.6407 34.8749 45.8113 34.6964" stroke="#263238" stroke-width="1.02127" stroke-linecap="round" stroke-linejoin="round"/>
<path d="M49.1809 36.0077C51.6635 38.1907 61.5918 46.7597 62.2369 46.7597C62.9684 46.7597 61.9355 45.5462 61.3979 44.9222C60.8603 44.2982 55.7435 40.1549 54.3303 37.8394C53.5187 36.5578 52.3253 35.5633 50.9185 34.9958" stroke="#263238" stroke-width="1.02127" stroke-linecap="round" stroke-linejoin="round"/>
<path d="M43.467 36.4551L40.7272 36.288L39.2718 36.1997L35.8389 36.0077L34.397 35.9232L31.2463 35.7312C31.2463 35.7312 30.7087 32.8512 31.9183 32.0832C32.7362 31.5687 35.213 30.8506 37.1023 30.4244C37.7842 30.2542 38.478 30.1361 39.1778 30.0711C39.6054 30.066 40.0329 30.0846 40.4584 30.1268C41.067 30.1805 41.7199 30.2592 42.244 30.3284C42.4879 30.3572 42.9026 30.3648 43.0696 30.3898" stroke="#263238" stroke-width="1.02127" stroke-linecap="round" stroke-linejoin="round"/>
<path d="M39.552 40.7136L39.7402 36.3956" stroke="#263238" stroke-width="1.02127" stroke-linecap="round" stroke-linejoin="round"/>
<path d="M43.348 40.08C43.4996 53.04 44.21 86.4941 44.21 86.4941H37.6206L39.2526 44.617" stroke="#263238" stroke-width="1.02127" stroke-linecap="round" stroke-linejoin="round"/>
<path d="M40.464 30.144C39.6711 30.3975 36.5856 31.4132 36.2515 31.9738C35.7869 32.7552 35.808 35.0458 35.8387 36.0058L34.3968 35.9213C34.3699 34.7463 34.3834 32.5152 34.8576 31.7261C35.2416 31.2653 36.1824 30.8045 37.1079 30.4359C37.7898 30.2658 38.4836 30.1477 39.1834 30.0826C39.6111 30.0794 40.0386 30.0999 40.464 30.144Z" fill="#263238"/>
<path d="M43.0752 30.4551C43.0752 30.4551 41.2224 31.296 40.896 32.1984C40.6137 32.9472 40.704 35.4624 40.7366 36.2957L39.2812 36.2074C39.2812 35.1591 39.31 32.6746 39.4579 32.0295C39.6499 31.2058 42.2592 30.3418 42.2592 30.3418L42.8832 30.4263L43.0752 30.4551Z" fill="#263238"/>
<path d="M43.4919 49.8106C42.6442 49.9983 41.7824 50.1152 40.9153 50.16V56.3693C41.8131 56.4828 42.7242 56.4307 43.6033 56.2157" stroke="#263238" stroke-width="1.02127" stroke-linecap="round" stroke-linejoin="round"/>
<path d="M43.4286 37.6704C43.2462 37.872 43.0446 38.0794 42.8699 38.2618C41.6248 37.9313 40.5131 37.2221 39.6885 36.2324L43.4171 36.5434L43.4286 37.6704Z" fill="#263238"/>
<path d="M62.0718 87.8189C62.2023 86.8051 62.2638 84.9389 61.2519 83.9213C59.8023 82.4717 57.6289 84.8256 57.0855 84.8256C56.5422 84.8256 56.3598 83.3779 54.7297 82.1088C53.0996 80.8397 51.1066 82.4717 50.0199 82.1088C48.9332 81.7459 50.9262 76.1318 47.8465 75.9513C44.7668 75.7709 43.6801 83.5584 41.5105 83.5584C39.3409 83.5584 38.9742 82.1088 36.8007 83.3779C35.0977 84.3705 34.1742 86.807 33.8535 87.8189H62.0718Z" fill="#CFD8DC"/>
<path opacity="0.2" d="M62.0718 87.8189C62.2023 86.8051 62.2638 84.9389 61.2519 83.9213C59.8023 82.4717 57.6289 84.8256 57.0855 84.8256C56.5422 84.8256 56.3598 83.3779 54.7297 82.1088C53.0996 80.8397 51.1066 82.4717 50.0199 82.1088C48.9332 81.7459 50.9262 76.1318 47.8465 75.9513C44.7668 75.7709 43.6801 83.5584 41.5105 83.5584C39.3409 83.5584 38.9742 82.1088 36.8007 83.3779C35.0977 84.3705 34.1742 86.807 33.8535 87.8189H62.0718Z" fill="black"/>
<path d="M39.7575 87.696L37.9163 84.7027" stroke="#263238" stroke-linecap="round" stroke-linejoin="round"/>
<path d="M46.8269 87.6172L47.7984 78.4646" stroke="#263238" stroke-linecap="round" stroke-linejoin="round"/>
<path d="M52.4392 87.696L53.3877 84.2169" stroke="#263238" stroke-linecap="round" stroke-linejoin="round"/>
<path d="M59.3337 87.696L60.2726 85.4304" stroke="#263238" stroke-linecap="round" stroke-linejoin="round"/>
<path d="M40.0225 84.7833L39.051 86.4844L36.7834 85.5936" stroke="#263238" stroke-linecap="round" stroke-linejoin="round"/>
<path d="M46.3413 79.1942L47.4741 81.2198L49.0139 79.3555" stroke="#263238" stroke-linecap="round" stroke-linejoin="round"/>
<path d="M45.6921 82.4352L47.1513 84.2169L48.6086 83.0822" stroke="#263238" stroke-linecap="round" stroke-linejoin="round"/>
<path d="M52.9824 85.7549L54.9255 84.6221" stroke="#263238" stroke-linecap="round" stroke-linejoin="round"/>
<path d="M52.8211 86.4038L51.8477 83.8925" stroke="#263238" stroke-linecap="round" stroke-linejoin="round"/>
<path d="M59.787 86.6457L59.2993 85.0253" stroke="#263238" stroke-linecap="round" stroke-linejoin="round"/>
<path d="M59.6238 86.9702L61.0004 86.4038" stroke="#263238" stroke-linecap="round" stroke-linejoin="round"/>
<path d="M82.7864 27.5961H90.7045C90.7045 27.5961 91.0885 26.4288 89.685 25.6627C88.2815 24.8966 87.6402 25.5341 87.1295 24.8947C86.6187 24.2553 88.5349 22.5907 84.7026 20.9337C84.7026 20.9337 84.4453 17.3433 79.2056 17.2262C73.9659 17.1091 75.3656 20.8166 73.9679 21.7152C72.5701 22.6137 72.1727 21.2025 70.7711 22.0992C69.3695 22.9958 70.0031 24.7872 68.8511 25.0368C67.6991 25.2864 66.163 23.8848 64.7614 24.7833C63.3598 25.6819 63.3541 26.4441 62.7147 26.4441C62.0754 26.4441 60.7947 25.9315 60.0267 26.4441C59.2587 26.9568 58.364 27.5961 58.364 27.5961H81.1679" stroke="#263238" stroke-miterlimit="10"/>
<path d="M12.3052 50.496H30.4262C30.4262 50.496 29.9289 50.1369 29.493 49.8509C29.0572 49.5648 28.341 49.8509 27.9839 49.8509C27.6268 49.8509 27.621 49.4208 26.8319 48.9196C26.0428 48.4185 25.1845 49.2 24.5413 49.0636C23.8981 48.9273 24.2514 47.9116 23.4681 47.4163C22.6847 46.9209 22.4658 47.7043 21.6767 47.2012C20.8876 46.6982 21.6767 44.6227 18.741 44.688C15.8053 44.7532 15.669 46.7654 15.669 46.7654C13.5205 47.6947 14.5957 48.6278 14.3077 48.9849C14.0197 49.342 13.6626 48.9849 12.8773 49.4131C12.0921 49.8412 12.3052 50.496 12.3052 50.496Z" stroke="#263238" stroke-miterlimit="10"/>
<path d="M72.5454 37.8374C74.1243 37.8064 75.6998 37.9958 77.2264 38.4C79.371 38.9645 81.4273 39.8995 83.6238 40.199C85.8203 40.4986 88.3163 40.007 89.6641 38.2522" stroke="#263238" stroke-linecap="round" stroke-linejoin="round"/>
<path d="M64.251 40.7635C66.1441 39.1546 68.5057 38.2522 70.971 37.9488" stroke="#263238" stroke-linecap="round" stroke-linejoin="round"/>
<path d="M85.9028 43.008C87.3793 42.816 88.7732 42.2093 89.6641 41.0458" stroke="#263238" stroke-linecap="round" stroke-linejoin="round"/>
<path d="M64.251 43.5571C67.7339 40.5965 72.8065 40.0262 77.2263 41.1917C79.371 41.7561 81.4273 42.6912 83.6238 42.9907C84.0354 43.0473 84.4505 43.0748 84.866 43.0733" stroke="#263238" stroke-linecap="round" stroke-linejoin="round"/>
<path d="M80.7302 45.0874C81.6731 45.4017 82.6411 45.6349 83.6237 45.7843C85.824 46.08 88.32 45.5981 89.664 43.8375" stroke="#263238" stroke-linecap="round" stroke-linejoin="round"/>
<path d="M74.208 43.4727C75.2274 43.5531 76.2375 43.7247 77.2262 43.9853C78.2112 44.2445 79.177 44.5824 80.1447 44.8992" stroke="#263238" stroke-linecap="round" stroke-linejoin="round"/>
<path d="M64.251 46.3507C66.3975 44.5267 69.147 43.609 71.9751 43.4477" stroke="#263238" stroke-linecap="round" stroke-linejoin="round"/>
</svg>