<svg width="184" height="184" viewBox="0 0 184 184" fill="none" xmlns="http://www.w3.org/2000/svg">
<path d="M151.458 112.35C150.91 113.281 150.354 114.19 149.783 115.081C149.415 115.637 149.066 116.185 148.701 116.73C148.091 117.635 147.47 118.517 146.839 119.376L146.777 119.456C146.493 119.847 146.199 120.233 145.912 120.612C145.625 120.991 145.389 121.289 145.125 121.62C145.01 121.76 144.9 121.904 144.786 122.04L144.646 122.216C144.43 122.489 144.209 122.757 143.984 123.022C143.686 123.39 143.391 123.729 143.089 124.079C142.788 124.428 142.541 124.704 142.265 125.013C142.122 125.175 141.982 125.33 141.835 125.488C141.555 125.801 141.268 126.106 140.981 126.412C140.694 126.717 140.318 127.111 139.984 127.449L139.958 127.479C139.634 127.803 139.31 128.13 138.986 128.447C138.504 128.918 138.022 129.378 137.533 129.83C136.925 130.393 136.311 130.934 135.693 131.479C135.675 131.492 135.659 131.507 135.645 131.523C134.931 132.138 134.21 132.73 133.481 133.308C132.357 134.201 131.219 135.05 130.066 135.855C129.683 136.122 129.297 136.387 128.907 136.649C128.145 137.165 127.372 137.658 126.592 138.121L126.522 138.166C126.154 138.394 125.768 138.622 125.385 138.846L125.308 138.887C124.53 139.348 123.744 139.788 122.949 140.208L122.11 140.65L121.62 140.9C121.252 141.091 120.884 141.268 120.494 141.459C119.67 141.86 118.846 142.239 118.01 142.607C117.591 142.788 117.171 142.975 116.752 143.141C116.332 143.307 115.913 143.487 115.486 143.652C115.059 143.818 114.643 143.98 114.22 144.138C113.797 144.296 113.436 144.425 113.042 144.565L112.615 144.712C112.299 144.826 111.979 144.929 111.659 145.04C111.228 145.18 110.798 145.32 110.367 145.452H110.341C109.115 145.835 107.888 146.182 106.661 146.493C105.362 146.832 104.052 147.123 102.738 147.384C84.2279 151.101 64.6209 148.068 48.3001 140.524C47.8769 140.326 47.4573 140.127 47.0415 139.917L46.4196 139.601C45.886 139.328 45.3561 139.038 44.8335 138.736C44.5943 138.604 44.3551 138.464 44.1196 138.324C43.8841 138.184 43.7516 138.103 43.5602 137.985C43.3689 137.868 43.2437 137.794 43.0892 137.691C42.9346 137.588 42.7212 137.47 42.5593 137.356C41.4356 136.62 40.3451 135.847 39.2877 135.038C39.0853 134.883 38.8829 134.725 38.6879 134.563L38.2757 134.232L37.7642 133.805C37.3962 133.499 37.0282 133.19 36.6897 132.87C36.5829 132.778 36.4836 132.686 36.3769 132.587C36.2701 132.487 36.0677 132.307 35.9169 132.164C35.2692 131.558 34.6411 130.934 34.0327 130.294L33.7089 129.948C32.8919 129.076 32.1154 128.171 31.3757 127.243C31.177 127 31.0077 126.754 30.8017 126.507C30.2018 125.731 29.6351 124.932 29.0941 124.119C28.9433 123.887 28.7887 123.655 28.6415 123.424C28.1263 122.618 27.6442 121.804 27.1695 120.973C27.0223 120.708 26.8788 120.439 26.7389 120.17C26.5991 119.902 26.4887 119.688 26.3709 119.434C25.9342 118.566 25.5282 117.681 25.1529 116.781C25.0572 116.549 24.9615 116.314 24.8695 116.075C24.3365 114.731 23.8758 113.36 23.4895 111.968C23.4306 111.754 23.3754 111.541 23.3165 111.331C23.3183 111.31 23.3183 111.289 23.3165 111.268C23.2761 111.103 23.2319 110.945 23.1951 110.779C23.1362 110.532 23.0773 110.29 23.0221 110.043C22.9669 109.796 22.9044 109.506 22.8492 109.241C22.7829 108.91 22.7167 108.571 22.6615 108.232C22.6063 107.894 22.5621 107.655 22.518 107.36C22.4738 107.066 22.4297 106.76 22.3892 106.459C21.3809 98.7086 22.9228 90.0275 27.0996 83.1938C27.6742 82.2502 28.3033 81.3409 28.9837 80.4706C29.8034 79.4215 30.7027 78.4372 31.6738 77.5266C31.7131 77.4835 31.7562 77.4441 31.8026 77.4088C33.4096 75.9204 35.2153 74.6621 37.1681 73.6699L38.5297 72.9854C39.4055 72.5512 40.2519 72.1354 41.0836 71.7416L41.8453 71.3736L41.9594 71.3184C42.5359 71.051 43.1039 70.7934 43.6633 70.5456C44.7084 70.0746 45.7216 69.6354 46.7029 69.2282C46.9495 69.1214 47.1961 69.0221 47.4389 68.9227C48.1749 68.6173 48.9109 68.3229 49.6138 68.0469C50.1511 67.8334 50.681 67.6274 51.2073 67.4323L51.3913 67.3587C51.8623 67.1821 52.326 66.9907 52.786 66.8435C54.6002 66.1664 56.3335 65.5555 58.0189 64.963C67.0313 61.7835 74.8071 59.0162 87.1609 49.6726C98.4511 41.1461 111.6 33.9038 126.224 35.144C144.69 36.7117 160.606 47.6266 162.428 66.895C163.823 81.6555 158.877 99.6912 151.458 112.35Z" fill="#CFD8DC"/>
<path opacity="0.7" d="M151.458 112.35C150.91 113.281 150.354 114.19 149.783 115.081C149.415 115.637 149.066 116.185 148.701 116.73C148.091 117.635 147.47 118.517 146.839 119.376L146.777 119.456C146.493 119.847 146.199 120.233 145.912 120.612C145.625 120.991 145.389 121.289 145.125 121.62C145.01 121.76 144.9 121.904 144.786 122.04L144.646 122.216C144.43 122.489 144.209 122.757 143.984 123.022C143.686 123.39 143.391 123.729 143.089 124.079C142.788 124.428 142.541 124.704 142.265 125.013C142.122 125.175 141.982 125.33 141.835 125.488C141.555 125.801 141.268 126.106 140.981 126.412C140.694 126.717 140.318 127.111 139.984 127.449L139.958 127.479C139.634 127.803 139.31 128.13 138.986 128.447C138.504 128.918 138.022 129.378 137.533 129.83C136.925 130.393 136.311 130.934 135.693 131.479C135.675 131.492 135.659 131.507 135.645 131.523C134.931 132.134 134.206 132.73 133.481 133.308C132.357 134.201 131.219 135.05 130.066 135.855C129.683 136.122 129.297 136.387 128.907 136.649C128.145 137.161 127.372 137.654 126.592 138.121L126.522 138.166C126.154 138.394 125.768 138.622 125.385 138.846L125.308 138.887C124.531 139.347 123.74 139.788 122.949 140.208L122.11 140.65L121.62 140.9C121.252 141.091 120.884 141.268 120.494 141.459C119.67 141.86 118.842 142.239 118.01 142.607C117.591 142.788 117.171 142.975 116.752 143.141C116.332 143.307 115.913 143.487 115.486 143.652C115.059 143.818 114.643 143.98 114.22 144.138C113.797 144.296 113.436 144.425 113.042 144.565L112.615 144.712C112.299 144.826 111.979 144.929 111.659 145.04C111.228 145.18 110.798 145.32 110.367 145.452H110.341C109.115 145.835 107.888 146.182 106.661 146.493C105.362 146.832 104.052 147.123 102.738 147.384C84.2279 151.101 64.6209 148.068 48.3001 140.524C47.8769 140.326 47.4573 140.127 47.0415 139.917L46.4196 139.601C45.886 139.328 45.3561 139.038 44.8335 138.736C44.5943 138.604 44.3551 138.464 44.1196 138.324C43.8841 138.184 43.7516 138.103 43.5602 137.985C43.3689 137.868 43.2437 137.794 43.0892 137.691C42.9346 137.588 42.7212 137.47 42.5593 137.356C41.4356 136.62 40.3451 135.847 39.2877 135.038C39.0853 134.883 38.8829 134.725 38.6879 134.563L38.2757 134.232L37.7642 133.805C37.3962 133.499 37.0282 133.19 36.6897 132.87C36.5829 132.778 36.4836 132.686 36.3769 132.587C36.2701 132.487 36.0677 132.307 35.9169 132.164C35.2692 131.558 34.6411 130.934 34.0327 130.294L33.7089 129.948C32.8919 129.076 32.1154 128.171 31.3757 127.243C31.177 127 31.0077 126.754 30.8017 126.507C30.2018 125.731 29.6351 124.932 29.0941 124.119C28.9433 123.887 28.7887 123.655 28.6415 123.424C28.1263 122.618 27.6442 121.804 27.1695 120.973C27.0223 120.708 26.8788 120.439 26.7389 120.17C26.5991 119.902 26.4887 119.688 26.3709 119.434C25.9342 118.566 25.5282 117.681 25.1529 116.781C25.0572 116.549 24.9615 116.314 24.8695 116.075C24.3365 114.731 23.8758 113.36 23.4895 111.968C23.4306 111.754 23.3754 111.541 23.3165 111.331C23.3183 111.31 23.3183 111.289 23.3165 111.268C23.2761 111.103 23.2319 110.945 23.1951 110.779C23.1362 110.532 23.0773 110.29 23.0221 110.043C22.9669 109.796 22.9044 109.506 22.8492 109.241C22.7829 108.91 22.7167 108.571 22.6615 108.232C22.6063 107.894 22.5621 107.655 22.518 107.36C22.4738 107.066 22.4297 106.76 22.3892 106.459C21.3809 98.7086 22.9228 90.0275 27.0996 83.1938C27.6742 82.2502 28.3033 81.3409 28.9837 80.4706C29.8034 79.4215 30.7027 78.4372 31.6738 77.5266C31.7131 77.4835 31.7562 77.4441 31.8026 77.4088C33.4096 75.9204 35.2153 74.6621 37.1681 73.6699L38.5297 72.9854C39.4055 72.5512 40.2519 72.1354 41.0836 71.7416L41.8453 71.3736L41.9594 71.3184C42.5359 71.051 43.1039 70.7934 43.6633 70.5456C44.7084 70.0746 45.7216 69.6354 46.7029 69.2282C46.9495 69.1214 47.1961 69.0221 47.4389 68.9227C48.1749 68.6173 48.9109 68.3229 49.6138 68.0469C50.1511 67.8334 50.681 67.6274 51.2073 67.4323L51.3913 67.3587C51.8623 67.1821 52.326 66.9907 52.786 66.8435C54.6002 66.1664 56.3335 65.5555 58.0189 64.963C67.0313 61.7835 74.8071 59.0162 87.1609 49.6726C98.4511 41.1461 111.6 33.9038 126.224 35.144C144.69 36.7117 160.606 47.6266 162.428 66.895C163.823 81.6555 158.877 99.6912 151.458 112.35Z" fill="white"/>
<path d="M146.832 119.376C136.951 132.815 124.149 141.183 110.36 145.467H110.334C109.107 145.849 107.881 146.197 106.654 146.508C105.356 146.844 104.048 147.141 102.731 147.399C84.2206 151.112 64.6172 148.083 48.2927 140.536C39.0806 136.288 31.5129 129.14 26.7463 120.185C31.4678 116.807 40.2887 113.602 55.4209 117.697C81.3723 124.719 101.263 141.301 118.537 129.212C130.765 120.667 139.726 117.694 146.832 119.376Z" fill="#CFD8DC"/>
<path d="M92 174.035C119.177 174.035 141.209 171.476 141.209 168.32C141.209 165.163 119.177 162.604 92 162.604C64.8226 162.604 42.791 165.163 42.791 168.32C42.791 171.476 64.8226 174.035 92 174.035Z" fill="#CFD8DC"/>
<path opacity="0.5" d="M92 174.035C119.177 174.035 141.209 171.476 141.209 168.32C141.209 165.163 119.177 162.604 92 162.604C64.8226 162.604 42.791 165.163 42.791 168.32C42.791 171.476 64.8226 174.035 92 174.035Z" fill="white"/>
<path d="M135.365 115.975L135.343 115.949L135.258 115.835C135.203 115.765 135.155 115.699 135.104 115.64L133.474 113.988L133.437 113.955L127.954 108.402C127.934 108.384 127.917 108.364 127.902 108.343C127.622 108.012 125.569 105.576 124.689 104.21C124.679 104.196 124.671 104.182 124.664 104.166C124.584 104.047 124.51 103.925 124.443 103.798C124.313 103.566 124.16 103.348 123.987 103.147C123.972 103.134 123.96 103.119 123.95 103.103C122.829 101.882 121.518 100.85 120.067 100.048L119.997 100.015C119.706 99.855 119.407 99.7112 119.1 99.5845L119.037 99.5587C119.308 99.4125 119.529 99.1887 119.672 98.9159C119.815 98.6432 119.873 98.3339 119.839 98.0279C119.841 97.9972 119.841 97.9665 119.839 97.9359C119.843 97.9139 119.843 97.8916 119.839 97.8696V97.8144C119.607 96.8907 118.441 95.6395 117.399 94.9219L117.138 94.749C117.063 94.6997 116.986 94.6543 116.906 94.6128L116.807 94.5576L116.52 91.7829H116.016L115.868 90.0754C115.868 90.0754 115.868 89.4019 115.905 88.3274C115.905 88.2685 115.905 88.2133 115.905 88.1544C115.972 85.5784 116.122 80.9306 116.398 77.6112C116.792 72.7757 117.37 67.4029 117.587 64.4552C117.587 64.4221 117.587 64.3927 117.587 64.3632C117.585 64.3461 117.585 64.3288 117.587 64.3117C117.587 64.1424 117.613 63.9768 117.624 63.8112C117.635 63.6456 117.65 63.5168 117.661 63.3733C117.848 61.261 118.076 59.3253 117.745 58.4715C117.695 58.3225 117.598 58.1936 117.469 58.1035C116.8 57.684 115.751 60.3741 114.96 63.0053C114.809 63.5205 114.665 64.0357 114.536 64.5215C114.518 64.5877 114.5 64.6503 114.477 64.7202C113.907 66.8914 112.531 72.2458 111.765 76.4962C111.436 78.0615 111.26 79.655 111.239 81.2544V81.2728C111.405 84.6731 111.64 84.9528 112.472 87.5288C112.922 88.862 113.24 90.2364 113.421 91.632L113.024 91.7056L112.707 91.7645L112.45 93.38C111.873 93.367 111.301 93.4827 110.775 93.7186C110.482 93.8497 110.223 94.0461 110.017 94.2927L109.649 94.2117C108.766 94.0461 107.872 93.9514 106.974 93.9283C105.966 93.9056 104.958 93.9684 103.96 94.116H103.927C100.906 94.5797 98.2634 95.5549 97.3029 96.1363C97.2697 96.1538 97.2377 96.1735 97.2072 96.1952C97.1716 96.2147 97.1382 96.2382 97.1078 96.2651C97.0893 96.2752 97.073 96.289 97.06 96.3056L97.0269 96.3314C97.0117 96.3416 96.998 96.354 96.9864 96.3682L96.9496 96.4087C96.6442 96.7767 96.3939 97.6267 96.3019 98.5063C96.2386 99.0397 96.2585 99.5797 96.3608 100.107C96.3772 100.193 96.4018 100.276 96.4344 100.357L100.059 100.571L101.719 100.67L103.956 100.799L103.625 108.295C103.625 108.295 102.705 108.968 101.601 109.918C100.725 110.663 99.909 111.476 99.1613 112.35C99.095 112.424 99.0398 112.501 98.9773 112.582L98.7491 112.888C98.7262 112.913 98.7065 112.942 98.6902 112.972C97.6995 114.468 96.7881 116.014 95.9597 117.605C95.0507 119.284 94.2632 120.789 93.932 121.252C93.5419 121.801 92.828 123.214 92.092 124.505C91.5069 125.554 90.9144 126.529 90.4875 126.894C89.5418 127.703 88.9603 128.576 89.4424 128.8C89.9245 129.024 90.7083 128.892 92.1509 127.696C92.1691 127.687 92.1854 127.675 92.1987 127.659C93.6265 126.482 97.2697 121.639 97.4942 121.341C97.7187 121.043 98.0168 120.697 98.2854 120.376C98.3921 120.244 98.5026 120.104 98.6166 119.972C99.268 119.188 100.089 118.183 100.825 117.307C101.005 117.079 101.193 116.855 101.384 116.627C101.492 116.494 101.602 116.362 101.715 116.229C101.954 115.935 102.197 115.644 102.451 115.353C103.187 114.496 103.364 114.617 103.364 114.617L103.309 115.96L103.268 116.825L101.921 165.677C103.125 165.438 104.324 165.983 105.517 165.677C106.65 165.387 108.876 166.027 109.995 165.677H110.021L108.214 108.578V108.49L108.266 108.439L109.064 107.555L113.186 103.022C113.197 103.007 113.21 102.994 113.226 102.985C113.286 103.027 113.349 103.066 113.414 103.099C113.52 103.166 113.642 103.204 113.768 103.211C113.894 103.217 114.019 103.191 114.132 103.136C114.5 102.885 115.316 101.134 115.316 101.134L116.38 100.861H116.406L116.925 100.729L117.37 101.145L120.078 103.776L120.192 103.883L135.196 117.826L135.218 117.845C135.31 117.951 136.164 118.875 136.716 118.603C137.168 118.386 135.936 116.704 135.365 115.975ZM108.733 104.144L108.497 104.413L108.468 104.446L108.174 104.777H108.155V101.2H108.497H110.47L110.577 101.638V101.7L110.36 102.024C109.853 102.758 109.311 103.465 108.733 104.144Z" fill="white"/>
<path d="M117.826 100.354L117.333 101.237L116.888 100.832L116.354 100.968H116.328L115.265 101.24C115.265 101.24 114.466 102.992 114.08 103.242C113.967 103.298 113.842 103.324 113.716 103.318C113.591 103.311 113.469 103.273 113.362 103.206L113.609 102.551C113.43 102.045 113.089 101.613 112.639 101.321C112.189 101.028 111.656 100.893 111.121 100.935L110.952 101.991C110.952 101.991 110.216 100.758 110.234 100.585C110.253 100.412 109.193 99.2827 109.027 97.623C108.862 95.9634 109.679 92.7176 113.925 93.5971C113.925 93.5971 112.553 93.7296 111.997 95.9965C111.441 98.2634 114.816 99.8679 117.826 100.354Z" fill="#CFD8DC"/>
<path d="M103.165 116.984L107.206 112.774L106.819 110.172L103.419 114.367L103.165 116.984Z" fill="#CFD8DC"/>
<path d="M106.05 97.8475V97.3029L108.365 99.5882L108.177 101.101V104.909C107.574 105.513 106.551 106.337 106.072 106.713C106.124 101.505 106.124 98.0205 106.05 97.8475Z" fill="#CFD8DC"/>
<path d="M109.969 165.78H109.944C108.84 166.13 106.599 165.49 105.465 165.78C105.587 158.821 105.748 130.522 105.877 121.834C105.914 119.331 105.947 116.88 105.98 114.569C105.98 114.389 105.98 114.201 105.98 114.04C105.98 113.05 106.006 112.085 106.017 111.154V111.136L106.308 110.805L106.819 110.22L108.155 108.689L109.969 165.78Z" fill="#CFD8DC"/>
<path d="M136.716 118.614C136.131 118.904 135.211 117.848 135.211 117.848L116.888 100.832L116.354 100.968C117.343 100.677 118.272 100.213 119.1 99.5992C121.072 100.394 123.758 102.543 124.443 103.813C125.127 105.082 127.935 108.391 127.935 108.391L135.104 115.648C135.104 115.648 137.297 118.323 136.716 118.614Z" fill="#CFD8DC"/>
<path d="M109.134 96.3093C109.134 96.3093 98.3295 95.6727 97.174 96.2099C96.0185 96.7472 96.0516 99.4483 96.4012 100.409L110.22 101.222V100.582L110.253 100.409C110.253 100.409 108.84 99.4115 109.134 96.3093Z" fill="#CFD8DC"/>
<path d="M112.453 101.101C112.453 101.101 110.459 105.417 107.828 107.283C105.197 109.149 100.045 112.704 95.6101 118.032C95.6101 118.032 97.9101 112.965 100.449 110.86C102.989 108.755 106.411 106.735 107.441 105.649C108.472 104.564 111.121 100.931 111.121 100.931L112.453 101.101Z" fill="#CFD8DC"/>
<path d="M114.919 63.1046C113.37 70.9026 112.947 81.7733 113.944 85.5968C114.941 89.4203 114.61 91.7829 114.61 91.7829H113.027V91.724L113.421 91.6504C113.241 90.2398 112.916 88.8514 112.453 87.5067C111.618 84.9307 111.386 84.6437 111.217 81.2507C111.048 77.8578 113.719 67.5059 114.507 64.5362C114.639 64.043 114.787 63.5205 114.941 62.9979L114.919 63.1046Z" fill="#CFD8DC"/>
<path d="M112.453 93.3947C111.184 93.4426 110.205 93.737 109.601 94.944C108.711 96.7178 108.803 99.084 110.264 100.409" stroke="#263238" stroke-linecap="round" stroke-linejoin="round"/>
<path d="M115.265 101.237C117.638 100.766 119.751 99.4594 119.835 98.2597C119.92 97.06 118.514 95.4997 116.586 94.4583" stroke="#263238" stroke-linecap="round" stroke-linejoin="round"/>
<path d="M116.77 94.576L116.479 91.7976H112.704L112.453 93.4094C113.185 93.4369 113.91 93.5607 114.61 93.7774" stroke="#263238" stroke-linecap="round" stroke-linejoin="round"/>
<path d="M113.406 91.7829C113.406 91.7829 113.738 89.9429 111.934 86.4322C110.131 82.9215 111.934 74.6157 113.406 68.6394C114.878 62.6631 116.166 58.3354 117.425 58.0815C118.684 57.8275 116.365 73.2872 116.233 79.9922C116.1 86.6971 115.625 88.3789 115.865 91.7682" stroke="#263238" stroke-linecap="round" stroke-linejoin="round"/>
<path d="M113.613 102.547C113.613 102.547 112.634 100.416 111.121 100.931C109.841 102.908 108.321 105.16 106.382 106.529C104.339 107.968 102.197 109.016 100.449 110.86C98.7777 112.701 97.347 114.748 96.1916 116.95C94.1382 120.675 92.4417 124.653 89.7112 127.913C89.4793 128.189 89.2291 128.564 89.4131 128.874C89.5971 129.183 90.1491 129.109 90.5171 128.914C92.7582 127.722 94.1272 125.481 95.6948 123.574C96.9387 122.062 98.1752 120.546 99.419 119.037C102.278 115.574 105.149 112.122 108.067 108.711C109.171 107.419 110.275 106.135 111.416 104.873C111.581 104.685 113.664 102.672 113.613 102.547Z" stroke="#263238" stroke-linecap="round" stroke-linejoin="round"/>
<path d="M110.676 101.612C110.474 101.294 110.324 100.947 110.231 100.582C110.231 100.254 110.967 99.2054 110.967 99.2054" stroke="#263238" stroke-linecap="round" stroke-linejoin="round"/>
<path d="M113.171 103.084C113.171 103.084 113.907 103.423 114.176 103.084C114.444 102.746 115.375 101.027 115.375 101.027C115.375 101.027 114.124 99.4115 113.167 99.2054" stroke="#263238" stroke-linecap="round" stroke-linejoin="round"/>
<path d="M116.969 100.788C120.649 104.321 135.398 118.614 136.34 118.614C137.422 118.614 135.895 116.649 135.104 115.64C134.313 114.632 126.75 107.912 124.66 104.166C123.331 101.774 120.612 100.232 119.037 99.5624" stroke="#263238" stroke-linecap="round" stroke-linejoin="round"/>
<path d="M110.47 101.237L107.316 101.053L105.638 100.95L101.686 100.722L100.03 100.622L96.4013 100.409C96.4013 100.409 95.7831 97.0968 97.1741 96.2099C98.1162 95.6138 100.968 94.7858 103.147 94.2963C103.933 94.1003 104.732 93.9638 105.539 93.8878C106.03 93.8827 106.522 93.9048 107.011 93.9541C107.71 94.013 108.461 94.105 109.064 94.1822C109.344 94.219 109.822 94.2264 110.014 94.2558" stroke="#263238" stroke-linecap="round" stroke-linejoin="round"/>
<path d="M103.592 108.35L103.923 100.85" stroke="#263238" stroke-linecap="round" stroke-linejoin="round"/>
<path d="M109.944 165.78H101.87L103.217 116.928V116.925L103.257 116.06L103.261 116.023L103.331 114.338" stroke="#263238" stroke-linecap="round" stroke-linejoin="round"/>
<path d="M109.944 165.78C109.8 158.902 108.509 129.841 108.365 121.62C108.317 119.044 108.277 116.535 108.24 114.235C108.21 112.218 108.181 110.349 108.163 108.715V108.63" stroke="#263238" stroke-linecap="round" stroke-linejoin="round"/>
<path d="M108.192 101.101C108.137 101.101 108.144 102.448 108.162 104.95" stroke="#263238" stroke-linecap="round" stroke-linejoin="round"/>
<path d="M107.014 93.9541C106.098 94.2448 102.547 95.4261 102.164 96.0627C101.631 96.9643 101.653 99.6102 101.686 100.722L100.03 100.622C99.9966 99.268 100.011 96.692 100.556 95.783C101.001 95.2531 102.083 94.7195 103.132 94.311C103.918 94.115 104.717 93.9785 105.524 93.9026C106.021 93.8918 106.519 93.909 107.014 93.9541Z" fill="#263238"/>
<path d="M110.032 94.3147C110.032 94.3147 107.898 95.2899 107.511 96.3277C107.187 97.1925 107.287 100.096 107.331 101.053L105.653 100.95C105.653 99.7427 105.69 96.876 105.859 96.129C106.072 95.1795 109.083 94.1823 109.083 94.1823L109.8 94.2816L110.032 94.3147Z" fill="#263238"/>
<path d="M108.24 114.216C107.264 114.431 106.272 114.565 105.274 114.617V121.782C106.306 121.912 107.354 121.852 108.365 121.606" stroke="#263238" stroke-linecap="round" stroke-linejoin="round"/>
<path d="M103.923 100.85C105.03 102.092 106.544 102.899 108.192 103.125L108.17 101.02L103.923 100.85Z" fill="#263238"/>
<path opacity="0.1" d="M108.163 108.681L106.827 110.212V110.172L106.326 110.794L106.035 111.125V111.151L103.408 114.367L103.154 116.984L105.977 114.04C105.977 114.216 105.977 114.408 105.977 114.566C105.943 116.877 105.91 119.328 105.874 121.83C105.745 130.519 105.583 158.818 105.461 165.777C106.595 165.486 108.821 166.126 109.94 165.777H109.966L108.163 108.674V108.681Z" fill="black"/>
<path opacity="0.1" d="M135.104 115.637L127.935 108.38C127.935 108.38 125.135 105.086 124.443 103.802C123.751 102.517 121.072 100.383 119.1 99.5882C118.696 99.8899 118.266 100.155 117.815 100.379V100.354C114.787 99.8679 111.43 98.2634 111.986 95.9928C112.542 93.7223 113.914 93.5935 113.914 93.5935C110.636 92.9127 109.403 94.6975 109.086 96.3056C108.417 96.2688 98.2818 95.6911 97.1631 96.2099C96.0443 96.7288 96.0407 99.4483 96.3903 100.409L106.098 100.979C106.098 102.47 106.098 104.424 106.061 106.713C106.448 106.411 107.191 105.811 107.78 105.274C107.655 105.417 107.541 105.546 107.441 105.642C106.4 106.746 102.981 108.748 100.449 110.853C97.9175 112.958 95.6101 118.025 95.6101 118.025C100.045 112.696 105.197 109.141 107.828 107.276C110.257 105.553 112.137 101.756 112.417 101.171C112.967 101.467 113.391 101.954 113.609 102.54L113.362 103.195C113.469 103.262 113.591 103.3 113.716 103.306C113.842 103.313 113.967 103.287 114.08 103.231C114.466 102.981 115.265 101.229 115.265 101.229L116.329 100.957H116.354L116.888 100.821L135.211 117.848C135.211 117.848 136.131 118.905 136.716 118.614C137.301 118.323 135.104 115.637 135.104 115.637ZM109.999 100.148C109.69 99.7704 109.463 99.333 109.333 98.8632C109.511 99.3125 109.734 99.7428 109.999 100.148ZM108.159 104.814V101.101L110.201 101.222V100.582C110.303 100.919 110.454 101.239 110.65 101.531C110.091 102.337 109.009 103.794 108.192 104.814H108.159ZM111.103 100.931C111.449 100.905 111.797 100.949 112.126 101.06L111.103 100.931Z" fill="black"/>
<path opacity="0.1" d="M112.453 87.5067C112.916 88.8513 113.241 90.2398 113.421 91.6504L113.028 91.724V91.7829H114.61C114.61 91.7829 114.941 89.4203 113.944 85.5968C112.947 81.7733 113.37 70.9026 114.919 63.1046L114.941 62.9869C114.787 63.5094 114.639 64.032 114.507 64.5251C113.719 67.4949 111.044 77.843 111.217 81.2397C111.39 84.6363 111.618 84.9344 112.453 87.5067Z" fill="black"/>
<path d="M117.3 85.744L112.391 81.7402C112.391 81.7402 105.09 74.3802 103.927 72.2531C102.764 70.1261 100.953 68.4517 97.6708 67.1342L97.5678 67.0901C98.0171 66.8462 98.3837 66.4742 98.6209 66.0214C98.8581 65.5686 98.9553 65.0554 98.8999 64.5472C98.738 62.7072 95.8124 59.7926 93.7884 58.777L93.3063 54.1622H92.4747L92.2244 51.325C92.2244 51.325 92.4526 38.6253 93.1187 30.5955C93.7847 22.5658 94.3735 18.5288 94.7342 13.6344C95.0948 8.73999 95.7462 9.70415 94.414 8.87247C93.31 8.18431 90.4139 16.1699 90.1967 16.9685C88.883 21.907 85.3207 31.7658 85.3207 37.4182C85.3207 42.2464 84.6031 44.0827 86.6051 47.0414C89.1185 50.7582 88.2132 53.9267 88.2132 53.9267L87.5582 54.0482L87.0246 54.1438L86.7817 55.6674L86.6051 56.8266C86.6051 56.8266 83.8855 56.7051 82.5571 58.3538C79.2228 57.6287 75.7835 57.5239 72.4113 58.0446C66.7183 58.9021 61.8203 60.8709 60.8635 61.7246C59.9067 62.5784 59.178 66.4718 59.8846 68.4664L72.3966 69.2024V69.265L79.4438 69.8464V69.8206H80.0142L83.3004 69.839L83.3777 70.1666L84.1137 70.9467C83.2379 72.312 81.6187 73.8024 80.7244 74.8365C80.3758 75.2356 79.9419 75.5513 79.4548 75.7602V75.6976C78.3251 76.8642 76.4188 78.7373 74.9063 79.7051C73.7361 80.4411 72.2788 81.4347 71.1233 82.2186C69.6513 83.3594 67.3255 85.9648 65.2353 89.5786C63.0494 93.3616 59.0897 99.8126 56.9847 102.429C56.0279 105.141 61.202 101.48 61.202 101.48C61.202 101.48 68.5841 92.8795 70.0009 91.1757C70.6191 90.4397 78.9102 81.2912 78.9102 81.2912L83.0796 76.7832L87.33 72.5254C87.5851 72.7313 87.8504 72.9241 88.1249 73.1032C88.3036 73.2139 88.5076 73.2771 88.7176 73.2868C88.9275 73.2964 89.1365 73.2522 89.3246 73.1584C89.9612 72.7462 91.2934 69.8464 91.2934 69.8464L93.0671 69.3938H93.1076L94.2595 69.0957L94.8115 69.7323L118.835 89.4387L119.755 89.4792L119.361 88.2869L117.3 85.744Z" fill="white"/>
<path d="M75.234 85.5158L74.4869 102.547L73.3241 129.032L72.1023 156.786H84.7357L83.0834 76.82L75.234 85.5158Z" fill="white"/>
<path d="M83.0796 75.9478V70.0929L76.0324 69.5115L75.484 81.9131C75.484 81.9131 75.208 82.1155 74.748 82.4688C75.9036 81.6849 77.3645 80.7061 78.5311 79.959C80.0436 78.9912 81.9535 77.1144 83.0796 75.9478Z" fill="white"/>
<path d="M95.5659 68.4075L94.7637 68.8675L93.9982 69.1803L93.1114 69.4048H93.0709L91.2971 69.8574C91.2971 69.8574 89.965 72.7683 89.3283 73.1694C88.9272 73.427 87.573 72.9744 87.2638 72.8014L88.4378 71.3589C88.4378 71.3589 88.1102 69.1509 85.1994 69.4158L84.1174 71.0755C84.1174 71.0755 82.8626 69.0294 82.9178 68.7424C82.973 68.4553 81.1882 66.5749 80.9122 63.8149C80.6362 61.0549 81.9978 55.6637 89.067 57.1283C89.067 57.1283 86.7818 57.3491 85.8544 61.1174C84.927 64.8857 90.528 67.5942 95.5659 68.4075Z" fill="#CFD8DC"/>
<path d="M74.9099 90.0202L81.637 83.0282L81.0482 79.0758L75.3331 85.6741L74.9099 90.0202Z" fill="#CFD8DC"/>
<path d="M79.7087 64.2381V63.3365L83.5654 67.1342L83.2526 69.6477V75.9736C82.1366 77.0323 80.9673 78.0333 79.7492 78.9728C79.8339 70.3174 79.8559 64.5251 79.7087 64.2381Z" fill="#CFD8DC"/>
<path d="M84.7356 165.78H78.4502C78.6084 157.114 79.9774 105.829 80.2902 79.8229L83.0576 77.1696L84.7356 165.78Z" fill="#CFD8DC"/>
<path d="M119.508 89.608C118.537 90.0901 94.392 69.0184 94.392 69.0184L93.8989 68.7718C95.3214 68.4991 96.6555 67.8826 97.785 66.976C101.068 68.2934 103.533 71.2227 104.674 73.3277C105.815 75.4326 112.214 80.8717 112.214 80.8717L118.249 86.8001C118.249 86.8001 120.476 89.1222 119.508 89.608Z" fill="#CFD8DC"/>
<path d="M81.0888 61.6842C81.0888 61.6842 63.1009 60.6243 61.1763 61.5186C59.2517 62.4128 59.3032 66.9024 59.8883 68.5106L82.8993 69.8574V68.7939L82.9545 68.5069C82.9545 68.5069 80.592 66.8398 81.0888 61.6842Z" fill="#CFD8DC"/>
<path d="M86.6161 69.6477C86.6161 69.6477 83.8819 77.8909 78.9139 79.9185C69.839 83.628 66.1075 91.4406 58.718 100.298C58.718 100.298 63.9767 91.5841 66.906 86.9437C71.2374 80.0731 75.8815 78.1117 78.0343 76.82C81.0084 75.0143 83.4741 72.4815 85.1993 69.46L86.6161 69.6477Z" fill="#CFD8DC"/>
<path d="M89.0963 43.8877C90.9363 50.1878 90.2003 54.1622 90.2003 54.1622H87.5839V54.0666L88.2389 53.9451C88.2389 53.9451 89.0227 52.1971 86.984 48.197C86.0088 46.2834 85.6703 46.828 85.2655 41.205C84.8607 35.5819 89.8287 15.6952 92.9935 10.1973C93.3799 9.45392 85.6739 32.1669 89.0963 43.8877Z" fill="#CFD8DC"/>
<path d="M86.6161 56.8449C84.5001 56.9222 82.8735 57.4153 81.8652 59.4209C80.3932 62.3649 80.5367 66.2952 82.9692 68.4958" stroke="#263238" stroke-width="1.02127" stroke-linecap="round" stroke-linejoin="round"/>
<path d="M91.2971 69.8722C95.2494 69.092 98.7638 66.9282 98.9074 64.9262C99.0509 62.9243 96.6994 60.341 93.4978 58.6114" stroke="#263238" stroke-width="1.02127" stroke-linecap="round" stroke-linejoin="round"/>
<path d="M93.7996 58.777L93.3175 54.1622H87.0357L86.6162 56.845C86.6162 56.845 87.8122 56.8045 90.2079 57.4522" stroke="#263238" stroke-width="1.02127" stroke-linecap="round" stroke-linejoin="round"/>
<path d="M88.3936 54.1622C88.3936 54.1622 88.8867 51.704 86.2187 46.9752C83.5507 42.2464 86.1893 31.0923 88.4267 23.0552C90.6642 15.0181 92.5446 9.22206 94.4251 8.8651C96.3056 8.50814 92.8427 29.3001 92.644 38.3051C92.4453 47.3101 91.7387 49.5733 92.1104 54.1475" stroke="#263238" stroke-width="1.02127" stroke-linecap="round" stroke-linejoin="round"/>
<path d="M88.4377 71.392C88.4377 71.392 87.1644 68.816 85.1993 69.449C83.5396 71.8263 81.5671 74.5274 79.0426 76.1723C76.393 77.9019 73.611 79.1642 71.3441 81.3759C69.1948 83.565 67.3393 86.0242 65.8241 88.6917C63.1598 93.1702 60.9554 97.9469 57.4042 101.862C57.1062 102.194 56.7786 102.646 57.0178 103.018C57.257 103.39 57.9857 103.298 58.453 103.069C61.3639 101.634 63.145 98.9405 65.1801 96.6515C66.7956 94.8373 68.4001 93.0157 70.0156 91.2015C73.7287 87.0394 77.4566 82.892 81.247 78.7962C82.6785 77.2469 84.121 75.7013 85.593 74.1815C85.7991 73.968 88.5039 71.5392 88.4377 71.392Z" stroke="#263238" stroke-width="1.02127" stroke-linecap="round" stroke-linejoin="round"/>
<path d="M83.6573 70.4941C83.6573 70.4941 82.9471 69.3275 82.9213 68.7829C82.8955 68.2382 84.121 66.5013 84.121 66.5013" stroke="#263238" stroke-width="1.02127" stroke-linecap="round" stroke-linejoin="round"/>
<path d="M87.812 72.945C87.812 72.945 89.0228 73.508 89.4828 72.945C89.9428 72.3819 91.4847 69.5262 91.4847 69.5262C91.4847 69.5262 89.3944 66.8435 87.8047 66.5013" stroke="#263238" stroke-width="1.02127" stroke-linecap="round" stroke-linejoin="round"/>
<path d="M94.2632 69.0147C99.0214 73.1989 118.051 89.6227 119.287 89.6227C120.689 89.6227 118.709 87.2969 117.679 86.1009C116.649 84.9049 106.841 76.9635 104.133 72.5254C102.577 70.0692 100.29 68.163 97.5936 67.0753" stroke="#263238" stroke-width="1.02127" stroke-linecap="round" stroke-linejoin="round"/>
<path d="M83.3115 69.8722L78.0602 69.552L75.2707 69.3827L68.6909 69.0147L65.9272 68.8528L59.8883 68.4848C59.8883 68.4848 58.8579 62.9648 61.1763 61.4928C62.744 60.5066 67.4912 59.1303 71.1123 58.3133C72.4193 57.9872 73.7492 57.7609 75.0904 57.6362C75.91 57.6264 76.7294 57.662 77.545 57.7429C78.7115 57.8459 79.9627 57.9968 80.9674 58.1293C81.4347 58.1845 82.2296 58.1992 82.5498 58.247" stroke="#263238" stroke-width="1.02127" stroke-linecap="round" stroke-linejoin="round"/>
<path d="M75.8079 78.0344L76.1685 69.7581" stroke="#263238" stroke-width="1.02127" stroke-linecap="round" stroke-linejoin="round"/>
<path d="M83.0834 76.82C83.3741 101.66 84.7357 165.78 84.7357 165.78H72.106L75.234 85.5158" stroke="#263238" stroke-width="1.02127" stroke-linecap="round" stroke-linejoin="round"/>
<path d="M77.5561 57.776C76.0362 58.2618 70.1225 60.2085 69.4821 61.283C68.5916 62.7808 68.6321 67.171 68.6909 69.011L65.9272 68.8491C65.8757 66.597 65.9015 62.3208 66.8105 60.8083C67.5465 59.9251 69.3497 59.0419 71.1234 58.3354C72.4304 58.0093 73.7602 57.7829 75.1015 57.6582C75.9212 57.6521 76.7407 57.6914 77.5561 57.776Z" fill="#263238"/>
<path d="M82.5607 58.3721C82.5607 58.3721 79.0095 59.984 78.3839 61.7136C77.843 63.1488 78.0159 67.9696 78.0785 69.5667L75.2891 69.3974C75.2891 67.3882 75.3443 62.6262 75.6276 61.3898C75.9956 59.811 80.9967 58.155 80.9967 58.155L82.1927 58.317L82.5607 58.3721Z" fill="#263238"/>
<path d="M83.3592 95.4702C81.7344 95.83 80.0826 96.054 78.4207 96.14V108.041C80.1416 108.259 81.8877 108.159 83.5727 107.747" stroke="#263238" stroke-width="1.02127" stroke-linecap="round" stroke-linejoin="round"/>
<path d="M83.238 72.2016C82.8884 72.588 82.502 72.9854 82.1671 73.335C79.7806 72.7015 77.6498 71.3423 76.0693 69.4453L83.2159 70.0414L83.238 72.2016Z" fill="#263238"/>
<path d="M118.971 168.32C119.221 166.376 119.339 162.8 117.399 160.849C114.621 158.071 110.455 162.582 109.414 162.582C108.372 162.582 108.023 159.808 104.898 157.375C101.774 154.943 97.9542 158.071 95.8713 157.375C93.7885 156.68 97.6083 145.919 91.7056 145.573C85.8029 145.228 83.72 160.154 79.5616 160.154C75.4032 160.154 74.7003 157.375 70.5345 159.808C67.2704 161.71 65.5003 166.38 64.8857 168.32H118.971Z" fill="#CFD8DC"/>
<path opacity="0.2" d="M118.971 168.32C119.221 166.376 119.339 162.8 117.399 160.849C114.621 158.071 110.455 162.582 109.414 162.582C108.372 162.582 108.023 159.808 104.898 157.375C101.774 154.943 97.9542 158.071 95.8713 157.375C93.7885 156.68 97.6083 145.919 91.7056 145.573C85.8029 145.228 83.72 160.154 79.5616 160.154C75.4032 160.154 74.7003 157.375 70.5345 159.808C67.2704 161.71 65.5003 166.38 64.8857 168.32H118.971Z" fill="black"/>
<path d="M76.2017 168.084L72.6726 162.347" stroke="#263238" stroke-linecap="round" stroke-linejoin="round"/>
<path d="M89.7515 167.933L91.6135 150.391" stroke="#263238" stroke-linecap="round" stroke-linejoin="round"/>
<path d="M100.508 168.084L102.326 161.416" stroke="#263238" stroke-linecap="round" stroke-linejoin="round"/>
<path d="M113.723 168.084L115.522 163.742" stroke="#263238" stroke-linecap="round" stroke-linejoin="round"/>
<path d="M76.7096 162.501L74.8475 165.762L70.5015 164.054" stroke="#263238" stroke-linecap="round" stroke-linejoin="round"/>
<path d="M88.8206 151.789L90.9918 155.671L93.9431 152.098" stroke="#263238" stroke-linecap="round" stroke-linejoin="round"/>
<path d="M87.5767 158.001L90.3735 161.416L93.1666 159.241" stroke="#263238" stroke-linecap="round" stroke-linejoin="round"/>
<path d="M101.55 164.364L105.274 162.192" stroke="#263238" stroke-linecap="round" stroke-linejoin="round"/>
<path d="M101.241 165.607L99.3748 160.794" stroke="#263238" stroke-linecap="round" stroke-linejoin="round"/>
<path d="M114.591 166.071L113.657 162.965" stroke="#263238" stroke-linecap="round" stroke-linejoin="round"/>
<path d="M114.279 166.693L116.917 165.607" stroke="#263238" stroke-linecap="round" stroke-linejoin="round"/>
<path d="M158.674 52.8926H173.851C173.851 52.8926 174.587 50.6552 171.897 49.1869C169.207 47.7186 167.977 48.9403 166.999 47.7149C166.02 46.4894 169.692 43.2989 162.347 40.123C162.347 40.123 161.854 33.2414 151.811 33.017C141.768 32.7925 144.451 39.8986 141.772 41.6208C139.093 43.343 138.331 40.6382 135.645 42.3568C132.959 44.0754 134.173 47.5088 131.965 47.9872C129.757 48.4656 126.813 45.7792 124.126 47.5014C121.44 49.2237 121.429 50.6846 120.204 50.6846C118.978 50.6846 116.524 49.7021 115.052 50.6846C113.58 51.6672 111.865 52.8926 111.865 52.8926H155.572" stroke="#263238" stroke-miterlimit="10"/>
<path d="M23.5852 96.784H58.3171C58.3171 96.784 57.3639 96.0958 56.5286 95.5475C55.6932 94.9992 54.3206 95.5475 53.6361 95.5475C52.9516 95.5475 52.9406 94.7232 51.4281 93.7627C49.9156 92.8022 48.2707 94.3 47.0379 94.0387C45.8051 93.7774 46.4822 91.8307 44.9808 90.8813C43.4793 89.9318 43.0598 91.4333 41.5473 90.4691C40.0348 89.505 41.5473 85.5269 35.9206 85.652C30.2939 85.7771 30.0326 89.6338 30.0326 89.6338C25.9147 91.4149 27.9755 93.2034 27.4235 93.8878C26.8715 94.5723 26.187 93.8878 24.6819 94.7085C23.1768 95.5291 23.5852 96.784 23.5852 96.784Z" stroke="#263238" stroke-miterlimit="10"/>
<path d="M139.045 72.5218C142.071 72.4623 145.091 72.8252 148.017 73.6C152.128 74.6819 156.069 76.4741 160.279 77.0482C164.489 77.6222 169.273 76.6802 171.856 73.3166" stroke="#263238" stroke-linecap="round" stroke-linejoin="round"/>
<path d="M123.147 78.1301C126.776 75.0462 131.302 73.3166 136.027 72.7352" stroke="#263238" stroke-linecap="round" stroke-linejoin="round"/>
<path d="M164.647 82.432C167.477 82.064 170.148 80.9011 171.856 78.671" stroke="#263238" stroke-linecap="round" stroke-linejoin="round"/>
<path d="M123.147 83.4845C129.823 77.8099 139.546 76.7169 148.017 78.9507C152.127 80.0326 156.069 81.8248 160.279 82.3989C161.068 82.5072 161.863 82.5601 162.66 82.5571" stroke="#263238" stroke-linecap="round" stroke-linejoin="round"/>
<path d="M154.733 86.4174C156.54 87.0198 158.395 87.4668 160.279 87.7533C164.496 88.32 169.28 87.3963 171.856 84.0218" stroke="#263238" stroke-linecap="round" stroke-linejoin="round"/>
<path d="M142.232 83.3225C144.186 83.4767 146.122 83.8055 148.017 84.3051C149.905 84.8019 151.756 85.4496 153.61 86.0568" stroke="#263238" stroke-linecap="round" stroke-linejoin="round"/>
<path d="M123.147 88.8389C127.262 85.3429 132.531 83.5838 137.952 83.2747" stroke="#263238" stroke-linecap="round" stroke-linejoin="round"/>
</svg>