<svg width="40" height="24" viewBox="0 0 40 24" fill="none" xmlns="http://www.w3.org/2000/svg">
    <path d="M27.251 0C33.8023 0 39.1133 5.37267 39.1133 12C39.1132 18.6273 33.8022 24 27.251 24C24.3139 24 21.6283 22.9175 19.5566 21.1289C17.485 22.9175 14.7993 24 11.8623 24C5.31108 24 8.4577e-05 18.6273 0 12C0 5.37267 5.31103 0 11.8623 0C14.7992 4.06694e-05 17.4851 1.0817 19.5566 2.87012C21.6282 1.08171 24.3141 5.37604e-06 27.251 0Z" fill="#ED0006"/>
    <path d="M27.251 0C33.8023 0 39.1133 5.37267 39.1133 12C39.1132 18.6273 33.8022 24 27.251 24C24.3139 24 21.6283 22.9175 19.5566 21.1289C22.1059 18.928 23.7246 15.6561 23.7246 12C23.7246 8.34369 22.1061 5.0711 19.5566 2.87012C21.6282 1.08171 24.3141 5.25917e-06 27.251 0Z" fill="#F9A000"/>
    <path d="M19.5566 2.87061C22.1059 5.0715 23.7245 8.34346 23.7246 11.9995C23.7246 15.6555 22.1058 18.9274 19.5566 21.1284C17.0075 18.9274 15.3887 15.6556 15.3887 11.9995C15.3888 8.34342 17.0073 5.07151 19.5566 2.87061Z" fill="#FF5E00"/>
</svg>