<svg width="38" height="24" viewBox="0 0 38 24" fill="none" xmlns="http://www.w3.org/2000/svg">
    <g clip-path="url(#clip0_33_26169)">
        <path d="M15.194 12.5729C15.8656 13.1017 15.8273 14.1248 15.1137 14.5971C14.4775 15.0183 13.5224 15.3734 12.1339 15.3121C6.20266 15.0504 4.23509 10.2182 4.40394 7.61575C4.82858 1.07087 10.4516 -0.0306049 12.3408 0.0604093C13.163 0.100024 17.6307 0.31647 19.3699 5.07302C20.0612 6.96352 20.2042 9.17578 20.8639 10.5696C21.8323 12.6154 23.3834 13.4589 25.0598 13.5383C26.4709 13.6052 29.5413 12.9001 30.1729 9.39697C30.1729 9.39697 30.2744 8.43051 30.2168 5.28864C30.1842 3.50423 30.2744 1.05184 30.2744 1.05184C30.2744 1.05184 30.1954 0.0158691 31.3685 0.0158691C32.4173 0.0158691 32.3213 1.11448 32.3213 1.11448L32.2945 7.55085C32.2945 7.55085 33.1656 14.8446 25.6462 15.6008C23.4819 15.8185 20.8728 14.8582 19.345 12.1727C18.7065 11.0503 18.3633 9.84449 18.0217 7.80834C17.2246 3.05879 14.0665 1.97521 12.3671 1.95173C11.3891 1.93823 6.11107 2.42051 6.34738 8.27112C6.37294 8.90382 6.81789 11.8016 10.2918 13.1524C10.2918 13.1524 12.7103 13.9796 15.194 12.5729Z" fill="#8600F4"/>
        <path d="M15.1937 12.5729C15.1937 12.5729 15.9437 12.1131 16.3165 12.855C16.8576 13.9321 14.5254 14.9171 14.5254 14.9171" fill="#8600F4"/>
        <path d="M8.8622 22.9668C9.08455 23.1418 9.07188 23.4806 8.83561 23.637C8.62499 23.7763 8.30875 23.894 7.84908 23.8736C5.88541 23.787 5.23399 22.1871 5.2899 21.3256C5.43049 19.1587 7.2921 18.7941 7.91759 18.8242C8.18977 18.8373 9.6689 18.909 10.2447 20.4837C10.4736 21.1096 10.5209 21.842 10.7394 22.3035C11.06 22.9809 11.5735 23.2601 12.1285 23.2864C12.5957 23.3086 13.6122 23.0751 13.8213 21.9153C13.8213 21.9153 13.8549 21.5953 13.8358 20.5551C13.825 19.9643 13.8549 19.1525 13.8549 19.1525C13.8549 19.1525 13.8287 18.8094 14.2171 18.8094C14.5644 18.8094 14.5325 19.1732 14.5325 19.1732L14.5237 21.3041C14.5237 21.3041 14.8121 23.7188 12.3227 23.9692C11.606 24.0413 10.7423 23.7233 10.2365 22.8342C10.0251 22.4626 9.91146 22.0635 9.79835 21.3893C9.53449 19.8169 8.4889 19.4582 7.92627 19.4504C7.60248 19.4459 5.85508 19.6056 5.93333 21.5425C5.94178 21.752 6.08909 22.7114 7.2392 23.1585C7.2392 23.1585 8.03988 23.4325 8.8622 22.9668Z" fill="#8600F4"/>
        <path d="M8.8619 22.9668C8.8619 22.9668 9.11022 22.8145 9.23363 23.0602C9.41277 23.4167 8.64062 23.7428 8.64062 23.7428" fill="#8600F4"/>
        <path d="M1.46583 20.4265C1.2256 20.3369 1.01115 20.2234 0.822537 20.0862C0.633768 19.9491 0.481095 19.7848 0.364484 19.5935C0.247814 19.4022 0.189494 19.1762 0.189494 18.9153C0.189494 18.6512 0.247814 18.4133 0.364484 18.2016C0.481095 17.99 0.634686 17.8105 0.825109 17.6632C1.0155 17.5159 1.23075 17.4024 1.47098 17.3229C1.71108 17.2433 1.95474 17.2035 2.20177 17.2035C2.40071 17.2035 2.59461 17.2238 2.78332 17.2644C2.97199 17.305 3.14874 17.3652 3.31337 17.4447C3.47809 17.5244 3.62736 17.6225 3.76117 17.7394C3.89499 17.8562 4.0064 17.9926 4.09567 18.1483C4.13341 18.2092 4.14198 18.2711 4.12138 18.3337C4.10081 18.3964 4.07163 18.4463 4.03388 18.4835C3.98582 18.5276 3.92328 18.5539 3.84611 18.5623C3.76889 18.5708 3.69424 18.5479 3.62219 18.4937C3.42319 18.2533 3.21051 18.0848 2.98402 17.9883C2.75758 17.8918 2.50026 17.8435 2.21206 17.8435C2.05075 17.8435 1.88954 17.8664 1.72826 17.9121C1.56695 17.9578 1.42031 18.0247 1.28827 18.1127C1.15617 18.2008 1.0481 18.3117 0.964035 18.4455C0.879907 18.5793 0.837967 18.7342 0.837967 18.9102C0.837967 19.0965 0.887621 19.2515 0.987179 19.375C1.08668 19.4987 1.21275 19.6029 1.36548 19.6874C1.51806 19.7721 1.68534 19.8407 1.86725 19.8932C2.04904 19.9457 2.22237 19.9922 2.38704 20.0329C2.64094 20.1108 2.88883 20.1988 3.13074 20.297C3.37259 20.3953 3.58697 20.5154 3.77403 20.6577C3.961 20.7999 4.1111 20.9693 4.22434 21.1656C4.33756 21.3621 4.39418 21.5974 4.39418 21.8717C4.39418 22.1663 4.33499 22.433 4.21662 22.6717C4.09824 22.9106 3.93873 23.1155 3.73801 23.2863C3.53728 23.4575 3.30391 23.5896 3.0381 23.6827C2.77212 23.7759 2.49335 23.8223 2.20177 23.8223C1.95811 23.8223 1.72312 23.7901 1.49672 23.7258C1.27027 23.6616 1.06182 23.5744 0.871397 23.4643C0.681007 23.3543 0.514526 23.2238 0.372199 23.0731C0.229783 22.9224 0.120795 22.7608 0.0454227 22.588C-0.00603986 22.4796 -0.0137853 22.3891 0.0222478 22.3162C0.0582501 22.2434 0.110509 22.1884 0.179177 22.1511C0.2581 22.1072 0.332739 22.0978 0.403058 22.1232C0.47335 22.1486 0.546273 22.2087 0.621798 22.3035C0.686945 22.439 0.775298 22.5609 0.886827 22.6692C0.998292 22.7778 1.12439 22.8698 1.2651 22.9462C1.40574 23.0223 1.55847 23.0808 1.72312 23.1214C1.88782 23.1619 2.05767 23.1823 2.23266 23.1823C2.41448 23.1823 2.59548 23.1554 2.77561 23.101C2.95574 23.0468 3.11788 22.9657 3.26192 22.8571C3.40604 22.7488 3.52266 22.6142 3.61191 22.4534C3.70109 22.2925 3.74572 22.1072 3.74572 21.8972C3.74572 21.7041 3.70109 21.5424 3.61191 21.412C3.52266 21.2817 3.40427 21.17 3.25677 21.0768C3.10925 20.9837 2.94288 20.904 2.75758 20.838C2.57229 20.772 2.38525 20.7085 2.19663 20.6475C1.9496 20.59 1.70591 20.5163 1.46583 20.4265Z" fill="#8600F4"/>
        <path d="M16.4317 19.8348C16.6341 19.5774 16.8734 19.37 17.1496 19.2125C17.4257 19.055 17.7217 18.9763 18.0374 18.9763C18.3359 18.9763 18.6043 19.0313 18.8428 19.1414C19.0812 19.2515 19.2854 19.4081 19.4553 19.6113C19.6251 19.8145 19.7554 20.06 19.8464 20.3478C19.9373 20.6357 19.9827 20.9574 19.9827 21.3129V21.318V23.4414C19.9827 23.5327 19.9519 23.6091 19.8901 23.67C19.8284 23.731 19.7511 23.7614 19.6585 23.7614C19.5692 23.7614 19.4939 23.731 19.4321 23.67C19.3703 23.6091 19.3395 23.5327 19.3395 23.4414V21.3333V21.318C19.3395 20.7694 19.2193 20.3478 18.9792 20.0532C18.739 19.7585 18.4028 19.6113 17.9705 19.6113C17.7612 19.6113 17.5647 19.6519 17.3812 19.7332C17.1976 19.8145 17.0364 19.9271 16.8974 20.071C16.7585 20.2149 16.6478 20.3851 16.5655 20.5815C16.4831 20.7779 16.4385 20.9896 16.4317 21.2164V23.4312C16.4317 23.5227 16.3999 23.5998 16.3365 23.6623C16.273 23.7251 16.1966 23.7564 16.1075 23.7564C16.0182 23.7564 15.9419 23.7251 15.8784 23.6623C15.8149 23.5998 15.7832 23.5227 15.7832 23.4312V17.5794C15.7832 17.4879 15.8149 17.4109 15.8784 17.3482C15.9419 17.2856 16.0182 17.2543 16.1075 17.2543C16.2001 17.2543 16.2773 17.2856 16.3391 17.3482C16.4008 17.4109 16.4317 17.4879 16.4317 17.5794V19.8348Z" fill="#8600F4"/>
        <path d="M21.4828 22.0876C21.5772 22.3027 21.7049 22.4907 21.8662 22.6515C22.0274 22.8125 22.2179 22.9403 22.4375 23.035C22.657 23.1298 22.8938 23.1771 23.1477 23.1771C23.4017 23.1771 23.6384 23.1298 23.8579 23.035C24.0774 22.9403 24.2687 22.8125 24.4317 22.6515C24.5947 22.4907 24.7226 22.3027 24.8151 22.0876C24.9079 21.8726 24.954 21.6431 24.954 21.3993C24.954 21.1522 24.9079 20.9202 24.8151 20.7034C24.7226 20.4867 24.5947 20.2979 24.4317 20.137C24.2687 19.9762 24.0774 19.8492 23.8579 19.756C23.6384 19.6629 23.4017 19.6163 23.1477 19.6163C22.8972 19.6163 22.6622 19.6629 22.4427 19.756C22.223 19.8492 22.0318 19.9762 21.8688 20.137C21.7058 20.2979 21.5772 20.4867 21.4828 20.7034C21.3884 20.9202 21.3413 21.1522 21.3413 21.3993C21.3413 21.6431 21.3884 21.8726 21.4828 22.0876ZM20.8858 20.4519C21.0145 20.1556 21.1903 19.8983 21.4133 19.6798C21.6363 19.4614 21.8971 19.2887 22.1956 19.1617C22.4941 19.0347 22.8114 18.9712 23.1477 18.9712C23.4873 18.9712 23.8055 19.0347 24.1024 19.1617C24.3991 19.2887 24.6583 19.4614 24.8794 19.6798C25.1008 19.8983 25.2757 20.1556 25.4045 20.4519C25.5331 20.7483 25.5974 21.0641 25.5974 21.3993C25.5974 21.7313 25.5331 22.0444 25.4045 22.3391C25.2757 22.6337 25.1008 22.8902 24.8794 23.1087C24.6583 23.3272 24.3991 23.4998 24.1024 23.6268C23.8055 23.7537 23.4873 23.8174 23.1477 23.8174C22.8114 23.8174 22.4941 23.7537 22.1956 23.6268C21.8971 23.4998 21.6363 23.3272 21.4133 23.1087C21.1903 22.8902 21.0145 22.6337 20.8858 22.3391C20.7572 22.0444 20.6929 21.7313 20.6929 21.3993C20.6929 21.0641 20.7572 20.7483 20.8858 20.4519Z" fill="#8600F4"/>
        <path d="M26.8348 22.0876C26.9291 22.3027 27.057 22.4907 27.2182 22.6515C27.3794 22.8125 27.57 22.9403 27.7895 23.035C28.009 23.1298 28.2457 23.1771 28.4997 23.1771C28.7536 23.1771 28.9903 23.1298 29.2098 23.035C29.4293 22.9403 29.6208 22.8125 29.7838 22.6515C29.9466 22.4907 30.0745 22.3027 30.1673 22.0876C30.2598 21.8726 30.3062 21.6431 30.3062 21.3993C30.3062 21.1522 30.2598 20.9202 30.1673 20.7034C30.0745 20.4867 29.9466 20.2979 29.7838 20.137C29.6208 19.9762 29.4293 19.8492 29.2098 19.756C28.9903 19.6629 28.7536 19.6163 28.4997 19.6163C28.2492 19.6163 28.0143 19.6629 27.7948 19.756C27.575 19.8492 27.3838 19.9762 27.2207 20.137C27.058 20.2979 26.9291 20.4867 26.8348 20.7034C26.7404 20.9202 26.6933 21.1522 26.6933 21.3993C26.6933 21.6431 26.7404 21.8726 26.8348 22.0876ZM26.2378 20.4519C26.3664 20.1556 26.5423 19.8983 26.7654 19.6798C26.9884 19.4614 27.2492 19.2887 27.5477 19.1617C27.8462 19.0347 28.1635 18.9712 28.4997 18.9712C28.8395 18.9712 29.1575 19.0347 29.4544 19.1617C29.7512 19.2887 30.0102 19.4614 30.2316 19.6798C30.4529 19.8983 30.6279 20.1556 30.7565 20.4519C30.885 20.7483 30.9496 21.0641 30.9496 21.3993C30.9496 21.7313 30.885 22.0444 30.7565 22.3391C30.6279 22.6337 30.4529 22.8902 30.2316 23.1087C30.0102 23.3272 29.7512 23.4998 29.4544 23.6268C29.1575 23.7537 28.8395 23.8174 28.4997 23.8174C28.1635 23.8174 27.8462 23.7537 27.5477 23.6268C27.2492 23.4998 26.9884 23.3272 26.7654 23.1087C26.5423 22.8902 26.3664 22.6337 26.2378 22.3391C26.1092 22.0444 26.0449 21.7313 26.0449 21.3993C26.0449 21.0641 26.1092 20.7483 26.2378 20.4519Z" fill="#8600F4"/>
        <path d="M32.3442 23.4414C32.3442 23.5295 32.3125 23.6039 32.2492 23.6648C32.1856 23.7258 32.1091 23.7564 32.02 23.7564C31.9307 23.7564 31.8545 23.7258 31.7911 23.6648C31.7275 23.6039 31.6958 23.5295 31.6958 23.4414V17.5692C31.6958 17.4778 31.7275 17.4024 31.7911 17.3432C31.8545 17.284 31.9307 17.2543 32.02 17.2543C32.1091 17.2543 32.1856 17.284 32.2492 17.3432C32.3125 17.4024 32.3442 17.4778 32.3442 17.5692V23.4414Z" fill="#8600F4"/>
        <path d="M33.7285 21.3993C33.7285 21.6431 33.7756 21.8726 33.8699 22.0876C33.9643 22.3027 34.092 22.4906 34.2534 22.6515C34.4146 22.8124 34.6049 22.9403 34.8246 23.035C35.0441 23.1297 35.2809 23.1771 35.5348 23.1771C35.7888 23.1771 36.0255 23.1297 36.245 23.035C36.4645 22.9403 36.6551 22.8124 36.8162 22.6515C36.9774 22.4906 37.1046 22.3027 37.1972 22.0876C37.2897 21.8726 37.3361 21.6431 37.3361 21.3993C37.3361 21.1521 37.2897 20.9201 37.1972 20.7034C37.1046 20.4867 36.9774 20.2979 36.8162 20.137C36.6551 19.9762 36.4645 19.8492 36.245 19.756C36.0255 19.6629 35.7888 19.6163 35.5348 19.6163C35.2843 19.6163 35.0492 19.6629 34.8297 19.756C34.6102 19.8492 34.4189 19.9762 34.2559 20.137C34.0929 20.2979 33.9643 20.4867 33.8699 20.7034C33.7756 20.9201 33.7285 21.1521 33.7285 21.3993ZM33.0801 21.3993C33.0801 21.064 33.1444 20.7483 33.2729 20.4519C33.4015 20.1556 33.5774 19.8982 33.8006 19.6798C34.0235 19.4614 34.2841 19.2887 34.5826 19.1617C34.8811 19.0347 35.1984 18.9712 35.5348 18.9712C35.871 18.9712 36.1867 19.0339 36.4817 19.1591C36.7768 19.2845 37.0351 19.4546 37.2564 19.6696C37.4775 19.8847 37.6527 20.1378 37.7813 20.429C37.9099 20.7203 37.9776 21.0319 37.9845 21.3637V21.3739V21.3993V23.4262C37.9845 23.5175 37.9528 23.5954 37.8894 23.6598C37.8258 23.7242 37.7478 23.7563 37.6552 23.7563C37.5625 23.7563 37.4862 23.7242 37.4261 23.6598C37.3662 23.5954 37.3361 23.5175 37.3361 23.4262L37.331 22.9892C37.1046 23.2365 36.8376 23.4363 36.5306 23.5886C36.2236 23.7409 35.8916 23.8173 35.5348 23.8173C35.1984 23.8173 34.8811 23.7539 34.5826 23.6267C34.2841 23.4998 34.0235 23.3271 33.8006 23.1086C33.5774 22.8902 33.4015 22.6337 33.2729 22.339C33.1444 22.0444 33.0801 21.7312 33.0801 21.3993Z" fill="#8600F4"/>
    </g>
    <defs>
        <clipPath id="clip0_33_26169">
            <rect width="38" height="24" fill="white"/>
        </clipPath>
    </defs>
</svg>