<svg width="84" height="19" viewBox="0 0 84 19" fill="none" xmlns="http://www.w3.org/2000/svg">
    <path d="M52.4915 0.0104975C52.6963 0.0109451 52.6963 0.0109451 52.9053 0.0114018C53.0469 0.0146847 53.1885 0.0179675 53.3344 0.0213498C53.5468 0.0209021 53.5468 0.0209021 53.7635 0.0204454C55.0843 0.0348802 55.0843 0.0348802 55.5917 0.54226C55.6031 0.830153 55.6071 1.11492 55.6063 1.40287C55.6065 1.49305 55.6067 1.58323 55.6069 1.67615C55.6074 1.8729 55.6076 2.06966 55.6077 2.26641C55.6081 2.68626 55.6106 3.10609 55.6129 3.52594C55.6173 4.30788 55.6209 5.0898 55.6207 5.87176C55.6206 6.41533 55.6233 6.95884 55.6279 7.50239C55.6291 7.70857 55.6293 7.91475 55.6284 8.12093C55.6221 9.73939 55.7874 11.2256 56.965 12.4599C57.8563 13.3148 58.7312 13.7892 59.9833 13.7965C61.3929 13.765 62.5369 13.4592 63.5754 12.4825C64.5388 11.4579 64.7541 10.3765 64.753 8.99637C64.7536 8.8638 64.7536 8.8638 64.7543 8.72855C64.7551 8.53806 64.7557 8.34757 64.7561 8.15707C64.757 7.85536 64.7588 7.55367 64.7609 7.25197C64.767 6.39466 64.7726 5.53737 64.7743 4.68004C64.7755 4.15444 64.7789 3.62889 64.7838 3.10331C64.7852 2.90348 64.7858 2.70364 64.7855 2.5038C64.7852 2.2245 64.7878 1.94537 64.791 1.6661C64.7899 1.54286 64.7899 1.54286 64.7887 1.41713C64.7991 0.864539 64.9248 0.583556 65.3154 0.194987C65.8282 -0.061386 66.5249 0.0526147 67.088 0.0502893C67.2311 0.0479017 67.3743 0.0455142 67.5218 0.0430544C67.729 0.0421591 67.729 0.0421591 67.9403 0.0412457C68.13 0.0396229 68.13 0.0396229 68.3235 0.0379674C68.7178 0.0845972 68.934 0.191647 69.2512 0.426502C69.4337 0.791422 69.3881 1.18359 69.3911 1.58451C69.3923 1.68036 69.3934 1.77622 69.3946 1.87498C69.398 2.19387 69.4005 2.51275 69.4027 2.83164C69.4034 2.94107 69.4042 3.0505 69.405 3.16324C69.4088 3.74446 69.4116 4.32567 69.4138 4.90689C69.4159 5.38439 69.4199 5.86181 69.4257 6.33928C69.4328 6.91825 69.4362 7.49715 69.4374 8.07615C69.4383 8.29502 69.4405 8.51388 69.4439 8.73271C69.4832 11.3755 68.7331 13.6117 66.936 15.5908C66.2341 16.3019 65.4992 16.8541 64.6209 17.3272C64.5321 17.3782 64.4433 17.4292 64.3518 17.4818C62.4351 18.5273 59.9948 18.7332 57.8817 18.2022C56.4507 17.7777 55.2006 17.0427 54.0868 16.0538C53.9678 15.9511 53.9678 15.9511 53.8463 15.8463C53.1163 15.1723 52.6241 14.3534 52.1189 13.5071C52.0435 13.3858 52.0435 13.3858 51.9666 13.2621C51.1243 11.7758 51.1217 10.0192 51.1273 8.36541C51.1267 8.14366 51.126 7.9219 51.1251 7.70014C51.1239 7.2395 51.1244 6.7789 51.1262 6.31826C51.1282 5.72841 51.1254 5.13869 51.1214 4.54885C51.1188 4.09273 51.119 3.63665 51.1199 3.18052C51.12 2.96291 51.1192 2.7453 51.1175 2.5277C51.1155 2.22466 51.1172 1.92185 51.1198 1.61881C51.1185 1.52963 51.1171 1.44045 51.1157 1.34857C51.1239 0.887482 51.1761 0.679316 51.4654 0.313025C51.8372 0.0292055 52.0279 0.00743434 52.4915 0.0104975Z" fill="#03C5B5"/>
    <path d="M1.37685 0.0103496C1.52383 0.010648 1.67082 0.0109465 1.82225 0.011254C1.9749 0.0145368 2.12756 0.0178196 2.28483 0.0212019C2.43748 0.0209035 2.59014 0.020605 2.74741 0.0202975C4.01882 0.0332051 4.01882 0.0332051 4.54212 0.426355C4.72209 0.737454 4.72209 0.737454 4.87493 1.1209C4.90361 1.19163 4.93228 1.26236 4.96183 1.33523C5.23031 2.00638 5.47489 2.6871 5.72065 3.36682C5.98656 4.09749 6.27684 4.81619 6.57513 5.53417C6.92928 6.38697 7.2566 7.24328 7.55659 8.11651C7.72571 8.60637 7.91378 9.07763 8.13199 9.54726C8.46101 10.282 8.72783 11.0453 9.00832 11.7996C9.03923 11.8825 9.07013 11.9655 9.10198 12.051C9.16219 12.2128 9.22216 12.3748 9.28183 12.5369C9.42032 12.9097 9.56295 13.272 9.75125 13.6228C9.94225 13.6228 10.1333 13.6228 10.33 13.6228C11.2542 11.325 11.2542 11.325 12.07 8.98746C12.2026 8.58299 12.3579 8.1918 12.5195 7.79823C13.0079 6.59143 13.4377 5.36269 13.8639 4.13293C14.064 3.55802 14.275 2.99096 14.5096 2.42906C14.637 2.10117 14.7395 1.76768 14.8446 1.432C15.0056 0.938975 15.1585 0.562791 15.5392 0.194839C16.0348 -0.0529619 16.69 0.0480499 17.2401 0.044913C17.4833 0.0429236 17.7263 0.0378437 17.9694 0.0327325C18.1247 0.0315599 18.2801 0.0305742 18.4354 0.0297933C18.6469 0.0272612 18.6469 0.0272612 18.8626 0.024678C19.3164 0.0894993 19.504 0.217495 19.8222 0.542112C20.0595 1.26824 19.8195 1.76896 19.5256 2.43041C19.4386 2.63594 19.3521 2.84169 19.2661 3.04764C19.2012 3.20267 19.2012 3.20267 19.135 3.36083C18.9496 3.82292 18.7948 4.29329 18.6429 4.76728C18.4185 5.46216 18.1679 6.13377 17.8783 6.8048C17.6712 7.30217 17.4976 7.81037 17.3194 8.31869C17.1453 8.80839 16.9532 9.29063 16.7619 9.7738C16.4464 10.5725 16.1669 11.3782 15.9017 12.1948C15.7027 12.8013 15.4705 13.3854 15.2168 13.9714C15.0546 14.3704 14.9192 14.7759 14.7867 15.1855C14.5746 15.8412 14.333 16.4772 14.0587 17.1095C13.8842 17.5244 13.7293 17.9474 13.5713 18.3688C11.2411 18.3688 8.91085 18.3688 6.51002 18.3688C6.22351 17.5666 6.22351 17.5666 5.93122 16.7482C5.779 16.3612 5.62511 15.9756 5.46819 15.5906C4.94644 14.2819 4.43322 12.9725 3.9752 11.6401C3.74699 10.9841 3.47575 10.354 3.19598 9.71819C2.99925 9.24906 2.84383 8.77205 2.68863 8.28794C2.5321 7.82638 2.34073 7.38243 2.15008 6.93412C1.885 6.29545 1.64839 5.6461 1.40805 4.99783C1.19027 4.41167 0.970499 3.82625 0.751033 3.24072C0.706006 3.12034 0.660979 2.99995 0.614588 2.87592C0.550516 2.70486 0.550516 2.70486 0.485151 2.53034C0.447137 2.42877 0.409123 2.3272 0.369958 2.22255C0.293821 2.02253 0.214423 1.82373 0.132336 1.62607C-0.00369367 1.27085 -0.0275148 1.03541 0.0275431 0.65787C0.446612 0.131807 0.709617 0.00626071 1.37685 0.0103496Z" fill="#03C5B5"/>
    <path d="M41.4036 0.0022609C41.5453 0.0015148 41.6871 0.000768704 41.8332 0C42.0539 0.00335743 42.0539 0.00335743 42.279 0.00678269C42.4261 0.0045444 42.5733 0.00230611 42.7249 0C42.9375 0.00111914 42.9375 0.00111914 43.1544 0.0022609C43.2835 0.00291373 43.4126 0.00356656 43.5456 0.00423918C44.0229 0.105211 44.1762 0.278046 44.4784 0.657921C44.5338 0.983885 44.5541 1.23934 44.5474 1.56414C44.5481 1.69838 44.5481 1.69838 44.5488 1.83533C44.5495 2.02911 44.5488 2.2229 44.5469 2.41667C44.544 2.72443 44.5445 3.03202 44.546 3.33979C44.5484 3.99412 44.5461 4.64839 44.5435 5.30271C44.5411 6.05898 44.5406 6.8152 44.5436 7.57148C44.544 7.8728 44.5415 8.17401 44.5389 8.47531C44.536 10.0741 44.8458 11.3619 45.9575 12.5737C46.9037 13.4715 47.8184 13.7253 49.1088 13.8543C49.1088 15.3441 49.1088 16.8339 49.1088 18.3689C47.3544 18.3689 47.3544 18.3689 46.62 18.1301C46.5373 18.1044 46.4547 18.0786 46.3696 18.052C45.08 17.6295 43.9853 16.952 42.9736 16.0537C42.8545 15.951 42.8545 15.951 42.733 15.8462C42.003 15.1722 41.5108 14.3533 41.0057 13.507C40.9302 13.3857 40.9302 13.3857 40.8533 13.262C40.0111 11.7757 40.0084 10.0191 40.014 8.36532C40.0134 8.14356 40.0127 7.9218 40.0119 7.70004C40.0107 7.2394 40.0112 6.7788 40.0129 6.31816C40.0149 5.72831 40.0121 5.13859 40.0081 4.54876C40.0055 4.09264 40.0057 3.63655 40.0067 3.18042C40.0067 2.96282 40.006 2.7452 40.0042 2.5276C40.0022 2.22456 40.0039 1.92175 40.0065 1.61872C40.0052 1.52954 40.0038 1.44036 40.0024 1.34847C40.0106 0.887904 40.0628 0.679248 40.3514 0.313157C40.7287 0.0255519 40.9329 0.00464171 41.4036 0.0022609Z" fill="#02C5B5"/>
    <path d="M75.1549 0.194797C75.3945 0.433548 75.3945 0.433548 75.6324 0.773587C75.6756 0.834226 75.7188 0.894865 75.7633 0.957341C75.91 1.1647 76.0535 1.37408 76.1967 1.58389C76.3108 1.74941 76.4249 1.91491 76.539 2.08039C76.7101 2.32882 76.8808 2.57751 77.0498 2.82739C77.3489 3.26898 77.3489 3.26898 77.7016 3.66753C77.7423 3.60758 77.783 3.54762 77.825 3.48584C78.5788 2.37735 79.3323 1.27058 80.1325 0.194797C80.7856 0.222011 81.1637 0.41556 81.6948 0.789413C81.8689 1.0051 81.8689 1.0051 81.9412 1.30671C81.83 1.91056 81.4825 2.32533 81.1237 2.81382C80.9833 3.00782 80.8436 3.20224 80.7045 3.39713C80.6421 3.48243 80.5796 3.56773 80.5153 3.65561C80.3653 3.89691 80.2879 4.08163 80.2482 4.36208C80.4586 4.57249 80.7889 4.49793 81.0721 4.50226C81.2886 4.50718 81.2886 4.50718 81.5094 4.51221C81.8156 4.51822 82.1219 4.52335 82.4282 4.52758C82.6451 4.53295 82.6451 4.53295 82.8664 4.53843C82.9996 4.54073 83.1328 4.54302 83.2701 4.54538C83.6052 4.5936 83.6052 4.5936 83.8222 4.74717C84.0369 5.06636 83.9983 5.37376 83.9959 5.75118C83.9973 5.96605 83.9973 5.96605 83.9986 6.18527C83.9525 6.56148 83.9525 6.56148 83.8224 6.75493C83.5053 6.97953 83.248 6.95927 82.8623 6.96799C82.7172 6.9721 82.5721 6.9762 82.4226 6.98043C82.195 6.98434 82.195 6.98434 81.9629 6.98834C81.8083 6.99218 81.6538 6.99617 81.4992 7.00032C81.1208 7.00988 80.7424 7.01788 80.364 7.02451C80.2814 7.23536 80.2814 7.23536 80.2482 7.48755C80.342 7.70083 80.342 7.70083 80.5033 7.89632C80.5595 7.97107 80.6158 8.04583 80.6737 8.12286C80.7339 8.19971 80.794 8.27655 80.856 8.35573C80.9143 8.43258 80.9727 8.50943 81.0328 8.5886C81.2622 8.89035 81.4942 9.18965 81.7309 9.48573C81.8689 9.68695 81.8689 9.68695 81.9629 10.0704C81.8311 10.6685 81.5134 10.8269 81.021 11.1588C80.5051 11.4066 80.5051 11.4066 80.1325 11.3076C79.8688 11.0392 79.6717 10.732 79.4669 10.4177C79.4069 10.3291 79.347 10.2406 79.2852 10.1493C79.1626 9.9681 79.0408 9.78635 78.9197 9.60408C78.6638 9.22034 78.3996 8.84254 78.1356 8.46425C77.9909 8.25451 77.8461 8.04472 77.7016 7.83482C77.3455 8.27092 77.0138 8.72119 76.6887 9.1805C76.6384 9.25073 76.588 9.32096 76.5362 9.39331C76.2926 9.73352 76.0523 10.075 75.82 10.4231C75.7414 10.5383 75.6627 10.6535 75.5817 10.7722C75.5129 10.8757 75.4441 10.9793 75.3733 11.086C75.1549 11.3076 75.1549 11.3076 74.8772 11.3677C74.4853 11.2894 74.2722 11.13 73.9611 10.8807C73.8589 10.8015 73.7567 10.7222 73.6514 10.6406C73.4185 10.3815 73.4185 10.3815 73.3818 10.1101C73.4268 9.73288 73.5467 9.55933 73.773 9.25602C73.8461 9.15552 73.9192 9.05502 73.9946 8.95148C74.0719 8.84799 74.1492 8.74451 74.2288 8.63789C74.3817 8.43228 74.5337 8.22596 74.6846 8.01886C74.7525 7.92797 74.8204 7.83709 74.8903 7.74345C75.0779 7.47016 75.0779 7.47016 75.0391 7.02451C74.9386 7.02222 74.8381 7.01993 74.7346 7.01756C74.3622 7.00853 73.9899 6.99849 73.6176 6.98777C73.4563 6.98334 73.2951 6.97931 73.1338 6.97568C72.9022 6.9704 72.6706 6.96357 72.4391 6.95669C72.2996 6.95305 72.1602 6.94941 72.0166 6.94567C71.6821 6.90876 71.6821 6.90876 71.4506 6.67724C71.4276 6.36363 71.4184 6.06453 71.4217 5.75118C71.4208 5.66582 71.4199 5.58047 71.4189 5.49253C71.4213 4.85444 71.4213 4.85444 71.6821 4.5936C72.0166 4.55669 72.0166 4.55669 72.4391 4.54567C72.5898 4.54119 72.7405 4.53671 72.8958 4.5321C73.0555 4.52846 73.2153 4.52484 73.3751 4.52125C73.5358 4.51683 73.6964 4.51231 73.8571 4.50768C74.2511 4.49674 74.6451 4.48684 75.0391 4.47784C74.9603 3.91434 74.8391 3.60692 74.4893 3.15386C74.4063 3.04388 74.3233 2.93391 74.2378 2.8206C74.0949 2.636 73.9515 2.45169 73.8074 2.26804C73.5941 1.98801 73.431 1.74248 73.3317 1.40302C73.5401 0.725666 74.457 0.076016 75.1549 0.194797Z" fill="#FB5305"/>
    <path d="M24.8013 0.983643C26.7274 -0.0603468 29.3277 -0.310113 31.3979 0.426025C31.5381 0.475234 31.6783 0.524742 31.8228 0.575439C33.8529 1.32139 35.5968 2.611 36.7231 4.47778C36.7747 4.55769 36.8262 4.63764 36.8794 4.71997C37.6096 5.92052 38.0152 7.35474 38.0093 8.74927C38.0093 8.85304 38.0093 8.95681 38.0093 9.06372C38.0092 9.40696 38.0082 9.75076 38.0073 10.094C38.0071 10.332 38.0074 10.5699 38.0073 10.8079C38.0069 11.4343 38.0057 12.0613 38.0044 12.6877C38.0032 13.327 38.003 13.9665 38.0024 14.6057C38.0012 15.8599 37.999 17.1142 37.9966 18.3684H33.4819C33.4247 17.681 33.4242 17.6809 33.3657 16.9797C33.2461 16.8366 33.2463 16.8358 32.9897 16.8293C32.5775 16.8733 32.4166 17.0264 32.1001 17.2903C30.6401 18.3819 29.119 18.5627 27.3462 18.3684C25.0731 17.9986 22.9739 16.7053 21.5728 14.8938C19.9683 12.6403 19.3549 10.1918 19.7759 7.4397C20.2187 5.13562 21.7259 3.03879 23.6196 1.70239C23.9315 1.49969 24.246 1.30665 24.5679 1.12036C24.6448 1.07532 24.722 1.03005 24.8013 0.983643ZM28.6489 4.6731C28.1647 4.6712 27.7215 4.66455 27.2563 4.80884C27.1691 4.85352 27.0842 4.8973 26.9995 4.94067C25.7589 5.54866 24.8002 6.46846 24.3149 7.78052C23.999 9.12309 24.0999 10.4512 24.7993 11.6545C25.4816 12.7846 26.5314 13.521 27.8091 13.8538C29.2659 14.0217 30.6812 13.7911 31.8599 12.8625C32.7547 12.0074 33.4252 10.9821 33.5103 9.73071C33.536 8.20463 33.2492 7.11501 32.2134 5.9729C31.3145 5.12908 30.1587 4.66625 28.9321 4.66724C28.7891 4.67009 28.789 4.6703 28.6489 4.6731Z" fill="#03C5B5"/>
</svg>