<svg width="63" height="20" viewBox="0 0 63 20" fill="none" xmlns="http://www.w3.org/2000/svg">
    <path fill-rule="evenodd" clip-rule="evenodd" d="M15.6674 19.8442H10.244L6.17705 4.32873C5.98401 3.61502 5.57415 2.98406 4.97125 2.68668C3.46666 1.93935 1.80869 1.3446 0 1.04463V0.447286H8.73672C9.94251 0.447286 10.8469 1.3446 10.9976 2.38671L13.1077 13.5785L18.5285 0.447286H23.8012L15.6674 19.8442ZM26.8156 19.8442H21.6936L25.9112 0.447286H31.0332L26.8156 19.8442ZM37.6596 5.82087C37.8103 4.77617 38.7147 4.17882 39.7698 4.17882C41.4277 4.02884 43.2338 4.32881 44.741 5.07355L45.6454 0.897309C44.1381 0.299965 42.4801 0 40.9755 0C36.0043 0 32.3869 2.68676 32.3869 6.41563C32.3869 9.25237 34.9492 10.7418 36.7579 11.6392C38.7147 12.5339 39.4683 13.1312 39.3176 14.026C39.3176 15.368 37.8103 15.9654 36.3057 15.9654C34.497 15.9654 32.6884 15.518 31.033 14.7707L30.1287 18.9495C31.9374 19.6943 33.8941 19.9942 35.7028 19.9942C41.277 20.1416 44.741 17.4574 44.741 13.4286C44.741 8.35506 37.6596 8.05768 37.6596 5.82087ZM62.6667 19.8442L58.5998 0.447286H54.2315C53.3271 0.447286 52.4228 1.04463 52.1213 1.93935L44.5904 19.8442H49.8631L50.9155 17.01H57.394L57.9969 19.8442H62.6667ZM54.985 5.67098L56.4896 12.9813H52.2719L54.985 5.67098Z" fill="#172B85"/>
</svg>