<svg width="20" height="21" viewBox="0 0 20 21" fill="none" xmlns="http://www.w3.org/2000/svg">
<path fill-rule="evenodd" clip-rule="evenodd" d="M10 18.2993C14.4183 18.2993 18 14.7176 18 10.2993C18 5.88104 14.4183 2.29932 10 2.29932C5.58172 2.29932 2 5.88104 2 10.2993C2 14.7176 5.58172 18.2993 10 18.2993ZM13.8566 8.49045C14.1002 8.15546 14.0261 7.68639 13.6911 7.44276C13.3561 7.19914 12.8871 7.2732 12.6434 7.60819L9.15969 12.3983L7.28033 10.519C6.98744 10.2261 6.51256 10.2261 6.21967 10.519C5.92678 10.8119 5.92678 11.2868 6.21967 11.5796L8.71967 14.0796C8.87477 14.2347 9.08999 14.3142 9.30867 14.297C9.52734 14.2799 9.72754 14.1678 9.85655 13.9904L13.8566 8.49045Z" fill="#4AAB4E"/>
</svg>