<svg width="20" height="20" viewBox="0 0 20 20" fill="none" xmlns="http://www.w3.org/2000/svg">
<g clip-path="url(#clip0_591_5262)">
<path d="M7.87297 15.1815H6.72582C6.59827 15.1817 6.47599 15.2324 6.3858 15.3226C6.29561 15.4128 6.24487 15.5351 6.24473 15.6626V16.3336C6.24486 16.4612 6.29559 16.5835 6.38578 16.6737C6.47598 16.7639 6.59827 16.8146 6.72582 16.8148H7.87297C8.00053 16.8146 8.12282 16.7639 8.21302 16.6737C8.30322 16.5835 8.35396 16.4612 8.3541 16.3336V15.6626C8.35395 15.5351 8.30321 15.4128 8.21301 15.3226C8.12281 15.2324 8.00052 15.1817 7.87297 15.1815ZM7.72844 16.1893H6.87031V15.8073H7.72848L7.72844 16.1893ZM13.2743 10.934H12.1272C11.9997 10.934 11.8775 10.9845 11.7873 11.0745C11.6971 11.1645 11.6463 11.2866 11.646 11.4141V12.0859C11.6462 12.2135 11.6969 12.3358 11.7871 12.426C11.8773 12.5162 11.9996 12.5669 12.1272 12.567H13.2743C13.4017 12.5667 13.5238 12.5159 13.6138 12.4257C13.7038 12.3356 13.7543 12.2133 13.7543 12.0859V11.4141C13.7542 11.2868 13.7036 11.1648 13.6136 11.0747C13.5236 10.9847 13.4016 10.9341 13.2743 10.934ZM13.1287 11.9418H12.2716V11.5597H13.1287V11.9418ZM7.32262 10.3074H12.6764C12.8957 10.3073 13.1059 10.2202 13.2611 10.0653C13.4163 9.91032 13.5037 9.70015 13.5041 9.48087V6.35938C13.5038 6.13994 13.4165 5.92956 13.2614 5.77439C13.1062 5.61922 12.8958 5.53193 12.6764 5.53169H7.32262C7.10318 5.53193 6.8928 5.61922 6.73764 5.77439C6.58248 5.92956 6.4952 6.13994 6.49496 6.35938V9.48083C6.49541 9.70009 6.58279 9.91022 6.73794 10.0651C6.8931 10.2201 7.10336 10.3073 7.32262 10.3074ZM7.12059 6.35938C7.12129 6.30601 7.14279 6.25503 7.18053 6.21728C7.21827 6.17954 7.26925 6.15802 7.32262 6.15731H12.6764C12.7299 6.15736 12.7813 6.17867 12.8192 6.21655C12.8571 6.25444 12.8784 6.30581 12.8784 6.35938V9.48083C12.8776 9.53405 12.856 9.58485 12.8183 9.62239C12.7805 9.65993 12.7296 9.68125 12.6764 9.6818H7.32262C7.26939 9.68124 7.21849 9.65992 7.18076 9.62238C7.14302 9.58484 7.12143 9.53405 7.12059 9.48083V6.35938ZM10.5737 10.9341H9.42649C9.29908 10.9341 9.17687 10.9846 9.08666 11.0746C8.99646 11.1646 8.94562 11.2867 8.94531 11.4141V12.0859C8.94547 12.2135 8.99621 12.3358 9.08641 12.426C9.17661 12.5162 9.29889 12.5669 9.42645 12.567H10.5736C10.701 12.5668 10.8231 12.5159 10.9131 12.4258C11.0031 12.3356 11.0536 12.2134 11.0536 12.0859V11.4141C11.0535 11.2868 11.0029 11.1648 10.9129 11.0747C10.8229 10.9847 10.701 10.9342 10.5737 10.9341ZM10.4281 11.9419H9.57098V11.5598H10.428L10.4281 11.9419ZM14.97 4.09587C14.7636 3.87845 14.5153 3.70517 14.24 3.58652C13.9647 3.46788 13.6682 3.40632 13.3684 3.40559H12.9892V0.312507C12.9892 0.229544 12.9563 0.149979 12.8976 0.0913155C12.8389 0.0326518 12.7594 -0.000305176 12.6764 -0.000305176H8.12766C7.8315 0.000170481 7.54761 0.118084 7.33827 0.327576C7.12892 0.537067 7.01121 0.821033 7.01094 1.11719V3.40559H6.63172C6.33163 3.40631 6.03481 3.46796 5.75925 3.58681C5.4837 3.70566 5.23515 3.87923 5.02867 4.097C4.83869 4.29324 4.69115 4.52651 4.59526 4.78227C4.49936 5.03802 4.45716 5.31078 4.47129 5.58356L5.14344 17.857C5.17136 18.4216 5.4034 18.9569 5.79641 19.3632C5.99224 19.5652 6.22672 19.7258 6.48588 19.8352C6.74504 19.9447 7.02359 20.0009 7.30492 20.0005H12.6953C12.9765 20.0008 13.255 19.9446 13.514 19.8352C13.773 19.7257 14.0074 19.5652 14.2031 19.3633C14.5962 18.9569 14.8281 18.4215 14.8555 17.8568L15.5287 5.58356C15.5426 5.31052 15.5002 5.03754 15.4041 4.78161C15.308 4.52567 15.1602 4.29225 14.97 4.09587ZM7.63672 1.11719C7.63672 0.986875 7.6884 0.861874 7.78044 0.769607C7.87247 0.67734 7.99734 0.625338 8.12766 0.625007H12.3636V4.36989H7.63672V1.11719ZM14.9041 5.5493L14.2309 17.8227C14.1827 18.7075 13.5224 19.375 12.6953 19.375H7.30492C6.47801 19.375 5.81731 18.7075 5.76813 17.8226L5.09598 5.54919C5.08689 5.36136 5.11658 5.17367 5.18319 4.99782C5.2498 4.82196 5.35192 4.66171 5.48317 4.52704C5.63106 4.37096 5.80911 4.24654 6.00652 4.16133C6.20393 4.07611 6.41659 4.03187 6.6316 4.0313H7.01082V4.37016H6.74563C6.70426 4.3697 6.6632 4.37745 6.62485 4.39296C6.58649 4.40847 6.5516 4.43144 6.52218 4.46053C6.49276 4.48962 6.46941 4.52426 6.45347 4.56244C6.43753 4.60062 6.42932 4.64158 6.42932 4.68296C6.42932 4.72433 6.43753 4.76529 6.45347 4.80347C6.46941 4.84165 6.49276 4.87629 6.52218 4.90538C6.5516 4.93447 6.58649 4.95744 6.62485 4.97295C6.6632 4.98846 6.70426 4.99621 6.74563 4.99575H13.2533C13.2947 4.99621 13.3357 4.98846 13.3741 4.97295C13.4124 4.95744 13.4473 4.93447 13.4767 4.90538C13.5062 4.87629 13.5295 4.84165 13.5454 4.80347C13.5614 4.76529 13.5696 4.72433 13.5696 4.68296C13.5696 4.64158 13.5614 4.60062 13.5454 4.56244C13.5295 4.52426 13.5062 4.48962 13.4767 4.46053C13.4473 4.43144 13.4124 4.40847 13.3741 4.39296C13.3357 4.37745 13.2947 4.3697 13.2533 4.37016H12.9892V4.03126H13.3684C13.5831 4.03182 13.7956 4.07596 13.9927 4.16101C14.1899 4.24605 14.3678 4.37023 14.5156 4.52602C14.6471 4.66081 14.7495 4.82122 14.8163 4.99726C14.8831 5.1733 14.913 5.36121 14.9041 5.5493ZM13.2743 15.1815H12.1272C11.9996 15.1817 11.8773 15.2324 11.7871 15.3226C11.6969 15.4128 11.6462 15.5351 11.646 15.6626V16.3336C11.6462 16.4612 11.6969 16.5835 11.7871 16.6737C11.8773 16.7639 11.9996 16.8146 12.1272 16.8148H13.2743C13.4017 16.8145 13.5238 16.7636 13.6138 16.6735C13.7038 16.5833 13.7543 16.461 13.7543 16.3336V15.6626C13.7543 15.5352 13.7038 15.413 13.6138 15.3228C13.5238 15.2326 13.4017 15.1818 13.2743 15.1815ZM13.1287 16.1893H12.2716V15.8073H13.1287V16.1893ZM10.5736 15.1815H9.42649C9.29893 15.1817 9.17663 15.2324 9.08642 15.3226C8.99622 15.4128 8.94547 15.5351 8.94531 15.6626V16.3336C8.94546 16.4612 8.9962 16.5835 9.08639 16.6737C9.17659 16.7639 9.29889 16.8146 9.42645 16.8148H10.5736C10.701 16.8145 10.8231 16.7636 10.9131 16.6735C11.0031 16.5833 11.0536 16.461 11.0536 16.3336V15.6626C11.0536 15.5352 11.0031 15.413 10.9131 15.3228C10.8231 15.2326 10.701 15.1818 10.5736 15.1815ZM10.428 16.1893H9.57098V15.8073H10.428V16.1893ZM10.5736 13.0579H9.42649C9.29892 13.0581 9.17662 13.1088 9.08641 13.199C8.9962 13.2892 8.94546 13.4115 8.94531 13.5391V14.2101C8.94547 14.3376 8.99621 14.4599 9.08641 14.5501C9.17661 14.6403 9.29889 14.691 9.42645 14.6912H10.5736C10.701 14.6909 10.8231 14.6401 10.9131 14.5499C11.0031 14.4597 11.0536 14.3375 11.0536 14.2101V13.5391C11.0536 13.4116 11.0031 13.2894 10.9132 13.1992C10.8232 13.1089 10.7011 13.0582 10.5736 13.0579ZM10.428 14.0657H9.57098V13.6837H10.428V14.0657ZM7.87297 13.0579H6.72582C6.59827 13.0581 6.47598 13.1088 6.38578 13.199C6.29559 13.2892 6.24486 13.4115 6.24473 13.5391V14.2101C6.24487 14.3376 6.29561 14.4599 6.3858 14.5501C6.47599 14.6403 6.59827 14.691 6.72582 14.6912H7.87297C8.00052 14.691 8.12281 14.6403 8.21301 14.5501C8.30321 14.4599 8.35395 14.3376 8.3541 14.2101V13.5391C8.354 13.4115 8.30328 13.2891 8.21308 13.1989C8.12288 13.1087 8.00056 13.0581 7.87297 13.0579ZM7.72844 14.0657H6.87031V13.6837H7.72848L7.72844 14.0657ZM13.2743 13.0579H12.1272C11.9996 13.0581 11.8773 13.1088 11.7871 13.199C11.6969 13.2892 11.6462 13.4115 11.646 13.5391V14.2101C11.6462 14.3376 11.6969 14.4599 11.7871 14.5501C11.8773 14.6403 11.9996 14.691 12.1272 14.6912H13.2743C13.4017 14.6909 13.5238 14.6401 13.6138 14.5499C13.7038 14.4597 13.7543 14.3375 13.7543 14.2101V13.5391C13.7544 13.4116 13.7038 13.2894 13.6138 13.1991C13.5239 13.1089 13.4017 13.0582 13.2743 13.0579ZM13.1286 14.0657H12.2716V13.6837H13.1286V14.0657ZM7.87297 10.934H6.72582C6.5984 10.934 6.47619 10.9845 6.386 11.0745C6.2958 11.1645 6.245 11.2867 6.24473 11.4141V12.0859C6.24487 12.2135 6.29561 12.3358 6.3858 12.426C6.47599 12.5162 6.59827 12.5669 6.72582 12.567H7.87297C8.00052 12.5669 8.12281 12.5162 8.21301 12.426C8.30321 12.3358 8.35395 12.2135 8.3541 12.0859V11.4141C8.35382 11.2866 8.30301 11.1645 8.21281 11.0745C8.12261 10.9845 8.00039 10.934 7.87297 10.934ZM7.72844 11.9418H6.87031V11.5597H7.72848L7.72844 11.9418ZM8.29207 2.98438C8.29207 2.9433 8.30016 2.90263 8.31588 2.86467C8.3316 2.82672 8.35465 2.79224 8.38369 2.76319C8.41274 2.73414 8.44722 2.7111 8.48518 2.69538C8.52313 2.67966 8.56381 2.67157 8.60488 2.67157H11.3952C11.4782 2.67157 11.5578 2.70453 11.6164 2.76319C11.6751 2.82185 11.708 2.90142 11.708 2.98438C11.708 3.06735 11.6751 3.14691 11.6164 3.20557C11.5578 3.26424 11.4782 3.29719 11.3952 3.29719H8.60488C8.52192 3.29719 8.44236 3.26424 8.38369 3.20557C8.32503 3.14691 8.29207 3.06735 8.29207 2.98438ZM8.29207 1.6036C8.29207 1.56252 8.30016 1.52184 8.31588 1.48389C8.3316 1.44594 8.35465 1.41146 8.38369 1.38241C8.41274 1.35336 8.44722 1.33032 8.48518 1.3146C8.52313 1.29888 8.56381 1.29079 8.60488 1.29079H11.3952C11.4782 1.29079 11.5578 1.32375 11.6164 1.38241C11.6751 1.44107 11.708 1.52064 11.708 1.6036C11.708 1.68656 11.6751 1.76613 11.6164 1.82479C11.5578 1.88346 11.4782 1.91641 11.3952 1.91641H8.60488C8.5638 1.91641 8.52311 1.90832 8.48515 1.89259C8.44719 1.87686 8.4127 1.85381 8.38365 1.82475C8.3546 1.79569 8.33156 1.76119 8.31585 1.72323C8.30014 1.68526 8.29206 1.64469 8.29207 1.6036Z" fill="#001F5F"/>
</g>
<defs>
<clipPath id="clip0_591_5262">
<rect width="20" height="20" fill="white"/>
</clipPath>
</defs>
</svg>