<svg width="2401" height="661" viewBox="0 0 2401 661" fill="none" xmlns="http://www.w3.org/2000/svg">
<path d="M669.284 372.111C672.21 354.876 674.077 337.205 674.077 319.254C674.077 303.294 672.458 287.645 670.28 272.276H544.548C561.571 255.445 601.345 215.311 641.057 175.707C626.772 145.902 608.13 118.493 586.126 94.6L395.069 285.747C385.888 294.8 380.878 306.062 380.878 319.254C380.878 332.134 385.888 345.045 395.1 354.005L585.504 544.561C607.663 520.698 626.243 493.32 640.621 463.547C603.119 426.369 560.793 388.227 544.548 372.111H669.284Z" fill="#00295B"/>
<path d="M303.069 319.244C303.069 306.053 297.996 294.791 288.66 285.738L97.5092 94.5907C75.4438 118.671 56.8641 145.893 42.5791 175.698C82.3529 215.489 122.22 255.28 139.213 272.298H13.2935C11.1461 287.635 9.52771 303.284 9.52771 319.244C9.52771 337.195 11.4262 354.898 14.196 372.102H139.213C123.091 388.249 80.5167 426.236 43.0148 463.538C57.4865 493.311 75.9729 520.627 98.1939 544.551L288.66 354.027C297.872 345.035 303.069 332.124 303.069 319.244Z" fill="#00295B"/>
<path d="M341.802 358.749C328.856 358.749 316.687 363.758 307.568 372.967L117.258 563.243C141.066 585.332 168.36 604.029 198.175 618.341C237.7 578.798 277.224 539.412 293.999 522.549V647.429C309.591 649.794 325.494 651.318 341.802 651.318C359.604 651.318 376.877 649.452 393.776 646.869V522.549C409.99 538.54 448.083 581.038 485.212 618.341C515.151 604.061 542.289 585.332 566.315 563.243L375.725 373.091C366.7 363.758 354.811 358.749 341.802 358.749Z" fill="#00295B"/>
<path d="M341.802 281.282C355.122 281.282 367.447 275.993 376.565 266.505L567.374 75.9177C542.974 53.3621 515.213 34.3843 484.776 19.7309C456.922 47.6999 415.935 91.5977 393.309 114.153V59.491C393.309 31.8954 369.968 9.68204 341.958 9.68204C313.948 9.68204 293.501 31.522 293.19 58.8065V114.153C267.234 88.4243 224.909 46.0199 198.828 19.7309C168.453 34.3843 140.63 53.3621 116.138 75.9177L307.008 266.722C316.282 275.993 328.607 281.282 341.802 281.282Z" fill="#C60751"/>
<path d="M1105.93 34.4619C1266.61 34.4619 1370.12 147.115 1370.12 300.556C1370.12 387.387 1346.25 452.005 1311.52 488.529L1374.04 543.751L1310.74 604.014L1244.98 545.805C1207.17 567.489 1173.93 581.738 1103.66 581.738C942.29 581.738 837.907 477.08 837.907 307.804C837.907 147.769 935.972 34.4619 1105.93 34.4619ZM1102.88 487.814C1125.22 487.814 1150.09 482.805 1166.21 474.218L1109.82 423.88L1171.66 364.333L1226.49 413.956C1239.6 386.64 1248.12 365.142 1250.37 309.08C1250.37 198.48 1204.83 129.724 1104.34 129.724C1014.87 129.724 957.664 190.111 957.664 307.804C957.664 427.707 1017.92 487.814 1102.88 487.814Z" fill="#00295B"/>
<path d="M1549.53 50.9012L1765.79 406.035V50.9012H1877.12V567.471H1758.2L1537.14 205.897V567.471H1425.26V50.9012H1549.53Z" fill="#00295B"/>
<path d="M2184.48 50.9012C2315.19 50.9012 2374.54 99.7457 2374.54 185.799C2374.54 228.11 2362.81 262.581 2307.26 290.457C2355.96 306.23 2391.47 346.395 2391.47 410.951C2391.47 486.333 2349.02 567.471 2183.76 567.471H1930.25V50.9012H2184.48ZM2043.93 253.061H2180.59C2236.21 253.061 2259.39 235.39 2259.39 197.31C2259.39 161.47 2237.73 143.27 2164.41 143.27H2043.93V253.061ZM2043.93 474.853H2178.26C2240.22 474.853 2270.28 455.502 2270.28 403.111C2270.28 362.977 2243.18 341.355 2181.34 341.355H2043.93V474.853Z" fill="#00295B"/>
</svg>